0
SECTION
2
HEADER
9
$INSUNITS
70
4
9
$ACADVER
1
AC1014
9
$HANDSEED
5
FFFF
0
ENDSEC
0
SECTION
2
TABLES
0
TABLE
2
VPORT
5
8
100
AcDbSymbolTable
0
ENDTAB
0
TABLE
2
LTYPE
5
5
100
AcDbSymbolTable
0
LTYPE
5
14
100
AcDbSymbolTableRecord
100
AcDbLinetypeTableRecord
2
BYBLOCK
70
0
0
LTYPE
5
15
100
AcDbSymbolTableRecord
100
AcDbLinetypeTableRecord
2
BYLAYER
70
0
0
ENDTAB
0
TABLE
2
LAYER
5
2
100
AcDbSymbolTable
70
2
0
LAYER
5
50
100
AcDbSymbolTableRecord
100
AcDbLayerTableRecord
2
0
70
0
6
CONTINUOUS
0
ENDTAB
0
TABLE
2
STYLE
5
3
100
AcDbSymbolTable
70
1
0
STYLE
5
11
100
AcDbSymbolTableRecord
100
AcDbTextStyleTableRecord
2
STANDARD
70
0
0
ENDTAB
0
TABLE
2
VIEW
5
6
100
AcDbSymbolTable
70
0
0
ENDTAB
0
TABLE
2
UCS
5
7
100
AcDbSymbolTable
70
0
0
ENDTAB
0
TABLE
2
APPID
5
9
100
AcDbSymbolTable
70
2
0
APPID
5
12
100
AcDbSymbolTableRecord
100
AcDbRegAppTableRecord
2
ACAD
70
0
0
ENDTAB
0
TABLE
2
DIMSTYLE
5
A
100
AcDbSymbolTable
70
1
0
ENDTAB
0
TABLE
2
BLOCK_RECORD
5
1
100
AcDbSymbolTable
70
1
0
BLOCK_RECORD
5
1F
100
AcDbSymbolTableRecord
100
AcDbBlockTableRecord
2
*MODEL_SPACE
0
BLOCK_RECORD
5
1B
100
AcDbSymbolTableRecord
100
AcDbBlockTableRecord
2
*PAPER_SPACE
0
ENDTAB
0
ENDSEC
0
SECTION
2
BLOCKS
0
BLOCK
5
20
100
AcDbEntity
100
AcDbBlockBegin
2
*MODEL_SPACE
0
ENDBLK
5
21
100
AcDbEntity
100
AcDbBlockEnd
0
BLOCK
5
1C
100
AcDbEntity
100
AcDbBlockBegin
2
*PAPER_SPACE
0
ENDBLK
5
1D
100
AcDbEntity
100
AcDbBlockEnd
0
ENDSEC
0
SECTION
2
ENTITIES
0
LWPOLYLINE
5
100
100
AcDbEntity
8
0
100
AcDbPolyline
90
14
70
1
43
0.0
10
431.628598360034
20
-33.338521429046608
10
431.62859836004083
20
433.33333333333366
10
431.62859836004083
20
453.1666666666664
10
396.62859836004094
20
453.16666666666691
10
396.62859836004077
20
420.6666666666664
10
234.99555315969164
20
420.66666666666669
10
234.9955531596915
20
453.16666666666663
10
164.9955531596915
20
453.16666666666674
10
164.99555315969164
20
420.66666666666578
10
1.6622198263580159
20
420.66666666666697
10
1.662219826358311
20
453.16666666666697
10
-33.33778017364169
20
453.16666666666731
10
-33.337780173641676
20
429.99481190428702
10
-33.337780173641747
20
-33.338521429046352
0
LINE
5
101
100
AcDbEntity
8
0
100
AcDbLine
10
199.99555315969164
20
-57.724443431432618
30
0
11
199.99555315969161
21
457.72444343143269
31
0
0
LINE
5
102
100
AcDbEntity
8
0
100
AcDbLine
10
-33.333333333333279
20
200.00000000000003
30
0
11
431.62523826561664
21
200.00000000000003
31
0
0
CIRCLE
5
103
100
AcDbEntity
8
0
100
AcDbCircle
10
-11.337780173641674
20
441.77777800000001
30
0
40
5
210
0
220
0
230
1
0
LWPOLYLINE
5
104
100
AcDbEntity
8
0
100
AcDbPolyline
90
4
70
1
43
0.0
10
421.6622198263583
20
6.0000000000000009
10
-21.671113506975068
20
6.0000000000000009
10
-21.671113506975104
20
-6.0000000000000009
10
421.6622198263583
20
-6.0000000000000009
0
LWPOLYLINE
5
105
100
AcDbEntity
8
0
100
AcDbPolyline
90
4
70
1
43
0.0
10
421.6622198263583
20
39.333333333333343
10
-21.671113506975068
20
39.333333333333343
10
-21.671113506975104
20
27.333333333333339
10
421.6622198263583
20
27.333333333333339
0
LWPOLYLINE
5
106
100
AcDbEntity
8
0
100
AcDbPolyline
90
4
70
1
43
0.0
10
421.6622198263583
20
72.666666666666671
10
-21.671113506975068
20
72.666666666666671
10
-21.671113506975104
20
60.666666666666686
10
421.6622198263583
20
60.666666666666686
0
LWPOLYLINE
5
107
100
AcDbEntity
8
0
100
AcDbPolyline
90
4
70
1
43
0.0
10
421.6622198263583
20
106.00000000000001
10
-21.671113506975068
20
106.00000000000001
10
-21.671113506975104
20
94.000000000000028
10
421.6622198263583
20
94.000000000000028
0
LWPOLYLINE
5
108
100
AcDbEntity
8
0
100
AcDbPolyline
90
4
70
1
43
0.0
10
421.6622198263583
20
139.33333333333334
10
-21.671113506975068
20
139.33333333333334
10
-21.671113506975104
20
127.33333333333336
10
421.6622198263583
20
127.33333333333336
0
LWPOLYLINE
5
109
100
AcDbEntity
8
0
100
AcDbPolyline
90
4
70
1
43
0.0
10
421.6622198263583
20
172.66666666666674
10
-21.671113506975068
20
172.66666666666674
10
-21.671113506975104
20
160.66666666666669
10
421.6622198263583
20
160.66666666666669
0
LWPOLYLINE
5
110
100
AcDbEntity
8
0
100
AcDbPolyline
90
4
70
1
43
0.0
10
421.6622198263583
20
206.00000000000006
10
-21.671113506975068
20
206.00000000000006
10
-21.671113506975104
20
194.00000000000003
10
421.6622198263583
20
194.00000000000003
0
LWPOLYLINE
5
111
100
AcDbEntity
8
0
100
AcDbPolyline
90
4
70
1
43
0.0
10
421.6622198263583
20
239.33333333333337
10
-21.671113506975068
20
239.33333333333337
10
-21.671113506975104
20
227.33333333333334
10
421.6622198263583
20
227.33333333333334
0
LWPOLYLINE
5
112
100
AcDbEntity
8
0
100
AcDbPolyline
90
4
70
1
43
0.0
10
421.6622198263583
20
272.66666666666674
10
-21.671113506975068
20
272.66666666666674
10
-21.671113506975104
20
260.66666666666669
10
421.6622198263583
20
260.66666666666669
0
LWPOLYLINE
5
113
100
AcDbEntity
8
0
100
AcDbPolyline
90
4
70
1
43
0.0
10
421.6622198263583
20
306.00000000000011
10
-21.671113506975068
20
306.00000000000011
10
-21.671113506975104
20
294.00000000000006
10
421.6622198263583
20
294.00000000000006
0
LWPOLYLINE
5
114
100
AcDbEntity
8
0
100
AcDbPolyline
90
4
70
1
43
0.0
10
421.6622198263583
20
339.33333333333343
10
-21.671113506975068
20
339.33333333333343
10
-21.671113506975104
20
327.33333333333343
10
421.6622198263583
20
327.33333333333343
0
LWPOLYLINE
5
115
100
AcDbEntity
8
0
100
AcDbPolyline
90
4
70
1
43
0.0
10
421.6622198263583
20
372.66666666666674
10
-21.671113506975068
20
372.66666666666674
10
-21.671113506975104
20
360.66666666666669
10
421.6622198263583
20
360.66666666666669
0
LWPOLYLINE
5
116
100
AcDbEntity
8
0
100
AcDbPolyline
90
4
70
1
43
0.0
10
421.6622198263583
20
406.00000000000011
10
-21.671113506975068
20
406.00000000000011
10
-21.671113506975104
20
394.00000000000006
10
421.6622198263583
20
394.00000000000006
0
CIRCLE
5
117
100
AcDbEntity
8
0
100
AcDbCircle
10
199.99555315969161
20
427.77777800000001
30
0
40
2
210
0
220
0
230
1
0
LINE
5
118
100
AcDbEntity
8
0
100
AcDbLine
10
197.99555315969155
20
427.77777800000013
30
0
11
201.99555315969167
21
427.77777800000001
31
0
0
CIRCLE
5
119
100
AcDbEntity
8
0
100
AcDbCircle
10
197.99555315969155
20
427.77777800000013
30
0
40
1
210
0
220
0
230
1
0
CIRCLE
5
120
100
AcDbEntity
8
0
100
AcDbCircle
10
201.99555315969167
20
427.77777800000013
30
0
40
1
210
0
220
0
230
1
0
LWPOLYLINE
5
121
100
AcDbEntity
8
0
100
AcDbPolyline
90
4
70
1
43
0.0
10
5
20
5
10
-5
20
5
10
-5
20
-4.9999999999999991
10
5
20
-5
0
LWPOLYLINE
5
122
100
AcDbEntity
8
0
100
AcDbPolyline
90
4
70
1
43
0.0
10
38.333333333333343
20
5
10
28.333333333333339
20
5
10
28.333333333333339
20
-4.9999999999999991
10
38.333333333333343
20
-5
0
LWPOLYLINE
5
123
100
AcDbEntity
8
0
100
AcDbPolyline
90
4
70
1
43
0.0
10
71.666666666666686
20
5
10
61.666666666666679
20
5
10
61.666666666666679
20
-4.9999999999999991
10
71.666666666666686
20
-5
0
LWPOLYLINE
5
124
100
AcDbEntity
8
0
100
AcDbPolyline
90
4
70
1
43
0.0
10
105.00000000000001
20
5
10
95.000000000000014
20
5
10
95.000000000000014
20
-4.9999999999999991
10
105.00000000000001
20
-5
0
LWPOLYLINE
5
125
100
AcDbEntity
8
0
100
AcDbPolyline
90
4
70
1
43
0.0
10
138.33333333333337
20
5
10
128.33333333333337
20
5
10
128.33333333333337
20
-4.9999999999999991
10
138.33333333333337
20
-5
0
LWPOLYLINE
5
126
100
AcDbEntity
8
0
100
AcDbPolyline
90
4
70
1
43
0.0
10
171.66666666666671
20
5
10
161.66666666666671
20
5
10
161.66666666666671
20
-4.9999999999999991
10
171.66666666666671
20
-5
0
LWPOLYLINE
5
127
100
AcDbEntity
8
0
100
AcDbPolyline
90
4
70
1
43
0.0
10
205.00000000000003
20
5
10
195.00000000000003
20
5
10
195.00000000000003
20
-4.9999999999999991
10
205.00000000000003
20
-5
0
LWPOLYLINE
5
128
100
AcDbEntity
8
0
100
AcDbPolyline
90
4
70
1
43
0.0
10
238.33333333333337
20
5
10
228.33333333333337
20
5
10
228.33333333333337
20
-4.9999999999999991
10
238.33333333333337
20
-5
0
LWPOLYLINE
5
129
100
AcDbEntity
8
0
100
AcDbPolyline
90
4
70
1
43
0.0
10
271.66666666666674
20
5
10
261.66666666666674
20
5
10
261.66666666666674
20
-4.9999999999999991
10
271.66666666666674
20
-5
0
LWPOLYLINE
5
130
100
AcDbEntity
8
0
100
AcDbPolyline
90
4
70
1
43
0.0
10
305.00000000000006
20
5
10
295.00000000000006
20
5
10
295.00000000000006
20
-4.9999999999999991
10
305.00000000000006
20
-5
0
LWPOLYLINE
5
131
100
AcDbEntity
8
0
100
AcDbPolyline
90
4
70
1
43
0.0
10
338.33333333333343
20
5
10
328.33333333333343
20
5
10
328.33333333333343
20
-4.9999999999999991
10
338.33333333333343
20
-5
0
LWPOLYLINE
5
132
100
AcDbEntity
8
0
100
AcDbPolyline
90
4
70
1
43
0.0
10
371.66666666666674
20
5
10
361.66666666666674
20
5
10
361.66666666666674
20
-4.9999999999999991
10
371.66666666666674
20
-5
0
LWPOLYLINE
5
133
100
AcDbEntity
8
0
100
AcDbPolyline
90
4
70
1
43
0.0
10
405.00000000000006
20
5
10
395.00000000000006
20
5
10
395.00000000000006
20
-4.9999999999999991
10
405.00000000000006
20
-5
0
LWPOLYLINE
5
134
100
AcDbEntity
8
0
100
AcDbPolyline
90
4
70
1
43
0.0
10
5
20
38.333333333333343
10
-5
20
38.333333333333343
10
-5
20
28.333333333333339
10
5
20
28.333333333333339
0
LWPOLYLINE
5
135
100
AcDbEntity
8
0
100
AcDbPolyline
90
4
70
1
43
0.0
10
38.333333333333343
20
38.333333333333343
10
28.333333333333339
20
38.333333333333343
10
28.333333333333339
20
28.333333333333339
10
38.333333333333343
20
28.333333333333339
0
LWPOLYLINE
5
136
100
AcDbEntity
8
0
100
AcDbPolyline
90
4
70
1
43
0.0
10
71.666666666666686
20
38.333333333333343
10
61.666666666666679
20
38.333333333333343
10
61.666666666666679
20
28.333333333333339
10
71.666666666666686
20
28.333333333333339
0
LWPOLYLINE
5
137
100
AcDbEntity
8
0
100
AcDbPolyline
90
4
70
1
43
0.0
10
105.00000000000001
20
38.333333333333343
10
95.000000000000014
20
38.333333333333343
10
95.000000000000014
20
28.333333333333339
10
105.00000000000001
20
28.333333333333339
0
LWPOLYLINE
5
138
100
AcDbEntity
8
0
100
AcDbPolyline
90
4
70
1
43
0.0
10
138.33333333333337
20
38.333333333333343
10
128.33333333333337
20
38.333333333333343
10
128.33333333333337
20
28.333333333333339
10
138.33333333333337
20
28.333333333333339
0
LWPOLYLINE
5
139
100
AcDbEntity
8
0
100
AcDbPolyline
90
4
70
1
43
0.0
10
171.66666666666671
20
38.333333333333343
10
161.66666666666671
20
38.333333333333343
10
161.66666666666671
20
28.333333333333339
10
171.66666666666671
20
28.333333333333339
0
LWPOLYLINE
5
140
100
AcDbEntity
8
0
100
AcDbPolyline
90
4
70
1
43
0.0
10
205.00000000000003
20
38.333333333333343
10
195.00000000000003
20
38.333333333333343
10
195.00000000000003
20
28.333333333333339
10
205.00000000000003
20
28.333333333333339
0
LWPOLYLINE
5
141
100
AcDbEntity
8
0
100
AcDbPolyline
90
4
70
1
43
0.0
10
238.33333333333337
20
38.333333333333343
10
228.33333333333337
20
38.333333333333343
10
228.33333333333337
20
28.333333333333339
10
238.33333333333337
20
28.333333333333339
0
LWPOLYLINE
5
142
100
AcDbEntity
8
0
100
AcDbPolyline
90
4
70
1
43
0.0
10
271.66666666666674
20
38.333333333333343
10
261.66666666666674
20
38.333333333333343
10
261.66666666666674
20
28.333333333333339
10
271.66666666666674
20
28.333333333333339
0
LWPOLYLINE
5
143
100
AcDbEntity
8
0
100
AcDbPolyline
90
4
70
1
43
0.0
10
305.00000000000006
20
38.333333333333343
10
295.00000000000006
20
38.333333333333343
10
295.00000000000006
20
28.333333333333339
10
305.00000000000006
20
28.333333333333339
0
LWPOLYLINE
5
144
100
AcDbEntity
8
0
100
AcDbPolyline
90
4
70
1
43
0.0
10
338.33333333333343
20
38.333333333333343
10
328.33333333333343
20
38.333333333333343
10
328.33333333333343
20
28.333333333333339
10
338.33333333333343
20
28.333333333333339
0
LWPOLYLINE
5
145
100
AcDbEntity
8
0
100
AcDbPolyline
90
4
70
1
43
0.0
10
371.66666666666674
20
38.333333333333343
10
361.66666666666674
20
38.333333333333343
10
361.66666666666674
20
28.333333333333339
10
371.66666666666674
20
28.333333333333339
0
LWPOLYLINE
5
146
100
AcDbEntity
8
0
100
AcDbPolyline
90
4
70
1
43
0.0
10
405.00000000000006
20
38.333333333333343
10
395.00000000000006
20
38.333333333333343
10
395.00000000000006
20
28.333333333333339
10
405.00000000000006
20
28.333333333333339
0
LWPOLYLINE
5
147
100
AcDbEntity
8
0
100
AcDbPolyline
90
4
70
1
43
0.0
10
5
20
71.666666666666686
10
-5
20
71.666666666666686
10
-5
20
61.666666666666679
10
5
20
61.666666666666679
0
LWPOLYLINE
5
148
100
AcDbEntity
8
0
100
AcDbPolyline
90
4
70
1
43
0.0
10
38.333333333333343
20
71.666666666666686
10
28.333333333333339
20
71.666666666666686
10
28.333333333333339
20
61.666666666666679
10
38.333333333333343
20
61.666666666666679
0
LWPOLYLINE
5
149
100
AcDbEntity
8
0
100
AcDbPolyline
90
4
70
1
43
0.0
10
71.666666666666686
20
71.666666666666686
10
61.666666666666679
20
71.666666666666686
10
61.666666666666679
20
61.666666666666679
10
71.666666666666686
20
61.666666666666679
0
LWPOLYLINE
5
150
100
AcDbEntity
8
0
100
AcDbPolyline
90
4
70
1
43
0.0
10
105.00000000000001
20
71.666666666666686
10
95.000000000000014
20
71.666666666666686
10
95.000000000000014
20
61.666666666666679
10
105.00000000000001
20
61.666666666666679
0
LWPOLYLINE
5
151
100
AcDbEntity
8
0
100
AcDbPolyline
90
4
70
1
43
0.0
10
138.33333333333337
20
71.666666666666686
10
128.33333333333337
20
71.666666666666686
10
128.33333333333337
20
61.666666666666679
10
138.33333333333337
20
61.666666666666679
0
LWPOLYLINE
5
152
100
AcDbEntity
8
0
100
AcDbPolyline
90
4
70
1
43
0.0
10
171.66666666666671
20
71.666666666666686
10
161.66666666666671
20
71.666666666666686
10
161.66666666666671
20
61.666666666666679
10
171.66666666666671
20
61.666666666666679
0
LWPOLYLINE
5
153
100
AcDbEntity
8
0
100
AcDbPolyline
90
4
70
1
43
0.0
10
205.00000000000003
20
71.666666666666686
10
195.00000000000003
20
71.666666666666686
10
195.00000000000003
20
61.666666666666679
10
205.00000000000003
20
61.666666666666679
0
LWPOLYLINE
5
154
100
AcDbEntity
8
0
100
AcDbPolyline
90
4
70
1
43
0.0
10
238.33333333333337
20
71.666666666666686
10
228.33333333333337
20
71.666666666666686
10
228.33333333333337
20
61.666666666666679
10
238.33333333333337
20
61.666666666666679
0
LWPOLYLINE
5
155
100
AcDbEntity
8
0
100
AcDbPolyline
90
4
70
1
43
0.0
10
271.66666666666674
20
71.666666666666686
10
261.66666666666674
20
71.666666666666686
10
261.66666666666674
20
61.666666666666679
10
271.66666666666674
20
61.666666666666679
0
LWPOLYLINE
5
156
100
AcDbEntity
8
0
100
AcDbPolyline
90
4
70
1
43
0.0
10
305.00000000000006
20
71.666666666666686
10
295.00000000000006
20
71.666666666666686
10
295.00000000000006
20
61.666666666666679
10
305.00000000000006
20
61.666666666666679
0
LWPOLYLINE
5
157
100
AcDbEntity
8
0
100
AcDbPolyline
90
4
70
1
43
0.0
10
338.33333333333343
20
71.666666666666686
10
328.33333333333343
20
71.666666666666686
10
328.33333333333343
20
61.666666666666679
10
338.33333333333343
20
61.666666666666679
0
LWPOLYLINE
5
158
100
AcDbEntity
8
0
100
AcDbPolyline
90
4
70
1
43
0.0
10
371.66666666666674
20
71.666666666666686
10
361.66666666666674
20
71.666666666666686
10
361.66666666666674
20
61.666666666666679
10
371.66666666666674
20
61.666666666666679
0
LWPOLYLINE
5
159
100
AcDbEntity
8
0
100
AcDbPolyline
90
4
70
1
43
0.0
10
405.00000000000006
20
71.666666666666686
10
395.00000000000006
20
71.666666666666686
10
395.00000000000006
20
61.666666666666679
10
405.00000000000006
20
61.666666666666679
0
LWPOLYLINE
5
160
100
AcDbEntity
8
0
100
AcDbPolyline
90
4
70
1
43
0.0
10
5
20
105.00000000000001
10
-5
20
105.00000000000001
10
-5
20
95.000000000000014
10
5
20
95.000000000000014
0
LWPOLYLINE
5
161
100
AcDbEntity
8
0
100
AcDbPolyline
90
4
70
1
43
0.0
10
38.333333333333343
20
105.00000000000001
10
28.333333333333339
20
105.00000000000001
10
28.333333333333339
20
95.000000000000014
10
38.333333333333343
20
95.000000000000014
0
LWPOLYLINE
5
162
100
AcDbEntity
8
0
100
AcDbPolyline
90
4
70
1
43
0.0
10
71.666666666666686
20
105.00000000000001
10
61.666666666666679
20
105.00000000000001
10
61.666666666666679
20
95.000000000000014
10
71.666666666666686
20
95.000000000000014
0
LWPOLYLINE
5
163
100
AcDbEntity
8
0
100
AcDbPolyline
90
4
70
1
43
0.0
10
105.00000000000001
20
105.00000000000001
10
95.000000000000014
20
105.00000000000001
10
95.000000000000014
20
95.000000000000014
10
105.00000000000001
20
95.000000000000014
0
LWPOLYLINE
5
164
100
AcDbEntity
8
0
100
AcDbPolyline
90
4
70
1
43
0.0
10
138.33333333333337
20
105.00000000000001
10
128.33333333333337
20
105.00000000000001
10
128.33333333333337
20
95.000000000000014
10
138.33333333333337
20
95.000000000000014
0
LWPOLYLINE
5
165
100
AcDbEntity
8
0
100
AcDbPolyline
90
4
70
1
43
0.0
10
171.66666666666671
20
105.00000000000001
10
161.66666666666671
20
105.00000000000001
10
161.66666666666671
20
95.000000000000014
10
171.66666666666671
20
95.000000000000014
0
LWPOLYLINE
5
166
100
AcDbEntity
8
0
100
AcDbPolyline
90
4
70
1
43
0.0
10
205.00000000000003
20
105.00000000000001
10
195.00000000000003
20
105.00000000000001
10
195.00000000000003
20
95.000000000000014
10
205.00000000000003
20
95.000000000000014
0
LWPOLYLINE
5
167
100
AcDbEntity
8
0
100
AcDbPolyline
90
4
70
1
43
0.0
10
238.33333333333337
20
105.00000000000001
10
228.33333333333337
20
105.00000000000001
10
228.33333333333337
20
95.000000000000014
10
238.33333333333337
20
95.000000000000014
0
LWPOLYLINE
5
168
100
AcDbEntity
8
0
100
AcDbPolyline
90
4
70
1
43
0.0
10
271.66666666666674
20
105.00000000000001
10
261.66666666666674
20
105.00000000000001
10
261.66666666666674
20
95.000000000000014
10
271.66666666666674
20
95.000000000000014
0
LWPOLYLINE
5
169
100
AcDbEntity
8
0
100
AcDbPolyline
90
4
70
1
43
0.0
10
305.00000000000006
20
105.00000000000001
10
295.00000000000006
20
105.00000000000001
10
295.00000000000006
20
95.000000000000014
10
305.00000000000006
20
95.000000000000014
0
LWPOLYLINE
5
170
100
AcDbEntity
8
0
100
AcDbPolyline
90
4
70
1
43
0.0
10
338.33333333333343
20
105.00000000000001
10
328.33333333333343
20
105.00000000000001
10
328.33333333333343
20
95.000000000000014
10
338.33333333333343
20
95.000000000000014
0
LWPOLYLINE
5
171
100
AcDbEntity
8
0
100
AcDbPolyline
90
4
70
1
43
0.0
10
371.66666666666674
20
105.00000000000001
10
361.66666666666674
20
105.00000000000001
10
361.66666666666674
20
95.000000000000014
10
371.66666666666674
20
95.000000000000014
0
LWPOLYLINE
5
172
100
AcDbEntity
8
0
100
AcDbPolyline
90
4
70
1
43
0.0
10
405.00000000000006
20
105.00000000000001
10
395.00000000000006
20
105.00000000000001
10
395.00000000000006
20
95.000000000000014
10
405.00000000000006
20
95.000000000000014
0
LWPOLYLINE
5
173
100
AcDbEntity
8
0
100
AcDbPolyline
90
4
70
1
43
0.0
10
5
20
138.33333333333337
10
-5
20
138.33333333333337
10
-5
20
128.33333333333337
10
5
20
128.33333333333337
0
LWPOLYLINE
5
174
100
AcDbEntity
8
0
100
AcDbPolyline
90
4
70
1
43
0.0
10
38.333333333333343
20
138.33333333333337
10
28.333333333333339
20
138.33333333333337
10
28.333333333333339
20
128.33333333333337
10
38.333333333333343
20
128.33333333333337
0
LWPOLYLINE
5
175
100
AcDbEntity
8
0
100
AcDbPolyline
90
4
70
1
43
0.0
10
71.666666666666686
20
138.33333333333337
10
61.666666666666679
20
138.33333333333337
10
61.666666666666679
20
128.33333333333337
10
71.666666666666686
20
128.33333333333337
0
LWPOLYLINE
5
176
100
AcDbEntity
8
0
100
AcDbPolyline
90
4
70
1
43
0.0
10
105.00000000000001
20
138.33333333333337
10
95.000000000000014
20
138.33333333333337
10
95.000000000000014
20
128.33333333333337
10
105.00000000000001
20
128.33333333333337
0
LWPOLYLINE
5
177
100
AcDbEntity
8
0
100
AcDbPolyline
90
4
70
1
43
0.0
10
138.33333333333337
20
138.33333333333337
10
128.33333333333337
20
138.33333333333337
10
128.33333333333337
20
128.33333333333337
10
138.33333333333337
20
128.33333333333337
0
LWPOLYLINE
5
178
100
AcDbEntity
8
0
100
AcDbPolyline
90
4
70
1
43
0.0
10
171.66666666666671
20
138.33333333333337
10
161.66666666666671
20
138.33333333333337
10
161.66666666666671
20
128.33333333333337
10
171.66666666666671
20
128.33333333333337
0
LWPOLYLINE
5
179
100
AcDbEntity
8
0
100
AcDbPolyline
90
4
70
1
43
0.0
10
205.00000000000003
20
138.33333333333337
10
195.00000000000003
20
138.33333333333337
10
195.00000000000003
20
128.33333333333337
10
205.00000000000003
20
128.33333333333337
0
LWPOLYLINE
5
180
100
AcDbEntity
8
0
100
AcDbPolyline
90
4
70
1
43
0.0
10
238.33333333333337
20
138.33333333333337
10
228.33333333333337
20
138.33333333333337
10
228.33333333333337
20
128.33333333333337
10
238.33333333333337
20
128.33333333333337
0
LWPOLYLINE
5
181
100
AcDbEntity
8
0
100
AcDbPolyline
90
4
70
1
43
0.0
10
271.66666666666674
20
138.33333333333337
10
261.66666666666674
20
138.33333333333337
10
261.66666666666674
20
128.33333333333337
10
271.66666666666674
20
128.33333333333337
0
LWPOLYLINE
5
182
100
AcDbEntity
8
0
100
AcDbPolyline
90
4
70
1
43
0.0
10
305.00000000000006
20
138.33333333333337
10
295.00000000000006
20
138.33333333333337
10
295.00000000000006
20
128.33333333333337
10
305.00000000000006
20
128.33333333333337
0
LWPOLYLINE
5
183
100
AcDbEntity
8
0
100
AcDbPolyline
90
4
70
1
43
0.0
10
338.33333333333343
20
138.33333333333337
10
328.33333333333343
20
138.33333333333337
10
328.33333333333343
20
128.33333333333337
10
338.33333333333343
20
128.33333333333337
0
LWPOLYLINE
5
184
100
AcDbEntity
8
0
100
AcDbPolyline
90
4
70
1
43
0.0
10
371.66666666666674
20
138.33333333333337
10
361.66666666666674
20
138.33333333333337
10
361.66666666666674
20
128.33333333333337
10
371.66666666666674
20
128.33333333333337
0
LWPOLYLINE
5
185
100
AcDbEntity
8
0
100
AcDbPolyline
90
4
70
1
43
0.0
10
405.00000000000006
20
138.33333333333337
10
395.00000000000006
20
138.33333333333337
10
395.00000000000006
20
128.33333333333337
10
405.00000000000006
20
128.33333333333337
0
LWPOLYLINE
5
186
100
AcDbEntity
8
0
100
AcDbPolyline
90
4
70
1
43
0.0
10
5
20
171.66666666666671
10
-5
20
171.66666666666671
10
-5
20
161.66666666666671
10
5
20
161.66666666666671
0
LWPOLYLINE
5
187
100
AcDbEntity
8
0
100
AcDbPolyline
90
4
70
1
43
0.0
10
38.333333333333343
20
171.66666666666671
10
28.333333333333339
20
171.66666666666671
10
28.333333333333339
20
161.66666666666671
10
38.333333333333343
20
161.66666666666671
0
LWPOLYLINE
5
188
100
AcDbEntity
8
0
100
AcDbPolyline
90
4
70
1
43
0.0
10
71.666666666666686
20
171.66666666666671
10
61.666666666666679
20
171.66666666666671
10
61.666666666666679
20
161.66666666666671
10
71.666666666666686
20
161.66666666666671
0
LWPOLYLINE
5
189
100
AcDbEntity
8
0
100
AcDbPolyline
90
4
70
1
43
0.0
10
105.00000000000001
20
171.66666666666671
10
95.000000000000014
20
171.66666666666671
10
95.000000000000014
20
161.66666666666671
10
105.00000000000001
20
161.66666666666671
0
LWPOLYLINE
5
190
100
AcDbEntity
8
0
100
AcDbPolyline
90
4
70
1
43
0.0
10
138.33333333333337
20
171.66666666666671
10
128.33333333333337
20
171.66666666666671
10
128.33333333333337
20
161.66666666666671
10
138.33333333333337
20
161.66666666666671
0
LWPOLYLINE
5
191
100
AcDbEntity
8
0
100
AcDbPolyline
90
4
70
1
43
0.0
10
171.66666666666671
20
171.66666666666671
10
161.66666666666671
20
171.66666666666671
10
161.66666666666671
20
161.66666666666671
10
171.66666666666671
20
161.66666666666671
0
LWPOLYLINE
5
192
100
AcDbEntity
8
0
100
AcDbPolyline
90
4
70
1
43
0.0
10
205.00000000000003
20
171.66666666666671
10
195.00000000000003
20
171.66666666666671
10
195.00000000000003
20
161.66666666666671
10
205.00000000000003
20
161.66666666666671
0
LWPOLYLINE
5
193
100
AcDbEntity
8
0
100
AcDbPolyline
90
4
70
1
43
0.0
10
238.33333333333337
20
171.66666666666671
10
228.33333333333337
20
171.66666666666671
10
228.33333333333337
20
161.66666666666671
10
238.33333333333337
20
161.66666666666671
0
LWPOLYLINE
5
194
100
AcDbEntity
8
0
100
AcDbPolyline
90
4
70
1
43
0.0
10
271.66666666666674
20
171.66666666666671
10
261.66666666666674
20
171.66666666666671
10
261.66666666666674
20
161.66666666666671
10
271.66666666666674
20
161.66666666666671
0
LWPOLYLINE
5
195
100
AcDbEntity
8
0
100
AcDbPolyline
90
4
70
1
43
0.0
10
305.00000000000006
20
171.66666666666671
10
295.00000000000006
20
171.66666666666671
10
295.00000000000006
20
161.66666666666671
10
305.00000000000006
20
161.66666666666671
0
LWPOLYLINE
5
196
100
AcDbEntity
8
0
100
AcDbPolyline
90
4
70
1
43
0.0
10
338.33333333333343
20
171.66666666666671
10
328.33333333333343
20
171.66666666666671
10
328.33333333333343
20
161.66666666666671
10
338.33333333333343
20
161.66666666666671
0
LWPOLYLINE
5
197
100
AcDbEntity
8
0
100
AcDbPolyline
90
4
70
1
43
0.0
10
371.66666666666674
20
171.66666666666671
10
361.66666666666674
20
171.66666666666671
10
361.66666666666674
20
161.66666666666671
10
371.66666666666674
20
161.66666666666671
0
LWPOLYLINE
5
198
100
AcDbEntity
8
0
100
AcDbPolyline
90
4
70
1
43
0.0
10
405.00000000000006
20
171.66666666666671
10
395.00000000000006
20
171.66666666666671
10
395.00000000000006
20
161.66666666666671
10
405.00000000000006
20
161.66666666666671
0
LWPOLYLINE
5
199
100
AcDbEntity
8
0
100
AcDbPolyline
90
4
70
1
43
0.0
10
5
20
205.00000000000003
10
-5
20
205.00000000000003
10
-5
20
195.00000000000003
10
5
20
195.00000000000003
0
LWPOLYLINE
5
200
100
AcDbEntity
8
0
100
AcDbPolyline
90
4
70
1
43
0.0
10
38.333333333333343
20
205.00000000000003
10
28.333333333333339
20
205.00000000000003
10
28.333333333333339
20
195.00000000000003
10
38.333333333333343
20
195.00000000000003
0
LWPOLYLINE
5
201
100
AcDbEntity
8
0
100
AcDbPolyline
90
4
70
1
43
0.0
10
71.666666666666686
20
205.00000000000003
10
61.666666666666679
20
205.00000000000003
10
61.666666666666679
20
195.00000000000003
10
71.666666666666686
20
195.00000000000003
0
LWPOLYLINE
5
202
100
AcDbEntity
8
0
100
AcDbPolyline
90
4
70
1
43
0.0
10
105.00000000000001
20
205.00000000000003
10
95.000000000000014
20
205.00000000000003
10
95.000000000000014
20
195.00000000000003
10
105.00000000000001
20
195.00000000000003
0
LWPOLYLINE
5
203
100
AcDbEntity
8
0
100
AcDbPolyline
90
4
70
1
43
0.0
10
138.33333333333337
20
205.00000000000003
10
128.33333333333337
20
205.00000000000003
10
128.33333333333337
20
195.00000000000003
10
138.33333333333337
20
195.00000000000003
0
LWPOLYLINE
5
204
100
AcDbEntity
8
0
100
AcDbPolyline
90
4
70
1
43
0.0
10
171.66666666666671
20
205.00000000000003
10
161.66666666666671
20
205.00000000000003
10
161.66666666666671
20
195.00000000000003
10
171.66666666666671
20
195.00000000000003
0
LWPOLYLINE
5
205
100
AcDbEntity
8
0
100
AcDbPolyline
90
4
70
1
43
0.0
10
205.00000000000003
20
205.00000000000003
10
195.00000000000003
20
205.00000000000003
10
195.00000000000003
20
195.00000000000003
10
205.00000000000003
20
195.00000000000003
0
LWPOLYLINE
5
206
100
AcDbEntity
8
0
100
AcDbPolyline
90
4
70
1
43
0.0
10
238.33333333333337
20
205.00000000000003
10
228.33333333333337
20
205.00000000000003
10
228.33333333333337
20
195.00000000000003
10
238.33333333333337
20
195.00000000000003
0
LWPOLYLINE
5
207
100
AcDbEntity
8
0
100
AcDbPolyline
90
4
70
1
43
0.0
10
271.66666666666674
20
205.00000000000003
10
261.66666666666674
20
205.00000000000003
10
261.66666666666674
20
195.00000000000003
10
271.66666666666674
20
195.00000000000003
0
LWPOLYLINE
5
208
100
AcDbEntity
8
0
100
AcDbPolyline
90
4
70
1
43
0.0
10
305.00000000000006
20
205.00000000000003
10
295.00000000000006
20
205.00000000000003
10
295.00000000000006
20
195.00000000000003
10
305.00000000000006
20
195.00000000000003
0
LWPOLYLINE
5
209
100
AcDbEntity
8
0
100
AcDbPolyline
90
4
70
1
43
0.0
10
338.33333333333343
20
205.00000000000003
10
328.33333333333343
20
205.00000000000003
10
328.33333333333343
20
195.00000000000003
10
338.33333333333343
20
195.00000000000003
0
LWPOLYLINE
5
210
100
AcDbEntity
8
0
100
AcDbPolyline
90
4
70
1
43
0.0
10
371.66666666666674
20
205.00000000000003
10
361.66666666666674
20
205.00000000000003
10
361.66666666666674
20
195.00000000000003
10
371.66666666666674
20
195.00000000000003
0
LWPOLYLINE
5
211
100
AcDbEntity
8
0
100
AcDbPolyline
90
4
70
1
43
0.0
10
405.00000000000006
20
205.00000000000003
10
395.00000000000006
20
205.00000000000003
10
395.00000000000006
20
195.00000000000003
10
405.00000000000006
20
195.00000000000003
0
LWPOLYLINE
5
212
100
AcDbEntity
8
0
100
AcDbPolyline
90
4
70
1
43
0.0
10
5
20
238.33333333333337
10
-5
20
238.33333333333337
10
-5
20
228.33333333333337
10
5
20
228.33333333333337
0
LWPOLYLINE
5
213
100
AcDbEntity
8
0
100
AcDbPolyline
90
4
70
1
43
0.0
10
38.333333333333343
20
238.33333333333337
10
28.333333333333339
20
238.33333333333337
10
28.333333333333339
20
228.33333333333337
10
38.333333333333343
20
228.33333333333337
0
LWPOLYLINE
5
214
100
AcDbEntity
8
0
100
AcDbPolyline
90
4
70
1
43
0.0
10
71.666666666666686
20
238.33333333333337
10
61.666666666666679
20
238.33333333333337
10
61.666666666666679
20
228.33333333333337
10
71.666666666666686
20
228.33333333333337
0
LWPOLYLINE
5
215
100
AcDbEntity
8
0
100
AcDbPolyline
90
4
70
1
43
0.0
10
105.00000000000001
20
238.33333333333337
10
95.000000000000014
20
238.33333333333337
10
95.000000000000014
20
228.33333333333337
10
105.00000000000001
20
228.33333333333337
0
LWPOLYLINE
5
216
100
AcDbEntity
8
0
100
AcDbPolyline
90
4
70
1
43
0.0
10
138.33333333333337
20
238.33333333333337
10
128.33333333333337
20
238.33333333333337
10
128.33333333333337
20
228.33333333333337
10
138.33333333333337
20
228.33333333333337
0
LWPOLYLINE
5
217
100
AcDbEntity
8
0
100
AcDbPolyline
90
4
70
1
43
0.0
10
171.66666666666671
20
238.33333333333337
10
161.66666666666671
20
238.33333333333337
10
161.66666666666671
20
228.33333333333337
10
171.66666666666671
20
228.33333333333337
0
LWPOLYLINE
5
218
100
AcDbEntity
8
0
100
AcDbPolyline
90
4
70
1
43
0.0
10
205.00000000000003
20
238.33333333333337
10
195.00000000000003
20
238.33333333333337
10
195.00000000000003
20
228.33333333333337
10
205.00000000000003
20
228.33333333333337
0
LWPOLYLINE
5
219
100
AcDbEntity
8
0
100
AcDbPolyline
90
4
70
1
43
0.0
10
238.33333333333337
20
238.33333333333337
10
228.33333333333337
20
238.33333333333337
10
228.33333333333337
20
228.33333333333337
10
238.33333333333337
20
228.33333333333337
0
LWPOLYLINE
5
220
100
AcDbEntity
8
0
100
AcDbPolyline
90
4
70
1
43
0.0
10
271.66666666666674
20
238.33333333333337
10
261.66666666666674
20
238.33333333333337
10
261.66666666666674
20
228.33333333333337
10
271.66666666666674
20
228.33333333333337
0
LWPOLYLINE
5
221
100
AcDbEntity
8
0
100
AcDbPolyline
90
4
70
1
43
0.0
10
305.00000000000006
20
238.33333333333337
10
295.00000000000006
20
238.33333333333337
10
295.00000000000006
20
228.33333333333337
10
305.00000000000006
20
228.33333333333337
0
LWPOLYLINE
5
222
100
AcDbEntity
8
0
100
AcDbPolyline
90
4
70
1
43
0.0
10
338.33333333333343
20
238.33333333333337
10
328.33333333333343
20
238.33333333333337
10
328.33333333333343
20
228.33333333333337
10
338.33333333333343
20
228.33333333333337
0
LWPOLYLINE
5
223
100
AcDbEntity
8
0
100
AcDbPolyline
90
4
70
1
43
0.0
10
371.66666666666674
20
238.33333333333337
10
361.66666666666674
20
238.33333333333337
10
361.66666666666674
20
228.33333333333337
10
371.66666666666674
20
228.33333333333337
0
LWPOLYLINE
5
224
100
AcDbEntity
8
0
100
AcDbPolyline
90
4
70
1
43
0.0
10
405.00000000000006
20
238.33333333333337
10
395.00000000000006
20
238.33333333333337
10
395.00000000000006
20
228.33333333333337
10
405.00000000000006
20
228.33333333333337
0
LWPOLYLINE
5
225
100
AcDbEntity
8
0
100
AcDbPolyline
90
4
70
1
43
0.0
10
5
20
271.66666666666674
10
-5
20
271.66666666666674
10
-5
20
261.66666666666674
10
5
20
261.66666666666674
0
LWPOLYLINE
5
226
100
AcDbEntity
8
0
100
AcDbPolyline
90
4
70
1
43
0.0
10
38.333333333333343
20
271.66666666666674
10
28.333333333333339
20
271.66666666666674
10
28.333333333333339
20
261.66666666666674
10
38.333333333333343
20
261.66666666666674
0
LWPOLYLINE
5
227
100
AcDbEntity
8
0
100
AcDbPolyline
90
4
70
1
43
0.0
10
71.666666666666686
20
271.66666666666674
10
61.666666666666679
20
271.66666666666674
10
61.666666666666679
20
261.66666666666674
10
71.666666666666686
20
261.66666666666674
0
LWPOLYLINE
5
228
100
AcDbEntity
8
0
100
AcDbPolyline
90
4
70
1
43
0.0
10
105.00000000000001
20
271.66666666666674
10
95.000000000000014
20
271.66666666666674
10
95.000000000000014
20
261.66666666666674
10
105.00000000000001
20
261.66666666666674
0
LWPOLYLINE
5
229
100
AcDbEntity
8
0
100
AcDbPolyline
90
4
70
1
43
0.0
10
138.33333333333337
20
271.66666666666674
10
128.33333333333337
20
271.66666666666674
10
128.33333333333337
20
261.66666666666674
10
138.33333333333337
20
261.66666666666674
0
LWPOLYLINE
5
230
100
AcDbEntity
8
0
100
AcDbPolyline
90
4
70
1
43
0.0
10
171.66666666666671
20
271.66666666666674
10
161.66666666666671
20
271.66666666666674
10
161.66666666666671
20
261.66666666666674
10
171.66666666666671
20
261.66666666666674
0
LWPOLYLINE
5
231
100
AcDbEntity
8
0
100
AcDbPolyline
90
4
70
1
43
0.0
10
205.00000000000003
20
271.66666666666674
10
195.00000000000003
20
271.66666666666674
10
195.00000000000003
20
261.66666666666674
10
205.00000000000003
20
261.66666666666674
0
LWPOLYLINE
5
232
100
AcDbEntity
8
0
100
AcDbPolyline
90
4
70
1
43
0.0
10
238.33333333333337
20
271.66666666666674
10
228.33333333333337
20
271.66666666666674
10
228.33333333333337
20
261.66666666666674
10
238.33333333333337
20
261.66666666666674
0
LWPOLYLINE
5
233
100
AcDbEntity
8
0
100
AcDbPolyline
90
4
70
1
43
0.0
10
271.66666666666674
20
271.66666666666674
10
261.66666666666674
20
271.66666666666674
10
261.66666666666674
20
261.66666666666674
10
271.66666666666674
20
261.66666666666674
0
LWPOLYLINE
5
234
100
AcDbEntity
8
0
100
AcDbPolyline
90
4
70
1
43
0.0
10
305.00000000000006
20
271.66666666666674
10
295.00000000000006
20
271.66666666666674
10
295.00000000000006
20
261.66666666666674
10
305.00000000000006
20
261.66666666666674
0
LWPOLYLINE
5
235
100
AcDbEntity
8
0
100
AcDbPolyline
90
4
70
1
43
0.0
10
338.33333333333343
20
271.66666666666674
10
328.33333333333343
20
271.66666666666674
10
328.33333333333343
20
261.66666666666674
10
338.33333333333343
20
261.66666666666674
0
LWPOLYLINE
5
236
100
AcDbEntity
8
0
100
AcDbPolyline
90
4
70
1
43
0.0
10
371.66666666666674
20
271.66666666666674
10
361.66666666666674
20
271.66666666666674
10
361.66666666666674
20
261.66666666666674
10
371.66666666666674
20
261.66666666666674
0
LWPOLYLINE
5
237
100
AcDbEntity
8
0
100
AcDbPolyline
90
4
70
1
43
0.0
10
405.00000000000006
20
271.66666666666674
10
395.00000000000006
20
271.66666666666674
10
395.00000000000006
20
261.66666666666674
10
405.00000000000006
20
261.66666666666674
0
LWPOLYLINE
5
238
100
AcDbEntity
8
0
100
AcDbPolyline
90
4
70
1
43
0.0
10
5
20
305.00000000000006
10
-5
20
305.00000000000006
10
-5
20
295.00000000000006
10
5
20
295.00000000000006
0
LWPOLYLINE
5
239
100
AcDbEntity
8
0
100
AcDbPolyline
90
4
70
1
43
0.0
10
38.333333333333343
20
305.00000000000006
10
28.333333333333339
20
305.00000000000006
10
28.333333333333339
20
295.00000000000006
10
38.333333333333343
20
295.00000000000006
0
LWPOLYLINE
5
240
100
AcDbEntity
8
0
100
AcDbPolyline
90
4
70
1
43
0.0
10
71.666666666666686
20
305.00000000000006
10
61.666666666666679
20
305.00000000000006
10
61.666666666666679
20
295.00000000000006
10
71.666666666666686
20
295.00000000000006
0
LWPOLYLINE
5
241
100
AcDbEntity
8
0
100
AcDbPolyline
90
4
70
1
43
0.0
10
105.00000000000001
20
305.00000000000006
10
95.000000000000014
20
305.00000000000006
10
95.000000000000014
20
295.00000000000006
10
105.00000000000001
20
295.00000000000006
0
LWPOLYLINE
5
242
100
AcDbEntity
8
0
100
AcDbPolyline
90
4
70
1
43
0.0
10
138.33333333333337
20
305.00000000000006
10
128.33333333333337
20
305.00000000000006
10
128.33333333333337
20
295.00000000000006
10
138.33333333333337
20
295.00000000000006
0
LWPOLYLINE
5
243
100
AcDbEntity
8
0
100
AcDbPolyline
90
4
70
1
43
0.0
10
171.66666666666671
20
305.00000000000006
10
161.66666666666671
20
305.00000000000006
10
161.66666666666671
20
295.00000000000006
10
171.66666666666671
20
295.00000000000006
0
LWPOLYLINE
5
244
100
AcDbEntity
8
0
100
AcDbPolyline
90
4
70
1
43
0.0
10
205.00000000000003
20
305.00000000000006
10
195.00000000000003
20
305.00000000000006
10
195.00000000000003
20
295.00000000000006
10
205.00000000000003
20
295.00000000000006
0
LWPOLYLINE
5
245
100
AcDbEntity
8
0
100
AcDbPolyline
90
4
70
1
43
0.0
10
238.33333333333337
20
305.00000000000006
10
228.33333333333337
20
305.00000000000006
10
228.33333333333337
20
295.00000000000006
10
238.33333333333337
20
295.00000000000006
0
LWPOLYLINE
5
246
100
AcDbEntity
8
0
100
AcDbPolyline
90
4
70
1
43
0.0
10
271.66666666666674
20
305.00000000000006
10
261.66666666666674
20
305.00000000000006
10
261.66666666666674
20
295.00000000000006
10
271.66666666666674
20
295.00000000000006
0
LWPOLYLINE
5
247
100
AcDbEntity
8
0
100
AcDbPolyline
90
4
70
1
43
0.0
10
305.00000000000006
20
305.00000000000006
10
295.00000000000006
20
305.00000000000006
10
295.00000000000006
20
295.00000000000006
10
305.00000000000006
20
295.00000000000006
0
LWPOLYLINE
5
248
100
AcDbEntity
8
0
100
AcDbPolyline
90
4
70
1
43
0.0
10
338.33333333333343
20
305.00000000000006
10
328.33333333333343
20
305.00000000000006
10
328.33333333333343
20
295.00000000000006
10
338.33333333333343
20
295.00000000000006
0
LWPOLYLINE
5
249
100
AcDbEntity
8
0
100
AcDbPolyline
90
4
70
1
43
0.0
10
371.66666666666674
20
305.00000000000006
10
361.66666666666674
20
305.00000000000006
10
361.66666666666674
20
295.00000000000006
10
371.66666666666674
20
295.00000000000006
0
LWPOLYLINE
5
250
100
AcDbEntity
8
0
100
AcDbPolyline
90
4
70
1
43
0.0
10
405.00000000000006
20
305.00000000000006
10
395.00000000000006
20
305.00000000000006
10
395.00000000000006
20
295.00000000000006
10
405.00000000000006
20
295.00000000000006
0
LWPOLYLINE
5
251
100
AcDbEntity
8
0
100
AcDbPolyline
90
4
70
1
43
0.0
10
5
20
338.33333333333343
10
-5
20
338.33333333333343
10
-5
20
328.33333333333343
10
5
20
328.33333333333343
0
LWPOLYLINE
5
252
100
AcDbEntity
8
0
100
AcDbPolyline
90
4
70
1
43
0.0
10
38.333333333333343
20
338.33333333333343
10
28.333333333333339
20
338.33333333333343
10
28.333333333333339
20
328.33333333333343
10
38.333333333333343
20
328.33333333333343
0
LWPOLYLINE
5
253
100
AcDbEntity
8
0
100
AcDbPolyline
90
4
70
1
43
0.0
10
71.666666666666686
20
338.33333333333343
10
61.666666666666679
20
338.33333333333343
10
61.666666666666679
20
328.33333333333343
10
71.666666666666686
20
328.33333333333343
0
LWPOLYLINE
5
254
100
AcDbEntity
8
0
100
AcDbPolyline
90
4
70
1
43
0.0
10
105.00000000000001
20
338.33333333333343
10
95.000000000000014
20
338.33333333333343
10
95.000000000000014
20
328.33333333333343
10
105.00000000000001
20
328.33333333333343
0
LWPOLYLINE
5
255
100
AcDbEntity
8
0
100
AcDbPolyline
90
4
70
1
43
0.0
10
138.33333333333337
20
338.33333333333343
10
128.33333333333337
20
338.33333333333343
10
128.33333333333337
20
328.33333333333343
10
138.33333333333337
20
328.33333333333343
0
LWPOLYLINE
5
256
100
AcDbEntity
8
0
100
AcDbPolyline
90
4
70
1
43
0.0
10
171.66666666666671
20
338.33333333333343
10
161.66666666666671
20
338.33333333333343
10
161.66666666666671
20
328.33333333333343
10
171.66666666666671
20
328.33333333333343
0
LWPOLYLINE
5
257
100
AcDbEntity
8
0
100
AcDbPolyline
90
4
70
1
43
0.0
10
205.00000000000003
20
338.33333333333343
10
195.00000000000003
20
338.33333333333343
10
195.00000000000003
20
328.33333333333343
10
205.00000000000003
20
328.33333333333343
0
LWPOLYLINE
5
258
100
AcDbEntity
8
0
100
AcDbPolyline
90
4
70
1
43
0.0
10
238.33333333333337
20
338.33333333333343
10
228.33333333333337
20
338.33333333333343
10
228.33333333333337
20
328.33333333333343
10
238.33333333333337
20
328.33333333333343
0
LWPOLYLINE
5
259
100
AcDbEntity
8
0
100
AcDbPolyline
90
4
70
1
43
0.0
10
271.66666666666674
20
338.33333333333343
10
261.66666666666674
20
338.33333333333343
10
261.66666666666674
20
328.33333333333343
10
271.66666666666674
20
328.33333333333343
0
LWPOLYLINE
5
260
100
AcDbEntity
8
0
100
AcDbPolyline
90
4
70
1
43
0.0
10
305.00000000000006
20
338.33333333333343
10
295.00000000000006
20
338.33333333333343
10
295.00000000000006
20
328.33333333333343
10
305.00000000000006
20
328.33333333333343
0
LWPOLYLINE
5
261
100
AcDbEntity
8
0
100
AcDbPolyline
90
4
70
1
43
0.0
10
338.33333333333343
20
338.33333333333343
10
328.33333333333343
20
338.33333333333343
10
328.33333333333343
20
328.33333333333343
10
338.33333333333343
20
328.33333333333343
0
LWPOLYLINE
5
262
100
AcDbEntity
8
0
100
AcDbPolyline
90
4
70
1
43
0.0
10
371.66666666666674
20
338.33333333333343
10
361.66666666666674
20
338.33333333333343
10
361.66666666666674
20
328.33333333333343
10
371.66666666666674
20
328.33333333333343
0
LWPOLYLINE
5
263
100
AcDbEntity
8
0
100
AcDbPolyline
90
4
70
1
43
0.0
10
405.00000000000006
20
338.33333333333343
10
395.00000000000006
20
338.33333333333343
10
395.00000000000006
20
328.33333333333343
10
405.00000000000006
20
328.33333333333343
0
LWPOLYLINE
5
264
100
AcDbEntity
8
0
100
AcDbPolyline
90
4
70
1
43
0.0
10
5
20
371.66666666666674
10
-5
20
371.66666666666674
10
-5
20
361.66666666666674
10
5
20
361.66666666666674
0
LWPOLYLINE
5
265
100
AcDbEntity
8
0
100
AcDbPolyline
90
4
70
1
43
0.0
10
38.333333333333343
20
371.66666666666674
10
28.333333333333339
20
371.66666666666674
10
28.333333333333339
20
361.66666666666674
10
38.333333333333343
20
361.66666666666674
0
LWPOLYLINE
5
266
100
AcDbEntity
8
0
100
AcDbPolyline
90
4
70
1
43
0.0
10
71.666666666666686
20
371.66666666666674
10
61.666666666666679
20
371.66666666666674
10
61.666666666666679
20
361.66666666666674
10
71.666666666666686
20
361.66666666666674
0
LWPOLYLINE
5
267
100
AcDbEntity
8
0
100
AcDbPolyline
90
4
70
1
43
0.0
10
105.00000000000001
20
371.66666666666674
10
95.000000000000014
20
371.66666666666674
10
95.000000000000014
20
361.66666666666674
10
105.00000000000001
20
361.66666666666674
0
LWPOLYLINE
5
268
100
AcDbEntity
8
0
100
AcDbPolyline
90
4
70
1
43
0.0
10
138.33333333333337
20
371.66666666666674
10
128.33333333333337
20
371.66666666666674
10
128.33333333333337
20
361.66666666666674
10
138.33333333333337
20
361.66666666666674
0
LWPOLYLINE
5
269
100
AcDbEntity
8
0
100
AcDbPolyline
90
4
70
1
43
0.0
10
171.66666666666671
20
371.66666666666674
10
161.66666666666671
20
371.66666666666674
10
161.66666666666671
20
361.66666666666674
10
171.66666666666671
20
361.66666666666674
0
LWPOLYLINE
5
270
100
AcDbEntity
8
0
100
AcDbPolyline
90
4
70
1
43
0.0
10
205.00000000000003
20
371.66666666666674
10
195.00000000000003
20
371.66666666666674
10
195.00000000000003
20
361.66666666666674
10
205.00000000000003
20
361.66666666666674
0
LWPOLYLINE
5
271
100
AcDbEntity
8
0
100
AcDbPolyline
90
4
70
1
43
0.0
10
238.33333333333337
20
371.66666666666674
10
228.33333333333337
20
371.66666666666674
10
228.33333333333337
20
361.66666666666674
10
238.33333333333337
20
361.66666666666674
0
LWPOLYLINE
5
272
100
AcDbEntity
8
0
100
AcDbPolyline
90
4
70
1
43
0.0
10
271.66666666666674
20
371.66666666666674
10
261.66666666666674
20
371.66666666666674
10
261.66666666666674
20
361.66666666666674
10
271.66666666666674
20
361.66666666666674
0
LWPOLYLINE
5
273
100
AcDbEntity
8
0
100
AcDbPolyline
90
4
70
1
43
0.0
10
305.00000000000006
20
371.66666666666674
10
295.00000000000006
20
371.66666666666674
10
295.00000000000006
20
361.66666666666674
10
305.00000000000006
20
361.66666666666674
0
LWPOLYLINE
5
274
100
AcDbEntity
8
0
100
AcDbPolyline
90
4
70
1
43
0.0
10
338.33333333333343
20
371.66666666666674
10
328.33333333333343
20
371.66666666666674
10
328.33333333333343
20
361.66666666666674
10
338.33333333333343
20
361.66666666666674
0
LWPOLYLINE
5
275
100
AcDbEntity
8
0
100
AcDbPolyline
90
4
70
1
43
0.0
10
371.66666666666674
20
371.66666666666674
10
361.66666666666674
20
371.66666666666674
10
361.66666666666674
20
361.66666666666674
10
371.66666666666674
20
361.66666666666674
0
LWPOLYLINE
5
276
100
AcDbEntity
8
0
100
AcDbPolyline
90
4
70
1
43
0.0
10
405.00000000000006
20
371.66666666666674
10
395.00000000000006
20
371.66666666666674
10
395.00000000000006
20
361.66666666666674
10
405.00000000000006
20
361.66666666666674
0
LWPOLYLINE
5
277
100
AcDbEntity
8
0
100
AcDbPolyline
90
4
70
1
43
0.0
10
5
20
405.00000000000006
10
-5
20
405.00000000000006
10
-5
20
395.00000000000006
10
5
20
395.00000000000006
0
LWPOLYLINE
5
278
100
AcDbEntity
8
0
100
AcDbPolyline
90
4
70
1
43
0.0
10
38.333333333333343
20
405.00000000000006
10
28.333333333333339
20
405.00000000000006
10
28.333333333333339
20
395.00000000000006
10
38.333333333333343
20
395.00000000000006
0
LWPOLYLINE
5
279
100
AcDbEntity
8
0
100
AcDbPolyline
90
4
70
1
43
0.0
10
71.666666666666686
20
405.00000000000006
10
61.666666666666679
20
405.00000000000006
10
61.666666666666679
20
395.00000000000006
10
71.666666666666686
20
395.00000000000006
0
LWPOLYLINE
5
280
100
AcDbEntity
8
0
100
AcDbPolyline
90
4
70
1
43
0.0
10
105.00000000000001
20
405.00000000000006
10
95.000000000000014
20
405.00000000000006
10
95.000000000000014
20
395.00000000000006
10
105.00000000000001
20
395.00000000000006
0
LWPOLYLINE
5
281
100
AcDbEntity
8
0
100
AcDbPolyline
90
4
70
1
43
0.0
10
138.33333333333337
20
405.00000000000006
10
128.33333333333337
20
405.00000000000006
10
128.33333333333337
20
395.00000000000006
10
138.33333333333337
20
395.00000000000006
0
LWPOLYLINE
5
282
100
AcDbEntity
8
0
100
AcDbPolyline
90
4
70
1
43
0.0
10
171.66666666666671
20
405.00000000000006
10
161.66666666666671
20
405.00000000000006
10
161.66666666666671
20
395.00000000000006
10
171.66666666666671
20
395.00000000000006
0
LWPOLYLINE
5
283
100
AcDbEntity
8
0
100
AcDbPolyline
90
4
70
1
43
0.0
10
205.00000000000003
20
405.00000000000006
10
195.00000000000003
20
405.00000000000006
10
195.00000000000003
20
395.00000000000006
10
205.00000000000003
20
395.00000000000006
0
LWPOLYLINE
5
284
100
AcDbEntity
8
0
100
AcDbPolyline
90
4
70
1
43
0.0
10
238.33333333333337
20
405.00000000000006
10
228.33333333333337
20
405.00000000000006
10
228.33333333333337
20
395.00000000000006
10
238.33333333333337
20
395.00000000000006
0
LWPOLYLINE
5
285
100
AcDbEntity
8
0
100
AcDbPolyline
90
4
70
1
43
0.0
10
271.66666666666674
20
405.00000000000006
10
261.66666666666674
20
405.00000000000006
10
261.66666666666674
20
395.00000000000006
10
271.66666666666674
20
395.00000000000006
0
LWPOLYLINE
5
286
100
AcDbEntity
8
0
100
AcDbPolyline
90
4
70
1
43
0.0
10
305.00000000000006
20
405.00000000000006
10
295.00000000000006
20
405.00000000000006
10
295.00000000000006
20
395.00000000000006
10
305.00000000000006
20
395.00000000000006
0
LWPOLYLINE
5
287
100
AcDbEntity
8
0
100
AcDbPolyline
90
4
70
1
43
0.0
10
338.33333333333343
20
405.00000000000006
10
328.33333333333343
20
405.00000000000006
10
328.33333333333343
20
395.00000000000006
10
338.33333333333343
20
395.00000000000006
0
LWPOLYLINE
5
288
100
AcDbEntity
8
0
100
AcDbPolyline
90
4
70
1
43
0.0
10
371.66666666666674
20
405.00000000000006
10
361.66666666666674
20
405.00000000000006
10
361.66666666666674
20
395.00000000000006
10
371.66666666666674
20
395.00000000000006
0
LWPOLYLINE
5
289
100
AcDbEntity
8
0
100
AcDbPolyline
90
4
70
1
43
0.0
10
405.00000000000006
20
405.00000000000006
10
395.00000000000006
20
405.00000000000006
10
395.00000000000006
20
395.00000000000006
10
405.00000000000006
20
395.00000000000006
0
LINE
5
290
100
AcDbEntity
8
0
100
AcDbLine
10
-33.337780173641733
20
-33.338521429046352
30
0
11
199.99555315969161
21
200.00000000000003
31
0
0
CIRCLE
5
291
100
AcDbEntity
8
0
100
AcDbCircle
10
149.99666486976884
20
150.00000000000003
30
0
40
0.999999999999998
210
0
220
0
230
1
0
CIRCLE
5
292
100
AcDbEntity
8
0
100
AcDbCircle
10
49.99555315969161
20
-16.666666666666679
30
0
40
1.0000000000000033
210
0
220
0
230
1
0
CIRCLE
5
293
100
AcDbEntity
8
0
100
AcDbCircle
10
-16.666296096640934
20
-16.666666666666679
30
0
40
1.0000000000000033
210
0
220
0
230
1
0
LINE
5
294
100
AcDbEntity
8
0
100
AcDbLine
10
-16.666296096640934
20
-16.666666666666679
30
0
11
199.99555315969164
21
-16.666666666666789
31
0
0
CIRCLE
5
295
100
AcDbEntity
8
0
100
AcDbCircle
10
149.99555315969164
20
-16.666666666666764
30
0
40
1.0000000000000007
210
0
220
0
230
1
0
LINE
5
296
100
AcDbEntity
8
0
100
AcDbLine
10
-33.337780173641725
20
49.999999999999986
30
0
11
199.99555315969164
21
49.999999999999972
31
0
0
LINE
5
297
100
AcDbEntity
8
0
100
AcDbLine
10
-33.337780173641711
20
150.00000000000003
30
0
11
199.99555315969164
21
150.00000000000003
31
0
0
CIRCLE
5
298
100
AcDbEntity
8
0
100
AcDbCircle
10
149.99555315969164
20
49.999999999999972
30
0
40
0.99999999999999423
210
0
220
0
230
1
0
CIRCLE
5
299
100
AcDbEntity
8
0
100
AcDbCircle
10
49.998888289922824
20
49.999999999999986
30
0
40
0.99999999999999545
210
0
220
0
230
1
0
CIRCLE
5
300
100
AcDbEntity
8
0
100
AcDbCircle
10
-16.671113506975075
20
49.999999999999986
30
0
40
0.99999999999999967
210
0
220
0
230
1
0
CIRCLE
5
301
100
AcDbEntity
8
0
100
AcDbCircle
10
-16.671113506975068
20
150.00000000000003
30
0
40
1.0000000000000009
210
0
220
0
230
1
0
CIRCLE
5
302
100
AcDbEntity
8
0
100
AcDbCircle
10
83.328886493024967
20
150.00000000000003
30
0
40
0.99999999999999645
210
0
220
0
230
1
0
CIRCLE
5
303
100
AcDbEntity
8
0
100
AcDbCircle
10
416.6622198263583
20
150.00000000000006
30
0
40
1.0000000000000009
210
0
220
0
230
1
0
CIRCLE
5
304
100
AcDbEntity
8
0
100
AcDbCircle
10
249.99444144961444
20
150.00000000000003
30
0
40
0.999999999999998
210
0
220
0
230
1
0
CIRCLE
5
305
100
AcDbEntity
8
0
100
AcDbCircle
10
316.6622198263583
20
150.00000000000006
30
0
40
0.99999999999999645
210
0
220
0
230
1
0
CIRCLE
5
306
100
AcDbEntity
8
0
100
AcDbCircle
10
249.99555315969164
20
-16.666666666666757
30
0
40
1.0000000000000007
210
0
220
0
230
1
0
CIRCLE
5
307
100
AcDbEntity
8
0
100
AcDbCircle
10
249.99555315969164
20
49.999999999999986
30
0
40
0.99999999999999423
210
0
220
0
230
1
0
CIRCLE
5
308
100
AcDbEntity
8
0
100
AcDbCircle
10
349.99221802946039
20
50.000000000000007
30
0
40
0.99999999999999545
210
0
220
0
230
1
0
CIRCLE
5
309
100
AcDbEntity
8
0
100
AcDbCircle
10
349.99555315969167
20
-16.666666666666657
30
0
40
1.0000000000000033
210
0
220
0
230
1
0
CIRCLE
5
310
100
AcDbEntity
8
0
100
AcDbCircle
10
416.65740241602418
20
-16.666666666666647
30
0
40
1.0000000000000033
210
0
220
0
230
1
0
CIRCLE
5
311
100
AcDbEntity
8
0
100
AcDbCircle
10
416.6622198263583
20
50.000000000000007
30
0
40
0.99999999999999967
210
0
220
0
230
1
0
CIRCLE
5
312
100
AcDbEntity
8
0
100
AcDbCircle
10
416.6622198263583
20
250
30
0
40
1.0000000000000009
210
0
220
0
230
1
0
CIRCLE
5
313
100
AcDbEntity
8
0
100
AcDbCircle
10
316.6622198263583
20
250
30
0
40
0.99999999999999645
210
0
220
0
230
1
0
CIRCLE
5
314
100
AcDbEntity
8
0
100
AcDbCircle
10
249.99444144961444
20
250.00000000000003
30
0
40
0.999999999999998
210
0
220
0
230
1
0
CIRCLE
5
315
100
AcDbEntity
8
0
100
AcDbCircle
10
416.65740241602418
20
416.66666666666674
30
0
40
1.0000000000000033
210
0
220
0
230
1
0
CIRCLE
5
316
100
AcDbEntity
8
0
100
AcDbCircle
10
416.6622198263583
20
350.00000000000006
30
0
40
0.99999999999999967
210
0
220
0
230
1
0
CIRCLE
5
317
100
AcDbEntity
8
0
100
AcDbCircle
10
349.99221802946039
20
350.00000000000006
30
0
40
0.99999999999999545
210
0
220
0
230
1
0
CIRCLE
5
318
100
AcDbEntity
8
0
100
AcDbCircle
10
349.99555315969167
20
416.66666666666674
30
0
40
1.0000000000000033
210
0
220
0
230
1
0
CIRCLE
5
319
100
AcDbEntity
8
0
100
AcDbCircle
10
249.99555315969164
20
416.66666666666686
30
0
40
1.0000000000000007
210
0
220
0
230
1
0
CIRCLE
5
320
100
AcDbEntity
8
0
100
AcDbCircle
10
249.99555315969164
20
350.00000000000006
30
0
40
0.99999999999999423
210
0
220
0
230
1
0
CIRCLE
5
321
100
AcDbEntity
8
0
100
AcDbCircle
10
149.99555315969164
20
416.66666666666686
30
0
40
1.0000000000000007
210
0
220
0
230
1
0
CIRCLE
5
322
100
AcDbEntity
8
0
100
AcDbCircle
10
49.99555315969161
20
416.66666666666674
30
0
40
1.0000000000000033
210
0
220
0
230
1
0
CIRCLE
5
323
100
AcDbEntity
8
0
100
AcDbCircle
10
-16.666296096640934
20
416.66666666666674
30
0
40
1.0000000000000033
210
0
220
0
230
1
0
CIRCLE
5
324
100
AcDbEntity
8
0
100
AcDbCircle
10
49.998888289922824
20
350.00000000000006
30
0
40
0.99999999999999545
210
0
220
0
230
1
0
CIRCLE
5
325
100
AcDbEntity
8
0
100
AcDbCircle
10
-16.671113506975075
20
350.00000000000006
30
0
40
0.99999999999999967
210
0
220
0
230
1
0
CIRCLE
5
326
100
AcDbEntity
8
0
100
AcDbCircle
10
149.99666486976884
20
250.00000000000003
30
0
40
0.999999999999998
210
0
220
0
230
1
0
CIRCLE
5
327
100
AcDbEntity
8
0
100
AcDbCircle
10
83.328886493024967
20
250.00000000000003
30
0
40
0.99999999999999645
210
0
220
0
230
1
0
CIRCLE
5
328
100
AcDbEntity
8
0
100
AcDbCircle
10
-16.671113506975068
20
250.00000000000003
30
0
40
1.0000000000000009
210
0
220
0
230
1
0
CIRCLE
5
329
100
AcDbEntity
8
0
100
AcDbCircle
10
149.99555315969164
20
350.00000000000011
30
0
40
0.99999999999999423
210
0
220
0
230
1
0
LINE
5
330
100
AcDbEntity
8
0
100
AcDbLine
10
-33.337780173641676
20
431.66666666667015
30
0
11
431.62859836004083
21
431.66666666666333
31
0
0
CIRCLE
5
331
100
AcDbEntity
8
0
100
AcDbCircle
10
199.99555315969161
20
441.7777780000003
30
0
40
4.9999999999999964
210
0
220
0
230
1
0
LINE
5
332
100
AcDbEntity
8
0
100
AcDbLine
10
-33.337780173641683
20
441.77777799999996
30
0
11
431.62523826562006
21
441.77777800000064
31
0
0
CIRCLE
5
333
100
AcDbEntity
8
0
100
AcDbCircle
10
409.62859836004077
20
441.77777800000058
30
0
40
5.0000000000000036
210
0
220
0
230
1
0
ENDSEC
0
SECTION
2
OBJECTS
0
DICTIONARY
5
C
100
AcDbDictionary
3
ACAD_GROUP
350
D
3
ACAD_MLINESTYLE
350
17
0
DICTIONARY
5
D
100
AcDbDictionary
0
DICTIONARY
5
1A
330
C
100
AcDbDictionary
0
DICTIONARY
5
17
100
AcDbDictionary
0
ENDSEC
0
EOF
