  0
SECTION
  2
HEADER
  9
$ACADVER
  1
AC1009
  9
$INSBASE
 10
0.0
 20
0.0
 30
0.0
  9
$EXTMIN
 10
0.0
 20
0.0
 30
0.0
  9
$EXTMAX
 10
0.0
 20
0.0
 30
0.0
  0
ENDSEC
  0
SECTION
  2
TABLES
  0
TABLE
  2
VPORT
 70
0
  0
ENDTAB
  0
TABLE
  2
LTYPE
 70
1
  0
LTYPE
  2
CONTINUOUS
 70
0
  3
Solid line
 72
65
 73
0
 40
0.0
  0
ENDTAB
  0
TABLE
  2
LAYER
 70
1
  0
LAYER
  2
0
 70
64
 62
7
  6
continuous
  0
ENDTAB
  0
TABLE
  2
STYLE
 70
1
  0
STYLE
  2
STANDARD
 70
0
 40
0
 41
1.0
 50
0.0
 71
0
 42
1
 3
ARIAL.TTF
 4

  0
ENDTAB
  0
TABLE
  2
VIEW
 70
0
  0
ENDTAB
  0
ENDSEC
  0
SECTION
  2
BLOCKS
  0
BLOCK
  8
0
  2
SHAPESTRING006
 70
0
 10
0.0
 20
0.0
 30
0.0
  3
SHAPESTRING006
  0
POLYLINE
  8
0
 62
0
 70
1
 66
1
 10
0.0
 20
0.0
 30
0.0
  0
VERTEX
  8
0
 10
134.22197044277607
 20
196.17806592651132
 30
0.0
  0
VERTEX
  8
0
 10
134.029772166914
 20
196.96657167363776
 30
0.0
  0
VERTEX
  8
0
 10
133.49753078760367
 20
197.50374121386764
 30
0.0
  0
VERTEX
  8
0
 10
132.67452791404045
 20
197.80928719087916
 30
0.0
  0
VERTEX
  8
0
 10
131.62482963817837
 20
197.90785040926994
 30
0.0
  0
VERTEX
  8
0
 10
131.62482963817837
 20
199.0166866161665
 30
0.0
  0
VERTEX
  8
0
 10
132.4231917071439
 20
199.12510615639638
 30
0.0
  0
VERTEX
  8
0
 10
133.11313423587953
 20
199.44543661616652
 30
0.0
  0
VERTEX
  8
0
 10
133.49753078760367
 20
199.95303719087914
 30
0.0
  0
VERTEX
  8
0
 10
133.62073481059218
 20
200.6183389150171
 30
0.0
  0
VERTEX
  8
0
 10
133.0589244657646
 20
201.74195960467225
 30
0.0
  0
VERTEX
  8
0
 10
131.62482963817837
 20
202.077074547201
 30
0.0
  0
VERTEX
  8
0
 10
131.62482963817837
 20
203.2154797196148
 30
0.0
  0
VERTEX
  8
0
 10
132.92093596001746
 20
203.0725630529481
 30
0.0
  0
VERTEX
  8
0
 10
134.07412561518987
 20
202.63888489202859
 30
0.0
  0
VERTEX
  8
0
 10
134.79363710944276
 20
201.88980443225847
 30
0.0
  0
VERTEX
  8
0
 10
135.04004515541976
 20
200.79575270812052
 30
0.0
  0
VERTEX
  8
0
 10
134.91684113243124
 20
200.00724696099408
 30
0.0
  0
VERTEX
  8
0
 10
134.54722906346575
 20
199.33701707593661
 30
0.0
  0
VERTEX
  8
0
 10
133.93120894852322
 20
198.8195601793849
 30
0.0
  0
VERTEX
  8
0
 10
133.0589244657646
 20
198.4992297196148
 30
0.0
  0
VERTEX
  8
0
 10
134.17268883358068
 20
198.22325270812053
 30
0.0
  0
VERTEX
  8
0
 10
134.98090722438528
 20
197.6959394897297
 30
0.0
  0
VERTEX
  8
0
 10
135.4737233163393
 20
196.9567153517987
 30
0.0
  0
VERTEX
  8
0
 10
135.6462089485232
 20
196.0499337426033
 30
0.0
  0
VERTEX
  8
0
 10
135.3357348105922
 20
194.75875558168374
 30
0.0
  0
VERTEX
  8
0
 10
134.49794745427033
 20
193.8864710989251
 30
0.0
  0
VERTEX
  8
0
 10
133.2806917071439
 20
193.3936550069711
 30
0.0
  0
VERTEX
  8
0
 10
131.81702791404044
 20
193.24088201846536
 30
0.0
  0
VERTEX
  8
0
 10
131.62482963817837
 20
193.24088201846536
 30
0.0
  0
VERTEX
  8
0
 10
131.62482963817837
 20
194.3743590299596
 30
0.0
  0
VERTEX
  8
0
 10
131.70860837381056
 20
194.3743590299596
 30
0.0
  0
VERTEX
  8
0
 10
132.70902504047723
 20
194.4581377655918
 30
0.0
  0
VERTEX
  8
0
 10
133.50738710944276
 20
194.74889925984468
 30
0.0
  0
VERTEX
  8
0
 10
134.029772166914
 20
195.30085328283317
 30
0.0
  0
SEQEND
  8
0
  0
POLYLINE
  8
0
 62
0
 70
1
 66
1
 10
0.0
 20
0.0
 30
0.0
  0
VERTEX
  8
0
 10
129.742272166914
 20
193.24088201846536
 30
0.0
  0
VERTEX
  8
0
 10
128.32788998300597
 20
193.24088201846536
 30
0.0
  0
VERTEX
  8
0
 10
128.32788998300597
 20
203.2154797196148
 30
0.0
  0
VERTEX
  8
0
 10
129.742272166914
 20
203.2154797196148
 30
0.0
  0
SEQEND
  8
0
  0
ENDBLK
  0
BLOCK
  8
0
  2
SHAPESTRING008
 70
0
 10
0.0
 20
0.0
 30
0.0
  3
SHAPESTRING008
  0
POLYLINE
  8
0
 62
0
 70
1
 66
1
 10
0.0
 20
0.0
 30
0.0
  0
VERTEX
  8
0
 10
166.14584975312096
 20
194.50249121386764
 30
0.0
  0
VERTEX
  8
0
 10
167.2645422818566
 20
195.01501994949984
 30
0.0
  0
VERTEX
  8
0
 10
167.61444170714392
 20
196.51318086904007
 30
0.0
  0
VERTEX
  8
0
 10
167.61444170714392
 20
202.07214638628145
 30
0.0
  0
VERTEX
  8
0
 10
165.60868021289107
 20
202.07214638628145
 30
0.0
  0
VERTEX
  8
0
 10
165.60868021289107
 20
203.33375558168376
 30
0.0
  0
VERTEX
  8
0
 10
169.0189675692129
 20
203.33375558168376
 30
0.0
  0
VERTEX
  8
0
 10
169.0189675692129
 20
196.4836119035228
 30
0.0
  0
VERTEX
  8
0
 10
168.84155377610946
 20
195.14808029432743
 30
0.0
  0
VERTEX
  8
0
 10
168.30438423587958
 20
194.12302282306305
 30
0.0
  0
VERTEX
  8
0
 10
167.4025307876037
 20
193.4675774207642
 30
0.0
  0
VERTEX
  8
0
 10
166.13599343128186
 20
193.24088201846536
 30
0.0
  0
VERTEX
  8
0
 10
165.02222906346577
 20
193.3936550069711
 30
0.0
  0
VERTEX
  8
0
 10
164.18936986806347
 20
193.86675845524695
 30
0.0
  0
VERTEX
  8
0
 10
163.61277504047726
 20
194.68483316789064
 30
0.0
  0
VERTEX
  8
0
 10
163.25301929335083
 20
195.85773546674122
 30
0.0
  0
VERTEX
  8
0
 10
164.62797618990257
 20
196.07950270812051
 30
0.0
  0
VERTEX
  8
0
 10
165.15528940829336
 20
194.8770314437527
 30
0.0
  0
SEQEND
  8
0
  0
POLYLINE
  8
0
 62
0
 70
1
 66
1
 10
0.0
 20
0.0
 30
0.0
  0
VERTEX
  8
0
 10
161.18811986806347
 20
203.33375558168376
 30
0.0
  0
VERTEX
  8
0
 10
162.60250205197153
 20
203.33375558168376
 30
0.0
  0
VERTEX
  8
0
 10
162.60250205197153
 20
193.24088201846536
 30
0.0
  0
VERTEX
  8
0
 10
161.18811986806347
 20
193.24088201846536
 30
0.0
  0
SEQEND
  8
0
  0
ENDBLK
  0
BLOCK
  8
0
  2
SHAPESTRING007
 70
0
 10
0.0
 20
0.0
 30
0.0
  3
SHAPESTRING007
  0
POLYLINE
  8
0
 62
0
 70
1
 66
1
 10
0.0
 20
0.0
 30
0.0
  0
VERTEX
  8
0
 10
150.88863710944275
 20
196.17806592651132
 30
0.0
  0
VERTEX
  8
0
 10
150.6964388335807
 20
196.96657167363776
 30
0.0
  0
VERTEX
  8
0
 10
150.16419745427035
 20
197.50374121386764
 30
0.0
  0
VERTEX
  8
0
 10
149.34119458070714
 20
197.80928719087916
 30
0.0
  0
VERTEX
  8
0
 10
148.29149630484505
 20
197.90785040926994
 30
0.0
  0
VERTEX
  8
0
 10
148.29149630484505
 20
199.0166866161665
 30
0.0
  0
VERTEX
  8
0
 10
149.08985837381059
 20
199.12510615639638
 30
0.0
  0
VERTEX
  8
0
 10
149.7798009025462
 20
199.44543661616652
 30
0.0
  0
VERTEX
  8
0
 10
150.16419745427035
 20
199.95303719087914
 30
0.0
  0
VERTEX
  8
0
 10
150.28740147725887
 20
200.6183389150171
 30
0.0
  0
VERTEX
  8
0
 10
149.72559113243128
 20
201.74195960467225
 30
0.0
  0
VERTEX
  8
0
 10
148.29149630484505
 20
202.077074547201
 30
0.0
  0
VERTEX
  8
0
 10
148.29149630484505
 20
203.2154797196148
 30
0.0
  0
VERTEX
  8
0
 10
149.58760262668414
 20
203.0725630529481
 30
0.0
  0
VERTEX
  8
0
 10
150.74079228185656
 20
202.63888489202859
 30
0.0
  0
VERTEX
  8
0
 10
151.46030377610944
 20
201.88980443225847
 30
0.0
  0
VERTEX
  8
0
 10
151.70671182208645
 20
200.79575270812052
 30
0.0
  0
VERTEX
  8
0
 10
151.58350779909793
 20
200.00724696099408
 30
0.0
  0
VERTEX
  8
0
 10
151.21389573013244
 20
199.33701707593661
 30
0.0
  0
VERTEX
  8
0
 10
150.5978756151899
 20
198.8195601793849
 30
0.0
  0
VERTEX
  8
0
 10
149.72559113243128
 20
198.4992297196148
 30
0.0
  0
VERTEX
  8
0
 10
150.83935550024736
 20
198.22325270812053
 30
0.0
  0
VERTEX
  8
0
 10
151.64757389105196
 20
197.6959394897297
 30
0.0
  0
VERTEX
  8
0
 10
152.14038998300597
 20
196.9567153517987
 30
0.0
  0
VERTEX
  8
0
 10
152.31287561518988
 20
196.0499337426033
 30
0.0
  0
VERTEX
  8
0
 10
152.00240147725887
 20
194.75875558168374
 30
0.0
  0
VERTEX
  8
0
 10
151.16461412093702
 20
193.8864710989251
 30
0.0
  0
VERTEX
  8
0
 10
149.94735837381057
 20
193.3936550069711
 30
0.0
  0
VERTEX
  8
0
 10
148.48369458070712
 20
193.24088201846536
 30
0.0
  0
VERTEX
  8
0
 10
148.29149630484505
 20
193.24088201846536
 30
0.0
  0
VERTEX
  8
0
 10
148.29149630484505
 20
194.3743590299596
 30
0.0
  0
VERTEX
  8
0
 10
148.37527504047725
 20
194.3743590299596
 30
0.0
  0
VERTEX
  8
0
 10
149.37569170714391
 20
194.4581377655918
 30
0.0
  0
VERTEX
  8
0
 10
150.17405377610945
 20
194.74889925984468
 30
0.0
  0
VERTEX
  8
0
 10
150.6964388335807
 20
195.30085328283317
 30
0.0
  0
SEQEND
  8
0
  0
POLYLINE
  8
0
 62
0
 70
1
 66
1
 10
0.0
 20
0.0
 30
0.0
  0
VERTEX
  8
0
 10
146.4089388335807
 20
193.24088201846536
 30
0.0
  0
VERTEX
  8
0
 10
144.99455664967266
 20
193.24088201846536
 30
0.0
  0
VERTEX
  8
0
 10
144.99455664967266
 20
203.2154797196148
 30
0.0
  0
VERTEX
  8
0
 10
146.4089388335807
 20
203.2154797196148
 30
0.0
  0
SEQEND
  8
0
  0
ENDBLK
  0
BLOCK
  8
0
  2
SHAPESTRING017
 70
0
 10
0.0
 20
0.0
 30
0.0
  3
SHAPESTRING017
  0
POLYLINE
  8
0
 62
0
 70
1
 66
1
 10
0.0
 20
0.0
 30
0.0
  0
VERTEX
  8
0
 10
134.00020320139677
 20
183.76933029432743
 30
0.0
  0
VERTEX
  8
0
 10
131.75296182208643
 20
185.41533604145388
 30
0.0
  0
VERTEX
  8
0
 10
131.47698481059217
 20
185.41533604145388
 30
0.0
  0
VERTEX
  8
0
 10
131.47698481059217
 20
186.54881305294813
 30
0.0
  0
VERTEX
  8
0
 10
131.89095032783356
 20
186.54881305294813
 30
0.0
  0
VERTEX
  8
0
 10
133.43839285656918
 20
186.35661477708607
 30
0.0
  0
VERTEX
  8
0
 10
134.5423009025462
 20
185.8095889150171
 30
0.0
  0
VERTEX
  8
0
 10
135.19774630484505
 20
184.942232593178
 30
0.0
  0
VERTEX
  8
0
 10
135.41951354622435
 20
183.7890429380056
 30
0.0
  0
VERTEX
  8
0
 10
135.27166871863815
 20
182.87733316789064
 30
0.0
  0
VERTEX
  8
0
 10
134.81827791404044
 20
182.03954581156881
 30
0.0
  0
VERTEX
  8
0
 10
134.02484400599448
 20
181.37917224835041
 30
0.0
  0
VERTEX
  8
0
 10
132.8765825117416
 20
180.98984753570676
 30
0.0
  0
VERTEX
  8
0
 10
135.83347906346575
 20
176.5742153517987
 30
0.0
  0
VERTEX
  8
0
 10
134.20718596001745
 20
176.5742153517987
 30
0.0
  0
VERTEX
  8
0
 10
131.50162561518988
 20
180.82721822536192
 30
0.0
  0
VERTEX
  8
0
 10
131.49176929335079
 20
180.82721822536192
 30
0.0
  0
VERTEX
  8
0
 10
131.49176929335079
 20
181.940982593178
 30
0.0
  0
VERTEX
  8
0
 10
131.81209975312092
 20
181.940982593178
 30
0.0
  0
VERTEX
  8
0
 10
132.8420853853048
 20
182.0888274207642
 30
0.0
  0
VERTEX
  8
0
 10
133.51231527036228
 20
182.48308029432744
 30
0.0
  0
VERTEX
  8
0
 10
133.8819273393278
 20
183.0646032828332
 30
0.0
  0
SEQEND
  8
0
  0
POLYLINE
  8
0
 62
0
 70
1
 66
1
 10
0.0
 20
0.0
 30
0.0
  0
VERTEX
  8
0
 10
129.7274876841554
 20
176.5742153517987
 30
0.0
  0
VERTEX
  8
0
 10
128.32788998300597
 20
176.5742153517987
 30
0.0
  0
VERTEX
  8
0
 10
128.32788998300597
 20
186.54881305294813
 30
0.0
  0
VERTEX
  8
0
 10
129.7274876841554
 20
186.54881305294813
 30
0.0
  0
SEQEND
  8
0
  0
ENDBLK
  0
BLOCK
  8
0
  2
SHAPESTRING036
 70
0
 10
0.0
 20
0.0
 30
0.0
  3
SHAPESTRING036
  0
POLYLINE
  8
0
 62
0
 70
1
 66
1
 10
0.0
 20
0.0
 30
0.0
  0
VERTEX
  8
0
 10
84.00020320139677
 20
150.4359969609941
 30
0.0
  0
VERTEX
  8
0
 10
81.75296182208643
 20
152.08200270812054
 30
0.0
  0
VERTEX
  8
0
 10
81.47698481059217
 20
152.08200270812054
 30
0.0
  0
VERTEX
  8
0
 10
81.47698481059217
 20
153.2154797196148
 30
0.0
  0
VERTEX
  8
0
 10
81.89095032783355
 20
153.2154797196148
 30
0.0
  0
VERTEX
  8
0
 10
83.43839285656918
 20
153.02328144375272
 30
0.0
  0
VERTEX
  8
0
 10
84.5423009025462
 20
152.47625558168374
 30
0.0
  0
VERTEX
  8
0
 10
85.19774630484505
 20
151.60889925984466
 30
0.0
  0
VERTEX
  8
0
 10
85.41951354622435
 20
150.45570960467225
 30
0.0
  0
VERTEX
  8
0
 10
85.27166871863815
 20
149.5439998345573
 30
0.0
  0
VERTEX
  8
0
 10
84.81827791404045
 20
148.70621247823547
 30
0.0
  0
VERTEX
  8
0
 10
84.02484400599447
 20
148.04583891501707
 30
0.0
  0
VERTEX
  8
0
 10
82.8765825117416
 20
147.65651420237342
 30
0.0
  0
VERTEX
  8
0
 10
85.83347906346575
 20
143.24088201846536
 30
0.0
  0
VERTEX
  8
0
 10
84.20718596001745
 20
143.24088201846536
 30
0.0
  0
VERTEX
  8
0
 10
81.50162561518988
 20
147.49388489202857
 30
0.0
  0
VERTEX
  8
0
 10
81.4917692933508
 20
147.49388489202857
 30
0.0
  0
VERTEX
  8
0
 10
81.4917692933508
 20
148.60764925984466
 30
0.0
  0
VERTEX
  8
0
 10
81.8120997531209
 20
148.60764925984466
 30
0.0
  0
VERTEX
  8
0
 10
82.84208538530481
 20
148.75549408743086
 30
0.0
  0
VERTEX
  8
0
 10
83.5123152703623
 20
149.1497469609941
 30
0.0
  0
VERTEX
  8
0
 10
83.8819273393278
 20
149.73126994949985
 30
0.0
  0
SEQEND
  8
0
  0
POLYLINE
  8
0
 62
0
 70
1
 66
1
 10
0.0
 20
0.0
 30
0.0
  0
VERTEX
  8
0
 10
79.72748768415539
 20
143.24088201846536
 30
0.0
  0
VERTEX
  8
0
 10
78.32788998300597
 20
143.24088201846536
 30
0.0
  0
VERTEX
  8
0
 10
78.32788998300597
 20
153.2154797196148
 30
0.0
  0
VERTEX
  8
0
 10
79.72748768415539
 20
153.2154797196148
 30
0.0
  0
SEQEND
  8
0
  0
ENDBLK
  0
BLOCK
  8
0
  2
SHAPESTRING033
 70
0
 10
0.0
 20
0.0
 30
0.0
  3
SHAPESTRING033
  0
POLYLINE
  8
0
 62
0
 70
1
 66
1
 10
0.0
 20
0.0
 30
0.0
  0
VERTEX
  8
0
 10
30.791970442776094
 20
143.1718877655918
 30
0.0
  0
VERTEX
  8
0
 10
30.013321017488735
 20
143.4429366161665
 30
0.0
  0
VERTEX
  8
0
 10
28.83056239679908
 20
144.4482814437527
 30
0.0
  0
VERTEX
  8
0
 10
28.120907224385288
 20
146.074574547201
 30
0.0
  0
VERTEX
  8
0
 10
27.88435550024736
 20
148.27746247823546
 30
0.0
  0
VERTEX
  8
0
 10
28.13569170714391
 20
150.50499121386764
 30
0.0
  0
VERTEX
  8
0
 10
28.865059523235864
 20
152.09678719087916
 30
0.0
  0
VERTEX
  8
0
 10
30.0576744657646
 20
153.05285040926995
 30
0.0
  0
VERTEX
  8
0
 10
30.791970442776094
 20
153.2894021334079
 30
0.0
  0
VERTEX
  8
0
 10
30.791970442776094
 20
152.03764925984467
 30
0.0
  0
VERTEX
  8
0
 10
29.949254925534714
 20
151.23928719087914
 30
0.0
  0
VERTEX
  8
0
 10
29.372660097948508
 20
148.27746247823546
 30
0.0
  0
VERTEX
  8
0
 10
29.954183086454254
 20
145.26142799547685
 30
0.0
  0
VERTEX
  8
0
 10
30.791970442776094
 20
144.4334969609941
 30
0.0
  0
SEQEND
  8
0
  0
POLYLINE
  8
0
 62
0
 70
1
 66
1
 10
0.0
 20
0.0
 30
0.0
  0
VERTEX
  8
0
 10
33.970634235879544
 20
148.27746247823546
 30
0.0
  0
VERTEX
  8
0
 10
33.38418308645426
 20
151.23928719087914
 30
0.0
  0
VERTEX
  8
0
 10
32.54146756921288
 20
152.03764925984467
 30
0.0
  0
VERTEX
  8
0
 10
32.54146756921288
 20
153.2894021334079
 30
0.0
  0
VERTEX
  8
0
 10
34.478234810592184
 20
152.08200270812054
 30
0.0
  0
VERTEX
  8
0
 10
35.45401067266115
 20
148.27746247823546
 30
0.0
  0
VERTEX
  8
0
 10
35.19281814392552
 20
146.02529293800558
 30
0.0
  0
VERTEX
  8
0
 10
34.44866584507494
 20
144.40392799547686
 30
0.0
  0
VERTEX
  8
0
 10
33.251122741626666
 20
143.4182958115688
 30
0.0
  0
VERTEX
  8
0
 10
32.54146756921288
 20
143.18174408743087
 30
0.0
  0
VERTEX
  8
0
 10
32.54146756921288
 20
144.40885615639638
 30
0.0
  0
VERTEX
  8
0
 10
33.42360837381057
 20
145.27621247823546
 30
0.0
  0
SEQEND
  8
0
  0
ENDBLK
  0
BLOCK
  8
0
  2
SHAPESTRING030
 70
0
 10
0.0
 20
0.0
 30
0.0
  3
SHAPESTRING030
  0
POLYLINE
  8
0
 62
0
 70
1
 66
1
 10
0.0
 20
0.0
 30
0.0
  0
VERTEX
  8
0
 10
164.12530377610946
 20
159.83855443225846
 30
0.0
  0
VERTEX
  8
0
 10
163.3466543508221
 20
160.10960328283318
 30
0.0
  0
VERTEX
  8
0
 10
162.16389573013245
 20
161.11494811041936
 30
0.0
  0
VERTEX
  8
0
 10
161.45424055771866
 20
162.74124121386765
 30
0.0
  0
VERTEX
  8
0
 10
161.21768883358072
 20
164.94412914490212
 30
0.0
  0
VERTEX
  8
0
 10
161.46902504047728
 20
167.17165788053433
 30
0.0
  0
VERTEX
  8
0
 10
162.19839285656923
 20
168.7634538575458
 30
0.0
  0
VERTEX
  8
0
 10
163.39100779909796
 20
169.7195170759366
 30
0.0
  0
VERTEX
  8
0
 10
164.12530377610946
 20
169.95606880007455
 30
0.0
  0
VERTEX
  8
0
 10
164.12530377610946
 20
168.70431592651133
 30
0.0
  0
VERTEX
  8
0
 10
163.2825882588681
 20
167.9059538575458
 30
0.0
  0
VERTEX
  8
0
 10
162.70599343128185
 20
164.94412914490212
 30
0.0
  0
VERTEX
  8
0
 10
163.2875164197876
 20
161.9280946621435
 30
0.0
  0
VERTEX
  8
0
 10
164.12530377610946
 20
161.10016362766075
 30
0.0
  0
SEQEND
  8
0
  0
POLYLINE
  8
0
 62
0
 70
1
 66
1
 10
0.0
 20
0.0
 30
0.0
  0
VERTEX
  8
0
 10
167.30396756921292
 20
164.94412914490212
 30
0.0
  0
VERTEX
  8
0
 10
166.71751641978761
 20
167.9059538575458
 30
0.0
  0
VERTEX
  8
0
 10
165.87480090254624
 20
168.70431592651133
 30
0.0
  0
VERTEX
  8
0
 10
165.87480090254624
 20
169.95606880007455
 30
0.0
  0
VERTEX
  8
0
 10
167.81156814392554
 20
168.7486693747872
 30
0.0
  0
VERTEX
  8
0
 10
168.7873440059945
 20
164.94412914490212
 30
0.0
  0
VERTEX
  8
0
 10
168.52615147725888
 20
162.69195960467223
 30
0.0
  0
VERTEX
  8
0
 10
167.7819991784083
 20
161.07059466214352
 30
0.0
  0
VERTEX
  8
0
 10
166.58445607496003
 20
160.08496247823547
 30
0.0
  0
VERTEX
  8
0
 10
165.87480090254624
 20
159.84841075409753
 30
0.0
  0
VERTEX
  8
0
 10
165.87480090254624
 20
161.07552282306304
 30
0.0
  0
VERTEX
  8
0
 10
166.75694170714394
 20
161.94287914490212
 30
0.0
  0
SEQEND
  8
0
  0
ENDBLK
  0
BLOCK
  8
0
  2
SHAPESTRING029
 70
0
 10
0.0
 20
0.0
 30
0.0
  3
SHAPESTRING029
  0
POLYLINE
  8
0
 62
0
 70
1
 66
1
 10
0.0
 20
0.0
 30
0.0
  0
VERTEX
  8
0
 10
147.45863710944278
 20
159.83855443225846
 30
0.0
  0
VERTEX
  8
0
 10
146.6799876841554
 20
160.10960328283318
 30
0.0
  0
VERTEX
  8
0
 10
145.49722906346577
 20
161.11494811041936
 30
0.0
  0
VERTEX
  8
0
 10
144.78757389105198
 20
162.74124121386765
 30
0.0
  0
VERTEX
  8
0
 10
144.55102216691404
 20
164.94412914490212
 30
0.0
  0
VERTEX
  8
0
 10
144.8023583738106
 20
167.17165788053433
 30
0.0
  0
VERTEX
  8
0
 10
145.53172618990254
 20
168.7634538575458
 30
0.0
  0
VERTEX
  8
0
 10
146.72434113243128
 20
169.7195170759366
 30
0.0
  0
VERTEX
  8
0
 10
147.45863710944278
 20
169.95606880007455
 30
0.0
  0
VERTEX
  8
0
 10
147.45863710944278
 20
168.70431592651133
 30
0.0
  0
VERTEX
  8
0
 10
146.6159215922014
 20
167.9059538575458
 30
0.0
  0
VERTEX
  8
0
 10
146.03932676461517
 20
164.94412914490212
 30
0.0
  0
VERTEX
  8
0
 10
146.62084975312092
 20
161.9280946621435
 30
0.0
  0
VERTEX
  8
0
 10
147.45863710944278
 20
161.10016362766075
 30
0.0
  0
SEQEND
  8
0
  0
POLYLINE
  8
0
 62
0
 70
1
 66
1
 10
0.0
 20
0.0
 30
0.0
  0
VERTEX
  8
0
 10
150.63730090254623
 20
164.94412914490212
 30
0.0
  0
VERTEX
  8
0
 10
150.05084975312093
 20
167.9059538575458
 30
0.0
  0
VERTEX
  8
0
 10
149.20813423587956
 20
168.70431592651133
 30
0.0
  0
VERTEX
  8
0
 10
149.20813423587956
 20
169.95606880007455
 30
0.0
  0
VERTEX
  8
0
 10
151.14490147725886
 20
168.7486693747872
 30
0.0
  0
VERTEX
  8
0
 10
152.1206773393278
 20
164.94412914490212
 30
0.0
  0
VERTEX
  8
0
 10
151.8594848105922
 20
162.69195960467223
 30
0.0
  0
VERTEX
  8
0
 10
151.11533251174163
 20
161.07059466214352
 30
0.0
  0
VERTEX
  8
0
 10
149.91778940829334
 20
160.08496247823547
 30
0.0
  0
VERTEX
  8
0
 10
149.20813423587956
 20
159.84841075409753
 30
0.0
  0
VERTEX
  8
0
 10
149.20813423587956
 20
161.07552282306304
 30
0.0
  0
VERTEX
  8
0
 10
150.09027504047725
 20
161.94287914490212
 30
0.0
  0
SEQEND
  8
0
  0
ENDBLK
  0
BLOCK
  8
0
  2
SHAPESTRING031
 70
0
 10
0.0
 20
0.0
 30
0.0
  3
SHAPESTRING031
  0
POLYLINE
  8
0
 62
0
 70
1
 66
1
 10
0.0
 20
0.0
 30
0.0
  0
VERTEX
  8
0
 10
184.00020320139677
 20
167.10266362766075
 30
0.0
  0
VERTEX
  8
0
 10
181.75296182208643
 20
168.7486693747872
 30
0.0
  0
VERTEX
  8
0
 10
181.47698481059217
 20
168.7486693747872
 30
0.0
  0
VERTEX
  8
0
 10
181.47698481059217
 20
169.88214638628145
 30
0.0
  0
VERTEX
  8
0
 10
181.89095032783356
 20
169.88214638628145
 30
0.0
  0
VERTEX
  8
0
 10
183.43839285656918
 20
169.68994811041938
 30
0.0
  0
VERTEX
  8
0
 10
184.5423009025462
 20
169.1429222483504
 30
0.0
  0
VERTEX
  8
0
 10
185.19774630484505
 20
168.27556592651132
 30
0.0
  0
VERTEX
  8
0
 10
185.41951354622435
 20
167.1223762713389
 30
0.0
  0
VERTEX
  8
0
 10
185.27166871863815
 20
166.21066650122395
 30
0.0
  0
VERTEX
  8
0
 10
184.81827791404044
 20
165.37287914490213
 30
0.0
  0
VERTEX
  8
0
 10
184.02484400599448
 20
164.71250558168373
 30
0.0
  0
VERTEX
  8
0
 10
182.8765825117416
 20
164.32318086904007
 30
0.0
  0
VERTEX
  8
0
 10
185.83347906346575
 20
159.907548685132
 30
0.0
  0
VERTEX
  8
0
 10
184.20718596001745
 20
159.907548685132
 30
0.0
  0
VERTEX
  8
0
 10
181.50162561518988
 20
164.16055155869523
 30
0.0
  0
VERTEX
  8
0
 10
181.49176929335079
 20
164.16055155869523
 30
0.0
  0
VERTEX
  8
0
 10
181.49176929335079
 20
165.27431592651132
 30
0.0
  0
VERTEX
  8
0
 10
181.81209975312092
 20
165.27431592651132
 30
0.0
  0
VERTEX
  8
0
 10
182.8420853853048
 20
165.42216075409752
 30
0.0
  0
VERTEX
  8
0
 10
183.51231527036228
 20
165.81641362766075
 30
0.0
  0
VERTEX
  8
0
 10
183.8819273393278
 20
166.3979366161665
 30
0.0
  0
SEQEND
  8
0
  0
POLYLINE
  8
0
 62
0
 70
1
 66
1
 10
0.0
 20
0.0
 30
0.0
  0
VERTEX
  8
0
 10
179.7274876841554
 20
159.907548685132
 30
0.0
  0
VERTEX
  8
0
 10
178.32788998300597
 20
159.907548685132
 30
0.0
  0
VERTEX
  8
0
 10
178.32788998300597
 20
169.88214638628145
 30
0.0
  0
VERTEX
  8
0
 10
179.7274876841554
 20
169.88214638628145
 30
0.0
  0
SEQEND
  8
0
  0
ENDBLK
  0
BLOCK
  8
0
  2
SHAPESTRING027
 70
0
 10
0.0
 20
0.0
 30
0.0
  3
SHAPESTRING027
  0
POLYLINE
  8
0
 62
0
 70
1
 66
1
 10
0.0
 20
0.0
 30
0.0
  0
VERTEX
  8
0
 10
117.33353653473011
 20
167.10266362766075
 30
0.0
  0
VERTEX
  8
0
 10
115.08629515541978
 20
168.7486693747872
 30
0.0
  0
VERTEX
  8
0
 10
114.81031814392551
 20
168.7486693747872
 30
0.0
  0
VERTEX
  8
0
 10
114.81031814392551
 20
169.88214638628145
 30
0.0
  0
VERTEX
  8
0
 10
115.2242836611669
 20
169.88214638628145
 30
0.0
  0
VERTEX
  8
0
 10
116.77172618990252
 20
169.68994811041938
 30
0.0
  0
VERTEX
  8
0
 10
117.87563423587955
 20
169.1429222483504
 30
0.0
  0
VERTEX
  8
0
 10
118.5310796381784
 20
168.27556592651132
 30
0.0
  0
VERTEX
  8
0
 10
118.7528468795577
 20
167.1223762713389
 30
0.0
  0
VERTEX
  8
0
 10
118.6050020519715
 20
166.21066650122395
 30
0.0
  0
VERTEX
  8
0
 10
118.1516112473738
 20
165.37287914490213
 30
0.0
  0
VERTEX
  8
0
 10
117.35817733932781
 20
164.71250558168373
 30
0.0
  0
VERTEX
  8
0
 10
116.20991584507495
 20
164.32318086904007
 30
0.0
  0
VERTEX
  8
0
 10
119.16681239679909
 20
159.907548685132
 30
0.0
  0
VERTEX
  8
0
 10
117.5405192933508
 20
159.907548685132
 30
0.0
  0
VERTEX
  8
0
 10
114.83495894852322
 20
164.16055155869523
 30
0.0
  0
VERTEX
  8
0
 10
114.82510262668414
 20
164.16055155869523
 30
0.0
  0
VERTEX
  8
0
 10
114.82510262668414
 20
165.27431592651132
 30
0.0
  0
VERTEX
  8
0
 10
115.14543308645425
 20
165.27431592651132
 30
0.0
  0
VERTEX
  8
0
 10
116.17541871863816
 20
165.42216075409752
 30
0.0
  0
VERTEX
  8
0
 10
116.84564860369564
 20
165.81641362766075
 30
0.0
  0
VERTEX
  8
0
 10
117.21526067266115
 20
166.3979366161665
 30
0.0
  0
SEQEND
  8
0
  0
POLYLINE
  8
0
 62
0
 70
1
 66
1
 10
0.0
 20
0.0
 30
0.0
  0
VERTEX
  8
0
 10
113.06082101748873
 20
159.907548685132
 30
0.0
  0
VERTEX
  8
0
 10
111.66122331633932
 20
159.907548685132
 30
0.0
  0
VERTEX
  8
0
 10
111.66122331633932
 20
169.88214638628145
 30
0.0
  0
VERTEX
  8
0
 10
113.06082101748873
 20
169.88214638628145
 30
0.0
  0
SEQEND
  8
0
  0
ENDBLK
  0
BLOCK
  8
0
  2
SHAPESTRING043
 70
0
 10
0.0
 20
0.0
 30
0.0
  3
SHAPESTRING043
  0
POLYLINE
  8
0
 62
0
 70
1
 66
1
 10
0.0
 20
0.0
 30
0.0
  0
VERTEX
  8
0
 10
200.6964388335807
 20
148.32674408743088
 30
0.0
  0
VERTEX
  8
0
 10
200.48945607496
 20
150.03681592651134
 30
0.0
  0
VERTEX
  8
0
 10
199.85865147725886
 20
151.19000558168375
 30
0.0
  0
VERTEX
  8
0
 10
198.80402504047726
 20
151.8454509839826
 30
0.0
  0
VERTEX
  8
0
 10
198.30135262668415
 20
151.97851132881019
 30
0.0
  0
VERTEX
  8
0
 10
198.30135262668415
 20
153.1563417885803
 30
0.0
  0
VERTEX
  8
0
 10
199.35597906346575
 20
152.92471822536191
 30
0.0
  0
VERTEX
  8
0
 10
200.86892446576462
 20
152.04257742076422
 30
0.0
  0
VERTEX
  8
0
 10
201.8003468795577
 20
150.51977569662628
 30
0.0
  0
VERTEX
  8
0
 10
202.1157491784083
 20
148.32674408743088
 30
0.0
  0
VERTEX
  8
0
 10
201.82005952323587
 20
146.13371247823548
 30
0.0
  0
VERTEX
  8
0
 10
200.96255952323588
 20
144.54191650122397
 30
0.0
  0
VERTEX
  8
0
 10
199.57774630484508
 20
143.566140639155
 30
0.0
  0
VERTEX
  8
0
 10
198.30135262668415
 20
143.27045098398258
 30
0.0
  0
VERTEX
  8
0
 10
198.30135262668415
 20
144.4482814437527
 30
0.0
  0
VERTEX
  8
0
 10
199.93257389105196
 20
145.37970385754582
 30
0.0
  0
SEQEND
  8
0
  0
POLYLINE
  8
0
 62
0
 70
1
 66
1
 10
0.0
 20
0.0
 30
0.0
  0
VERTEX
  8
0
 10
196.4237233163393
 20
143.24088201846536
 30
0.0
  0
VERTEX
  8
0
 10
194.99455664967266
 20
143.24088201846536
 30
0.0
  0
VERTEX
  8
0
 10
194.99455664967266
 20
153.2154797196148
 30
0.0
  0
VERTEX
  8
0
 10
196.4237233163393
 20
153.2154797196148
 30
0.0
  0
SEQEND
  8
0
  0
ENDBLK
  0
BLOCK
  8
0
  2
SHAPESTRING056
 70
0
 10
0.0
 20
0.0
 30
0.0
  3
SHAPESTRING056
  0
POLYLINE
  8
0
 62
0
 70
1
 66
1
 10
0.0
 20
0.0
 30
0.0
  0
VERTEX
  8
0
 10
50.66686986806346
 20
117.10266362766072
 30
0.0
  0
VERTEX
  8
0
 10
48.41962848875311
 20
118.74866937478716
 30
0.0
  0
VERTEX
  8
0
 10
48.14365147725886
 20
118.74866937478716
 30
0.0
  0
VERTEX
  8
0
 10
48.14365147725886
 20
119.8821463862814
 30
0.0
  0
VERTEX
  8
0
 10
48.557616994500236
 20
119.8821463862814
 30
0.0
  0
VERTEX
  8
0
 10
50.10505952323587
 20
119.68994811041934
 30
0.0
  0
VERTEX
  8
0
 10
51.20896756921288
 20
119.14292224835037
 30
0.0
  0
VERTEX
  8
0
 10
51.86441297151173
 20
118.27556592651129
 30
0.0
  0
VERTEX
  8
0
 10
52.086180212891044
 20
117.12237627133888
 30
0.0
  0
VERTEX
  8
0
 10
51.93833538530484
 20
116.21066650122394
 30
0.0
  0
VERTEX
  8
0
 10
51.484944580707136
 20
115.3728791449021
 30
0.0
  0
VERTEX
  8
0
 10
50.69151067266116
 20
114.71250558168371
 30
0.0
  0
VERTEX
  8
0
 10
49.54324917840829
 20
114.32318086904003
 30
0.0
  0
VERTEX
  8
0
 10
52.500145730132424
 20
109.90754868513199
 30
0.0
  0
VERTEX
  8
0
 10
50.87385262668415
 20
109.90754868513199
 30
0.0
  0
VERTEX
  8
0
 10
48.16829228185656
 20
114.1605515586952
 30
0.0
  0
VERTEX
  8
0
 10
48.15843596001748
 20
114.1605515586952
 30
0.0
  0
VERTEX
  8
0
 10
48.15843596001748
 20
115.27431592651129
 30
0.0
  0
VERTEX
  8
0
 10
48.4787664197876
 20
115.27431592651129
 30
0.0
  0
VERTEX
  8
0
 10
49.508752051971506
 20
115.4221607540975
 30
0.0
  0
VERTEX
  8
0
 10
50.17898193702897
 20
115.81641362766072
 30
0.0
  0
VERTEX
  8
0
 10
50.54859400599449
 20
116.39793661616646
 30
0.0
  0
SEQEND
  8
0
  0
POLYLINE
  8
0
 62
0
 70
1
 66
1
 10
0.0
 20
0.0
 30
0.0
  0
VERTEX
  8
0
 10
46.39415435082208
 20
109.90754868513199
 30
0.0
  0
VERTEX
  8
0
 10
44.99455664967265
 20
109.90754868513199
 30
0.0
  0
VERTEX
  8
0
 10
44.99455664967265
 20
119.8821463862814
 30
0.0
  0
VERTEX
  8
0
 10
46.39415435082208
 20
119.8821463862814
 30
0.0
  0
SEQEND
  8
0
  0
ENDBLK
  0
BLOCK
  8
0
  2
SHAPESTRING055
 70
0
 10
0.0
 20
0.0
 30
0.0
  3
SHAPESTRING055
  0
POLYLINE
  8
0
 62
0
 70
1
 66
1
 10
0.0
 20
0.0
 30
0.0
  0
VERTEX
  8
0
 10
34.02977216691402
 20
114.9934107540975
 30
0.0
  0
VERTEX
  8
0
 10
33.82278940829333
 20
116.70348259317797
 30
0.0
  0
VERTEX
  8
0
 10
33.19198481059219
 20
117.85667224835038
 30
0.0
  0
VERTEX
  8
0
 10
32.13735837381058
 20
118.51211765064923
 30
0.0
  0
VERTEX
  8
0
 10
31.63468596001747
 20
118.64517799547681
 30
0.0
  0
VERTEX
  8
0
 10
31.63468596001747
 20
119.82300845524694
 30
0.0
  0
VERTEX
  8
0
 10
32.68931239679908
 20
119.59138489202854
 30
0.0
  0
VERTEX
  8
0
 10
34.202257799097936
 20
118.70924408743083
 30
0.0
  0
VERTEX
  8
0
 10
35.133680212891036
 20
117.18644236329291
 30
0.0
  0
VERTEX
  8
0
 10
35.44908251174161
 20
114.9934107540975
 30
0.0
  0
VERTEX
  8
0
 10
35.1533928565692
 20
112.8003791449021
 30
0.0
  0
VERTEX
  8
0
 10
34.295892856569196
 20
111.20858316789061
 30
0.0
  0
VERTEX
  8
0
 10
32.91107963817839
 20
110.23280730582164
 30
0.0
  0
VERTEX
  8
0
 10
31.63468596001747
 20
109.93711765064923
 30
0.0
  0
VERTEX
  8
0
 10
31.63468596001747
 20
111.11494811041935
 30
0.0
  0
VERTEX
  8
0
 10
33.26590722438529
 20
112.04637052421245
 30
0.0
  0
SEQEND
  8
0
  0
POLYLINE
  8
0
 62
0
 70
1
 66
1
 10
0.0
 20
0.0
 30
0.0
  0
VERTEX
  8
0
 10
29.757056649672645
 20
109.90754868513199
 30
0.0
  0
VERTEX
  8
0
 10
28.327889983005978
 20
109.90754868513199
 30
0.0
  0
VERTEX
  8
0
 10
28.327889983005978
 20
119.8821463862814
 30
0.0
  0
VERTEX
  8
0
 10
29.757056649672645
 20
119.8821463862814
 30
0.0
  0
SEQEND
  8
0
  0
ENDBLK
  0
BLOCK
  8
0
  2
SHAPESTRING076
 70
0
 10
0.0
 20
0.0
 30
0.0
  3
SHAPESTRING076
  0
POLYLINE
  8
0
 62
0
 70
1
 66
1
 10
0.0
 20
0.0
 30
0.0
  0
VERTEX
  8
0
 10
200.66686986806346
 20
100.43599696099406
 30
0.0
  0
VERTEX
  8
0
 10
198.41962848875312
 20
102.0820027081205
 30
0.0
  0
VERTEX
  8
0
 10
198.14365147725886
 20
102.0820027081205
 30
0.0
  0
VERTEX
  8
0
 10
198.14365147725886
 20
103.21547971961475
 30
0.0
  0
VERTEX
  8
0
 10
198.55761699450025
 20
103.21547971961475
 30
0.0
  0
VERTEX
  8
0
 10
200.10505952323587
 20
103.02328144375268
 30
0.0
  0
VERTEX
  8
0
 10
201.2089675692129
 20
102.47625558168372
 30
0.0
  0
VERTEX
  8
0
 10
201.86441297151174
 20
101.60889925984463
 30
0.0
  0
VERTEX
  8
0
 10
202.08618021289104
 20
100.45570960467222
 30
0.0
  0
VERTEX
  8
0
 10
201.93833538530484
 20
99.54399983455728
 30
0.0
  0
VERTEX
  8
0
 10
201.48494458070712
 20
98.70621247823544
 30
0.0
  0
VERTEX
  8
0
 10
200.69151067266117
 20
98.04583891501706
 30
0.0
  0
VERTEX
  8
0
 10
199.54324917840827
 20
97.65651420237337
 30
0.0
  0
VERTEX
  8
0
 10
202.50014573013243
 20
93.24088201846533
 30
0.0
  0
VERTEX
  8
0
 10
200.87385262668414
 20
93.24088201846533
 30
0.0
  0
VERTEX
  8
0
 10
198.16829228185657
 20
97.49388489202855
 30
0.0
  0
VERTEX
  8
0
 10
198.15843596001747
 20
97.49388489202855
 30
0.0
  0
VERTEX
  8
0
 10
198.15843596001747
 20
98.60764925984464
 30
0.0
  0
VERTEX
  8
0
 10
198.4787664197876
 20
98.60764925984464
 30
0.0
  0
VERTEX
  8
0
 10
199.5087520519715
 20
98.75549408743085
 30
0.0
  0
VERTEX
  8
0
 10
200.17898193702896
 20
99.14974696099407
 30
0.0
  0
VERTEX
  8
0
 10
200.5485940059945
 20
99.7312699494998
 30
0.0
  0
SEQEND
  8
0
  0
POLYLINE
  8
0
 62
0
 70
1
 66
1
 10
0.0
 20
0.0
 30
0.0
  0
VERTEX
  8
0
 10
196.39415435082208
 20
93.24088201846533
 30
0.0
  0
VERTEX
  8
0
 10
194.99455664967266
 20
93.24088201846533
 30
0.0
  0
VERTEX
  8
0
 10
194.99455664967266
 20
103.21547971961475
 30
0.0
  0
VERTEX
  8
0
 10
196.39415435082208
 20
103.21547971961475
 30
0.0
  0
SEQEND
  8
0
  0
ENDBLK
  0
BLOCK
  8
0
  2
SHAPESTRING062
 70
0
 10
0.0
 20
0.0
 30
0.0
  3
SHAPESTRING062
  0
POLYLINE
  8
0
 62
0
 70
1
 66
1
 10
0.0
 20
0.0
 30
0.0
  0
VERTEX
  8
0
 10
150.66686986806346
 20
117.10266362766072
 30
0.0
  0
VERTEX
  8
0
 10
148.41962848875312
 20
118.74866937478716
 30
0.0
  0
VERTEX
  8
0
 10
148.14365147725886
 20
118.74866937478716
 30
0.0
  0
VERTEX
  8
0
 10
148.14365147725886
 20
119.8821463862814
 30
0.0
  0
VERTEX
  8
0
 10
148.55761699450025
 20
119.8821463862814
 30
0.0
  0
VERTEX
  8
0
 10
150.10505952323587
 20
119.68994811041934
 30
0.0
  0
VERTEX
  8
0
 10
151.2089675692129
 20
119.14292224835037
 30
0.0
  0
VERTEX
  8
0
 10
151.86441297151174
 20
118.27556592651129
 30
0.0
  0
VERTEX
  8
0
 10
152.08618021289104
 20
117.12237627133888
 30
0.0
  0
VERTEX
  8
0
 10
151.93833538530484
 20
116.21066650122394
 30
0.0
  0
VERTEX
  8
0
 10
151.48494458070712
 20
115.3728791449021
 30
0.0
  0
VERTEX
  8
0
 10
150.69151067266117
 20
114.71250558168371
 30
0.0
  0
VERTEX
  8
0
 10
149.54324917840827
 20
114.32318086904003
 30
0.0
  0
VERTEX
  8
0
 10
152.50014573013243
 20
109.90754868513199
 30
0.0
  0
VERTEX
  8
0
 10
150.87385262668414
 20
109.90754868513199
 30
0.0
  0
VERTEX
  8
0
 10
148.16829228185657
 20
114.1605515586952
 30
0.0
  0
VERTEX
  8
0
 10
148.15843596001747
 20
114.1605515586952
 30
0.0
  0
VERTEX
  8
0
 10
148.15843596001747
 20
115.27431592651129
 30
0.0
  0
VERTEX
  8
0
 10
148.4787664197876
 20
115.27431592651129
 30
0.0
  0
VERTEX
  8
0
 10
149.5087520519715
 20
115.4221607540975
 30
0.0
  0
VERTEX
  8
0
 10
150.17898193702896
 20
115.81641362766072
 30
0.0
  0
VERTEX
  8
0
 10
150.5485940059945
 20
116.39793661616646
 30
0.0
  0
SEQEND
  8
0
  0
POLYLINE
  8
0
 62
0
 70
1
 66
1
 10
0.0
 20
0.0
 30
0.0
  0
VERTEX
  8
0
 10
146.39415435082208
 20
109.90754868513199
 30
0.0
  0
VERTEX
  8
0
 10
144.99455664967266
 20
109.90754868513199
 30
0.0
  0
VERTEX
  8
0
 10
144.99455664967266
 20
119.8821463862814
 30
0.0
  0
VERTEX
  8
0
 10
146.39415435082208
 20
119.8821463862814
 30
0.0
  0
SEQEND
  8
0
  0
ENDBLK
  0
BLOCK
  8
0
  2
SHAPESTRING086
 70
0
 10
0.0
 20
0.0
 30
0.0
  3
SHAPESTRING086
  0
POLYLINE
  8
0
 62
0
 70
1
 66
1
 10
0.0
 20
0.0
 30
0.0
  0
VERTEX
  8
0
 10
184.22197044277607
 20
79.51139925984464
 30
0.0
  0
VERTEX
  8
0
 10
184.029772166914
 20
80.29990500697107
 30
0.0
  0
VERTEX
  8
0
 10
183.49753078760367
 20
80.83707454720096
 30
0.0
  0
VERTEX
  8
0
 10
182.67452791404045
 20
81.14262052421245
 30
0.0
  0
VERTEX
  8
0
 10
181.62482963817837
 20
81.24118374260325
 30
0.0
  0
VERTEX
  8
0
 10
181.62482963817837
 20
82.35001994949981
 30
0.0
  0
VERTEX
  8
0
 10
182.4231917071439
 20
82.45843948972968
 30
0.0
  0
VERTEX
  8
0
 10
183.11313423587953
 20
82.7787699494998
 30
0.0
  0
VERTEX
  8
0
 10
183.49753078760367
 20
83.28637052421244
 30
0.0
  0
VERTEX
  8
0
 10
183.62073481059218
 20
83.95167224835038
 30
0.0
  0
VERTEX
  8
0
 10
183.0589244657646
 20
85.07529293800556
 30
0.0
  0
VERTEX
  8
0
 10
181.62482963817837
 20
85.4104078805343
 30
0.0
  0
VERTEX
  8
0
 10
181.62482963817837
 20
86.54881305294808
 30
0.0
  0
VERTEX
  8
0
 10
182.92093596001746
 20
86.40589638628141
 30
0.0
  0
VERTEX
  8
0
 10
184.07412561518987
 20
85.97221822536187
 30
0.0
  0
VERTEX
  8
0
 10
184.79363710944276
 20
85.22313776559176
 30
0.0
  0
VERTEX
  8
0
 10
185.04004515541976
 20
84.12908604145383
 30
0.0
  0
VERTEX
  8
0
 10
184.91684113243124
 20
83.3405802943274
 30
0.0
  0
VERTEX
  8
0
 10
184.54722906346575
 20
82.67035040926991
 30
0.0
  0
VERTEX
  8
0
 10
183.93120894852322
 20
82.1528935127182
 30
0.0
  0
VERTEX
  8
0
 10
183.0589244657646
 20
81.83256305294807
 30
0.0
  0
VERTEX
  8
0
 10
184.17268883358068
 20
81.55658604145383
 30
0.0
  0
VERTEX
  8
0
 10
184.98090722438528
 20
81.02927282306302
 30
0.0
  0
VERTEX
  8
0
 10
185.4737233163393
 20
80.29004868513199
 30
0.0
  0
VERTEX
  8
0
 10
185.6462089485232
 20
79.38326707593659
 30
0.0
  0
VERTEX
  8
0
 10
185.3357348105922
 20
78.09208891501704
 30
0.0
  0
VERTEX
  8
0
 10
184.49794745427033
 20
77.21980443225843
 30
0.0
  0
VERTEX
  8
0
 10
183.2806917071439
 20
76.7269883403044
 30
0.0
  0
VERTEX
  8
0
 10
181.81702791404044
 20
76.57421535179866
 30
0.0
  0
VERTEX
  8
0
 10
181.62482963817837
 20
76.57421535179866
 30
0.0
  0
VERTEX
  8
0
 10
181.62482963817837
 20
77.7076923632929
 30
0.0
  0
VERTEX
  8
0
 10
181.70860837381056
 20
77.7076923632929
 30
0.0
  0
VERTEX
  8
0
 10
182.70902504047723
 20
77.79147109892509
 30
0.0
  0
VERTEX
  8
0
 10
183.50738710944276
 20
78.08223259317796
 30
0.0
  0
VERTEX
  8
0
 10
184.029772166914
 20
78.63418661616647
 30
0.0
  0
SEQEND
  8
0
  0
POLYLINE
  8
0
 62
0
 70
1
 66
1
 10
0.0
 20
0.0
 30
0.0
  0
VERTEX
  8
0
 10
179.742272166914
 20
76.57421535179866
 30
0.0
  0
VERTEX
  8
0
 10
178.32788998300597
 20
76.57421535179866
 30
0.0
  0
VERTEX
  8
0
 10
178.32788998300597
 20
86.54881305294808
 30
0.0
  0
VERTEX
  8
0
 10
179.742272166914
 20
86.54881305294808
 30
0.0
  0
SEQEND
  8
0
  0
ENDBLK
  0
BLOCK
  8
0
  2
SHAPESTRING107
 70
0
 10
0.0
 20
0.0
 30
0.0
  3
SHAPESTRING107
  0
POLYLINE
  8
0
 62
0
 70
1
 66
1
 10
0.0
 20
0.0
 30
0.0
  0
VERTEX
  8
0
 10
167.33353653473014
 20
50.43599696099407
 30
0.0
  0
VERTEX
  8
0
 10
165.0862951554198
 20
52.082002708120505
 30
0.0
  0
VERTEX
  8
0
 10
164.81031814392554
 20
52.082002708120505
 30
0.0
  0
VERTEX
  8
0
 10
164.81031814392554
 20
53.21547971961476
 30
0.0
  0
VERTEX
  8
0
 10
165.22428366116694
 20
53.21547971961476
 30
0.0
  0
VERTEX
  8
0
 10
166.77172618990255
 20
53.023281443752694
 30
0.0
  0
VERTEX
  8
0
 10
167.87563423587957
 20
52.47625558168372
 30
0.0
  0
VERTEX
  8
0
 10
168.53107963817843
 20
51.60889925984465
 30
0.0
  0
VERTEX
  8
0
 10
168.75284687955772
 20
50.45570960467223
 30
0.0
  0
VERTEX
  8
0
 10
168.60500205197152
 20
49.54399983455729
 30
0.0
  0
VERTEX
  8
0
 10
168.1516112473738
 20
48.70621247823545
 30
0.0
  0
VERTEX
  8
0
 10
167.35817733932785
 20
48.04583891501706
 30
0.0
  0
VERTEX
  8
0
 10
166.20991584507496
 20
47.65651420237338
 30
0.0
  0
VERTEX
  8
0
 10
169.16681239679912
 20
43.240882018465335
 30
0.0
  0
VERTEX
  8
0
 10
167.54051929335083
 20
43.240882018465335
 30
0.0
  0
VERTEX
  8
0
 10
164.83495894852325
 20
47.493884892028554
 30
0.0
  0
VERTEX
  8
0
 10
164.82510262668416
 20
47.493884892028554
 30
0.0
  0
VERTEX
  8
0
 10
164.82510262668416
 20
48.60764925984464
 30
0.0
  0
VERTEX
  8
0
 10
165.1454330864543
 20
48.60764925984464
 30
0.0
  0
VERTEX
  8
0
 10
166.17541871863818
 20
48.755494087430854
 30
0.0
  0
VERTEX
  8
0
 10
166.84564860369565
 20
49.14974696099407
 30
0.0
  0
VERTEX
  8
0
 10
167.21526067266117
 20
49.73126994949982
 30
0.0
  0
SEQEND
  8
0
  0
POLYLINE
  8
0
 62
0
 70
1
 66
1
 10
0.0
 20
0.0
 30
0.0
  0
VERTEX
  8
0
 10
163.06082101748876
 20
43.240882018465335
 30
0.0
  0
VERTEX
  8
0
 10
161.66122331633935
 20
43.240882018465335
 30
0.0
  0
VERTEX
  8
0
 10
161.66122331633935
 20
53.21547971961476
 30
0.0
  0
VERTEX
  8
0
 10
163.06082101748876
 20
53.21547971961476
 30
0.0
  0
SEQEND
  8
0
  0
ENDBLK
  0
BLOCK
  8
0
  2
SHAPESTRING102
 70
0
 10
0.0
 20
0.0
 30
0.0
  3
SHAPESTRING102
  0
POLYLINE
  8
0
 62
0
 70
1
 66
1
 10
0.0
 20
0.0
 30
0.0
  0
VERTEX
  8
0
 10
84.00020320139677
 20
50.43599696099407
 30
0.0
  0
VERTEX
  8
0
 10
81.75296182208643
 20
52.082002708120505
 30
0.0
  0
VERTEX
  8
0
 10
81.47698481059217
 20
52.082002708120505
 30
0.0
  0
VERTEX
  8
0
 10
81.47698481059217
 20
53.21547971961476
 30
0.0
  0
VERTEX
  8
0
 10
81.89095032783355
 20
53.21547971961476
 30
0.0
  0
VERTEX
  8
0
 10
83.43839285656918
 20
53.023281443752694
 30
0.0
  0
VERTEX
  8
0
 10
84.5423009025462
 20
52.47625558168372
 30
0.0
  0
VERTEX
  8
0
 10
85.19774630484505
 20
51.60889925984465
 30
0.0
  0
VERTEX
  8
0
 10
85.41951354622435
 20
50.45570960467223
 30
0.0
  0
VERTEX
  8
0
 10
85.27166871863815
 20
49.54399983455729
 30
0.0
  0
VERTEX
  8
0
 10
84.81827791404045
 20
48.70621247823545
 30
0.0
  0
VERTEX
  8
0
 10
84.02484400599447
 20
48.04583891501706
 30
0.0
  0
VERTEX
  8
0
 10
82.8765825117416
 20
47.65651420237338
 30
0.0
  0
VERTEX
  8
0
 10
85.83347906346575
 20
43.240882018465335
 30
0.0
  0
VERTEX
  8
0
 10
84.20718596001745
 20
43.240882018465335
 30
0.0
  0
VERTEX
  8
0
 10
81.50162561518988
 20
47.493884892028554
 30
0.0
  0
VERTEX
  8
0
 10
81.4917692933508
 20
47.493884892028554
 30
0.0
  0
VERTEX
  8
0
 10
81.4917692933508
 20
48.60764925984464
 30
0.0
  0
VERTEX
  8
0
 10
81.8120997531209
 20
48.60764925984464
 30
0.0
  0
VERTEX
  8
0
 10
82.84208538530481
 20
48.755494087430854
 30
0.0
  0
VERTEX
  8
0
 10
83.5123152703623
 20
49.14974696099407
 30
0.0
  0
VERTEX
  8
0
 10
83.8819273393278
 20
49.73126994949982
 30
0.0
  0
SEQEND
  8
0
  0
POLYLINE
  8
0
 62
0
 70
1
 66
1
 10
0.0
 20
0.0
 30
0.0
  0
VERTEX
  8
0
 10
79.72748768415539
 20
43.240882018465335
 30
0.0
  0
VERTEX
  8
0
 10
78.32788998300597
 20
43.240882018465335
 30
0.0
  0
VERTEX
  8
0
 10
78.32788998300597
 20
53.21547971961476
 30
0.0
  0
VERTEX
  8
0
 10
79.72748768415539
 20
53.21547971961476
 30
0.0
  0
SEQEND
  8
0
  0
ENDBLK
  0
BLOCK
  8
0
  2
SHAPESTRING104
 70
0
 10
0.0
 20
0.0
 30
0.0
  3
SHAPESTRING104
  0
POLYLINE
  8
0
 62
0
 70
1
 66
1
 10
0.0
 20
0.0
 30
0.0
  0
VERTEX
  8
0
 10
117.55530377610943
 20
46.17806592651131
 30
0.0
  0
VERTEX
  8
0
 10
117.36310550024736
 20
46.96657167363775
 30
0.0
  0
VERTEX
  8
0
 10
116.83086412093701
 20
47.503741213867634
 30
0.0
  0
VERTEX
  8
0
 10
116.0078612473738
 20
47.809287190879125
 30
0.0
  0
VERTEX
  8
0
 10
114.95816297151173
 20
47.90785040926993
 30
0.0
  0
VERTEX
  8
0
 10
114.95816297151173
 20
49.01668661616648
 30
0.0
  0
VERTEX
  8
0
 10
115.75652504047724
 20
49.12510615639637
 30
0.0
  0
VERTEX
  8
0
 10
116.44646756921287
 20
49.44543661616648
 30
0.0
  0
VERTEX
  8
0
 10
116.83086412093701
 20
49.95303719087913
 30
0.0
  0
VERTEX
  8
0
 10
116.95406814392551
 20
50.61833891501706
 30
0.0
  0
VERTEX
  8
0
 10
116.39225779909793
 20
51.74195960467223
 30
0.0
  0
VERTEX
  8
0
 10
114.95816297151173
 20
52.077074547200965
 30
0.0
  0
VERTEX
  8
0
 10
114.95816297151173
 20
53.21547971961476
 30
0.0
  0
VERTEX
  8
0
 10
116.2542692933508
 20
53.07256305294809
 30
0.0
  0
VERTEX
  8
0
 10
117.40745894852321
 20
52.63888489202856
 30
0.0
  0
VERTEX
  8
0
 10
118.1269704427761
 20
51.88980443225844
 30
0.0
  0
VERTEX
  8
0
 10
118.3733784887531
 20
50.79575270812051
 30
0.0
  0
VERTEX
  8
0
 10
118.2501744657646
 20
50.00724696099407
 30
0.0
  0
VERTEX
  8
0
 10
117.88056239679908
 20
49.3370170759366
 30
0.0
  0
VERTEX
  8
0
 10
117.26454228185655
 20
48.81956017938487
 30
0.0
  0
VERTEX
  8
0
 10
116.39225779909793
 20
48.49922971961476
 30
0.0
  0
VERTEX
  8
0
 10
117.50602216691402
 20
48.223252708120505
 30
0.0
  0
VERTEX
  8
0
 10
118.31424055771862
 20
47.6959394897297
 30
0.0
  0
VERTEX
  8
0
 10
118.80705664967265
 20
46.95671535179867
 30
0.0
  0
VERTEX
  8
0
 10
118.97954228185655
 20
46.049933742603265
 30
0.0
  0
VERTEX
  8
0
 10
118.66906814392551
 20
44.75875558168372
 30
0.0
  0
VERTEX
  8
0
 10
117.83128078760367
 20
43.88647109892511
 30
0.0
  0
VERTEX
  8
0
 10
116.61402504047724
 20
43.39365500697108
 30
0.0
  0
VERTEX
  8
0
 10
115.1503612473738
 20
43.240882018465335
 30
0.0
  0
VERTEX
  8
0
 10
114.95816297151173
 20
43.240882018465335
 30
0.0
  0
VERTEX
  8
0
 10
114.95816297151173
 20
44.374359029959585
 30
0.0
  0
VERTEX
  8
0
 10
115.0419417071439
 20
44.374359029959585
 30
0.0
  0
VERTEX
  8
0
 10
116.04235837381057
 20
44.45813776559177
 30
0.0
  0
VERTEX
  8
0
 10
116.84072044277609
 20
44.74889925984465
 30
0.0
  0
VERTEX
  8
0
 10
117.36310550024736
 20
45.30085328283315
 30
0.0
  0
SEQEND
  8
0
  0
POLYLINE
  8
0
 62
0
 70
1
 66
1
 10
0.0
 20
0.0
 30
0.0
  0
VERTEX
  8
0
 10
113.07560550024736
 20
43.240882018465335
 30
0.0
  0
VERTEX
  8
0
 10
111.66122331633932
 20
43.240882018465335
 30
0.0
  0
VERTEX
  8
0
 10
111.66122331633932
 20
53.21547971961476
 30
0.0
  0
VERTEX
  8
0
 10
113.07560550024736
 20
53.21547971961476
 30
0.0
  0
SEQEND
  8
0
  0
ENDBLK
  0
BLOCK
  8
0
  2
SHAPESTRING106
 70
0
 10
0.0
 20
0.0
 30
0.0
  3
SHAPESTRING106
  0
POLYLINE
  8
0
 62
0
 70
1
 66
1
 10
0.0
 20
0.0
 30
0.0
  0
VERTEX
  8
0
 10
146.4089388335807
 20
43.240882018465335
 30
0.0
  0
VERTEX
  8
0
 10
144.99455664967266
 20
43.240882018465335
 30
0.0
  0
VERTEX
  8
0
 10
144.99455664967266
 20
53.21547971961476
 30
0.0
  0
VERTEX
  8
0
 10
146.41386699450024
 20
53.21547971961476
 30
0.0
  0
SEQEND
  8
0
  0
POLYLINE
  8
0
 62
0
 70
1
 66
1
 10
0.0
 20
0.0
 30
0.0
  0
VERTEX
  8
0
 10
150.65208538530484
 20
50.20437339777568
 30
0.0
  0
VERTEX
  8
0
 10
150.04592159220138
 20
51.6039710989251
 30
0.0
  0
VERTEX
  8
0
 10
148.22743021289105
 20
52.082002708120505
 30
0.0
  0
VERTEX
  8
0
 10
148.22743021289105
 20
53.21547971961476
 30
0.0
  0
VERTEX
  8
0
 10
148.3949876841554
 20
53.21547971961476
 30
0.0
  0
VERTEX
  8
0
 10
150.00649630484506
 20
52.99864063915499
 30
0.0
  0
VERTEX
  8
0
 10
151.15475779909795
 20
52.392476846051544
 30
0.0
  0
VERTEX
  8
0
 10
151.83977216691403
 20
51.451198110419355
 30
0.0
  0
VERTEX
  8
0
 10
152.07139573013242
 20
50.22901420237338
 30
0.0
  0
VERTEX
  8
0
 10
151.84962848875313
 20
49.0314710989251
 30
0.0
  0
VERTEX
  8
0
 10
151.18432676461518
 20
48.016269949499815
 30
0.0
  0
VERTEX
  8
0
 10
150.06563423587954
 20
47.306614777086025
 30
0.0
  0
VERTEX
  8
0
 10
148.48369458070712
 20
47.04049408743085
 30
0.0
  0
VERTEX
  8
0
 10
148.22743021289105
 20
47.04049408743085
 30
0.0
  0
VERTEX
  8
0
 10
148.22743021289105
 20
48.15918661616649
 30
0.0
  0
VERTEX
  8
0
 10
148.28656814392554
 20
48.15918661616649
 30
0.0
  0
VERTEX
  8
0
 10
149.3362664197876
 20
48.31688776559177
 30
0.0
  0
VERTEX
  8
0
 10
150.07549055771864
 20
48.74563776559177
 30
0.0
  0
VERTEX
  8
0
 10
150.50916871863816
 20
49.396155006971085
 30
0.0
  0
SEQEND
  8
0
  0
ENDBLK
  0
BLOCK
  8
0
  2
SHAPESTRING120
 70
0
 10
0.0
 20
0.0
 30
0.0
  3
SHAPESTRING120
  0
POLYLINE
  8
0
 62
0
 70
1
 66
1
 10
0.0
 20
0.0
 30
0.0
  0
VERTEX
  8
0
 10
196.4089388335807
 20
26.57421535179865
 30
0.0
  0
VERTEX
  8
0
 10
194.99455664967266
 20
26.57421535179865
 30
0.0
  0
VERTEX
  8
0
 10
194.99455664967266
 20
36.54881305294808
 30
0.0
  0
VERTEX
  8
0
 10
196.41386699450024
 20
36.54881305294808
 30
0.0
  0
SEQEND
  8
0
  0
POLYLINE
  8
0
 62
0
 70
1
 66
1
 10
0.0
 20
0.0
 30
0.0
  0
VERTEX
  8
0
 10
200.65208538530484
 20
33.537706731109
 30
0.0
  0
VERTEX
  8
0
 10
200.04592159220138
 20
34.937304432258415
 30
0.0
  0
VERTEX
  8
0
 10
198.22743021289105
 20
35.41533604145382
 30
0.0
  0
VERTEX
  8
0
 10
198.22743021289105
 20
36.54881305294808
 30
0.0
  0
VERTEX
  8
0
 10
198.3949876841554
 20
36.54881305294808
 30
0.0
  0
VERTEX
  8
0
 10
200.00649630484506
 20
36.331973972488306
 30
0.0
  0
VERTEX
  8
0
 10
201.15475779909795
 20
35.72581017938486
 30
0.0
  0
VERTEX
  8
0
 10
201.83977216691403
 20
34.78453144375267
 30
0.0
  0
VERTEX
  8
0
 10
202.07139573013242
 20
33.56234753570669
 30
0.0
  0
VERTEX
  8
0
 10
201.84962848875313
 20
32.36480443225842
 30
0.0
  0
VERTEX
  8
0
 10
201.18432676461518
 20
31.349603282833133
 30
0.0
  0
VERTEX
  8
0
 10
200.06563423587954
 20
30.63994811041934
 30
0.0
  0
VERTEX
  8
0
 10
198.48369458070712
 20
30.373827420764165
 30
0.0
  0
VERTEX
  8
0
 10
198.22743021289105
 20
30.373827420764165
 30
0.0
  0
VERTEX
  8
0
 10
198.22743021289105
 20
31.492519949499798
 30
0.0
  0
VERTEX
  8
0
 10
198.28656814392554
 20
31.492519949499798
 30
0.0
  0
VERTEX
  8
0
 10
199.3362664197876
 20
31.650221098925087
 30
0.0
  0
VERTEX
  8
0
 10
200.07549055771864
 20
32.07897109892509
 30
0.0
  0
VERTEX
  8
0
 10
200.50916871863816
 20
32.7294883403044
 30
0.0
  0
SEQEND
  8
0
  0
ENDBLK
  0
ENDSEC
  0
SECTION
  2
ENTITIES
  0
CIRCLE
  8
0
 62
0
 10
115.0
 20
218.33333333333331
 30
0.0
 40
2.5
  0
POLYLINE
  8
0
 62
0
 70
1
 66
1
 10
0.0
 20
0.0
 30
0.0
  0
VERTEX
  8
0
 10
115.64810550024735
 20
133.62641362766072
 30
0.0
  0
VERTEX
  8
0
 10
115.4460509025462
 20
134.19315213340786
 30
0.0
  0
VERTEX
  8
0
 10
115.25878078760368
 20
134.7401779954768
 30
0.0
  0
VERTEX
  8
0
 10
115.11093596001747
 20
135.19849696099405
 30
0.0
  0
VERTEX
  8
0
 10
115.01730090254621
 20
135.48433029432738
 30
0.0
  0
VERTEX
  8
0
 10
114.92859400599448
 20
135.19356880007453
 30
0.0
  0
VERTEX
  8
0
 10
114.78567733932782
 20
134.73524983455727
 30
0.0
  0
VERTEX
  8
0
 10
114.60826354622436
 20
134.18822397248832
 30
0.0
  0
VERTEX
  8
0
 10
114.42099343128184
 20
133.62641362766072
 30
0.0
  0
VERTEX
  8
0
 10
111.91255952323586
 20
126.57421535179866
 30
0.0
  0
VERTEX
  8
0
 10
110.46368021289103
 20
126.57421535179866
 30
0.0
  0
VERTEX
  8
0
 10
114.23372331633931
 20
136.54881305294808
 30
0.0
  0
VERTEX
  8
0
 10
115.84030377610942
 20
136.54881305294808
 30
0.0
  0
VERTEX
  8
0
 10
119.54135262668413
 20
126.57421535179866
 30
0.0
  0
VERTEX
  8
0
 10
118.10725779909794
 20
126.57421535179866
 30
0.0
  0
VERTEX
  8
0
 10
117.08712848875311
 20
129.39805155869522
 30
0.0
  0
VERTEX
  8
0
 10
114.86945607496
 20
129.39805155869522
 30
0.0
  0
VERTEX
  8
0
 10
115.23413998300597
 20
130.5019596046722
 30
0.0
  0
VERTEX
  8
0
 10
116.72737274162667
 20
130.5019596046722
 30
0.0
  0
SEQEND
  8
0
  0
POLYLINE
  8
0
 62
0
 70
1
 66
1
 10
0.0
 20
0.0
 30
0.0
  0
VERTEX
  8
0
 10
95.29024630484506
 20
203.33375558168376
 30
0.0
  0
VERTEX
  8
0
 10
101.37652504047723
 20
203.33375558168376
 30
0.0
  0
VERTEX
  8
0
 10
101.37652504047723
 20
202.07214638628145
 30
0.0
  0
VERTEX
  8
0
 10
99.04057676461517
 20
202.07214638628145
 30
0.0
  0
VERTEX
  8
0
 10
99.04057676461517
 20
194.50249121386764
 30
0.0
  0
VERTEX
  8
0
 10
101.37652504047723
 20
194.50249121386764
 30
0.0
  0
VERTEX
  8
0
 10
101.37652504047723
 20
193.24088201846536
 30
0.0
  0
VERTEX
  8
0
 10
95.29024630484506
 20
193.24088201846536
 30
0.0
  0
VERTEX
  8
0
 10
95.29024630484506
 20
194.50249121386764
 30
0.0
  0
VERTEX
  8
0
 10
97.62619458070712
 20
194.50249121386764
 30
0.0
  0
VERTEX
  8
0
 10
97.62619458070712
 20
202.07214638628145
 30
0.0
  0
VERTEX
  8
0
 10
95.29024630484506
 20
202.07214638628145
 30
0.0
  0
SEQEND
  8
0
  0
INSERT
  2
SHAPESTRING006
  8
0
 62
0
 10
0.0
 20
0.0
 30
0.0
  0
POLYLINE
  8
0
 62
0
 70
1
 66
1
 10
0.0
 20
0.0
 30
0.0
  0
VERTEX
  8
0
 10
45.29024630484507
 20
170.0004222483504
 30
0.0
  0
VERTEX
  8
0
 10
51.37652504047725
 20
170.0004222483504
 30
0.0
  0
VERTEX
  8
0
 10
51.37652504047725
 20
168.7388130529481
 30
0.0
  0
VERTEX
  8
0
 10
49.04057676461518
 20
168.7388130529481
 30
0.0
  0
VERTEX
  8
0
 10
49.04057676461518
 20
161.1691578805343
 30
0.0
  0
VERTEX
  8
0
 10
51.37652504047725
 20
161.1691578805343
 30
0.0
  0
VERTEX
  8
0
 10
51.37652504047725
 20
159.907548685132
 30
0.0
  0
VERTEX
  8
0
 10
45.29024630484507
 20
159.907548685132
 30
0.0
  0
VERTEX
  8
0
 10
45.29024630484507
 20
161.1691578805343
 30
0.0
  0
VERTEX
  8
0
 10
47.626194580707136
 20
161.1691578805343
 30
0.0
  0
VERTEX
  8
0
 10
47.626194580707136
 20
168.7388130529481
 30
0.0
  0
VERTEX
  8
0
 10
45.29024630484507
 20
168.7388130529481
 30
0.0
  0
SEQEND
  8
0
  0
POLYLINE
  8
0
 62
0
 70
1
 66
1
 10
0.0
 20
0.0
 30
0.0
  0
VERTEX
  8
0
 10
79.97882389105195
 20
168.7388130529481
 30
0.0
  0
VERTEX
  8
0
 10
79.97882389105195
 20
165.58479006444236
 30
0.0
  0
VERTEX
  8
0
 10
84.97597906346574
 20
165.58479006444236
 30
0.0
  0
VERTEX
  8
0
 10
84.97597906346574
 20
164.32318086904007
 30
0.0
  0
VERTEX
  8
0
 10
79.97882389105195
 20
164.32318086904007
 30
0.0
  0
VERTEX
  8
0
 10
79.97882389105195
 20
159.907548685132
 30
0.0
  0
VERTEX
  8
0
 10
78.5644417071439
 20
159.907548685132
 30
0.0
  0
VERTEX
  8
0
 10
78.5644417071439
 20
170.0004222483504
 30
0.0
  0
VERTEX
  8
0
 10
85.15339285656918
 20
170.0004222483504
 30
0.0
  0
VERTEX
  8
0
 10
85.15339285656918
 20
168.7388130529481
 30
0.0
  0
SEQEND
  8
0
  0
POLYLINE
  8
0
 62
0
 70
1
 66
1
 10
0.0
 20
0.0
 30
0.0
  0
VERTEX
  8
0
 10
115.64810550024735
 20
183.62641362766078
 30
0.0
  0
VERTEX
  8
0
 10
115.4460509025462
 20
184.1931521334079
 30
0.0
  0
VERTEX
  8
0
 10
115.25878078760368
 20
184.74017799547687
 30
0.0
  0
VERTEX
  8
0
 10
115.11093596001747
 20
185.1984969609941
 30
0.0
  0
VERTEX
  8
0
 10
115.01730090254621
 20
185.48433029432744
 30
0.0
  0
VERTEX
  8
0
 10
114.92859400599448
 20
185.19356880007456
 30
0.0
  0
VERTEX
  8
0
 10
114.78567733932782
 20
184.73524983455732
 30
0.0
  0
VERTEX
  8
0
 10
114.60826354622436
 20
184.18822397248834
 30
0.0
  0
VERTEX
  8
0
 10
114.42099343128184
 20
183.62641362766078
 30
0.0
  0
VERTEX
  8
0
 10
111.91255952323586
 20
176.5742153517987
 30
0.0
  0
VERTEX
  8
0
 10
110.46368021289103
 20
176.5742153517987
 30
0.0
  0
VERTEX
  8
0
 10
114.23372331633931
 20
186.54881305294813
 30
0.0
  0
VERTEX
  8
0
 10
115.84030377610942
 20
186.54881305294813
 30
0.0
  0
VERTEX
  8
0
 10
119.54135262668413
 20
176.5742153517987
 30
0.0
  0
VERTEX
  8
0
 10
118.10725779909794
 20
176.5742153517987
 30
0.0
  0
VERTEX
  8
0
 10
117.08712848875311
 20
179.39805155869524
 30
0.0
  0
VERTEX
  8
0
 10
114.86945607496
 20
179.39805155869524
 30
0.0
  0
VERTEX
  8
0
 10
115.23413998300597
 20
180.50195960467227
 30
0.0
  0
VERTEX
  8
0
 10
116.72737274162667
 20
180.50195960467227
 30
0.0
  0
SEQEND
  8
0
  0
POLYLINE
  8
0
 62
0
 70
1
 66
1
 10
0.0
 20
0.0
 30
0.0
  0
VERTEX
  8
0
 10
51.82005952323587
 20
180.3344021334079
 30
0.0
  0
VERTEX
  8
0
 10
51.6032204427761
 20
178.6095458115688
 30
0.0
  0
VERTEX
  8
0
 10
50.947775040477254
 20
177.44157167363778
 30
0.0
  0
VERTEX
  8
0
 10
49.8389388335807
 20
176.78119811041938
 30
0.0
  0
VERTEX
  8
0
 10
48.27178366116691
 20
176.5742153517987
 30
0.0
  0
VERTEX
  8
0
 10
46.768694580707134
 20
176.76641362766077
 30
0.0
  0
VERTEX
  8
0
 10
45.69928366116691
 20
177.39229006444236
 30
0.0
  0
VERTEX
  8
0
 10
45.05862274162668
 20
178.51591075409755
 30
0.0
  0
VERTEX
  8
0
 10
44.84671182208645
 20
180.2013417885803
 30
0.0
  0
VERTEX
  8
0
 10
44.84671182208645
 20
186.66708891501708
 30
0.0
  0
VERTEX
  8
0
 10
46.261094005994494
 20
186.66708891501708
 30
0.0
  0
VERTEX
  8
0
 10
46.261094005994494
 20
180.47731880007456
 30
0.0
  0
VERTEX
  8
0
 10
46.354729063465754
 20
179.2699193747872
 30
0.0
  0
VERTEX
  8
0
 10
46.67013136231633
 20
178.446916501224
 30
0.0
  0
VERTEX
  8
0
 10
47.28615147725886
 20
177.97874121386766
 30
0.0
  0
VERTEX
  8
0
 10
48.26685550024737
 20
177.83582454720099
 30
0.0
  0
VERTEX
  8
0
 10
49.286984810592195
 20
177.97874121386766
 30
0.0
  0
VERTEX
  8
0
 10
49.95228653473012
 20
178.446916501224
 30
0.0
  0
VERTEX
  8
0
 10
50.30711412093702
 20
179.29456017938492
 30
0.0
  0
VERTEX
  8
0
 10
50.415533661166904
 20
180.57095385754582
 30
0.0
  0
VERTEX
  8
0
 10
50.415533661166904
 20
186.66708891501708
 30
0.0
  0
VERTEX
  8
0
 10
51.82005952323587
 20
186.66708891501708
 30
0.0
  0
SEQEND
  8
0
  0
POLYLINE
  8
0
 62
0
 70
1
 66
1
 10
0.0
 20
0.0
 30
0.0
  0
VERTEX
  8
0
 10
198.9814388335807
 20
200.29308029432744
 30
0.0
  0
VERTEX
  8
0
 10
198.77938423587955
 20
200.85981880007455
 30
0.0
  0
VERTEX
  8
0
 10
198.59211412093703
 20
201.40684466214353
 30
0.0
  0
VERTEX
  8
0
 10
198.44426929335083
 20
201.86516362766076
 30
0.0
  0
VERTEX
  8
0
 10
198.35063423587954
 20
202.1509969609941
 30
0.0
  0
VERTEX
  8
0
 10
198.26192733932783
 20
201.86023546674122
 30
0.0
  0
VERTEX
  8
0
 10
198.11901067266115
 20
201.40191650122398
 30
0.0
  0
VERTEX
  8
0
 10
197.94159687955772
 20
200.854890639155
 30
0.0
  0
VERTEX
  8
0
 10
197.75432676461517
 20
200.29308029432744
 30
0.0
  0
VERTEX
  8
0
 10
195.2458928565692
 20
193.24088201846536
 30
0.0
  0
VERTEX
  8
0
 10
193.79701354622438
 20
193.24088201846536
 30
0.0
  0
VERTEX
  8
0
 10
197.56705664967265
 20
203.2154797196148
 30
0.0
  0
VERTEX
  8
0
 10
199.17363710944278
 20
203.2154797196148
 30
0.0
  0
VERTEX
  8
0
 10
202.87468596001747
 20
193.24088201846536
 30
0.0
  0
VERTEX
  8
0
 10
201.44059113243128
 20
193.24088201846536
 30
0.0
  0
VERTEX
  8
0
 10
200.42046182208645
 20
196.0647182253619
 30
0.0
  0
VERTEX
  8
0
 10
198.20278940829334
 20
196.0647182253619
 30
0.0
  0
VERTEX
  8
0
 10
198.56747331633932
 20
197.16862627133892
 30
0.0
  0
VERTEX
  8
0
 10
200.06070607496002
 20
197.16862627133892
 30
0.0
  0
SEQEND
  8
0
  0
INSERT
  2
SHAPESTRING008
  8
0
 62
0
 10
0.0
 20
0.0
 30
0.0
  0
POLYLINE
  8
0
 62
0
 70
1
 66
1
 10
0.0
 20
0.0
 30
0.0
  0
VERTEX
  8
0
 10
33.31026067266115
 20
176.5742153517987
 30
0.0
  0
VERTEX
  8
0
 10
29.466295155419772
 20
185.04572397248836
 30
0.0
  0
VERTEX
  8
0
 10
29.525433086454253
 20
184.38535040926996
 30
0.0
  0
VERTEX
  8
0
 10
29.564858373810576
 20
183.76440213340788
 30
0.0
  0
VERTEX
  8
0
 10
29.584571017488738
 20
183.14345385754584
 30
0.0
  0
VERTEX
  8
0
 10
29.584571017488738
 20
176.5742153517987
 30
0.0
  0
VERTEX
  8
0
 10
28.327889983005978
 20
176.5742153517987
 30
0.0
  0
VERTEX
  8
0
 10
28.327889983005978
 20
186.66708891501708
 30
0.0
  0
VERTEX
  8
0
 10
29.968967569212875
 20
186.66708891501708
 30
0.0
  0
VERTEX
  8
0
 10
33.872071017488736
 20
178.13644236329296
 30
0.0
  0
VERTEX
  8
0
 10
33.80800492553471
 20
178.78203144375271
 30
0.0
  0
VERTEX
  8
0
 10
33.758723316339314
 20
179.43747684605157
 30
0.0
  0
VERTEX
  8
0
 10
33.73901067266115
 20
180.19148546674123
 30
0.0
  0
VERTEX
  8
0
 10
33.73901067266115
 20
186.66708891501708
 30
0.0
  0
VERTEX
  8
0
 10
35.01047618990253
 20
186.66708891501708
 30
0.0
  0
VERTEX
  8
0
 10
35.01047618990253
 20
176.5742153517987
 30
0.0
  0
SEQEND
  8
0
  0
POLYLINE
  8
0
 62
0
 70
1
 66
1
 10
0.0
 20
0.0
 30
0.0
  0
VERTEX
  8
0
 10
68.80212848875311
 20
179.40790788053434
 30
0.0
  0
VERTEX
  8
0
 10
68.57050492553472
 20
178.26950270812054
 30
0.0
  0
VERTEX
  8
0
 10
67.87563423587955
 20
177.37257742076423
 30
0.0
  0
VERTEX
  8
0
 10
66.68301929335081
 20
176.78119811041938
 30
0.0
  0
VERTEX
  8
0
 10
64.97294745427035
 20
176.5742153517987
 30
0.0
  0
VERTEX
  8
0
 10
62.277243431281846
 20
177.2345889150171
 30
0.0
  0
VERTEX
  8
0
 10
61.05013136231633
 20
179.1467153517987
 30
0.0
  0
VERTEX
  8
0
 10
62.41523193702897
 20
179.41283604145386
 30
0.0
  0
VERTEX
  8
0
 10
62.681352626684145
 20
178.7672469609941
 30
0.0
  0
VERTEX
  8
0
 10
63.16924055771863
 20
178.2744308690401
 30
0.0
  0
VERTEX
  8
0
 10
63.928177339327824
 20
177.94917224835044
 30
0.0
  0
VERTEX
  8
0
 10
65.01237274162668
 20
177.83582454720099
 30
0.0
  0
VERTEX
  8
0
 10
65.9832204427761
 20
177.92453144375273
 30
0.0
  0
VERTEX
  8
0
 10
66.73722906346575
 20
178.20050845524696
 30
0.0
  0
VERTEX
  8
0
 10
67.23004515541977
 20
178.6785400644424
 30
0.0
  0
VERTEX
  8
0
 10
67.40745894852323
 20
179.38326707593663
 30
0.0
  0
VERTEX
  8
0
 10
67.16597906346576
 20
180.2111981104194
 30
0.0
  0
VERTEX
  8
0
 10
66.5351744657646
 20
180.73358316789066
 30
0.0
  0
VERTEX
  8
0
 10
65.6530336611669
 20
181.06376994949986
 30
0.0
  0
VERTEX
  8
0
 10
64.65754515541978
 20
181.3151061563964
 30
0.0
  0
VERTEX
  8
0
 10
63.90846469564966
 20
181.512232593178
 30
0.0
  0
VERTEX
  8
0
 10
63.18402504047725
 20
181.75864063915503
 30
0.0
  0
VERTEX
  8
0
 10
62.53843596001748
 20
182.09375558168375
 30
0.0
  0
VERTEX
  8
0
 10
62.01605090254621
 20
182.55700270812054
 30
0.0
  0
VERTEX
  8
0
 10
61.66122331633932
 20
183.19766362766077
 30
0.0
  0
VERTEX
  8
0
 10
61.538019293350814
 20
184.05516362766076
 30
0.0
  0
VERTEX
  8
0
 10
61.80413998300598
 20
185.2477785701895
 30
0.0
  0
VERTEX
  8
0
 10
62.53350779909794
 20
186.06092512191364
 30
0.0
  0
VERTEX
  8
0
 10
63.63741584507495
 20
186.51924408743088
 30
0.0
  0
VERTEX
  8
0
 10
65.01237274162668
 20
186.66708891501708
 30
0.0
  0
VERTEX
  8
0
 10
66.47110837381058
 20
186.51924408743088
 30
0.0
  0
VERTEX
  8
0
 10
67.49123768415541
 20
186.08556592651135
 30
0.0
  0
VERTEX
  8
0
 10
68.16146756921287
 20
185.370982593178
 30
0.0
  0
VERTEX
  8
0
 10
68.56064860369564
 20
184.3754940874309
 30
0.0
  0
VERTEX
  8
0
 10
67.17090722438529
 20
184.1438705242125
 30
0.0
  0
VERTEX
  8
0
 10
66.92942733932782
 20
184.81902857018952
 30
0.0
  0
VERTEX
  8
0
 10
66.5105336611669
 20
185.31184466214353
 30
0.0
  0
VERTEX
  8
0
 10
65.87972906346576
 20
185.61739063915502
 30
0.0
  0
VERTEX
  8
0
 10
65.00744458070713
 20
185.72088201846537
 30
0.0
  0
VERTEX
  8
0
 10
64.01688423587954
 20
185.5927498345573
 30
0.0
  0
VERTEX
  8
0
 10
63.37129515541978
 20
185.24285040926998
 30
0.0
  0
VERTEX
  8
0
 10
63.02139573013242
 20
184.72539351271823
 30
0.0
  0
VERTEX
  8
0
 10
62.91297618990254
 20
184.07487627133892
 30
0.0
  0
VERTEX
  8
0
 10
63.105174465764605
 20
183.36522109892513
 30
0.0
  0
VERTEX
  8
0
 10
63.63741584507495
 20
182.91675845524696
 30
0.0
  0
VERTEX
  8
0
 10
64.42099343128184
 20
182.62106880007457
 30
0.0
  0
VERTEX
  8
0
 10
65.38198481059219
 20
182.37466075409756
 30
0.0
  0
VERTEX
  8
0
 10
66.20005952323586
 20
182.16274983455733
 30
0.0
  0
VERTEX
  8
0
 10
66.99349343128185
 20
181.89662914490214
 30
0.0
  0
VERTEX
  8
0
 10
67.70314860369564
 20
181.5368733977757
 30
0.0
  0
VERTEX
  8
0
 10
68.27481527036231
 20
181.02927282306305
 30
0.0
  0
VERTEX
  8
0
 10
68.65921182208645
 20
180.3344021334079
 30
0.0
  0
SEQEND
  8
0
  0
POLYLINE
  8
0
 62
0
 70
1
 66
1
 10
0.0
 20
0.0
 30
0.0
  0
VERTEX
  8
0
 10
84.54722906346574
 20
176.5742153517987
 30
0.0
  0
VERTEX
  8
0
 10
80.94474343128184
 20
181.3496032828332
 30
0.0
  0
VERTEX
  8
0
 10
79.74227216691402
 20
180.1027785701895
 30
0.0
  0
VERTEX
  8
0
 10
79.74227216691402
 20
176.5742153517987
 30
0.0
  0
VERTEX
  8
0
 10
78.32788998300597
 20
176.5742153517987
 30
0.0
  0
VERTEX
  8
0
 10
78.32788998300597
 20
186.66708891501708
 30
0.0
  0
VERTEX
  8
0
 10
79.74227216691402
 20
186.66708891501708
 30
0.0
  0
VERTEX
  8
0
 10
79.74227216691402
 20
181.63050845524697
 30
0.0
  0
VERTEX
  8
0
 10
83.97063423587953
 20
186.66708891501708
 30
0.0
  0
VERTEX
  8
0
 10
85.63142446576458
 20
186.66708891501708
 30
0.0
  0
VERTEX
  8
0
 10
81.90573481059218
 20
182.37958891501708
 30
0.0
  0
VERTEX
  8
0
 10
86.20309113243125
 20
176.5742153517987
 30
0.0
  0
SEQEND
  8
0
  0
POLYLINE
  8
0
 62
0
 70
1
 66
1
 10
0.0
 20
0.0
 30
0.0
  0
VERTEX
  8
0
 10
101.3223152703623
 20
176.5742153517987
 30
0.0
  0
VERTEX
  8
0
 10
99.78472906346575
 20
176.5742153517987
 30
0.0
  0
VERTEX
  8
0
 10
99.01593596001747
 20
179.46211765064928
 30
0.0
  0
VERTEX
  8
0
 10
98.92722906346575
 20
179.79723259317802
 30
0.0
  0
VERTEX
  8
0
 10
98.81880952323586
 20
180.2111981104194
 30
0.0
  0
VERTEX
  8
0
 10
98.71038998300597
 20
180.66458891501708
 30
0.0
  0
VERTEX
  8
0
 10
98.60197044277609
 20
181.12783604145386
 30
0.0
  0
VERTEX
  8
0
 10
98.35063423587954
 20
182.21695960467227
 30
0.0
  0
VERTEX
  8
0
 10
98.09436986806344
 20
181.1179797196148
 30
0.0
  0
VERTEX
  8
0
 10
97.98595032783356
 20
180.65966075409756
 30
0.0
  0
VERTEX
  8
0
 10
97.87260262668413
 20
180.20626994949984
 30
0.0
  0
VERTEX
  8
0
 10
97.76418308645425
 20
179.79230443225848
 30
0.0
  0
VERTEX
  8
0
 10
97.68040435082206
 20
179.46211765064928
 30
0.0
  0
VERTEX
  8
0
 10
96.89682676461517
 20
176.5742153517987
 30
0.0
  0
VERTEX
  8
0
 10
95.35924055771862
 20
176.5742153517987
 30
0.0
  0
VERTEX
  8
0
 10
93.79701354622436
 20
186.66708891501708
 30
0.0
  0
VERTEX
  8
0
 10
95.1966112473738
 20
186.66708891501708
 30
0.0
  0
VERTEX
  8
0
 10
96.00482963817839
 20
180.408324547201
 30
0.0
  0
VERTEX
  8
0
 10
96.10339285656919
 20
179.45718948972973
 30
0.0
  0
VERTEX
  8
0
 10
96.18224343128183
 20
178.62433029432742
 30
0.0
  0
VERTEX
  8
0
 10
96.24630952323585
 20
177.81611190352282
 30
0.0
  0
VERTEX
  8
0
 10
96.48286124737379
 20
178.83131305294813
 30
0.0
  0
VERTEX
  8
0
 10
96.5814244657646
 20
179.27484753570675
 30
0.0
  0
VERTEX
  8
0
 10
96.68984400599447
 20
179.7233101793849
 30
0.0
  0
VERTEX
  8
0
 10
96.79826354622436
 20
180.15698834030445
 30
0.0
  0
VERTEX
  8
0
 10
96.89682676461517
 20
180.5315285701895
 30
0.0
  0
VERTEX
  8
0
 10
97.70011699450022
 20
183.51306592651133
 30
0.0
  0
VERTEX
  8
0
 10
98.99622331633931
 20
183.51306592651133
 30
0.0
  0
VERTEX
  8
0
 10
99.79951354622436
 20
180.5315285701895
 30
0.0
  0
VERTEX
  8
0
 10
99.89314860369562
 20
180.15698834030445
 30
0.0
  0
VERTEX
  8
0
 10
100.00156814392551
 20
179.72823834030444
 30
0.0
  0
VERTEX
  8
0
 10
100.1099876841554
 20
179.28470385754582
 30
0.0
  0
VERTEX
  8
0
 10
100.21347906346574
 20
178.8411693747872
 30
0.0
  0
VERTEX
  8
0
 10
100.45003078760368
 20
177.81611190352282
 30
0.0
  0
VERTEX
  8
0
 10
100.47959975312091
 20
178.06744811041938
 30
0.0
  0
VERTEX
  8
0
 10
100.5387376841554
 20
178.70810902995962
 30
0.0
  0
VERTEX
  8
0
 10
100.62251641978759
 20
179.54589638628147
 30
0.0
  0
VERTEX
  8
0
 10
100.7112233163393
 20
180.408324547201
 30
0.0
  0
VERTEX
  8
0
 10
101.48001641978757
 20
186.66708891501708
 30
0.0
  0
VERTEX
  8
0
 10
102.87468596001747
 20
186.66708891501708
 30
0.0
  0
SEQEND
  8
0
  0
POLYLINE
  8
0
 62
0
 70
1
 66
1
 10
0.0
 20
0.0
 30
0.0
  0
VERTEX
  8
0
 10
118.8021284887531
 20
196.074574547201
 30
0.0
  0
VERTEX
  8
0
 10
118.5705049255347
 20
194.9361693747872
 30
0.0
  0
VERTEX
  8
0
 10
117.87563423587955
 20
194.0392440874309
 30
0.0
  0
VERTEX
  8
0
 10
116.68301929335081
 20
193.44786477708604
 30
0.0
  0
VERTEX
  8
0
 10
114.97294745427034
 20
193.24088201846536
 30
0.0
  0
VERTEX
  8
0
 10
112.27724343128185
 20
193.90125558168376
 30
0.0
  0
VERTEX
  8
0
 10
111.05013136231632
 20
195.81338201846535
 30
0.0
  0
VERTEX
  8
0
 10
112.41523193702896
 20
196.07950270812051
 30
0.0
  0
VERTEX
  8
0
 10
112.68135262668414
 20
195.43391362766076
 30
0.0
  0
VERTEX
  8
0
 10
113.16924055771862
 20
194.94109753570675
 30
0.0
  0
VERTEX
  8
0
 10
113.92817733932782
 20
194.6158389150171
 30
0.0
  0
VERTEX
  8
0
 10
115.01237274162666
 20
194.50249121386764
 30
0.0
  0
VERTEX
  8
0
 10
115.98322044277609
 20
194.59119811041938
 30
0.0
  0
VERTEX
  8
0
 10
116.73722906346575
 20
194.86717512191362
 30
0.0
  0
VERTEX
  8
0
 10
117.23004515541977
 20
195.34520673110904
 30
0.0
  0
VERTEX
  8
0
 10
117.40745894852321
 20
196.0499337426033
 30
0.0
  0
VERTEX
  8
0
 10
117.16597906346574
 20
196.87786477708605
 30
0.0
  0
VERTEX
  8
0
 10
116.5351744657646
 20
197.40024983455731
 30
0.0
  0
VERTEX
  8
0
 10
115.6530336611669
 20
197.73043661616651
 30
0.0
  0
VERTEX
  8
0
 10
114.65754515541977
 20
197.98177282306307
 30
0.0
  0
VERTEX
  8
0
 10
113.90846469564966
 20
198.17889925984466
 30
0.0
  0
VERTEX
  8
0
 10
113.18402504047724
 20
198.4253073058217
 30
0.0
  0
VERTEX
  8
0
 10
112.53843596001747
 20
198.7604222483504
 30
0.0
  0
VERTEX
  8
0
 10
112.01605090254621
 20
199.2236693747872
 30
0.0
  0
VERTEX
  8
0
 10
111.66122331633932
 20
199.86433029432743
 30
0.0
  0
VERTEX
  8
0
 10
111.5380192933508
 20
200.72183029432742
 30
0.0
  0
VERTEX
  8
0
 10
111.80413998300598
 20
201.91444523685615
 30
0.0
  0
VERTEX
  8
0
 10
112.53350779909793
 20
202.7275917885803
 30
0.0
  0
VERTEX
  8
0
 10
113.63741584507494
 20
203.18591075409753
 30
0.0
  0
VERTEX
  8
0
 10
115.01237274162666
 20
203.33375558168376
 30
0.0
  0
VERTEX
  8
0
 10
116.47110837381058
 20
203.18591075409753
 30
0.0
  0
VERTEX
  8
0
 10
117.49123768415541
 20
202.752232593178
 30
0.0
  0
VERTEX
  8
0
 10
118.16146756921287
 20
202.03764925984467
 30
0.0
  0
VERTEX
  8
0
 10
118.56064860369563
 20
201.04216075409755
 30
0.0
  0
VERTEX
  8
0
 10
117.17090722438529
 20
200.81053719087916
 30
0.0
  0
VERTEX
  8
0
 10
116.92942733932782
 20
201.48569523685617
 30
0.0
  0
VERTEX
  8
0
 10
116.5105336611669
 20
201.97851132881019
 30
0.0
  0
VERTEX
  8
0
 10
115.87972906346575
 20
202.28405730582168
 30
0.0
  0
VERTEX
  8
0
 10
115.00744458070713
 20
202.38754868513203
 30
0.0
  0
VERTEX
  8
0
 10
114.01688423587954
 20
202.25941650122397
 30
0.0
  0
VERTEX
  8
0
 10
113.37129515541977
 20
201.9095170759366
 30
0.0
  0
VERTEX
  8
0
 10
113.02139573013241
 20
201.39206017938488
 30
0.0
  0
VERTEX
  8
0
 10
112.91297618990252
 20
200.74154293800558
 30
0.0
  0
VERTEX
  8
0
 10
113.10517446576459
 20
200.0318877655918
 30
0.0
  0
VERTEX
  8
0
 10
113.63741584507494
 20
199.58342512191362
 30
0.0
  0
VERTEX
  8
0
 10
114.42099343128184
 20
199.28773546674122
 30
0.0
  0
VERTEX
  8
0
 10
115.38198481059219
 20
199.04132742076422
 30
0.0
  0
VERTEX
  8
0
 10
116.20005952323586
 20
198.829416501224
 30
0.0
  0
VERTEX
  8
0
 10
116.99349343128183
 20
198.5632958115688
 30
0.0
  0
VERTEX
  8
0
 10
117.70314860369564
 20
198.20354006444236
 30
0.0
  0
VERTEX
  8
0
 10
118.2748152703623
 20
197.6959394897297
 30
0.0
  0
VERTEX
  8
0
 10
118.65921182208643
 20
197.00106880007456
 30
0.0
  0
SEQEND
  8
0
  0
INSERT
  2
SHAPESTRING007
  8
0
 62
0
 10
0.0
 20
0.0
 30
0.0
  0
POLYLINE
  8
0
 62
0
 70
1
 66
1
 10
0.0
 20
0.0
 30
0.0
  0
VERTEX
  8
0
 10
149.0405767646152
 20
185.4054797196148
 30
0.0
  0
VERTEX
  8
0
 10
149.0405767646152
 20
176.5742153517987
 30
0.0
  0
VERTEX
  8
0
 10
147.63605090254623
 20
176.5742153517987
 30
0.0
  0
VERTEX
  8
0
 10
147.63605090254623
 20
185.4054797196148
 30
0.0
  0
VERTEX
  8
0
 10
144.35882389105197
 20
185.4054797196148
 30
0.0
  0
VERTEX
  8
0
 10
144.35882389105197
 20
186.66708891501708
 30
0.0
  0
VERTEX
  8
0
 10
152.31287561518988
 20
186.66708891501708
 30
0.0
  0
VERTEX
  8
0
 10
152.31287561518988
 20
185.4054797196148
 30
0.0
  0
SEQEND
  8
0
  0
POLYLINE
  8
0
 62
0
 70
1
 66
1
 10
0.0
 20
0.0
 30
0.0
  0
VERTEX
  8
0
 10
161.95691297151174
 20
186.66708891501708
 30
0.0
  0
VERTEX
  8
0
 10
168.04319170714393
 20
186.66708891501708
 30
0.0
  0
VERTEX
  8
0
 10
168.04319170714393
 20
185.4054797196148
 30
0.0
  0
VERTEX
  8
0
 10
165.70724343128188
 20
185.4054797196148
 30
0.0
  0
VERTEX
  8
0
 10
165.70724343128188
 20
177.83582454720099
 30
0.0
  0
VERTEX
  8
0
 10
168.04319170714393
 20
177.83582454720099
 30
0.0
  0
VERTEX
  8
0
 10
168.04319170714393
 20
176.5742153517987
 30
0.0
  0
VERTEX
  8
0
 10
161.95691297151174
 20
176.5742153517987
 30
0.0
  0
VERTEX
  8
0
 10
161.95691297151174
 20
177.83582454720099
 30
0.0
  0
VERTEX
  8
0
 10
164.29286124737382
 20
177.83582454720099
 30
0.0
  0
VERTEX
  8
0
 10
164.29286124737382
 20
185.4054797196148
 30
0.0
  0
VERTEX
  8
0
 10
161.95691297151174
 20
185.4054797196148
 30
0.0
  0
SEQEND
  8
0
  0
POLYLINE
  8
0
 62
0
 70
1
 66
1
 10
0.0
 20
0.0
 30
0.0
  0
VERTEX
  8
0
 10
183.31026067266114
 20
193.24088201846536
 30
0.0
  0
VERTEX
  8
0
 10
179.46629515541977
 20
201.71239063915502
 30
0.0
  0
VERTEX
  8
0
 10
179.52543308645426
 20
201.05201707593662
 30
0.0
  0
VERTEX
  8
0
 10
179.56485837381055
 20
200.43106880007454
 30
0.0
  0
VERTEX
  8
0
 10
179.5845710174887
 20
199.8101205242125
 30
0.0
  0
VERTEX
  8
0
 10
179.5845710174887
 20
193.24088201846536
 30
0.0
  0
VERTEX
  8
0
 10
178.32788998300597
 20
193.24088201846536
 30
0.0
  0
VERTEX
  8
0
 10
178.32788998300597
 20
203.33375558168376
 30
0.0
  0
VERTEX
  8
0
 10
179.96896756921285
 20
203.33375558168376
 30
0.0
  0
VERTEX
  8
0
 10
183.87207101748874
 20
194.80310902995961
 30
0.0
  0
VERTEX
  8
0
 10
183.8080049255347
 20
195.44869811041937
 30
0.0
  0
VERTEX
  8
0
 10
183.7587233163393
 20
196.10414351271822
 30
0.0
  0
VERTEX
  8
0
 10
183.73901067266115
 20
196.85815213340788
 30
0.0
  0
VERTEX
  8
0
 10
183.73901067266115
 20
203.33375558168376
 30
0.0
  0
VERTEX
  8
0
 10
185.01047618990253
 20
203.33375558168376
 30
0.0
  0
VERTEX
  8
0
 10
185.01047618990253
 20
193.24088201846536
 30
0.0
  0
SEQEND
  8
0
  0
INSERT
  2
SHAPESTRING017
  8
0
 62
0
 10
0.0
 20
0.0
 30
0.0
  0
POLYLINE
  8
0
 62
0
 70
1
 66
1
 10
0.0
 20
0.0
 30
0.0
  0
VERTEX
  8
0
 10
178.32788998300597
 20
176.5742153517987
 30
0.0
  0
VERTEX
  8
0
 10
178.32788998300597
 20
186.66708891501708
 30
0.0
  0
VERTEX
  8
0
 10
185.12382389105196
 20
186.66708891501708
 30
0.0
  0
VERTEX
  8
0
 10
185.12382389105196
 20
185.4054797196148
 30
0.0
  0
VERTEX
  8
0
 10
179.742272166914
 20
185.4054797196148
 30
0.0
  0
VERTEX
  8
0
 10
179.742272166914
 20
182.56685902995963
 30
0.0
  0
VERTEX
  8
0
 10
184.68028940829333
 20
182.56685902995963
 30
0.0
  0
VERTEX
  8
0
 10
184.68028940829333
 20
181.30524983455732
 30
0.0
  0
VERTEX
  8
0
 10
179.742272166914
 20
181.30524983455732
 30
0.0
  0
VERTEX
  8
0
 10
179.742272166914
 20
177.83582454720099
 30
0.0
  0
VERTEX
  8
0
 10
185.4244417071439
 20
177.83582454720099
 30
0.0
  0
VERTEX
  8
0
 10
185.4244417071439
 20
176.5742153517987
 30
0.0
  0
SEQEND
  8
0
  0
POLYLINE
  8
0
 62
0
 70
1
 66
1
 10
0.0
 20
0.0
 30
0.0
  0
VERTEX
  8
0
 10
199.97692733932783
 20
176.5742153517987
 30
0.0
  0
VERTEX
  8
0
 10
196.13296182208646
 20
185.04572397248836
 30
0.0
  0
VERTEX
  8
0
 10
196.19209975312094
 20
184.38535040926996
 30
0.0
  0
VERTEX
  8
0
 10
196.23152504047724
 20
183.76440213340788
 30
0.0
  0
VERTEX
  8
0
 10
196.2512376841554
 20
183.14345385754584
 30
0.0
  0
VERTEX
  8
0
 10
196.2512376841554
 20
176.5742153517987
 30
0.0
  0
VERTEX
  8
0
 10
194.99455664967266
 20
176.5742153517987
 30
0.0
  0
VERTEX
  8
0
 10
194.99455664967266
 20
186.66708891501708
 30
0.0
  0
VERTEX
  8
0
 10
196.63563423587954
 20
186.66708891501708
 30
0.0
  0
VERTEX
  8
0
 10
200.53873768415542
 20
178.13644236329296
 30
0.0
  0
VERTEX
  8
0
 10
200.4746715922014
 20
178.78203144375271
 30
0.0
  0
VERTEX
  8
0
 10
200.425389983006
 20
179.43747684605157
 30
0.0
  0
VERTEX
  8
0
 10
200.40567733932784
 20
180.19148546674123
 30
0.0
  0
VERTEX
  8
0
 10
200.40567733932784
 20
186.66708891501708
 30
0.0
  0
VERTEX
  8
0
 10
201.67714285656922
 20
186.66708891501708
 30
0.0
  0
VERTEX
  8
0
 10
201.67714285656922
 20
176.5742153517987
 30
0.0
  0
SEQEND
  8
0
  0
POLYLINE
  8
0
 62
0
 70
1
 66
1
 10
0.0
 20
0.0
 30
0.0
  0
VERTEX
  8
0
 10
32.403479063465745
 20
159.907548685132
 30
0.0
  0
VERTEX
  8
0
 10
30.9398152703623
 20
159.907548685132
 30
0.0
  0
VERTEX
  8
0
 10
27.204269293350805
 20
170.0004222483504
 30
0.0
  0
VERTEX
  8
0
 10
28.692573891051957
 20
170.0004222483504
 30
0.0
  0
VERTEX
  8
0
 10
31.058091132431265
 20
163.2389854667412
 30
0.0
  0
VERTEX
  8
0
 10
31.284786534730117
 20
162.5391866161665
 30
0.0
  0
VERTEX
  8
0
 10
31.481912971511726
 20
161.85910040926996
 30
0.0
  0
VERTEX
  8
0
 10
31.679039408293335
 20
161.14944523685614
 30
0.0
  0
VERTEX
  8
0
 10
31.871237684155403
 20
161.8443159265113
 30
0.0
  0
VERTEX
  8
0
 10
32.06836412093701
 20
162.51947397248833
 30
0.0
  0
VERTEX
  8
0
 10
32.299987684155404
 20
163.2389854667412
 30
0.0
  0
VERTEX
  8
0
 10
34.65072044277609
 20
170.0004222483504
 30
0.0
  0
VERTEX
  8
0
 10
36.1340968795577
 20
170.0004222483504
 30
0.0
  0
SEQEND
  8
0
  0
POLYLINE
  8
0
 62
0
 70
1
 66
1
 10
0.0
 20
0.0
 30
0.0
  0
VERTEX
  8
0
 10
67.75243021289104
 20
163.15027857018947
 30
0.0
  0
VERTEX
  8
0
 10
67.5651600979485
 20
161.81474696099409
 30
0.0
  0
VERTEX
  8
0
 10
67.00334975312093
 20
160.7896894897297
 30
0.0
  0
VERTEX
  8
0
 10
66.07192733932783
 20
160.13424408743086
 30
0.0
  0
VERTEX
  8
0
 10
64.7955336611669
 20
159.907548685132
 30
0.0
  0
VERTEX
  8
0
 10
62.77991584507495
 20
160.53835328283316
 30
0.0
  0
VERTEX
  8
0
 10
61.764714695649666
 20
162.52440213340788
 30
0.0
  0
VERTEX
  8
0
 10
63.14952791404047
 20
162.74616937478717
 30
0.0
  0
VERTEX
  8
0
 10
63.37622331633932
 20
162.03651420237338
 30
0.0
  0
VERTEX
  8
0
 10
63.74583538530484
 20
161.54862627133892
 30
0.0
  0
VERTEX
  8
0
 10
64.22879515541977
 20
161.2627929380056
 30
0.0
  0
VERTEX
  8
0
 10
64.80538998300598
 20
161.1691578805343
 30
0.0
  0
VERTEX
  8
0
 10
65.95857963817839
 20
161.6816866161665
 30
0.0
  0
VERTEX
  8
0
 10
66.34790435082208
 20
163.17984753570673
 30
0.0
  0
VERTEX
  8
0
 10
66.34790435082208
 20
168.7388130529481
 30
0.0
  0
VERTEX
  8
0
 10
64.05138136231633
 20
168.7388130529481
 30
0.0
  0
VERTEX
  8
0
 10
64.05138136231633
 20
170.0004222483504
 30
0.0
  0
VERTEX
  8
0
 10
67.75243021289104
 20
170.0004222483504
 30
0.0
  0
SEQEND
  8
0
  0
INSERT
  2
SHAPESTRING036
  8
0
 62
0
 10
0.0
 20
0.0
 30
0.0
  0
POLYLINE
  8
0
 62
0
 70
1
 66
1
 10
0.0
 20
0.0
 30
0.0
  0
VERTEX
  8
0
 10
44.99455664967265
 20
126.57421535179866
 30
0.0
  0
VERTEX
  8
0
 10
44.99455664967265
 20
136.66708891501705
 30
0.0
  0
VERTEX
  8
0
 10
51.79049055771863
 20
136.66708891501705
 30
0.0
  0
VERTEX
  8
0
 10
51.79049055771863
 20
135.40547971961476
 30
0.0
  0
VERTEX
  8
0
 10
46.4089388335807
 20
135.40547971961476
 30
0.0
  0
VERTEX
  8
0
 10
46.4089388335807
 20
132.56685902995957
 30
0.0
  0
VERTEX
  8
0
 10
51.34695607496001
 20
132.56685902995957
 30
0.0
  0
VERTEX
  8
0
 10
51.34695607496001
 20
131.3052498345573
 30
0.0
  0
VERTEX
  8
0
 10
46.4089388335807
 20
131.3052498345573
 30
0.0
  0
VERTEX
  8
0
 10
46.4089388335807
 20
127.83582454720096
 30
0.0
  0
VERTEX
  8
0
 10
52.091108373810584
 20
127.83582454720096
 30
0.0
  0
VERTEX
  8
0
 10
52.091108373810584
 20
126.57421535179866
 30
0.0
  0
SEQEND
  8
0
  0
POLYLINE
  8
0
 62
0
 70
1
 66
1
 10
0.0
 20
0.0
 30
0.0
  0
VERTEX
  8
0
 10
101.3223152703623
 20
126.57421535179866
 30
0.0
  0
VERTEX
  8
0
 10
99.78472906346575
 20
126.57421535179866
 30
0.0
  0
VERTEX
  8
0
 10
99.01593596001747
 20
129.46211765064922
 30
0.0
  0
VERTEX
  8
0
 10
98.92722906346575
 20
129.79723259317797
 30
0.0
  0
VERTEX
  8
0
 10
98.81880952323586
 20
130.21119811041933
 30
0.0
  0
VERTEX
  8
0
 10
98.71038998300597
 20
130.66458891501705
 30
0.0
  0
VERTEX
  8
0
 10
98.60197044277609
 20
131.12783604145383
 30
0.0
  0
VERTEX
  8
0
 10
98.35063423587954
 20
132.2169596046722
 30
0.0
  0
VERTEX
  8
0
 10
98.09436986806344
 20
131.11797971961474
 30
0.0
  0
VERTEX
  8
0
 10
97.98595032783356
 20
130.6596607540975
 30
0.0
  0
VERTEX
  8
0
 10
97.87260262668413
 20
130.2062699494998
 30
0.0
  0
VERTEX
  8
0
 10
97.76418308645425
 20
129.79230443225842
 30
0.0
  0
VERTEX
  8
0
 10
97.68040435082206
 20
129.46211765064922
 30
0.0
  0
VERTEX
  8
0
 10
96.89682676461517
 20
126.57421535179866
 30
0.0
  0
VERTEX
  8
0
 10
95.35924055771862
 20
126.57421535179866
 30
0.0
  0
VERTEX
  8
0
 10
93.79701354622436
 20
136.66708891501705
 30
0.0
  0
VERTEX
  8
0
 10
95.1966112473738
 20
136.66708891501705
 30
0.0
  0
VERTEX
  8
0
 10
96.00482963817839
 20
130.40832454720095
 30
0.0
  0
VERTEX
  8
0
 10
96.10339285656919
 20
129.4571894897297
 30
0.0
  0
VERTEX
  8
0
 10
96.18224343128183
 20
128.6243302943274
 30
0.0
  0
VERTEX
  8
0
 10
96.24630952323585
 20
127.8161119035228
 30
0.0
  0
VERTEX
  8
0
 10
96.48286124737379
 20
128.83131305294808
 30
0.0
  0
VERTEX
  8
0
 10
96.5814244657646
 20
129.2748475357067
 30
0.0
  0
VERTEX
  8
0
 10
96.68984400599447
 20
129.72331017938487
 30
0.0
  0
VERTEX
  8
0
 10
96.79826354622436
 20
130.1569883403044
 30
0.0
  0
VERTEX
  8
0
 10
96.89682676461517
 20
130.53152857018947
 30
0.0
  0
VERTEX
  8
0
 10
97.70011699450022
 20
133.5130659265113
 30
0.0
  0
VERTEX
  8
0
 10
98.99622331633931
 20
133.5130659265113
 30
0.0
  0
VERTEX
  8
0
 10
99.79951354622436
 20
130.53152857018947
 30
0.0
  0
VERTEX
  8
0
 10
99.89314860369562
 20
130.1569883403044
 30
0.0
  0
VERTEX
  8
0
 10
100.00156814392551
 20
129.72823834030442
 30
0.0
  0
VERTEX
  8
0
 10
100.1099876841554
 20
129.2847038575458
 30
0.0
  0
VERTEX
  8
0
 10
100.21347906346574
 20
128.84116937478717
 30
0.0
  0
VERTEX
  8
0
 10
100.45003078760368
 20
127.8161119035228
 30
0.0
  0
VERTEX
  8
0
 10
100.47959975312091
 20
128.06744811041935
 30
0.0
  0
VERTEX
  8
0
 10
100.5387376841554
 20
128.7081090299596
 30
0.0
  0
VERTEX
  8
0
 10
100.62251641978759
 20
129.5458963862814
 30
0.0
  0
VERTEX
  8
0
 10
100.7112233163393
 20
130.40832454720095
 30
0.0
  0
VERTEX
  8
0
 10
101.48001641978757
 20
136.66708891501705
 30
0.0
  0
VERTEX
  8
0
 10
102.87468596001747
 20
136.66708891501705
 30
0.0
  0
SEQEND
  8
0
  0
INSERT
  2
SHAPESTRING033
  8
0
 62
0
 10
0.0
 20
0.0
 30
0.0
  0
INSERT
  2
SHAPESTRING030
  8
0
 62
0
 10
0.0
 20
0.0
 30
0.0
  0
POLYLINE
  8
0
 62
0
 70
1
 66
1
 10
0.0
 20
0.0
 30
0.0
  0
VERTEX
  8
0
 10
145.5514388335807
 20
126.57421535179866
 30
0.0
  0
VERTEX
  8
0
 10
145.5514388335807
 20
136.66708891501705
 30
0.0
  0
VERTEX
  8
0
 10
146.96089285656922
 20
136.66708891501705
 30
0.0
  0
VERTEX
  8
0
 10
146.96089285656922
 20
127.83582454720096
 30
0.0
  0
VERTEX
  8
0
 10
151.92847906346574
 20
127.83582454720096
 30
0.0
  0
VERTEX
  8
0
 10
151.92847906346574
 20
126.57421535179866
 30
0.0
  0
SEQEND
  8
0
  0
POLYLINE
  8
0
 62
0
 70
1
 66
1
 10
0.0
 20
0.0
 30
0.0
  0
VERTEX
  8
0
 10
199.97692733932783
 20
159.907548685132
 30
0.0
  0
VERTEX
  8
0
 10
196.13296182208646
 20
168.37905730582168
 30
0.0
  0
VERTEX
  8
0
 10
196.19209975312094
 20
167.71868374260328
 30
0.0
  0
VERTEX
  8
0
 10
196.23152504047724
 20
167.0977354667412
 30
0.0
  0
VERTEX
  8
0
 10
196.2512376841554
 20
166.47678719087915
 30
0.0
  0
VERTEX
  8
0
 10
196.2512376841554
 20
159.907548685132
 30
0.0
  0
VERTEX
  8
0
 10
194.99455664967266
 20
159.907548685132
 30
0.0
  0
VERTEX
  8
0
 10
194.99455664967266
 20
170.0004222483504
 30
0.0
  0
VERTEX
  8
0
 10
196.63563423587954
 20
170.0004222483504
 30
0.0
  0
VERTEX
  8
0
 10
200.53873768415542
 20
161.46977569662627
 30
0.0
  0
VERTEX
  8
0
 10
200.4746715922014
 20
162.11536477708603
 30
0.0
  0
VERTEX
  8
0
 10
200.425389983006
 20
162.77081017938488
 30
0.0
  0
VERTEX
  8
0
 10
200.40567733932784
 20
163.52481880007454
 30
0.0
  0
VERTEX
  8
0
 10
200.40567733932784
 20
170.0004222483504
 30
0.0
  0
VERTEX
  8
0
 10
201.67714285656922
 20
170.0004222483504
 30
0.0
  0
VERTEX
  8
0
 10
201.67714285656922
 20
159.907548685132
 30
0.0
  0
SEQEND
  8
0
  0
POLYLINE
  8
0
 62
0
 70
1
 66
1
 10
0.0
 20
0.0
 30
0.0
  0
VERTEX
  8
0
 10
35.67084975312092
 20
126.57421535179866
 30
0.0
  0
VERTEX
  8
0
 10
27.67244458070713
 20
126.57421535179866
 30
0.0
  0
VERTEX
  8
0
 10
27.67244458070713
 20
127.7421894897297
 30
0.0
  0
VERTEX
  8
0
 10
33.71929802898299
 20
135.4005515586952
 30
0.0
  0
VERTEX
  8
0
 10
28.20961412093701
 20
135.40547971961476
 30
0.0
  0
VERTEX
  8
0
 10
28.20961412093701
 20
136.66708891501705
 30
0.0
  0
VERTEX
  8
0
 10
35.320950327833565
 20
136.66708891501705
 30
0.0
  0
VERTEX
  8
0
 10
35.320950327833565
 20
135.52868374260325
 30
0.0
  0
VERTEX
  8
0
 10
29.274096879557703
 20
127.83582454720096
 30
0.0
  0
VERTEX
  8
0
 10
35.67084975312092
 20
127.83582454720096
 30
0.0
  0
SEQEND
  8
0
  0
POLYLINE
  8
0
 62
0
 70
1
 66
1
 10
0.0
 20
0.0
 30
0.0
  0
VERTEX
  8
0
 10
132.31477216691403
 20
133.62641362766072
 30
0.0
  0
VERTEX
  8
0
 10
132.11271756921286
 20
134.19315213340786
 30
0.0
  0
VERTEX
  8
0
 10
131.92544745427034
 20
134.7401779954768
 30
0.0
  0
VERTEX
  8
0
 10
131.77760262668414
 20
135.19849696099405
 30
0.0
  0
VERTEX
  8
0
 10
131.68396756921285
 20
135.48433029432738
 30
0.0
  0
VERTEX
  8
0
 10
131.59526067266114
 20
135.19356880007453
 30
0.0
  0
VERTEX
  8
0
 10
131.45234400599446
 20
134.73524983455727
 30
0.0
  0
VERTEX
  8
0
 10
131.27493021289104
 20
134.18822397248832
 30
0.0
  0
VERTEX
  8
0
 10
131.0876600979485
 20
133.62641362766072
 30
0.0
  0
VERTEX
  8
0
 10
128.57922618990253
 20
126.57421535179866
 30
0.0
  0
VERTEX
  8
0
 10
127.13034687955769
 20
126.57421535179866
 30
0.0
  0
VERTEX
  8
0
 10
130.90038998300597
 20
136.54881305294808
 30
0.0
  0
VERTEX
  8
0
 10
132.5069704427761
 20
136.54881305294808
 30
0.0
  0
VERTEX
  8
0
 10
136.2080192933508
 20
126.57421535179866
 30
0.0
  0
VERTEX
  8
0
 10
134.7739244657646
 20
126.57421535179866
 30
0.0
  0
VERTEX
  8
0
 10
133.75379515541977
 20
129.39805155869522
 30
0.0
  0
VERTEX
  8
0
 10
131.53612274162666
 20
129.39805155869522
 30
0.0
  0
VERTEX
  8
0
 10
131.90080664967263
 20
130.5019596046722
 30
0.0
  0
VERTEX
  8
0
 10
133.39403940829334
 20
130.5019596046722
 30
0.0
  0
SEQEND
  8
0
  0
POLYLINE
  8
0
 62
0
 70
1
 66
1
 10
0.0
 20
0.0
 30
0.0
  0
VERTEX
  8
0
 10
98.33584975312091
 20
166.16138489202856
 30
0.0
  0
VERTEX
  8
0
 10
100.79993021289103
 20
170.0004222483504
 30
0.0
  0
VERTEX
  8
0
 10
102.31287561518988
 20
170.0004222483504
 30
0.0
  0
VERTEX
  8
0
 10
99.09971469564965
 20
165.18068086904006
 30
0.0
  0
VERTEX
  8
0
 10
102.61842159220137
 20
159.907548685132
 30
0.0
  0
VERTEX
  8
0
 10
101.10054802898298
 20
159.907548685132
 30
0.0
  0
VERTEX
  8
0
 10
98.33584975312091
 20
164.19997684605156
 30
0.0
  0
VERTEX
  8
0
 10
95.58100779909793
 20
159.907548685132
 30
0.0
  0
VERTEX
  8
0
 10
94.06313423587953
 20
159.907548685132
 30
0.0
  0
VERTEX
  8
0
 10
97.58184113243126
 20
165.18068086904006
 30
0.0
  0
VERTEX
  8
0
 10
94.36868021289104
 20
170.0004222483504
 30
0.0
  0
VERTEX
  8
0
 10
95.88162561518988
 20
170.0004222483504
 30
0.0
  0
SEQEND
  8
0
  0
INSERT
  2
SHAPESTRING029
  8
0
 62
0
 10
0.0
 20
0.0
 30
0.0
  0
POLYLINE
  8
0
 62
0
 70
1
 66
1
 10
0.0
 20
0.0
 30
0.0
  0
VERTEX
  8
0
 10
132.40347906346574
 20
159.907548685132
 30
0.0
  0
VERTEX
  8
0
 10
130.9398152703623
 20
159.907548685132
 30
0.0
  0
VERTEX
  8
0
 10
127.20426929335079
 20
170.0004222483504
 30
0.0
  0
VERTEX
  8
0
 10
128.69257389105195
 20
170.0004222483504
 30
0.0
  0
VERTEX
  8
0
 10
131.05809113243126
 20
163.2389854667412
 30
0.0
  0
VERTEX
  8
0
 10
131.2847865347301
 20
162.5391866161665
 30
0.0
  0
VERTEX
  8
0
 10
131.48191297151172
 20
161.85910040926996
 30
0.0
  0
VERTEX
  8
0
 10
131.67903940829333
 20
161.14944523685614
 30
0.0
  0
VERTEX
  8
0
 10
131.8712376841554
 20
161.8443159265113
 30
0.0
  0
VERTEX
  8
0
 10
132.068364120937
 20
162.51947397248833
 30
0.0
  0
VERTEX
  8
0
 10
132.29998768415538
 20
163.2389854667412
 30
0.0
  0
VERTEX
  8
0
 10
134.65072044277608
 20
170.0004222483504
 30
0.0
  0
VERTEX
  8
0
 10
136.1340968795577
 20
170.0004222483504
 30
0.0
  0
SEQEND
  8
0
  0
POLYLINE
  8
0
 62
0
 70
1
 66
1
 10
0.0
 20
0.0
 30
0.0
  0
VERTEX
  8
0
 10
98.33584975312091
 20
149.4947182253619
 30
0.0
  0
VERTEX
  8
0
 10
100.79993021289103
 20
153.33375558168376
 30
0.0
  0
VERTEX
  8
0
 10
102.31287561518988
 20
153.33375558168376
 30
0.0
  0
VERTEX
  8
0
 10
99.09971469564965
 20
148.5140142023734
 30
0.0
  0
VERTEX
  8
0
 10
102.61842159220137
 20
143.24088201846536
 30
0.0
  0
VERTEX
  8
0
 10
101.10054802898298
 20
143.24088201846536
 30
0.0
  0
VERTEX
  8
0
 10
98.33584975312091
 20
147.5333101793849
 30
0.0
  0
VERTEX
  8
0
 10
95.58100779909793
 20
143.24088201846536
 30
0.0
  0
VERTEX
  8
0
 10
94.06313423587953
 20
143.24088201846536
 30
0.0
  0
VERTEX
  8
0
 10
97.58184113243126
 20
148.5140142023734
 30
0.0
  0
VERTEX
  8
0
 10
94.36868021289104
 20
153.33375558168376
 30
0.0
  0
VERTEX
  8
0
 10
95.88162561518988
 20
153.33375558168376
 30
0.0
  0
SEQEND
  8
0
  0
INSERT
  2
SHAPESTRING031
  8
0
 62
0
 10
0.0
 20
0.0
 30
0.0
  0
INSERT
  2
SHAPESTRING027
  8
0
 62
0
 10
0.0
 20
0.0
 30
0.0
  0
POLYLINE
  8
0
 62
0
 70
1
 66
1
 10
0.0
 20
0.0
 30
0.0
  0
VERTEX
  8
0
 10
119.00418308645425
 20
143.24088201846536
 30
0.0
  0
VERTEX
  8
0
 10
111.00577791404046
 20
143.24088201846536
 30
0.0
  0
VERTEX
  8
0
 10
111.00577791404046
 20
144.40885615639638
 30
0.0
  0
VERTEX
  8
0
 10
117.05263136231632
 20
152.0672182253619
 30
0.0
  0
VERTEX
  8
0
 10
111.54294745427035
 20
152.07214638628145
 30
0.0
  0
VERTEX
  8
0
 10
111.54294745427035
 20
153.33375558168376
 30
0.0
  0
VERTEX
  8
0
 10
118.6542836611669
 20
153.33375558168376
 30
0.0
  0
VERTEX
  8
0
 10
118.6542836611669
 20
152.19535040926996
 30
0.0
  0
VERTEX
  8
0
 10
112.60743021289103
 20
144.50249121386764
 30
0.0
  0
VERTEX
  8
0
 10
119.00418308645425
 20
144.50249121386764
 30
0.0
  0
SEQEND
  8
0
  0
POLYLINE
  8
0
 62
0
 70
1
 66
1
 10
0.0
 20
0.0
 30
0.0
  0
VERTEX
  8
0
 10
133.60102216691402
 20
143.24088201846536
 30
0.0
  0
VERTEX
  8
0
 10
133.60102216691402
 20
147.97191650122397
 30
0.0
  0
VERTEX
  8
0
 10
129.742272166914
 20
147.97191650122397
 30
0.0
  0
VERTEX
  8
0
 10
129.742272166914
 20
143.24088201846536
 30
0.0
  0
VERTEX
  8
0
 10
128.32788998300597
 20
143.24088201846536
 30
0.0
  0
VERTEX
  8
0
 10
128.32788998300597
 20
153.33375558168376
 30
0.0
  0
VERTEX
  8
0
 10
129.742272166914
 20
153.33375558168376
 30
0.0
  0
VERTEX
  8
0
 10
129.742272166914
 20
149.2335256966263
 30
0.0
  0
VERTEX
  8
0
 10
133.60102216691402
 20
149.2335256966263
 30
0.0
  0
VERTEX
  8
0
 10
133.60102216691402
 20
153.33375558168376
 30
0.0
  0
VERTEX
  8
0
 10
135.01047618990253
 20
153.33375558168376
 30
0.0
  0
VERTEX
  8
0
 10
135.01047618990253
 20
143.24088201846536
 30
0.0
  0
SEQEND
  8
0
  0
POLYLINE
  8
0
 62
0
 70
1
 66
1
 10
0.0
 20
0.0
 30
0.0
  0
VERTEX
  8
0
 10
148.9814388335807
 20
150.29308029432744
 30
0.0
  0
VERTEX
  8
0
 10
148.77938423587955
 20
150.85981880007455
 30
0.0
  0
VERTEX
  8
0
 10
148.59211412093703
 20
151.40684466214353
 30
0.0
  0
VERTEX
  8
0
 10
148.44426929335083
 20
151.86516362766076
 30
0.0
  0
VERTEX
  8
0
 10
148.35063423587954
 20
152.1509969609941
 30
0.0
  0
VERTEX
  8
0
 10
148.26192733932783
 20
151.86023546674122
 30
0.0
  0
VERTEX
  8
0
 10
148.11901067266115
 20
151.40191650122398
 30
0.0
  0
VERTEX
  8
0
 10
147.94159687955772
 20
150.854890639155
 30
0.0
  0
VERTEX
  8
0
 10
147.75432676461517
 20
150.29308029432744
 30
0.0
  0
VERTEX
  8
0
 10
145.2458928565692
 20
143.24088201846536
 30
0.0
  0
VERTEX
  8
0
 10
143.79701354622438
 20
143.24088201846536
 30
0.0
  0
VERTEX
  8
0
 10
147.56705664967265
 20
153.2154797196148
 30
0.0
  0
VERTEX
  8
0
 10
149.17363710944278
 20
153.2154797196148
 30
0.0
  0
VERTEX
  8
0
 10
152.87468596001747
 20
143.24088201846536
 30
0.0
  0
VERTEX
  8
0
 10
151.44059113243128
 20
143.24088201846536
 30
0.0
  0
VERTEX
  8
0
 10
150.42046182208645
 20
146.0647182253619
 30
0.0
  0
VERTEX
  8
0
 10
148.20278940829334
 20
146.0647182253619
 30
0.0
  0
VERTEX
  8
0
 10
148.56747331633932
 20
147.16862627133892
 30
0.0
  0
VERTEX
  8
0
 10
150.06070607496002
 20
147.16862627133892
 30
0.0
  0
SEQEND
  8
0
  0
INSERT
  2
SHAPESTRING043
  8
0
 62
0
 10
0.0
 20
0.0
 30
0.0
  0
POLYLINE
  8
0
 62
0
 70
1
 66
1
 10
0.0
 20
0.0
 30
0.0
  0
VERTEX
  8
0
 10
179.97882389105195
 20
152.07214638628145
 30
0.0
  0
VERTEX
  8
0
 10
179.97882389105195
 20
148.9181233977757
 30
0.0
  0
VERTEX
  8
0
 10
184.97597906346573
 20
148.9181233977757
 30
0.0
  0
VERTEX
  8
0
 10
184.97597906346573
 20
147.65651420237342
 30
0.0
  0
VERTEX
  8
0
 10
179.97882389105195
 20
147.65651420237342
 30
0.0
  0
VERTEX
  8
0
 10
179.97882389105195
 20
143.24088201846536
 30
0.0
  0
VERTEX
  8
0
 10
178.56444170714389
 20
143.24088201846536
 30
0.0
  0
VERTEX
  8
0
 10
178.56444170714389
 20
153.33375558168376
 30
0.0
  0
VERTEX
  8
0
 10
185.15339285656918
 20
153.33375558168376
 30
0.0
  0
VERTEX
  8
0
 10
185.15339285656918
 20
152.07214638628145
 30
0.0
  0
SEQEND
  8
0
  0
POLYLINE
  8
0
 62
0
 70
1
 66
1
 10
0.0
 20
0.0
 30
0.0
  0
VERTEX
  8
0
 10
162.2181055002474
 20
143.24088201846536
 30
0.0
  0
VERTEX
  8
0
 10
162.2181055002474
 20
153.33375558168376
 30
0.0
  0
VERTEX
  8
0
 10
163.6275595232359
 20
153.33375558168376
 30
0.0
  0
VERTEX
  8
0
 10
163.6275595232359
 20
144.50249121386764
 30
0.0
  0
VERTEX
  8
0
 10
168.59514573013243
 20
144.50249121386764
 30
0.0
  0
VERTEX
  8
0
 10
168.59514573013243
 20
143.24088201846536
 30
0.0
  0
SEQEND
  8
0
  0
POLYLINE
  8
0
 62
0
 70
1
 66
1
 10
0.0
 20
0.0
 30
0.0
  0
VERTEX
  8
0
 10
68.80212848875311
 20
129.40790788053428
 30
0.0
  0
VERTEX
  8
0
 10
68.57050492553472
 20
128.26950270812048
 30
0.0
  0
VERTEX
  8
0
 10
67.87563423587955
 20
127.37257742076417
 30
0.0
  0
VERTEX
  8
0
 10
66.68301929335081
 20
126.78119811041934
 30
0.0
  0
VERTEX
  8
0
 10
64.97294745427035
 20
126.57421535179866
 30
0.0
  0
VERTEX
  8
0
 10
62.277243431281846
 20
127.23458891501704
 30
0.0
  0
VERTEX
  8
0
 10
61.05013136231633
 20
129.14671535179866
 30
0.0
  0
VERTEX
  8
0
 10
62.41523193702897
 20
129.41283604145383
 30
0.0
  0
VERTEX
  8
0
 10
62.681352626684145
 20
128.76724696099407
 30
0.0
  0
VERTEX
  8
0
 10
63.16924055771863
 20
128.27443086904003
 30
0.0
  0
VERTEX
  8
0
 10
63.928177339327824
 20
127.94917224835038
 30
0.0
  0
VERTEX
  8
0
 10
65.01237274162668
 20
127.83582454720096
 30
0.0
  0
VERTEX
  8
0
 10
65.9832204427761
 20
127.92453144375268
 30
0.0
  0
VERTEX
  8
0
 10
66.73722906346575
 20
128.20050845524693
 30
0.0
  0
VERTEX
  8
0
 10
67.23004515541977
 20
128.67854006444233
 30
0.0
  0
VERTEX
  8
0
 10
67.40745894852323
 20
129.3832670759366
 30
0.0
  0
VERTEX
  8
0
 10
67.16597906346576
 20
130.21119811041933
 30
0.0
  0
VERTEX
  8
0
 10
66.5351744657646
 20
130.7335831678906
 30
0.0
  0
VERTEX
  8
0
 10
65.6530336611669
 20
131.0637699494998
 30
0.0
  0
VERTEX
  8
0
 10
64.65754515541978
 20
131.31510615639635
 30
0.0
  0
VERTEX
  8
0
 10
63.90846469564966
 20
131.51223259317797
 30
0.0
  0
VERTEX
  8
0
 10
63.18402504047725
 20
131.75864063915498
 30
0.0
  0
VERTEX
  8
0
 10
62.53843596001748
 20
132.09375558168372
 30
0.0
  0
VERTEX
  8
0
 10
62.01605090254621
 20
132.5570027081205
 30
0.0
  0
VERTEX
  8
0
 10
61.66122331633932
 20
133.19766362766072
 30
0.0
  0
VERTEX
  8
0
 10
61.538019293350814
 20
134.05516362766073
 30
0.0
  0
VERTEX
  8
0
 10
61.80413998300598
 20
135.24777857018947
 30
0.0
  0
VERTEX
  8
0
 10
62.53350779909794
 20
136.0609251219136
 30
0.0
  0
VERTEX
  8
0
 10
63.63741584507495
 20
136.51924408743085
 30
0.0
  0
VERTEX
  8
0
 10
65.01237274162668
 20
136.66708891501705
 30
0.0
  0
VERTEX
  8
0
 10
66.47110837381058
 20
136.51924408743085
 30
0.0
  0
VERTEX
  8
0
 10
67.49123768415541
 20
136.0855659265113
 30
0.0
  0
VERTEX
  8
0
 10
68.16146756921287
 20
135.37098259317796
 30
0.0
  0
VERTEX
  8
0
 10
68.56064860369564
 20
134.37549408743084
 30
0.0
  0
VERTEX
  8
0
 10
67.17090722438529
 20
134.14387052421245
 30
0.0
  0
VERTEX
  8
0
 10
66.92942733932782
 20
134.81902857018946
 30
0.0
  0
VERTEX
  8
0
 10
66.5105336611669
 20
135.31184466214347
 30
0.0
  0
VERTEX
  8
0
 10
65.87972906346576
 20
135.617390639155
 30
0.0
  0
VERTEX
  8
0
 10
65.00744458070713
 20
135.72088201846532
 30
0.0
  0
VERTEX
  8
0
 10
64.01688423587954
 20
135.59274983455728
 30
0.0
  0
VERTEX
  8
0
 10
63.37129515541978
 20
135.24285040926992
 30
0.0
  0
VERTEX
  8
0
 10
63.02139573013242
 20
134.7253935127182
 30
0.0
  0
VERTEX
  8
0
 10
62.91297618990254
 20
134.0748762713389
 30
0.0
  0
VERTEX
  8
0
 10
63.105174465764605
 20
133.3652210989251
 30
0.0
  0
VERTEX
  8
0
 10
63.63741584507495
 20
132.91675845524694
 30
0.0
  0
VERTEX
  8
0
 10
64.42099343128184
 20
132.6210688000745
 30
0.0
  0
VERTEX
  8
0
 10
65.38198481059219
 20
132.3746607540975
 30
0.0
  0
VERTEX
  8
0
 10
66.20005952323586
 20
132.16274983455727
 30
0.0
  0
VERTEX
  8
0
 10
66.99349343128185
 20
131.8966291449021
 30
0.0
  0
VERTEX
  8
0
 10
67.70314860369564
 20
131.53687339777568
 30
0.0
  0
VERTEX
  8
0
 10
68.27481527036231
 20
131.02927282306302
 30
0.0
  0
VERTEX
  8
0
 10
68.65921182208645
 20
130.33440213340785
 30
0.0
  0
SEQEND
  8
0
  0
POLYLINE
  8
0
 62
0
 70
1
 66
1
 10
0.0
 20
0.0
 30
0.0
  0
VERTEX
  8
0
 10
82.3739100979485
 20
135.40547971961476
 30
0.0
  0
VERTEX
  8
0
 10
82.3739100979485
 20
126.57421535179866
 30
0.0
  0
VERTEX
  8
0
 10
80.96938423587953
 20
126.57421535179866
 30
0.0
  0
VERTEX
  8
0
 10
80.96938423587953
 20
135.40547971961476
 30
0.0
  0
VERTEX
  8
0
 10
77.69215722438528
 20
135.40547971961476
 30
0.0
  0
VERTEX
  8
0
 10
77.69215722438528
 20
136.66708891501705
 30
0.0
  0
VERTEX
  8
0
 10
85.64620894852321
 20
136.66708891501705
 30
0.0
  0
VERTEX
  8
0
 10
85.64620894852321
 20
135.40547971961476
 30
0.0
  0
SEQEND
  8
0
  0
POLYLINE
  8
0
 62
0
 70
1
 66
1
 10
0.0
 20
0.0
 30
0.0
  0
VERTEX
  8
0
 10
49.070145730132424
 20
143.24088201846536
 30
0.0
  0
VERTEX
  8
0
 10
47.606481937028974
 20
143.24088201846536
 30
0.0
  0
VERTEX
  8
0
 10
43.87093596001748
 20
153.33375558168376
 30
0.0
  0
VERTEX
  8
0
 10
45.35924055771863
 20
153.33375558168376
 30
0.0
  0
VERTEX
  8
0
 10
47.724757799097944
 20
146.57231880007456
 30
0.0
  0
VERTEX
  8
0
 10
47.95145320139679
 20
145.87251994949983
 30
0.0
  0
VERTEX
  8
0
 10
48.148579638178404
 20
145.1924337426033
 30
0.0
  0
VERTEX
  8
0
 10
48.345706074960006
 20
144.48277857018948
 30
0.0
  0
VERTEX
  8
0
 10
48.537904350822075
 20
145.17764925984466
 30
0.0
  0
VERTEX
  8
0
 10
48.73503078760369
 20
145.85280730582167
 30
0.0
  0
VERTEX
  8
0
 10
48.966654350822076
 20
146.57231880007456
 30
0.0
  0
VERTEX
  8
0
 10
51.31738710944277
 20
153.33375558168376
 30
0.0
  0
VERTEX
  8
0
 10
52.800763546224374
 20
153.33375558168376
 30
0.0
  0
SEQEND
  8
0
  0
POLYLINE
  8
0
 62
0
 70
1
 66
1
 10
0.0
 20
0.0
 30
0.0
  0
VERTEX
  8
0
 10
61.66122331633932
 20
143.24088201846536
 30
0.0
  0
VERTEX
  8
0
 10
61.66122331633932
 20
153.33375558168376
 30
0.0
  0
VERTEX
  8
0
 10
68.4571572243853
 20
153.33375558168376
 30
0.0
  0
VERTEX
  8
0
 10
68.4571572243853
 20
152.07214638628145
 30
0.0
  0
VERTEX
  8
0
 10
63.07560550024736
 20
152.07214638628145
 30
0.0
  0
VERTEX
  8
0
 10
63.07560550024736
 20
149.2335256966263
 30
0.0
  0
VERTEX
  8
0
 10
68.01362274162668
 20
149.2335256966263
 30
0.0
  0
VERTEX
  8
0
 10
68.01362274162668
 20
147.97191650122397
 30
0.0
  0
VERTEX
  8
0
 10
63.07560550024736
 20
147.97191650122397
 30
0.0
  0
VERTEX
  8
0
 10
63.07560550024736
 20
144.50249121386764
 30
0.0
  0
VERTEX
  8
0
 10
68.75777504047724
 20
144.50249121386764
 30
0.0
  0
VERTEX
  8
0
 10
68.75777504047724
 20
143.24088201846536
 30
0.0
  0
SEQEND
  8
0
  0
POLYLINE
  8
0
 62
0
 70
1
 66
1
 10
0.0
 20
0.0
 30
0.0
  0
VERTEX
  8
0
 10
65.70724343128185
 20
202.07214638628145
 30
0.0
  0
VERTEX
  8
0
 10
65.70724343128185
 20
193.24088201846536
 30
0.0
  0
VERTEX
  8
0
 10
64.30271756921289
 20
193.24088201846536
 30
0.0
  0
VERTEX
  8
0
 10
64.30271756921289
 20
202.07214638628145
 30
0.0
  0
VERTEX
  8
0
 10
61.025490557718626
 20
202.07214638628145
 30
0.0
  0
VERTEX
  8
0
 10
61.025490557718626
 20
203.33375558168376
 30
0.0
  0
VERTEX
  8
0
 10
68.97954228185655
 20
203.33375558168376
 30
0.0
  0
VERTEX
  8
0
 10
68.97954228185655
 20
202.07214638628145
 30
0.0
  0
SEQEND
  8
0
  0
POLYLINE
  8
0
 62
0
 70
1
 66
1
 10
0.0
 20
0.0
 30
0.0
  0
VERTEX
  8
0
 10
33.60102216691402
 20
193.24088201846536
 30
0.0
  0
VERTEX
  8
0
 10
33.60102216691402
 20
197.97191650122397
 30
0.0
  0
VERTEX
  8
0
 10
29.742272166914024
 20
197.97191650122397
 30
0.0
  0
VERTEX
  8
0
 10
29.742272166914024
 20
193.24088201846536
 30
0.0
  0
VERTEX
  8
0
 10
28.327889983005978
 20
193.24088201846536
 30
0.0
  0
VERTEX
  8
0
 10
28.327889983005978
 20
203.33375558168376
 30
0.0
  0
VERTEX
  8
0
 10
29.742272166914024
 20
203.33375558168376
 30
0.0
  0
VERTEX
  8
0
 10
29.742272166914024
 20
199.2335256966263
 30
0.0
  0
VERTEX
  8
0
 10
33.60102216691402
 20
199.2335256966263
 30
0.0
  0
VERTEX
  8
0
 10
33.60102216691402
 20
203.33375558168376
 30
0.0
  0
VERTEX
  8
0
 10
35.01047618990253
 20
203.33375558168376
 30
0.0
  0
VERTEX
  8
0
 10
35.01047618990253
 20
193.24088201846536
 30
0.0
  0
SEQEND
  8
0
  0
POLYLINE
  8
0
 62
0
 70
1
 66
1
 10
0.0
 20
0.0
 30
0.0
  0
VERTEX
  8
0
 10
44.99455664967265
 20
193.24088201846536
 30
0.0
  0
VERTEX
  8
0
 10
44.99455664967265
 20
203.33375558168376
 30
0.0
  0
VERTEX
  8
0
 10
51.79049055771863
 20
203.33375558168376
 30
0.0
  0
VERTEX
  8
0
 10
51.79049055771863
 20
202.07214638628145
 30
0.0
  0
VERTEX
  8
0
 10
46.4089388335807
 20
202.07214638628145
 30
0.0
  0
VERTEX
  8
0
 10
46.4089388335807
 20
199.2335256966263
 30
0.0
  0
VERTEX
  8
0
 10
51.34695607496001
 20
199.2335256966263
 30
0.0
  0
VERTEX
  8
0
 10
51.34695607496001
 20
197.97191650122397
 30
0.0
  0
VERTEX
  8
0
 10
46.4089388335807
 20
197.97191650122397
 30
0.0
  0
VERTEX
  8
0
 10
46.4089388335807
 20
194.50249121386764
 30
0.0
  0
VERTEX
  8
0
 10
52.091108373810584
 20
194.50249121386764
 30
0.0
  0
VERTEX
  8
0
 10
52.091108373810584
 20
193.24088201846536
 30
0.0
  0
SEQEND
  8
0
  0
POLYLINE
  8
0
 62
0
 70
1
 66
1
 10
0.0
 20
0.0
 30
0.0
  0
VERTEX
  8
0
 10
83.60102216691402
 20
193.24088201846536
 30
0.0
  0
VERTEX
  8
0
 10
83.60102216691402
 20
197.97191650122397
 30
0.0
  0
VERTEX
  8
0
 10
79.74227216691402
 20
197.97191650122397
 30
0.0
  0
VERTEX
  8
0
 10
79.74227216691402
 20
193.24088201846536
 30
0.0
  0
VERTEX
  8
0
 10
78.32788998300597
 20
193.24088201846536
 30
0.0
  0
VERTEX
  8
0
 10
78.32788998300597
 20
203.33375558168376
 30
0.0
  0
VERTEX
  8
0
 10
79.74227216691402
 20
203.33375558168376
 30
0.0
  0
VERTEX
  8
0
 10
79.74227216691402
 20
199.2335256966263
 30
0.0
  0
VERTEX
  8
0
 10
83.60102216691402
 20
199.2335256966263
 30
0.0
  0
VERTEX
  8
0
 10
83.60102216691402
 20
203.33375558168376
 30
0.0
  0
VERTEX
  8
0
 10
85.01047618990252
 20
203.33375558168376
 30
0.0
  0
VERTEX
  8
0
 10
85.01047618990252
 20
193.24088201846536
 30
0.0
  0
SEQEND
  8
0
  0
POLYLINE
  8
0
 62
0
 70
1
 66
1
 10
0.0
 20
0.0
 30
0.0
  0
VERTEX
  8
0
 10
194.99455664967266
 20
126.57421535179866
 30
0.0
  0
VERTEX
  8
0
 10
194.99455664967266
 20
136.66708891501705
 30
0.0
  0
VERTEX
  8
0
 10
201.79049055771864
 20
136.66708891501705
 30
0.0
  0
VERTEX
  8
0
 10
201.79049055771864
 20
135.40547971961476
 30
0.0
  0
VERTEX
  8
0
 10
196.4089388335807
 20
135.40547971961476
 30
0.0
  0
VERTEX
  8
0
 10
196.4089388335807
 20
132.56685902995957
 30
0.0
  0
VERTEX
  8
0
 10
201.34695607496002
 20
132.56685902995957
 30
0.0
  0
VERTEX
  8
0
 10
201.34695607496002
 20
131.3052498345573
 30
0.0
  0
VERTEX
  8
0
 10
196.4089388335807
 20
131.3052498345573
 30
0.0
  0
VERTEX
  8
0
 10
196.4089388335807
 20
127.83582454720096
 30
0.0
  0
VERTEX
  8
0
 10
202.09110837381058
 20
127.83582454720096
 30
0.0
  0
VERTEX
  8
0
 10
202.09110837381058
 20
126.57421535179866
 30
0.0
  0
SEQEND
  8
0
  0
POLYLINE
  8
0
 62
0
 70
1
 66
1
 10
0.0
 20
0.0
 30
0.0
  0
VERTEX
  8
0
 10
32.37391009794851
 20
102.07214638628142
 30
0.0
  0
VERTEX
  8
0
 10
32.37391009794851
 20
93.24088201846533
 30
0.0
  0
VERTEX
  8
0
 10
30.96938423587954
 20
93.24088201846533
 30
0.0
  0
VERTEX
  8
0
 10
30.96938423587954
 20
102.07214638628142
 30
0.0
  0
VERTEX
  8
0
 10
27.692157224385287
 20
102.07214638628142
 30
0.0
  0
VERTEX
  8
0
 10
27.692157224385287
 20
103.33375558168372
 30
0.0
  0
VERTEX
  8
0
 10
35.64620894852322
 20
103.33375558168372
 30
0.0
  0
VERTEX
  8
0
 10
35.64620894852322
 20
102.07214638628142
 30
0.0
  0
SEQEND
  8
0
  0
POLYLINE
  8
0
 62
0
 70
1
 66
1
 10
0.0
 20
0.0
 30
0.0
  0
VERTEX
  8
0
 10
132.31477216691403
 20
100.2930802943274
 30
0.0
  0
VERTEX
  8
0
 10
132.11271756921286
 20
100.85981880007452
 30
0.0
  0
VERTEX
  8
0
 10
131.92544745427034
 20
101.40684466214348
 30
0.0
  0
VERTEX
  8
0
 10
131.77760262668414
 20
101.86516362766073
 30
0.0
  0
VERTEX
  8
0
 10
131.68396756921285
 20
102.15099696099406
 30
0.0
  0
VERTEX
  8
0
 10
131.59526067266114
 20
101.86023546674119
 30
0.0
  0
VERTEX
  8
0
 10
131.45234400599446
 20
101.40191650122395
 30
0.0
  0
VERTEX
  8
0
 10
131.27493021289104
 20
100.85489063915499
 30
0.0
  0
VERTEX
  8
0
 10
131.0876600979485
 20
100.2930802943274
 30
0.0
  0
VERTEX
  8
0
 10
128.57922618990253
 20
93.24088201846533
 30
0.0
  0
VERTEX
  8
0
 10
127.13034687955769
 20
93.24088201846533
 30
0.0
  0
VERTEX
  8
0
 10
130.90038998300597
 20
103.21547971961475
 30
0.0
  0
VERTEX
  8
0
 10
132.5069704427761
 20
103.21547971961475
 30
0.0
  0
VERTEX
  8
0
 10
136.2080192933508
 20
93.24088201846533
 30
0.0
  0
VERTEX
  8
0
 10
134.7739244657646
 20
93.24088201846533
 30
0.0
  0
VERTEX
  8
0
 10
133.75379515541977
 20
96.06471822536187
 30
0.0
  0
VERTEX
  8
0
 10
131.53612274162666
 20
96.06471822536187
 30
0.0
  0
VERTEX
  8
0
 10
131.90080664967263
 20
97.1686262713389
 30
0.0
  0
VERTEX
  8
0
 10
133.39403940829334
 20
97.1686262713389
 30
0.0
  0
SEQEND
  8
0
  0
POLYLINE
  8
0
 62
0
 70
1
 66
1
 10
0.0
 20
0.0
 30
0.0
  0
VERTEX
  8
0
 10
111.66122331633932
 20
76.57421535179866
 30
0.0
  0
VERTEX
  8
0
 10
111.66122331633932
 20
86.66708891501705
 30
0.0
  0
VERTEX
  8
0
 10
118.45715722438528
 20
86.66708891501705
 30
0.0
  0
VERTEX
  8
0
 10
118.45715722438528
 20
85.40547971961475
 30
0.0
  0
VERTEX
  8
0
 10
113.07560550024736
 20
85.40547971961475
 30
0.0
  0
VERTEX
  8
0
 10
113.07560550024736
 20
82.56685902995957
 30
0.0
  0
VERTEX
  8
0
 10
118.01362274162666
 20
82.56685902995957
 30
0.0
  0
VERTEX
  8
0
 10
118.01362274162666
 20
81.30524983455727
 30
0.0
  0
VERTEX
  8
0
 10
113.07560550024736
 20
81.30524983455727
 30
0.0
  0
VERTEX
  8
0
 10
113.07560550024736
 20
77.83582454720096
 30
0.0
  0
VERTEX
  8
0
 10
118.75777504047724
 20
77.83582454720096
 30
0.0
  0
VERTEX
  8
0
 10
118.75777504047724
 20
76.57421535179866
 30
0.0
  0
SEQEND
  8
0
  0
POLYLINE
  8
0
 62
0
 70
1
 66
1
 10
0.0
 20
0.0
 30
0.0
  0
VERTEX
  8
0
 10
111.95691297151173
 20
120.00042224835038
 30
0.0
  0
VERTEX
  8
0
 10
118.0431917071439
 20
120.00042224835038
 30
0.0
  0
VERTEX
  8
0
 10
118.0431917071439
 20
118.73881305294807
 30
0.0
  0
VERTEX
  8
0
 10
115.70724343128184
 20
118.73881305294807
 30
0.0
  0
VERTEX
  8
0
 10
115.70724343128184
 20
111.16915788053429
 30
0.0
  0
VERTEX
  8
0
 10
118.0431917071439
 20
111.16915788053429
 30
0.0
  0
VERTEX
  8
0
 10
118.0431917071439
 20
109.90754868513199
 30
0.0
  0
VERTEX
  8
0
 10
111.95691297151173
 20
109.90754868513199
 30
0.0
  0
VERTEX
  8
0
 10
111.95691297151173
 20
111.16915788053429
 30
0.0
  0
VERTEX
  8
0
 10
114.29286124737379
 20
111.16915788053429
 30
0.0
  0
VERTEX
  8
0
 10
114.29286124737379
 20
118.73881305294807
 30
0.0
  0
VERTEX
  8
0
 10
111.95691297151173
 20
118.73881305294807
 30
0.0
  0
SEQEND
  8
0
  0
POLYLINE
  8
0
 62
0
 70
1
 66
1
 10
0.0
 20
0.0
 30
0.0
  0
VERTEX
  8
0
 10
78.32788998300597
 20
109.90754868513199
 30
0.0
  0
VERTEX
  8
0
 10
78.32788998300597
 20
120.00042224835038
 30
0.0
  0
VERTEX
  8
0
 10
85.12382389105194
 20
120.00042224835038
 30
0.0
  0
VERTEX
  8
0
 10
85.12382389105194
 20
118.73881305294807
 30
0.0
  0
VERTEX
  8
0
 10
79.74227216691402
 20
118.73881305294807
 30
0.0
  0
VERTEX
  8
0
 10
79.74227216691402
 20
115.9001923632929
 30
0.0
  0
VERTEX
  8
0
 10
84.68028940829332
 20
115.9001923632929
 30
0.0
  0
VERTEX
  8
0
 10
84.68028940829332
 20
114.6385831678906
 30
0.0
  0
VERTEX
  8
0
 10
79.74227216691402
 20
114.6385831678906
 30
0.0
  0
VERTEX
  8
0
 10
79.74227216691402
 20
111.16915788053429
 30
0.0
  0
VERTEX
  8
0
 10
85.4244417071439
 20
111.16915788053429
 30
0.0
  0
VERTEX
  8
0
 10
85.4244417071439
 20
109.90754868513199
 30
0.0
  0
SEQEND
  8
0
  0
POLYLINE
  8
0
 62
0
 70
1
 66
1
 10
0.0
 20
0.0
 30
0.0
  0
VERTEX
  8
0
 10
51.32231527036231
 20
93.24088201846533
 30
0.0
  0
VERTEX
  8
0
 10
49.784729063465754
 20
93.24088201846533
 30
0.0
  0
VERTEX
  8
0
 10
49.01593596001748
 20
96.1287843173159
 30
0.0
  0
VERTEX
  8
0
 10
48.92722906346576
 20
96.46389925984464
 30
0.0
  0
VERTEX
  8
0
 10
48.81880952323587
 20
96.87786477708602
 30
0.0
  0
VERTEX
  8
0
 10
48.71038998300599
 20
97.33125558168372
 30
0.0
  0
VERTEX
  8
0
 10
48.6019704427761
 20
97.7945027081205
 30
0.0
  0
VERTEX
  8
0
 10
48.350634235879554
 20
98.8836262713389
 30
0.0
  0
VERTEX
  8
0
 10
48.09436986806346
 20
97.78464638628142
 30
0.0
  0
VERTEX
  8
0
 10
47.98595032783357
 20
97.32632742076417
 30
0.0
  0
VERTEX
  8
0
 10
47.87260262668415
 20
96.87293661616647
 30
0.0
  0
VERTEX
  8
0
 10
47.76418308645426
 20
96.4589710989251
 30
0.0
  0
VERTEX
  8
0
 10
47.68040435082208
 20
96.1287843173159
 30
0.0
  0
VERTEX
  8
0
 10
46.896826764615184
 20
93.24088201846533
 30
0.0
  0
VERTEX
  8
0
 10
45.35924055771863
 20
93.24088201846533
 30
0.0
  0
VERTEX
  8
0
 10
43.79701354622438
 20
103.33375558168372
 30
0.0
  0
VERTEX
  8
0
 10
45.1966112473738
 20
103.33375558168372
 30
0.0
  0
VERTEX
  8
0
 10
46.0048296381784
 20
97.07499121386763
 30
0.0
  0
VERTEX
  8
0
 10
46.10339285656921
 20
96.12385615639636
 30
0.0
  0
VERTEX
  8
0
 10
46.18224343128185
 20
95.29099696099406
 30
0.0
  0
VERTEX
  8
0
 10
46.24630952323587
 20
94.48277857018947
 30
0.0
  0
VERTEX
  8
0
 10
46.482861247373805
 20
95.49797971961475
 30
0.0
  0
VERTEX
  8
0
 10
46.581424465764606
 20
95.94151420237337
 30
0.0
  0
VERTEX
  8
0
 10
46.689844005994495
 20
96.38997684605154
 30
0.0
  0
VERTEX
  8
0
 10
46.798263546224376
 20
96.82365500697108
 30
0.0
  0
VERTEX
  8
0
 10
46.896826764615184
 20
97.19819523685614
 30
0.0
  0
VERTEX
  8
0
 10
47.70011699450024
 20
100.17973259317797
 30
0.0
  0
VERTEX
  8
0
 10
48.99622331633932
 20
100.17973259317797
 30
0.0
  0
VERTEX
  8
0
 10
49.799513546224375
 20
97.19819523685614
 30
0.0
  0
VERTEX
  8
0
 10
49.89314860369564
 20
96.82365500697108
 30
0.0
  0
VERTEX
  8
0
 10
50.001568143925525
 20
96.39490500697107
 30
0.0
  0
VERTEX
  8
0
 10
50.10998768415541
 20
95.95137052421245
 30
0.0
  0
VERTEX
  8
0
 10
50.213479063465755
 20
95.50783604145383
 30
0.0
  0
VERTEX
  8
0
 10
50.45003078760369
 20
94.48277857018947
 30
0.0
  0
VERTEX
  8
0
 10
50.47959975312093
 20
94.73411477708602
 30
0.0
  0
VERTEX
  8
0
 10
50.538737684155414
 20
95.37477569662624
 30
0.0
  0
VERTEX
  8
0
 10
50.622516419787594
 20
96.21256305294808
 30
0.0
  0
VERTEX
  8
0
 10
50.71122331633932
 20
97.07499121386763
 30
0.0
  0
VERTEX
  8
0
 10
51.480016419787596
 20
103.33375558168372
 30
0.0
  0
VERTEX
  8
0
 10
52.87468596001748
 20
103.33375558168372
 30
0.0
  0
SEQEND
  8
0
  0
INSERT
  2
SHAPESTRING056
  8
0
 62
0
 10
0.0
 20
0.0
 30
0.0
  0
POLYLINE
  8
0
 62
0
 70
1
 66
1
 10
0.0
 20
0.0
 30
0.0
  0
VERTEX
  8
0
 10
61.66122331633932
 20
93.24088201846533
 30
0.0
  0
VERTEX
  8
0
 10
61.66122331633932
 20
103.33375558168372
 30
0.0
  0
VERTEX
  8
0
 10
68.4571572243853
 20
103.33375558168372
 30
0.0
  0
VERTEX
  8
0
 10
68.4571572243853
 20
102.07214638628142
 30
0.0
  0
VERTEX
  8
0
 10
63.07560550024736
 20
102.07214638628142
 30
0.0
  0
VERTEX
  8
0
 10
63.07560550024736
 20
99.23352569662624
 30
0.0
  0
VERTEX
  8
0
 10
68.01362274162668
 20
99.23352569662624
 30
0.0
  0
VERTEX
  8
0
 10
68.01362274162668
 20
97.97191650122394
 30
0.0
  0
VERTEX
  8
0
 10
63.07560550024736
 20
97.97191650122394
 30
0.0
  0
VERTEX
  8
0
 10
63.07560550024736
 20
94.50249121386763
 30
0.0
  0
VERTEX
  8
0
 10
68.75777504047724
 20
94.50249121386763
 30
0.0
  0
VERTEX
  8
0
 10
68.75777504047724
 20
93.24088201846533
 30
0.0
  0
SEQEND
  8
0
  0
POLYLINE
  8
0
 62
0
 70
1
 66
1
 10
0.0
 20
0.0
 30
0.0
  0
VERTEX
  8
0
 10
61.956912971511734
 20
120.00042224835038
 30
0.0
  0
VERTEX
  8
0
 10
68.04319170714392
 20
120.00042224835038
 30
0.0
  0
VERTEX
  8
0
 10
68.04319170714392
 20
118.73881305294807
 30
0.0
  0
VERTEX
  8
0
 10
65.70724343128185
 20
118.73881305294807
 30
0.0
  0
VERTEX
  8
0
 10
65.70724343128185
 20
111.16915788053429
 30
0.0
  0
VERTEX
  8
0
 10
68.04319170714392
 20
111.16915788053429
 30
0.0
  0
VERTEX
  8
0
 10
68.04319170714392
 20
109.90754868513199
 30
0.0
  0
VERTEX
  8
0
 10
61.956912971511734
 20
109.90754868513199
 30
0.0
  0
VERTEX
  8
0
 10
61.956912971511734
 20
111.16915788053429
 30
0.0
  0
VERTEX
  8
0
 10
64.29286124737379
 20
111.16915788053429
 30
0.0
  0
VERTEX
  8
0
 10
64.29286124737379
 20
118.73881305294807
 30
0.0
  0
VERTEX
  8
0
 10
61.956912971511734
 20
118.73881305294807
 30
0.0
  0
SEQEND
  8
0
  0
POLYLINE
  8
0
 62
0
 70
1
 66
1
 10
0.0
 20
0.0
 30
0.0
  0
VERTEX
  8
0
 10
94.99455664967265
 20
93.24088201846533
 30
0.0
  0
VERTEX
  8
0
 10
94.99455664967265
 20
103.33375558168372
 30
0.0
  0
VERTEX
  8
0
 10
101.79049055771861
 20
103.33375558168372
 30
0.0
  0
VERTEX
  8
0
 10
101.79049055771861
 20
102.07214638628142
 30
0.0
  0
VERTEX
  8
0
 10
96.40893883358069
 20
102.07214638628142
 30
0.0
  0
VERTEX
  8
0
 10
96.40893883358069
 20
99.23352569662624
 30
0.0
  0
VERTEX
  8
0
 10
101.34695607495999
 20
99.23352569662624
 30
0.0
  0
VERTEX
  8
0
 10
101.34695607495999
 20
97.97191650122394
 30
0.0
  0
VERTEX
  8
0
 10
96.40893883358069
 20
97.97191650122394
 30
0.0
  0
VERTEX
  8
0
 10
96.40893883358069
 20
94.50249121386763
 30
0.0
  0
VERTEX
  8
0
 10
102.09110837381057
 20
94.50249121386763
 30
0.0
  0
VERTEX
  8
0
 10
102.09110837381057
 20
93.24088201846533
 30
0.0
  0
SEQEND
  8
0
  0
POLYLINE
  8
0
 62
0
 70
1
 66
1
 10
0.0
 20
0.0
 30
0.0
  0
VERTEX
  8
0
 10
166.9343555002474
 20
93.24088201846533
 30
0.0
  0
VERTEX
  8
0
 10
166.9343555002474
 20
97.97191650122394
 30
0.0
  0
VERTEX
  8
0
 10
163.07560550024738
 20
97.97191650122394
 30
0.0
  0
VERTEX
  8
0
 10
163.07560550024738
 20
93.24088201846533
 30
0.0
  0
VERTEX
  8
0
 10
161.66122331633935
 20
93.24088201846533
 30
0.0
  0
VERTEX
  8
0
 10
161.66122331633935
 20
103.33375558168372
 30
0.0
  0
VERTEX
  8
0
 10
163.07560550024738
 20
103.33375558168372
 30
0.0
  0
VERTEX
  8
0
 10
163.07560550024738
 20
99.23352569662624
 30
0.0
  0
VERTEX
  8
0
 10
166.9343555002474
 20
99.23352569662624
 30
0.0
  0
VERTEX
  8
0
 10
166.9343555002474
 20
103.33375558168372
 30
0.0
  0
VERTEX
  8
0
 10
168.3438095232359
 20
103.33375558168372
 30
0.0
  0
VERTEX
  8
0
 10
168.3438095232359
 20
93.24088201846533
 30
0.0
  0
SEQEND
  8
0
  0
POLYLINE
  8
0
 62
0
 70
1
 66
1
 10
0.0
 20
0.0
 30
0.0
  0
VERTEX
  8
0
 10
163.31215722438532
 20
135.40547971961476
 30
0.0
  0
VERTEX
  8
0
 10
163.31215722438532
 20
132.251456731109
 30
0.0
  0
VERTEX
  8
0
 10
168.3093123967991
 20
132.251456731109
 30
0.0
  0
VERTEX
  8
0
 10
168.3093123967991
 20
130.9898475357067
 30
0.0
  0
VERTEX
  8
0
 10
163.31215722438532
 20
130.9898475357067
 30
0.0
  0
VERTEX
  8
0
 10
163.31215722438532
 20
126.57421535179866
 30
0.0
  0
VERTEX
  8
0
 10
161.89777504047726
 20
126.57421535179866
 30
0.0
  0
VERTEX
  8
0
 10
161.89777504047726
 20
136.66708891501705
 30
0.0
  0
VERTEX
  8
0
 10
168.48672618990256
 20
136.66708891501705
 30
0.0
  0
VERTEX
  8
0
 10
168.48672618990256
 20
135.40547971961476
 30
0.0
  0
SEQEND
  8
0
  0
POLYLINE
  8
0
 62
0
 70
1
 66
1
 10
0.0
 20
0.0
 30
0.0
  0
VERTEX
  8
0
 10
185.46879515541977
 20
129.40790788053428
 30
0.0
  0
VERTEX
  8
0
 10
185.23717159220138
 20
128.26950270812048
 30
0.0
  0
VERTEX
  8
0
 10
184.5423009025462
 20
127.37257742076417
 30
0.0
  0
VERTEX
  8
0
 10
183.34968596001747
 20
126.78119811041934
 30
0.0
  0
VERTEX
  8
0
 10
181.639614120937
 20
126.57421535179866
 30
0.0
  0
VERTEX
  8
0
 10
178.9439100979485
 20
127.23458891501704
 30
0.0
  0
VERTEX
  8
0
 10
177.716798028983
 20
129.14671535179866
 30
0.0
  0
VERTEX
  8
0
 10
179.08189860369563
 20
129.41283604145383
 30
0.0
  0
VERTEX
  8
0
 10
179.3480192933508
 20
128.76724696099407
 30
0.0
  0
VERTEX
  8
0
 10
179.83590722438527
 20
128.27443086904003
 30
0.0
  0
VERTEX
  8
0
 10
180.59484400599447
 20
127.94917224835038
 30
0.0
  0
VERTEX
  8
0
 10
181.67903940829333
 20
127.83582454720096
 30
0.0
  0
VERTEX
  8
0
 10
182.64988710944274
 20
127.92453144375268
 30
0.0
  0
VERTEX
  8
0
 10
183.4038957301324
 20
128.20050845524693
 30
0.0
  0
VERTEX
  8
0
 10
183.89671182208642
 20
128.67854006444233
 30
0.0
  0
VERTEX
  8
0
 10
184.07412561518987
 20
129.3832670759366
 30
0.0
  0
VERTEX
  8
0
 10
183.8326457301324
 20
130.21119811041933
 30
0.0
  0
VERTEX
  8
0
 10
183.20184113243124
 20
130.7335831678906
 30
0.0
  0
VERTEX
  8
0
 10
182.31970032783354
 20
131.0637699494998
 30
0.0
  0
VERTEX
  8
0
 10
181.32421182208643
 20
131.31510615639635
 30
0.0
  0
VERTEX
  8
0
 10
180.5751313623163
 20
131.51223259317797
 30
0.0
  0
VERTEX
  8
0
 10
179.8506917071439
 20
131.75864063915498
 30
0.0
  0
VERTEX
  8
0
 10
179.20510262668412
 20
132.09375558168372
 30
0.0
  0
VERTEX
  8
0
 10
178.68271756921285
 20
132.5570027081205
 30
0.0
  0
VERTEX
  8
0
 10
178.32788998300597
 20
133.19766362766072
 30
0.0
  0
VERTEX
  8
0
 10
178.20468596001746
 20
134.05516362766073
 30
0.0
  0
VERTEX
  8
0
 10
178.47080664967262
 20
135.24777857018947
 30
0.0
  0
VERTEX
  8
0
 10
179.20017446576458
 20
136.0609251219136
 30
0.0
  0
VERTEX
  8
0
 10
180.3040825117416
 20
136.51924408743085
 30
0.0
  0
VERTEX
  8
0
 10
181.67903940829333
 20
136.66708891501705
 30
0.0
  0
VERTEX
  8
0
 10
183.13777504047724
 20
136.51924408743085
 30
0.0
  0
VERTEX
  8
0
 10
184.15790435082206
 20
136.0855659265113
 30
0.0
  0
VERTEX
  8
0
 10
184.82813423587953
 20
135.37098259317796
 30
0.0
  0
VERTEX
  8
0
 10
185.22731527036228
 20
134.37549408743084
 30
0.0
  0
VERTEX
  8
0
 10
183.83757389105193
 20
134.14387052421245
 30
0.0
  0
VERTEX
  8
0
 10
183.59609400599447
 20
134.81902857018946
 30
0.0
  0
VERTEX
  8
0
 10
183.17720032783356
 20
135.31184466214347
 30
0.0
  0
VERTEX
  8
0
 10
182.54639573013242
 20
135.617390639155
 30
0.0
  0
VERTEX
  8
0
 10
181.6741112473738
 20
135.72088201846532
 30
0.0
  0
VERTEX
  8
0
 10
180.6835509025462
 20
135.59274983455728
 30
0.0
  0
VERTEX
  8
0
 10
180.03796182208643
 20
135.24285040926992
 30
0.0
  0
VERTEX
  8
0
 10
179.68806239679907
 20
134.7253935127182
 30
0.0
  0
VERTEX
  8
0
 10
179.5796428565692
 20
134.0748762713389
 30
0.0
  0
VERTEX
  8
0
 10
179.77184113243126
 20
133.3652210989251
 30
0.0
  0
VERTEX
  8
0
 10
180.3040825117416
 20
132.91675845524694
 30
0.0
  0
VERTEX
  8
0
 10
181.0876600979485
 20
132.6210688000745
 30
0.0
  0
VERTEX
  8
0
 10
182.04865147725883
 20
132.3746607540975
 30
0.0
  0
VERTEX
  8
0
 10
182.86672618990252
 20
132.16274983455727
 30
0.0
  0
VERTEX
  8
0
 10
183.6601600979485
 20
131.8966291449021
 30
0.0
  0
VERTEX
  8
0
 10
184.3698152703623
 20
131.53687339777568
 30
0.0
  0
VERTEX
  8
0
 10
184.94148193702895
 20
131.02927282306302
 30
0.0
  0
VERTEX
  8
0
 10
185.3258784887531
 20
130.33440213340785
 30
0.0
  0
SEQEND
  8
0
  0
POLYLINE
  8
0
 62
0
 70
1
 66
1
 10
0.0
 20
0.0
 30
0.0
  0
VERTEX
  8
0
 10
65.73681239679908
 20
76.57421535179866
 30
0.0
  0
VERTEX
  8
0
 10
64.27314860369565
 20
76.57421535179866
 30
0.0
  0
VERTEX
  8
0
 10
60.53760262668415
 20
86.66708891501705
 30
0.0
  0
VERTEX
  8
0
 10
62.02590722438529
 20
86.66708891501705
 30
0.0
  0
VERTEX
  8
0
 10
64.3914244657646
 20
79.90565213340786
 30
0.0
  0
VERTEX
  8
0
 10
64.61811986806346
 20
79.20585328283313
 30
0.0
  0
VERTEX
  8
0
 10
64.81524630484506
 20
78.52576707593659
 30
0.0
  0
VERTEX
  8
0
 10
65.01237274162668
 20
77.8161119035228
 30
0.0
  0
VERTEX
  8
0
 10
65.20457101748875
 20
78.51098259317797
 30
0.0
  0
VERTEX
  8
0
 10
65.40169745427035
 20
79.18614063915498
 30
0.0
  0
VERTEX
  8
0
 10
65.63332101748874
 20
79.90565213340786
 30
0.0
  0
VERTEX
  8
0
 10
67.98405377610943
 20
86.66708891501705
 30
0.0
  0
VERTEX
  8
0
 10
69.46743021289105
 20
86.66708891501705
 30
0.0
  0
SEQEND
  8
0
  0
POLYLINE
  8
0
 62
0
 70
1
 66
1
 10
0.0
 20
0.0
 30
0.0
  0
VERTEX
  8
0
 10
146.11817733932781
 20
98.33167224835039
 30
0.0
  0
VERTEX
  8
0
 10
146.26602216691404
 20
96.70045098398256
 30
0.0
  0
VERTEX
  8
0
 10
146.72434113243128
 20
95.49797971961475
 30
0.0
  0
VERTEX
  8
0
 10
147.51777504047726
 20
94.75382742076418
 30
0.0
  0
VERTEX
  8
0
 10
148.6857491784083
 20
94.50249121386763
 30
0.0
  0
VERTEX
  8
0
 10
149.5235365347301
 20
94.66019236329291
 30
0.0
  0
VERTEX
  8
0
 10
150.18883825886806
 20
95.08401420237337
 30
0.0
  0
VERTEX
  8
0
 10
150.69151067266117
 20
95.69017799547682
 30
0.0
  0
VERTEX
  8
0
 10
151.0660509025462
 20
96.39490500697107
 30
0.0
  0
VERTEX
  8
0
 10
152.23895320139678
 20
95.92672971961476
 30
0.0
  0
VERTEX
  8
0
 10
151.7264244657646
 20
94.9410975357067
 30
0.0
  0
VERTEX
  8
0
 10
150.99705664967266
 20
94.0835975357067
 30
0.0
  0
VERTEX
  8
0
 10
149.996639983006
 20
93.47250558168372
 30
0.0
  0
VERTEX
  8
0
 10
148.67096469564967
 20
93.24088201846533
 30
0.0
  0
VERTEX
  8
0
 10
146.86725779909793
 20
93.6055659265113
 30
0.0
  0
VERTEX
  8
0
 10
145.6105767646152
 20
94.64047971961476
 30
0.0
  0
VERTEX
  8
0
 10
144.87135262668414
 20
96.24706017938487
 30
0.0
  0
VERTEX
  8
0
 10
144.6348009025462
 20
98.33167224835039
 30
0.0
  0
VERTEX
  8
0
 10
144.87135262668414
 20
100.4655659265113
 30
0.0
  0
VERTEX
  8
0
 10
145.59579228185657
 20
102.03764925984464
 30
0.0
  0
VERTEX
  8
0
 10
146.82783251174163
 20
103.00356880007452
 30
0.0
  0
VERTEX
  8
0
 10
148.59704228185657
 20
103.33375558168372
 30
0.0
  0
VERTEX
  8
0
 10
149.90793308645425
 20
103.13662914490212
 30
0.0
  0
VERTEX
  8
0
 10
150.8787807876037
 20
102.61424408743085
 30
0.0
  0
VERTEX
  8
0
 10
151.57365147725886
 20
101.85530730582165
 30
0.0
  0
VERTEX
  8
0
 10
152.0418267646152
 20
100.95838201846533
 30
0.0
  0
VERTEX
  8
0
 10
150.79993021289104
 20
100.49513489202855
 30
0.0
  0
VERTEX
  8
0
 10
150.49438423587955
 20
101.0766578805343
 30
0.0
  0
VERTEX
  8
0
 10
150.03113710944277
 20
101.57933029432739
 30
0.0
  0
VERTEX
  8
0
 10
149.40526067266117
 20
101.93415788053429
 30
0.0
  0
VERTEX
  8
0
 10
148.6019704427761
 20
102.07214638628142
 30
0.0
  0
VERTEX
  8
0
 10
147.4734215922014
 20
101.83066650122394
 30
0.0
  0
VERTEX
  8
0
 10
146.69970032783357
 20
101.12101132881016
 30
0.0
  0
VERTEX
  8
0
 10
146.25616584507495
 20
99.94810902995958
 30
0.0
  0
SEQEND
  8
0
  0
INSERT
  2
SHAPESTRING055
  8
0
 62
0
 10
0.0
 20
0.0
 30
0.0
  0
INSERT
  2
SHAPESTRING076
  8
0
 62
0
 10
0.0
 20
0.0
 30
0.0
  0
POLYLINE
  8
0
 62
0
 70
1
 66
1
 10
0.0
 20
0.0
 30
0.0
  0
VERTEX
  8
0
 10
182.3739100979485
 20
102.07214638628142
 30
0.0
  0
VERTEX
  8
0
 10
182.3739100979485
 20
93.24088201846533
 30
0.0
  0
VERTEX
  8
0
 10
180.96938423587955
 20
93.24088201846533
 30
0.0
  0
VERTEX
  8
0
 10
180.96938423587955
 20
102.07214638628142
 30
0.0
  0
VERTEX
  8
0
 10
177.69215722438528
 20
102.07214638628142
 30
0.0
  0
VERTEX
  8
0
 10
177.69215722438528
 20
103.33375558168372
 30
0.0
  0
VERTEX
  8
0
 10
185.6462089485232
 20
103.33375558168372
 30
0.0
  0
VERTEX
  8
0
 10
185.6462089485232
 20
102.07214638628142
 30
0.0
  0
SEQEND
  8
0
  0
POLYLINE
  8
0
 62
0
 70
1
 66
1
 10
0.0
 20
0.0
 30
0.0
  0
VERTEX
  8
0
 10
44.99455664967265
 20
76.57421535179866
 30
0.0
  0
VERTEX
  8
0
 10
44.99455664967265
 20
86.66708891501705
 30
0.0
  0
VERTEX
  8
0
 10
51.79049055771863
 20
86.66708891501705
 30
0.0
  0
VERTEX
  8
0
 10
51.79049055771863
 20
85.40547971961475
 30
0.0
  0
VERTEX
  8
0
 10
46.4089388335807
 20
85.40547971961475
 30
0.0
  0
VERTEX
  8
0
 10
46.4089388335807
 20
82.56685902995957
 30
0.0
  0
VERTEX
  8
0
 10
51.34695607496001
 20
82.56685902995957
 30
0.0
  0
VERTEX
  8
0
 10
51.34695607496001
 20
81.30524983455727
 30
0.0
  0
VERTEX
  8
0
 10
46.4089388335807
 20
81.30524983455727
 30
0.0
  0
VERTEX
  8
0
 10
46.4089388335807
 20
77.83582454720096
 30
0.0
  0
VERTEX
  8
0
 10
52.091108373810584
 20
77.83582454720096
 30
0.0
  0
VERTEX
  8
0
 10
52.091108373810584
 20
76.57421535179866
 30
0.0
  0
SEQEND
  8
0
  0
INSERT
  2
SHAPESTRING062
  8
0
 62
0
 10
0.0
 20
0.0
 30
0.0
  0
POLYLINE
  8
0
 62
0
 70
1
 66
1
 10
0.0
 20
0.0
 30
0.0
  0
VERTEX
  8
0
 10
128.32788998300597
 20
109.90754868513199
 30
0.0
  0
VERTEX
  8
0
 10
128.32788998300597
 20
120.00042224835038
 30
0.0
  0
VERTEX
  8
0
 10
135.12382389105196
 20
120.00042224835038
 30
0.0
  0
VERTEX
  8
0
 10
135.12382389105196
 20
118.73881305294807
 30
0.0
  0
VERTEX
  8
0
 10
129.742272166914
 20
118.73881305294807
 30
0.0
  0
VERTEX
  8
0
 10
129.742272166914
 20
115.9001923632929
 30
0.0
  0
VERTEX
  8
0
 10
134.68028940829333
 20
115.9001923632929
 30
0.0
  0
VERTEX
  8
0
 10
134.68028940829333
 20
114.6385831678906
 30
0.0
  0
VERTEX
  8
0
 10
129.742272166914
 20
114.6385831678906
 30
0.0
  0
VERTEX
  8
0
 10
129.742272166914
 20
111.16915788053429
 30
0.0
  0
VERTEX
  8
0
 10
135.4244417071439
 20
111.16915788053429
 30
0.0
  0
VERTEX
  8
0
 10
135.4244417071439
 20
109.90754868513199
 30
0.0
  0
SEQEND
  8
0
  0
POLYLINE
  8
0
 62
0
 70
1
 66
1
 10
0.0
 20
0.0
 30
0.0
  0
VERTEX
  8
0
 10
35.67084975312092
 20
76.57421535179866
 30
0.0
  0
VERTEX
  8
0
 10
27.67244458070713
 20
76.57421535179866
 30
0.0
  0
VERTEX
  8
0
 10
27.67244458070713
 20
77.7421894897297
 30
0.0
  0
VERTEX
  8
0
 10
33.71929802898299
 20
85.40055155869521
 30
0.0
  0
VERTEX
  8
0
 10
28.20961412093701
 20
85.40547971961475
 30
0.0
  0
VERTEX
  8
0
 10
28.20961412093701
 20
86.66708891501705
 30
0.0
  0
VERTEX
  8
0
 10
35.320950327833565
 20
86.66708891501705
 30
0.0
  0
VERTEX
  8
0
 10
35.320950327833565
 20
85.52868374260325
 30
0.0
  0
VERTEX
  8
0
 10
29.274096879557703
 20
77.83582454720096
 30
0.0
  0
VERTEX
  8
0
 10
35.67084975312092
 20
77.83582454720096
 30
0.0
  0
SEQEND
  8
0
  0
POLYLINE
  8
0
 62
0
 70
1
 66
1
 10
0.0
 20
0.0
 30
0.0
  0
VERTEX
  8
0
 10
178.32788998300597
 20
109.90754868513199
 30
0.0
  0
VERTEX
  8
0
 10
178.32788998300597
 20
120.00042224835038
 30
0.0
  0
VERTEX
  8
0
 10
185.12382389105196
 20
120.00042224835038
 30
0.0
  0
VERTEX
  8
0
 10
185.12382389105196
 20
118.73881305294807
 30
0.0
  0
VERTEX
  8
0
 10
179.742272166914
 20
118.73881305294807
 30
0.0
  0
VERTEX
  8
0
 10
179.742272166914
 20
115.9001923632929
 30
0.0
  0
VERTEX
  8
0
 10
184.68028940829333
 20
115.9001923632929
 30
0.0
  0
VERTEX
  8
0
 10
184.68028940829333
 20
114.6385831678906
 30
0.0
  0
VERTEX
  8
0
 10
179.742272166914
 20
114.6385831678906
 30
0.0
  0
VERTEX
  8
0
 10
179.742272166914
 20
111.16915788053429
 30
0.0
  0
VERTEX
  8
0
 10
185.4244417071439
 20
111.16915788053429
 30
0.0
  0
VERTEX
  8
0
 10
185.4244417071439
 20
109.90754868513199
 30
0.0
  0
SEQEND
  8
0
  0
POLYLINE
  8
0
 62
0
 70
1
 66
1
 10
0.0
 20
0.0
 30
0.0
  0
VERTEX
  8
0
 10
199.97692733932783
 20
109.90754868513199
 30
0.0
  0
VERTEX
  8
0
 10
196.13296182208646
 20
118.37905730582165
 30
0.0
  0
VERTEX
  8
0
 10
196.19209975312094
 20
117.71868374260325
 30
0.0
  0
VERTEX
  8
0
 10
196.23152504047724
 20
117.09773546674118
 30
0.0
  0
VERTEX
  8
0
 10
196.2512376841554
 20
116.47678719087911
 30
0.0
  0
VERTEX
  8
0
 10
196.2512376841554
 20
109.90754868513199
 30
0.0
  0
VERTEX
  8
0
 10
194.99455664967266
 20
109.90754868513199
 30
0.0
  0
VERTEX
  8
0
 10
194.99455664967266
 20
120.00042224835038
 30
0.0
  0
VERTEX
  8
0
 10
196.63563423587954
 20
120.00042224835038
 30
0.0
  0
VERTEX
  8
0
 10
200.53873768415542
 20
111.46977569662624
 30
0.0
  0
VERTEX
  8
0
 10
200.4746715922014
 20
112.11536477708601
 30
0.0
  0
VERTEX
  8
0
 10
200.425389983006
 20
112.77081017938485
 30
0.0
  0
VERTEX
  8
0
 10
200.40567733932784
 20
113.52481880007451
 30
0.0
  0
VERTEX
  8
0
 10
200.40567733932784
 20
120.00042224835038
 30
0.0
  0
VERTEX
  8
0
 10
201.67714285656922
 20
120.00042224835038
 30
0.0
  0
VERTEX
  8
0
 10
201.67714285656922
 20
109.90754868513199
 30
0.0
  0
SEQEND
  8
0
  0
POLYLINE
  8
0
 62
0
 70
1
 66
1
 10
0.0
 20
0.0
 30
0.0
  0
VERTEX
  8
0
 10
117.98898193702897
 20
93.24088201846533
 30
0.0
  0
VERTEX
  8
0
 10
116.45139573013242
 20
93.24088201846533
 30
0.0
  0
VERTEX
  8
0
 10
115.68260262668414
 20
96.1287843173159
 30
0.0
  0
VERTEX
  8
0
 10
115.59389573013242
 20
96.46389925984464
 30
0.0
  0
VERTEX
  8
0
 10
115.48547618990253
 20
96.87786477708602
 30
0.0
  0
VERTEX
  8
0
 10
115.37705664967264
 20
97.33125558168372
 30
0.0
  0
VERTEX
  8
0
 10
115.26863710944276
 20
97.7945027081205
 30
0.0
  0
VERTEX
  8
0
 10
115.01730090254621
 20
98.8836262713389
 30
0.0
  0
VERTEX
  8
0
 10
114.76103653473011
 20
97.78464638628142
 30
0.0
  0
VERTEX
  8
0
 10
114.65261699450024
 20
97.32632742076417
 30
0.0
  0
VERTEX
  8
0
 10
114.5392692933508
 20
96.87293661616647
 30
0.0
  0
VERTEX
  8
0
 10
114.43084975312092
 20
96.4589710989251
 30
0.0
  0
VERTEX
  8
0
 10
114.34707101748873
 20
96.1287843173159
 30
0.0
  0
VERTEX
  8
0
 10
113.56349343128184
 20
93.24088201846533
 30
0.0
  0
VERTEX
  8
0
 10
112.02590722438529
 20
93.24088201846533
 30
0.0
  0
VERTEX
  8
0
 10
110.46368021289103
 20
103.33375558168372
 30
0.0
  0
VERTEX
  8
0
 10
111.86327791404047
 20
103.33375558168372
 30
0.0
  0
VERTEX
  8
0
 10
112.67149630484506
 20
97.07499121386763
 30
0.0
  0
VERTEX
  8
0
 10
112.77005952323586
 20
96.12385615639636
 30
0.0
  0
VERTEX
  8
0
 10
112.8489100979485
 20
95.29099696099406
 30
0.0
  0
VERTEX
  8
0
 10
112.91297618990252
 20
94.48277857018947
 30
0.0
  0
VERTEX
  8
0
 10
113.14952791404046
 20
95.49797971961475
 30
0.0
  0
VERTEX
  8
0
 10
113.24809113243127
 20
95.94151420237337
 30
0.0
  0
VERTEX
  8
0
 10
113.35651067266114
 20
96.38997684605154
 30
0.0
  0
VERTEX
  8
0
 10
113.46493021289103
 20
96.82365500697108
 30
0.0
  0
VERTEX
  8
0
 10
113.56349343128184
 20
97.19819523685614
 30
0.0
  0
VERTEX
  8
0
 10
114.36678366116689
 20
100.17973259317797
 30
0.0
  0
VERTEX
  8
0
 10
115.66288998300598
 20
100.17973259317797
 30
0.0
  0
VERTEX
  8
0
 10
116.46618021289103
 20
97.19819523685614
 30
0.0
  0
VERTEX
  8
0
 10
116.5598152703623
 20
96.82365500697108
 30
0.0
  0
VERTEX
  8
0
 10
116.66823481059218
 20
96.39490500697107
 30
0.0
  0
VERTEX
  8
0
 10
116.77665435082207
 20
95.95137052421245
 30
0.0
  0
VERTEX
  8
0
 10
116.88014573013241
 20
95.50783604145383
 30
0.0
  0
VERTEX
  8
0
 10
117.11669745427034
 20
94.48277857018947
 30
0.0
  0
VERTEX
  8
0
 10
117.14626641978758
 20
94.73411477708602
 30
0.0
  0
VERTEX
  8
0
 10
117.20540435082206
 20
95.37477569662624
 30
0.0
  0
VERTEX
  8
0
 10
117.28918308645426
 20
96.21256305294808
 30
0.0
  0
VERTEX
  8
0
 10
117.37788998300597
 20
97.07499121386763
 30
0.0
  0
VERTEX
  8
0
 10
118.14668308645426
 20
103.33375558168372
 30
0.0
  0
VERTEX
  8
0
 10
119.54135262668413
 20
103.33375558168372
 30
0.0
  0
SEQEND
  8
0
  0
POLYLINE
  8
0
 62
0
 70
1
 66
1
 10
0.0
 20
0.0
 30
0.0
  0
VERTEX
  8
0
 10
78.32788998300597
 20
76.57421535179866
 30
0.0
  0
VERTEX
  8
0
 10
78.32788998300597
 20
86.66708891501705
 30
0.0
  0
VERTEX
  8
0
 10
85.12382389105194
 20
86.66708891501705
 30
0.0
  0
VERTEX
  8
0
 10
85.12382389105194
 20
85.40547971961475
 30
0.0
  0
VERTEX
  8
0
 10
79.74227216691402
 20
85.40547971961475
 30
0.0
  0
VERTEX
  8
0
 10
79.74227216691402
 20
82.56685902995957
 30
0.0
  0
VERTEX
  8
0
 10
84.68028940829332
 20
82.56685902995957
 30
0.0
  0
VERTEX
  8
0
 10
84.68028940829332
 20
81.30524983455727
 30
0.0
  0
VERTEX
  8
0
 10
79.74227216691402
 20
81.30524983455727
 30
0.0
  0
VERTEX
  8
0
 10
79.74227216691402
 20
77.83582454720096
 30
0.0
  0
VERTEX
  8
0
 10
85.4244417071439
 20
77.83582454720096
 30
0.0
  0
VERTEX
  8
0
 10
85.4244417071439
 20
76.57421535179866
 30
0.0
  0
SEQEND
  8
0
  0
POLYLINE
  8
0
 62
0
 70
1
 66
1
 10
0.0
 20
0.0
 30
0.0
  0
VERTEX
  8
0
 10
99.07014573013241
 20
109.90754868513199
 30
0.0
  0
VERTEX
  8
0
 10
97.60648193702896
 20
109.90754868513199
 30
0.0
  0
VERTEX
  8
0
 10
93.87093596001746
 20
120.00042224835038
 30
0.0
  0
VERTEX
  8
0
 10
95.35924055771862
 20
120.00042224835038
 30
0.0
  0
VERTEX
  8
0
 10
97.72475779909793
 20
113.23898546674118
 30
0.0
  0
VERTEX
  8
0
 10
97.95145320139677
 20
112.53918661616646
 30
0.0
  0
VERTEX
  8
0
 10
98.14857963817839
 20
111.85910040926991
 30
0.0
  0
VERTEX
  8
0
 10
98.34570607495999
 20
111.14944523685612
 30
0.0
  0
VERTEX
  8
0
 10
98.53790435082206
 20
111.8443159265113
 30
0.0
  0
VERTEX
  8
0
 10
98.73503078760368
 20
112.51947397248831
 30
0.0
  0
VERTEX
  8
0
 10
98.96665435082207
 20
113.23898546674118
 30
0.0
  0
VERTEX
  8
0
 10
101.31738710944275
 20
120.00042224835038
 30
0.0
  0
VERTEX
  8
0
 10
102.80076354622436
 20
120.00042224835038
 30
0.0
  0
SEQEND
  8
0
  0
POLYLINE
  8
0
 62
0
 70
1
 66
1
 10
0.0
 20
0.0
 30
0.0
  0
VERTEX
  8
0
 10
161.66122331633935
 20
109.90754868513199
 30
0.0
  0
VERTEX
  8
0
 10
161.66122331633935
 20
120.00042224835038
 30
0.0
  0
VERTEX
  8
0
 10
168.45715722438533
 20
120.00042224835038
 30
0.0
  0
VERTEX
  8
0
 10
168.45715722438533
 20
118.73881305294807
 30
0.0
  0
VERTEX
  8
0
 10
163.07560550024738
 20
118.73881305294807
 30
0.0
  0
VERTEX
  8
0
 10
163.07560550024738
 20
115.9001923632929
 30
0.0
  0
VERTEX
  8
0
 10
168.0136227416267
 20
115.9001923632929
 30
0.0
  0
VERTEX
  8
0
 10
168.0136227416267
 20
114.6385831678906
 30
0.0
  0
VERTEX
  8
0
 10
163.07560550024738
 20
114.6385831678906
 30
0.0
  0
VERTEX
  8
0
 10
163.07560550024738
 20
111.16915788053429
 30
0.0
  0
VERTEX
  8
0
 10
168.75777504047727
 20
111.16915788053429
 30
0.0
  0
VERTEX
  8
0
 10
168.75777504047727
 20
109.90754868513199
 30
0.0
  0
SEQEND
  8
0
  0
POLYLINE
  8
0
 62
0
 70
1
 66
1
 10
0.0
 20
0.0
 30
0.0
  0
VERTEX
  8
0
 10
78.32788998300597
 20
93.24088201846533
 30
0.0
  0
VERTEX
  8
0
 10
78.32788998300597
 20
103.33375558168372
 30
0.0
  0
VERTEX
  8
0
 10
85.12382389105194
 20
103.33375558168372
 30
0.0
  0
VERTEX
  8
0
 10
85.12382389105194
 20
102.07214638628142
 30
0.0
  0
VERTEX
  8
0
 10
79.74227216691402
 20
102.07214638628142
 30
0.0
  0
VERTEX
  8
0
 10
79.74227216691402
 20
99.23352569662624
 30
0.0
  0
VERTEX
  8
0
 10
84.68028940829332
 20
99.23352569662624
 30
0.0
  0
VERTEX
  8
0
 10
84.68028940829332
 20
97.97191650122394
 30
0.0
  0
VERTEX
  8
0
 10
79.74227216691402
 20
97.97191650122394
 30
0.0
  0
VERTEX
  8
0
 10
79.74227216691402
 20
94.50249121386763
 30
0.0
  0
VERTEX
  8
0
 10
85.4244417071439
 20
94.50249121386763
 30
0.0
  0
VERTEX
  8
0
 10
85.4244417071439
 20
93.24088201846533
 30
0.0
  0
SEQEND
  8
0
  0
POLYLINE
  8
0
 62
0
 70
1
 66
1
 10
0.0
 20
0.0
 30
0.0
  0
VERTEX
  8
0
 10
99.97692733932782
 20
76.57421535179866
 30
0.0
  0
VERTEX
  8
0
 10
96.13296182208643
 20
85.0457239724883
 30
0.0
  0
VERTEX
  8
0
 10
96.19209975312091
 20
84.38535040926992
 30
0.0
  0
VERTEX
  8
0
 10
96.23152504047724
 20
83.76440213340786
 30
0.0
  0
VERTEX
  8
0
 10
96.2512376841554
 20
83.14345385754578
 30
0.0
  0
VERTEX
  8
0
 10
96.2512376841554
 20
76.57421535179866
 30
0.0
  0
VERTEX
  8
0
 10
94.99455664967265
 20
76.57421535179866
 30
0.0
  0
VERTEX
  8
0
 10
94.99455664967265
 20
86.66708891501705
 30
0.0
  0
VERTEX
  8
0
 10
96.63563423587954
 20
86.66708891501705
 30
0.0
  0
VERTEX
  8
0
 10
100.5387376841554
 20
78.13644236329291
 30
0.0
  0
VERTEX
  8
0
 10
100.47467159220137
 20
78.78203144375269
 30
0.0
  0
VERTEX
  8
0
 10
100.42538998300597
 20
79.43747684605152
 30
0.0
  0
VERTEX
  8
0
 10
100.40567733932781
 20
80.19148546674118
 30
0.0
  0
VERTEX
  8
0
 10
100.40567733932781
 20
86.66708891501705
 30
0.0
  0
VERTEX
  8
0
 10
101.67714285656919
 20
86.66708891501705
 30
0.0
  0
VERTEX
  8
0
 10
101.67714285656919
 20
76.57421535179866
 30
0.0
  0
SEQEND
  8
0
  0
POLYLINE
  8
0
 62
0
 70
1
 66
1
 10
0.0
 20
0.0
 30
0.0
  0
VERTEX
  8
0
 10
68.48672618990254
 20
47.00106880007453
 30
0.0
  0
VERTEX
  8
0
 10
68.26988710944276
 20
45.27621247823545
 30
0.0
  0
VERTEX
  8
0
 10
67.61444170714391
 20
44.10823834030442
 30
0.0
  0
VERTEX
  8
0
 10
66.50560550024737
 20
43.447864777086025
 30
0.0
  0
VERTEX
  8
0
 10
64.93845032783356
 20
43.240882018465335
 30
0.0
  0
VERTEX
  8
0
 10
63.4353612473738
 20
43.433080294327404
 30
0.0
  0
VERTEX
  8
0
 10
62.36595032783357
 20
44.058956731109014
 30
0.0
  0
VERTEX
  8
0
 10
61.72528940829334
 20
45.18257742076418
 30
0.0
  0
VERTEX
  8
0
 10
61.51337848875311
 20
46.868008455246944
 30
0.0
  0
VERTEX
  8
0
 10
61.51337848875311
 20
53.333755581683725
 30
0.0
  0
VERTEX
  8
0
 10
62.92776067266116
 20
53.333755581683725
 30
0.0
  0
VERTEX
  8
0
 10
62.92776067266116
 20
47.1439854667412
 30
0.0
  0
VERTEX
  8
0
 10
63.02139573013242
 20
45.93658604145384
 30
0.0
  0
VERTEX
  8
0
 10
63.336798028983
 20
45.113583167890624
 30
0.0
  0
VERTEX
  8
0
 10
63.952818143925526
 20
44.6454078805343
 30
0.0
  0
VERTEX
  8
0
 10
64.93352216691403
 20
44.502491213867636
 30
0.0
  0
VERTEX
  8
0
 10
65.95365147725886
 20
44.6454078805343
 30
0.0
  0
VERTEX
  8
0
 10
66.61895320139679
 20
45.113583167890624
 30
0.0
  0
VERTEX
  8
0
 10
66.97378078760369
 20
45.961226846051545
 30
0.0
  0
VERTEX
  8
0
 10
67.08220032783358
 20
47.23762052421246
 30
0.0
  0
VERTEX
  8
0
 10
67.08220032783358
 20
53.333755581683725
 30
0.0
  0
VERTEX
  8
0
 10
68.48672618990254
 20
53.333755581683725
 30
0.0
  0
SEQEND
  8
0
  0
POLYLINE
  8
0
 62
0
 70
1
 66
1
 10
0.0
 20
0.0
 30
0.0
  0
VERTEX
  8
0
 10
45.29024630484507
 20
70.00042224835038
 30
0.0
  0
VERTEX
  8
0
 10
51.37652504047725
 20
70.00042224835038
 30
0.0
  0
VERTEX
  8
0
 10
51.37652504047725
 20
68.73881305294807
 30
0.0
  0
VERTEX
  8
0
 10
49.04057676461518
 20
68.73881305294807
 30
0.0
  0
VERTEX
  8
0
 10
49.04057676461518
 20
61.169157880534286
 30
0.0
  0
VERTEX
  8
0
 10
51.37652504047725
 20
61.169157880534286
 30
0.0
  0
VERTEX
  8
0
 10
51.37652504047725
 20
59.907548685131985
 30
0.0
  0
VERTEX
  8
0
 10
45.29024630484507
 20
59.907548685131985
 30
0.0
  0
VERTEX
  8
0
 10
45.29024630484507
 20
61.169157880534286
 30
0.0
  0
VERTEX
  8
0
 10
47.626194580707136
 20
61.169157880534286
 30
0.0
  0
VERTEX
  8
0
 10
47.626194580707136
 20
68.73881305294807
 30
0.0
  0
VERTEX
  8
0
 10
45.29024630484507
 20
68.73881305294807
 30
0.0
  0
SEQEND
  8
0
  0
POLYLINE
  8
0
 62
0
 70
1
 66
1
 10
0.0
 20
0.0
 30
0.0
  0
VERTEX
  8
0
 10
32.37391009794851
 20
68.73881305294807
 30
0.0
  0
VERTEX
  8
0
 10
32.37391009794851
 20
59.907548685131985
 30
0.0
  0
VERTEX
  8
0
 10
30.96938423587954
 20
59.907548685131985
 30
0.0
  0
VERTEX
  8
0
 10
30.96938423587954
 20
68.73881305294807
 30
0.0
  0
VERTEX
  8
0
 10
27.692157224385287
 20
68.73881305294807
 30
0.0
  0
VERTEX
  8
0
 10
27.692157224385287
 20
70.00042224835038
 30
0.0
  0
VERTEX
  8
0
 10
35.64620894852322
 20
70.00042224835038
 30
0.0
  0
VERTEX
  8
0
 10
35.64620894852322
 20
68.73881305294807
 30
0.0
  0
SEQEND
  8
0
  0
POLYLINE
  8
0
 62
0
 70
1
 66
1
 10
0.0
 20
0.0
 30
0.0
  0
VERTEX
  8
0
 10
161.95691297151174
 20
70.00042224835038
 30
0.0
  0
VERTEX
  8
0
 10
168.04319170714393
 20
70.00042224835038
 30
0.0
  0
VERTEX
  8
0
 10
168.04319170714393
 20
68.73881305294807
 30
0.0
  0
VERTEX
  8
0
 10
165.70724343128188
 20
68.73881305294807
 30
0.0
  0
VERTEX
  8
0
 10
165.70724343128188
 20
61.169157880534286
 30
0.0
  0
VERTEX
  8
0
 10
168.04319170714393
 20
61.169157880534286
 30
0.0
  0
VERTEX
  8
0
 10
168.04319170714393
 20
59.907548685131985
 30
0.0
  0
VERTEX
  8
0
 10
161.95691297151174
 20
59.907548685131985
 30
0.0
  0
VERTEX
  8
0
 10
161.95691297151174
 20
61.169157880534286
 30
0.0
  0
VERTEX
  8
0
 10
164.29286124737382
 20
61.169157880534286
 30
0.0
  0
VERTEX
  8
0
 10
164.29286124737382
 20
68.73881305294807
 30
0.0
  0
VERTEX
  8
0
 10
161.95691297151174
 20
68.73881305294807
 30
0.0
  0
SEQEND
  8
0
  0
POLYLINE
  8
0
 62
0
 70
1
 66
1
 10
0.0
 20
0.0
 30
0.0
  0
VERTEX
  8
0
 10
51.82005952323587
 20
47.00106880007453
 30
0.0
  0
VERTEX
  8
0
 10
51.6032204427761
 20
45.27621247823545
 30
0.0
  0
VERTEX
  8
0
 10
50.947775040477254
 20
44.10823834030442
 30
0.0
  0
VERTEX
  8
0
 10
49.8389388335807
 20
43.447864777086025
 30
0.0
  0
VERTEX
  8
0
 10
48.27178366116691
 20
43.240882018465335
 30
0.0
  0
VERTEX
  8
0
 10
46.768694580707134
 20
43.433080294327404
 30
0.0
  0
VERTEX
  8
0
 10
45.69928366116691
 20
44.058956731109014
 30
0.0
  0
VERTEX
  8
0
 10
45.05862274162668
 20
45.18257742076418
 30
0.0
  0
VERTEX
  8
0
 10
44.84671182208645
 20
46.868008455246944
 30
0.0
  0
VERTEX
  8
0
 10
44.84671182208645
 20
53.333755581683725
 30
0.0
  0
VERTEX
  8
0
 10
46.261094005994494
 20
53.333755581683725
 30
0.0
  0
VERTEX
  8
0
 10
46.261094005994494
 20
47.1439854667412
 30
0.0
  0
VERTEX
  8
0
 10
46.354729063465754
 20
45.93658604145384
 30
0.0
  0
VERTEX
  8
0
 10
46.67013136231633
 20
45.113583167890624
 30
0.0
  0
VERTEX
  8
0
 10
47.28615147725886
 20
44.6454078805343
 30
0.0
  0
VERTEX
  8
0
 10
48.26685550024737
 20
44.502491213867636
 30
0.0
  0
VERTEX
  8
0
 10
49.286984810592195
 20
44.6454078805343
 30
0.0
  0
VERTEX
  8
0
 10
49.95228653473012
 20
45.113583167890624
 30
0.0
  0
VERTEX
  8
0
 10
50.30711412093702
 20
45.961226846051545
 30
0.0
  0
VERTEX
  8
0
 10
50.415533661166904
 20
47.23762052421246
 30
0.0
  0
VERTEX
  8
0
 10
50.415533661166904
 20
53.333755581683725
 30
0.0
  0
VERTEX
  8
0
 10
51.82005952323587
 20
53.333755581683725
 30
0.0
  0
SEQEND
  8
0
  0
POLYLINE
  8
0
 62
0
 70
1
 66
1
 10
0.0
 20
0.0
 30
0.0
  0
VERTEX
  8
0
 10
132.36405377610942
 20
47.55795098398258
 30
0.0
  0
VERTEX
  8
0
 10
132.36405377610942
 20
43.240882018465335
 30
0.0
  0
VERTEX
  8
0
 10
130.97431239679906
 20
43.240882018465335
 30
0.0
  0
VERTEX
  8
0
 10
130.97431239679906
 20
47.55795098398258
 30
0.0
  0
VERTEX
  8
0
 10
127.39646756921286
 20
53.21547971961476
 30
0.0
  0
VERTEX
  8
0
 10
128.91434113243125
 20
53.21547971961476
 30
0.0
  0
VERTEX
  8
0
 10
131.67903940829333
 20
48.69635615639637
 30
0.0
  0
VERTEX
  8
0
 10
134.42895320139678
 20
53.21547971961476
 30
0.0
  0
VERTEX
  8
0
 10
135.94189860369562
 20
53.21547971961476
 30
0.0
  0
SEQEND
  8
0
  0
POLYLINE
  8
0
 62
0
 70
1
 66
1
 10
0.0
 20
0.0
 30
0.0
  0
VERTEX
  8
0
 10
83.31026067266114
 20
59.907548685131985
 30
0.0
  0
VERTEX
  8
0
 10
79.46629515541976
 20
68.37905730582165
 30
0.0
  0
VERTEX
  8
0
 10
79.52543308645424
 20
67.71868374260325
 30
0.0
  0
VERTEX
  8
0
 10
79.56485837381057
 20
67.09773546674118
 30
0.0
  0
VERTEX
  8
0
 10
79.58457101748873
 20
66.47678719087911
 30
0.0
  0
VERTEX
  8
0
 10
79.58457101748873
 20
59.907548685131985
 30
0.0
  0
VERTEX
  8
0
 10
78.32788998300597
 20
59.907548685131985
 30
0.0
  0
VERTEX
  8
0
 10
78.32788998300597
 20
70.00042224835038
 30
0.0
  0
VERTEX
  8
0
 10
79.96896756921286
 20
70.00042224835038
 30
0.0
  0
VERTEX
  8
0
 10
83.87207101748872
 20
61.469775696626236
 30
0.0
  0
VERTEX
  8
0
 10
83.8080049255347
 20
62.11536477708601
 30
0.0
  0
VERTEX
  8
0
 10
83.7587233163393
 20
62.77081017938486
 30
0.0
  0
VERTEX
  8
0
 10
83.73901067266114
 20
63.52481880007451
 30
0.0
  0
VERTEX
  8
0
 10
83.73901067266114
 20
70.00042224835038
 30
0.0
  0
VERTEX
  8
0
 10
85.01047618990252
 20
70.00042224835038
 30
0.0
  0
VERTEX
  8
0
 10
85.01047618990252
 20
59.907548685131985
 30
0.0
  0
SEQEND
  8
0
  0
POLYLINE
  8
0
 62
0
 70
1
 66
1
 10
0.0
 20
0.0
 30
0.0
  0
VERTEX
  8
0
 10
184.41909687955769
 20
63.15027857018946
 30
0.0
  0
VERTEX
  8
0
 10
184.23182676461516
 20
61.81474696099406
 30
0.0
  0
VERTEX
  8
0
 10
183.67001641978757
 20
60.78968948972969
 30
0.0
  0
VERTEX
  8
0
 10
182.73859400599449
 20
60.13424408743084
 30
0.0
  0
VERTEX
  8
0
 10
181.46220032783356
 20
59.907548685131985
 30
0.0
  0
VERTEX
  8
0
 10
179.4465825117416
 20
60.538353282833135
 30
0.0
  0
VERTEX
  8
0
 10
178.4313813623163
 20
62.52440213340785
 30
0.0
  0
VERTEX
  8
0
 10
179.8161945807071
 20
62.74616937478716
 30
0.0
  0
VERTEX
  8
0
 10
180.04288998300598
 20
62.03651420237336
 30
0.0
  0
VERTEX
  8
0
 10
180.41250205197147
 20
61.54862627133888
 30
0.0
  0
VERTEX
  8
0
 10
180.89546182208642
 20
61.262792938005546
 30
0.0
  0
VERTEX
  8
0
 10
181.47205664967262
 20
61.169157880534286
 30
0.0
  0
VERTEX
  8
0
 10
182.62524630484504
 20
61.681686616166466
 30
0.0
  0
VERTEX
  8
0
 10
183.01457101748872
 20
63.1798475357067
 30
0.0
  0
VERTEX
  8
0
 10
183.01457101748872
 20
68.73881305294807
 30
0.0
  0
VERTEX
  8
0
 10
180.718048028983
 20
68.73881305294807
 30
0.0
  0
VERTEX
  8
0
 10
180.718048028983
 20
70.00042224835038
 30
0.0
  0
VERTEX
  8
0
 10
184.41909687955769
 20
70.00042224835038
 30
0.0
  0
SEQEND
  8
0
  0
POLYLINE
  8
0
 62
0
 70
1
 66
1
 10
0.0
 20
0.0
 30
0.0
  0
VERTEX
  8
0
 10
201.3223152703623
 20
43.240882018465335
 30
0.0
  0
VERTEX
  8
0
 10
199.78472906346576
 20
43.240882018465335
 30
0.0
  0
VERTEX
  8
0
 10
199.0159359600175
 20
46.12878431731591
 30
0.0
  0
VERTEX
  8
0
 10
198.92722906346575
 20
46.463899259844645
 30
0.0
  0
VERTEX
  8
0
 10
198.81880952323587
 20
46.877864777086025
 30
0.0
  0
VERTEX
  8
0
 10
198.710389983006
 20
47.33125558168373
 30
0.0
  0
VERTEX
  8
0
 10
198.6019704427761
 20
47.794502708120504
 30
0.0
  0
VERTEX
  8
0
 10
198.35063423587954
 20
48.8836262713389
 30
0.0
  0
VERTEX
  8
0
 10
198.09436986806347
 20
47.78464638628142
 30
0.0
  0
VERTEX
  8
0
 10
197.98595032783356
 20
47.32632742076419
 30
0.0
  0
VERTEX
  8
0
 10
197.87260262668414
 20
46.872936616166484
 30
0.0
  0
VERTEX
  8
0
 10
197.76418308645427
 20
46.458971098925105
 30
0.0
  0
VERTEX
  8
0
 10
197.68040435082207
 20
46.12878431731591
 30
0.0
  0
VERTEX
  8
0
 10
196.89682676461518
 20
43.240882018465335
 30
0.0
  0
VERTEX
  8
0
 10
195.35924055771864
 20
43.240882018465335
 30
0.0
  0
VERTEX
  8
0
 10
193.79701354622438
 20
53.333755581683725
 30
0.0
  0
VERTEX
  8
0
 10
195.1966112473738
 20
53.333755581683725
 30
0.0
  0
VERTEX
  8
0
 10
196.0048296381784
 20
47.074991213867634
 30
0.0
  0
VERTEX
  8
0
 10
196.1033928565692
 20
46.12385615639637
 30
0.0
  0
VERTEX
  8
0
 10
196.18224343128185
 20
45.29099696099407
 30
0.0
  0
VERTEX
  8
0
 10
196.24630952323588
 20
44.482778570189474
 30
0.0
  0
VERTEX
  8
0
 10
196.4828612473738
 20
45.49797971961476
 30
0.0
  0
VERTEX
  8
0
 10
196.5814244657646
 20
45.941514202373384
 30
0.0
  0
VERTEX
  8
0
 10
196.6898440059945
 20
46.38997684605154
 30
0.0
  0
VERTEX
  8
0
 10
196.79826354622438
 20
46.82365500697108
 30
0.0
  0
VERTEX
  8
0
 10
196.89682676461518
 20
47.19819523685614
 30
0.0
  0
VERTEX
  8
0
 10
197.70011699450023
 20
50.17973259317798
 30
0.0
  0
VERTEX
  8
0
 10
198.99622331633933
 20
50.17973259317798
 30
0.0
  0
VERTEX
  8
0
 10
199.79951354622438
 20
47.19819523685614
 30
0.0
  0
VERTEX
  8
0
 10
199.89314860369564
 20
46.82365500697108
 30
0.0
  0
VERTEX
  8
0
 10
200.00156814392554
 20
46.39490500697108
 30
0.0
  0
VERTEX
  8
0
 10
200.1099876841554
 20
45.951370524212464
 30
0.0
  0
VERTEX
  8
0
 10
200.21347906346577
 20
45.50783604145384
 30
0.0
  0
VERTEX
  8
0
 10
200.45003078760368
 20
44.482778570189474
 30
0.0
  0
VERTEX
  8
0
 10
200.47959975312094
 20
44.73411477708603
 30
0.0
  0
VERTEX
  8
0
 10
200.53873768415542
 20
45.37477569662625
 30
0.0
  0
VERTEX
  8
0
 10
200.6225164197876
 20
46.21256305294809
 30
0.0
  0
VERTEX
  8
0
 10
200.71122331633933
 20
47.074991213867634
 30
0.0
  0
VERTEX
  8
0
 10
201.4800164197876
 20
53.333755581683725
 30
0.0
  0
VERTEX
  8
0
 10
202.87468596001747
 20
53.333755581683725
 30
0.0
  0
SEQEND
  8
0
  0
POLYLINE
  8
0
 62
0
 70
1
 66
1
 10
0.0
 20
0.0
 30
0.0
  0
VERTEX
  8
0
 10
32.314772166914025
 20
33.62641362766072
 30
0.0
  0
VERTEX
  8
0
 10
32.112717569212876
 20
34.19315213340784
 30
0.0
  0
VERTEX
  8
0
 10
31.925447454270348
 20
34.74017799547681
 30
0.0
  0
VERTEX
  8
0
 10
31.77760262668414
 20
35.19849696099405
 30
0.0
  0
VERTEX
  8
0
 10
31.683967569212875
 20
35.484330294327386
 30
0.0
  0
VERTEX
  8
0
 10
31.59526067266115
 20
35.19356880007451
 30
0.0
  0
VERTEX
  8
0
 10
31.452344005994483
 20
34.735249834557266
 30
0.0
  0
VERTEX
  8
0
 10
31.274930212891036
 20
34.1882239724883
 30
0.0
  0
VERTEX
  8
0
 10
31.087660097948508
 20
33.62641362766072
 30
0.0
  0
VERTEX
  8
0
 10
28.57922618990253
 20
26.57421535179865
 30
0.0
  0
VERTEX
  8
0
 10
27.130346879557703
 20
26.57421535179865
 30
0.0
  0
VERTEX
  8
0
 10
30.90038998300598
 20
36.54881305294808
 30
0.0
  0
VERTEX
  8
0
 10
32.506970442776094
 20
36.54881305294808
 30
0.0
  0
VERTEX
  8
0
 10
36.2080192933508
 20
26.57421535179865
 30
0.0
  0
VERTEX
  8
0
 10
34.7739244657646
 20
26.57421535179865
 30
0.0
  0
VERTEX
  8
0
 10
33.75379515541977
 20
29.3980515586952
 30
0.0
  0
VERTEX
  8
0
 10
31.536122741626667
 20
29.3980515586952
 30
0.0
  0
VERTEX
  8
0
 10
31.900806649672646
 20
30.501959604672212
 30
0.0
  0
VERTEX
  8
0
 10
33.39403940829334
 20
30.501959604672212
 30
0.0
  0
SEQEND
  8
0
  0
INSERT
  2
SHAPESTRING086
  8
0
 62
0
 10
0.0
 20
0.0
 30
0.0
  0
INSERT
  2
SHAPESTRING107
  8
0
 62
0
 10
0.0
 20
0.0
 30
0.0
  0
POLYLINE
  8
0
 62
0
 70
1
 66
1
 10
0.0
 20
0.0
 30
0.0
  0
VERTEX
  8
0
 10
94.99455664967265
 20
59.907548685131985
 30
0.0
  0
VERTEX
  8
0
 10
94.99455664967265
 20
70.00042224835038
 30
0.0
  0
VERTEX
  8
0
 10
101.79049055771861
 20
70.00042224835038
 30
0.0
  0
VERTEX
  8
0
 10
101.79049055771861
 20
68.73881305294807
 30
0.0
  0
VERTEX
  8
0
 10
96.40893883358069
 20
68.73881305294807
 30
0.0
  0
VERTEX
  8
0
 10
96.40893883358069
 20
65.9001923632929
 30
0.0
  0
VERTEX
  8
0
 10
101.34695607495999
 20
65.9001923632929
 30
0.0
  0
VERTEX
  8
0
 10
101.34695607495999
 20
64.6385831678906
 30
0.0
  0
VERTEX
  8
0
 10
96.40893883358069
 20
64.6385831678906
 30
0.0
  0
VERTEX
  8
0
 10
96.40893883358069
 20
61.169157880534286
 30
0.0
  0
VERTEX
  8
0
 10
102.09110837381057
 20
61.169157880534286
 30
0.0
  0
VERTEX
  8
0
 10
102.09110837381057
 20
59.907548685131985
 30
0.0
  0
SEQEND
  8
0
  0
POLYLINE
  8
0
 62
0
 70
1
 66
1
 10
0.0
 20
0.0
 30
0.0
  0
VERTEX
  8
0
 10
68.6050020519715
 20
27.707692363292903
 30
0.0
  0
VERTEX
  8
0
 10
67.98898193702897
 20
27.328223972488306
 30
0.0
  0
VERTEX
  8
0
 10
67.21033251174161
 20
26.963540064442327
 30
0.0
  0
VERTEX
  8
0
 10
66.27398193702898
 20
26.682634892028535
 30
0.0
  0
VERTEX
  8
0
 10
65.18978653473012
 20
26.57421535179865
 30
0.0
  0
VERTEX
  8
0
 10
63.46493021289104
 20
26.953683742603246
 30
0.0
  0
VERTEX
  8
0
 10
62.252602626684144
 20
28.013238340304397
 30
0.0
  0
VERTEX
  8
0
 10
61.538019293350814
 20
29.619818800074512
 30
0.0
  0
VERTEX
  8
0
 10
61.30146756921288
 20
31.665005581683708
 30
0.0
  0
VERTEX
  8
0
 10
61.52816297151173
 20
33.808755581683705
 30
0.0
  0
VERTEX
  8
0
 10
62.23781814392552
 20
35.375910754097504
 30
0.0
  0
VERTEX
  8
0
 10
63.4600020519715
 20
36.33690213340785
 30
0.0
  0
VERTEX
  8
0
 10
65.21442733932783
 20
36.66708891501704
 30
0.0
  0
VERTEX
  8
0
 10
66.5105336611669
 20
36.47489063915497
 30
0.0
  0
VERTEX
  8
0
 10
67.4764532013968
 20
35.95743374260324
 30
0.0
  0
VERTEX
  8
0
 10
68.16639573013242
 20
35.18864063915497
 30
0.0
  0
VERTEX
  8
0
 10
68.61978653473012
 20
34.237505581683706
 30
0.0
  0
VERTEX
  8
0
 10
67.35324917840828
 20
33.82846822536187
 30
0.0
  0
VERTEX
  8
0
 10
66.55981527036231
 20
34.99151420237336
 30
0.0
  0
VERTEX
  8
0
 10
65.22428366116691
 20
35.40547971961474
 30
0.0
  0
VERTEX
  8
0
 10
64.09080664967266
 20
35.16399983455727
 30
0.0
  0
VERTEX
  8
0
 10
63.336798028983
 20
34.449416501223936
 30
0.0
  0
VERTEX
  8
0
 10
62.91297618990254
 20
33.27651420237336
 30
0.0
  0
VERTEX
  8
0
 10
62.784844005994486
 20
31.665005581683708
 30
0.0
  0
VERTEX
  8
0
 10
63.410720442776096
 20
28.811600409269914
 30
0.0
  0
VERTEX
  8
0
 10
65.30806239679909
 20
27.83582454720095
 30
0.0
  0
VERTEX
  8
0
 10
65.96843596001747
 20
27.89496247823543
 30
0.0
  0
VERTEX
  8
0
 10
66.52038998300598
 20
28.03295098398256
 30
0.0
  0
VERTEX
  8
0
 10
66.94913998300598
 20
28.195580294327385
 30
0.0
  0
VERTEX
  8
0
 10
67.23004515541977
 20
28.34835328283313
 30
0.0
  0
VERTEX
  8
0
 10
67.23004515541977
 20
30.674445236856123
 30
0.0
  0
VERTEX
  8
0
 10
65.06165435082208
 20
30.674445236856123
 30
0.0
  0
VERTEX
  8
0
 10
65.06165435082208
 20
31.93605443225842
 30
0.0
  0
VERTEX
  8
0
 10
68.6050020519715
 20
31.93605443225842
 30
0.0
  0
SEQEND
  8
0
  0
POLYLINE
  8
0
 62
0
 70
1
 66
1
 10
0.0
 20
0.0
 30
0.0
  0
VERTEX
  8
0
 10
61.66122331633932
 20
59.907548685131985
 30
0.0
  0
VERTEX
  8
0
 10
61.66122331633932
 20
70.00042224835038
 30
0.0
  0
VERTEX
  8
0
 10
68.4571572243853
 20
70.00042224835038
 30
0.0
  0
VERTEX
  8
0
 10
68.4571572243853
 20
68.73881305294807
 30
0.0
  0
VERTEX
  8
0
 10
63.07560550024736
 20
68.73881305294807
 30
0.0
  0
VERTEX
  8
0
 10
63.07560550024736
 20
65.9001923632929
 30
0.0
  0
VERTEX
  8
0
 10
68.01362274162668
 20
65.9001923632929
 30
0.0
  0
VERTEX
  8
0
 10
68.01362274162668
 20
64.6385831678906
 30
0.0
  0
VERTEX
  8
0
 10
63.07560550024736
 20
64.6385831678906
 30
0.0
  0
VERTEX
  8
0
 10
63.07560550024736
 20
61.169157880534286
 30
0.0
  0
VERTEX
  8
0
 10
68.75777504047724
 20
61.169157880534286
 30
0.0
  0
VERTEX
  8
0
 10
68.75777504047724
 20
59.907548685131985
 30
0.0
  0
SEQEND
  8
0
  0
POLYLINE
  8
0
 62
0
 70
1
 66
1
 10
0.0
 20
0.0
 30
0.0
  0
VERTEX
  8
0
 10
129.97882389105195
 20
68.73881305294807
 30
0.0
  0
VERTEX
  8
0
 10
129.97882389105195
 20
65.58479006444233
 30
0.0
  0
VERTEX
  8
0
 10
134.97597906346573
 20
65.58479006444233
 30
0.0
  0
VERTEX
  8
0
 10
134.97597906346573
 20
64.32318086904003
 30
0.0
  0
VERTEX
  8
0
 10
129.97882389105195
 20
64.32318086904003
 30
0.0
  0
VERTEX
  8
0
 10
129.97882389105195
 20
59.907548685131985
 30
0.0
  0
VERTEX
  8
0
 10
128.56444170714389
 20
59.907548685131985
 30
0.0
  0
VERTEX
  8
0
 10
128.56444170714389
 20
70.00042224835038
 30
0.0
  0
VERTEX
  8
0
 10
135.15339285656918
 20
70.00042224835038
 30
0.0
  0
VERTEX
  8
0
 10
135.15339285656918
 20
68.73881305294807
 30
0.0
  0
SEQEND
  8
0
  0
POLYLINE
  8
0
 62
0
 70
1
 66
1
 10
0.0
 20
0.0
 30
0.0
  0
VERTEX
  8
0
 10
149.07014573013242
 20
59.907548685131985
 30
0.0
  0
VERTEX
  8
0
 10
147.60648193702897
 20
59.907548685131985
 30
0.0
  0
VERTEX
  8
0
 10
143.87093596001748
 20
70.00042224835038
 30
0.0
  0
VERTEX
  8
0
 10
145.35924055771864
 20
70.00042224835038
 30
0.0
  0
VERTEX
  8
0
 10
147.72475779909794
 20
63.238985466741184
 30
0.0
  0
VERTEX
  8
0
 10
147.9514532013968
 20
62.53918661616647
 30
0.0
  0
VERTEX
  8
0
 10
148.1485796381784
 20
61.859100409269914
 30
0.0
  0
VERTEX
  8
0
 10
148.34570607496002
 20
61.149445236856124
 30
0.0
  0
VERTEX
  8
0
 10
148.5379043508221
 20
61.84431592651129
 30
0.0
  0
VERTEX
  8
0
 10
148.73503078760368
 20
62.519473972488306
 30
0.0
  0
VERTEX
  8
0
 10
148.96665435082207
 20
63.238985466741184
 30
0.0
  0
VERTEX
  8
0
 10
151.31738710944276
 20
70.00042224835038
 30
0.0
  0
VERTEX
  8
0
 10
152.80076354622437
 20
70.00042224835038
 30
0.0
  0
SEQEND
  8
0
  0
POLYLINE
  8
0
 62
0
 70
1
 66
1
 10
0.0
 20
0.0
 30
0.0
  0
VERTEX
  8
0
 10
135.27166871863815
 20
77.7076923632929
 30
0.0
  0
VERTEX
  8
0
 10
134.65564860369562
 20
77.32822397248832
 30
0.0
  0
VERTEX
  8
0
 10
133.87699917840825
 20
76.96354006444234
 30
0.0
  0
VERTEX
  8
0
 10
132.94064860369562
 20
76.68263489202855
 30
0.0
  0
VERTEX
  8
0
 10
131.85645320139676
 20
76.57421535179866
 30
0.0
  0
VERTEX
  8
0
 10
130.1315968795577
 20
76.95368374260326
 30
0.0
  0
VERTEX
  8
0
 10
128.9192692933508
 20
78.0132383403044
 30
0.0
  0
VERTEX
  8
0
 10
128.20468596001746
 20
79.61981880007451
 30
0.0
  0
VERTEX
  8
0
 10
127.96813423587953
 20
81.66500558168372
 30
0.0
  0
VERTEX
  8
0
 10
128.1948296381784
 20
83.80875558168371
 30
0.0
  0
VERTEX
  8
0
 10
128.90448481059218
 20
85.3759107540975
 30
0.0
  0
VERTEX
  8
0
 10
130.12666871863814
 20
86.33690213340785
 30
0.0
  0
VERTEX
  8
0
 10
131.88109400599447
 20
86.66708891501705
 30
0.0
  0
VERTEX
  8
0
 10
133.17720032783356
 20
86.47489063915498
 30
0.0
  0
VERTEX
  8
0
 10
134.14311986806345
 20
85.95743374260326
 30
0.0
  0
VERTEX
  8
0
 10
134.83306239679908
 20
85.18864063915498
 30
0.0
  0
VERTEX
  8
0
 10
135.28645320139677
 20
84.2375055816837
 30
0.0
  0
VERTEX
  8
0
 10
134.01991584507493
 20
83.82846822536187
 30
0.0
  0
VERTEX
  8
0
 10
133.22648193702895
 20
84.99151420237337
 30
0.0
  0
VERTEX
  8
0
 10
131.89095032783356
 20
85.40547971961475
 30
0.0
  0
VERTEX
  8
0
 10
130.75747331633931
 20
85.16399983455727
 30
0.0
  0
VERTEX
  8
0
 10
130.00346469564965
 20
84.44941650122394
 30
0.0
  0
VERTEX
  8
0
 10
129.5796428565692
 20
83.27651420237336
 30
0.0
  0
VERTEX
  8
0
 10
129.45151067266113
 20
81.66500558168372
 30
0.0
  0
VERTEX
  8
0
 10
130.07738710944275
 20
78.81160040926991
 30
0.0
  0
VERTEX
  8
0
 10
131.97472906346573
 20
77.83582454720096
 30
0.0
  0
VERTEX
  8
0
 10
132.63510262668413
 20
77.89496247823544
 30
0.0
  0
VERTEX
  8
0
 10
133.18705664967263
 20
78.03295098398256
 30
0.0
  0
VERTEX
  8
0
 10
133.61580664967263
 20
78.19558029432739
 30
0.0
  0
VERTEX
  8
0
 10
133.89671182208642
 20
78.34835328283314
 30
0.0
  0
VERTEX
  8
0
 10
133.89671182208642
 20
80.67444523685613
 30
0.0
  0
VERTEX
  8
0
 10
131.72832101748872
 20
80.67444523685613
 30
0.0
  0
VERTEX
  8
0
 10
131.72832101748872
 20
81.93605443225843
 30
0.0
  0
VERTEX
  8
0
 10
135.27166871863815
 20
81.93605443225843
 30
0.0
  0
SEQEND
  8
0
  0
POLYLINE
  8
0
 62
0
 70
1
 66
1
 10
0.0
 20
0.0
 30
0.0
  0
VERTEX
  8
0
 10
29.45151067266115
 20
48.331672248350394
 30
0.0
  0
VERTEX
  8
0
 10
29.599355500247356
 20
46.70045098398258
 30
0.0
  0
VERTEX
  8
0
 10
30.0576744657646
 20
45.49797971961476
 30
0.0
  0
VERTEX
  8
0
 10
30.851108373810575
 20
44.75382742076418
 30
0.0
  0
VERTEX
  8
0
 10
32.01908251174161
 20
44.502491213867636
 30
0.0
  0
VERTEX
  8
0
 10
32.85686986806345
 20
44.66019236329292
 30
0.0
  0
VERTEX
  8
0
 10
33.52217159220138
 20
45.08401420237338
 30
0.0
  0
VERTEX
  8
0
 10
34.02484400599448
 20
45.69017799547683
 30
0.0
  0
VERTEX
  8
0
 10
34.39938423587954
 20
46.39490500697108
 30
0.0
  0
VERTEX
  8
0
 10
35.57228653473012
 20
45.92672971961476
 30
0.0
  0
VERTEX
  8
0
 10
35.05975779909793
 20
44.94109753570672
 30
0.0
  0
VERTEX
  8
0
 10
34.33038998300598
 20
44.083597535706716
 30
0.0
  0
VERTEX
  8
0
 10
33.32997331633931
 20
43.47250558168373
 30
0.0
  0
VERTEX
  8
0
 10
32.00429802898299
 20
43.240882018465335
 30
0.0
  0
VERTEX
  8
0
 10
30.200591132431267
 20
43.60556592651131
 30
0.0
  0
VERTEX
  8
0
 10
28.943910097948507
 20
44.64047971961476
 30
0.0
  0
VERTEX
  8
0
 10
28.20468596001747
 20
46.247060179384874
 30
0.0
  0
VERTEX
  8
0
 10
27.968134235879543
 20
48.331672248350394
 30
0.0
  0
VERTEX
  8
0
 10
28.20468596001747
 20
50.46556592651131
 30
0.0
  0
VERTEX
  8
0
 10
28.929125615189886
 20
52.03764925984464
 30
0.0
  0
VERTEX
  8
0
 10
30.161165845074944
 20
53.00356880007453
 30
0.0
  0
VERTEX
  8
0
 10
31.930375615189888
 20
53.333755581683725
 30
0.0
  0
VERTEX
  8
0
 10
33.241266419787586
 20
53.136629144902116
 30
0.0
  0
VERTEX
  8
0
 10
34.21211412093701
 20
52.61424408743085
 30
0.0
  0
VERTEX
  8
0
 10
34.906984810592185
 20
51.855307305821654
 30
0.0
  0
VERTEX
  8
0
 10
35.37516009794851
 20
50.958382018465336
 30
0.0
  0
VERTEX
  8
0
 10
34.13326354622437
 20
50.49513489202855
 30
0.0
  0
VERTEX
  8
0
 10
33.82771756921287
 20
51.0766578805343
 30
0.0
  0
VERTEX
  8
0
 10
33.364470442776096
 20
51.579330294327406
 30
0.0
  0
VERTEX
  8
0
 10
32.738594005994486
 20
51.9341578805343
 30
0.0
  0
VERTEX
  8
0
 10
31.93530377610943
 20
52.072146386281425
 30
0.0
  0
VERTEX
  8
0
 10
30.806754925534715
 20
51.83066650122396
 30
0.0
  0
VERTEX
  8
0
 10
30.033033661166897
 20
51.12101132881016
 30
0.0
  0
VERTEX
  8
0
 10
29.58949917840828
 20
49.94810902995959
 30
0.0
  0
SEQEND
  8
0
  0
INSERT
  2
SHAPESTRING102
  8
0
 62
0
 10
0.0
 20
0.0
 30
0.0
  0
POLYLINE
  8
0
 62
0
 70
1
 66
1
 10
0.0
 20
0.0
 30
0.0
  0
VERTEX
  8
0
 10
200.72600779909794
 20
76.57421535179866
 30
0.0
  0
VERTEX
  8
0
 10
200.72600779909794
 20
83.07938776559176
 30
0.0
  0
VERTEX
  8
0
 10
200.72600779909794
 20
83.85803719087912
 30
0.0
  0
VERTEX
  8
0
 10
200.7457204427761
 20
84.58740500697107
 30
0.0
  0
VERTEX
  8
0
 10
200.7703612473738
 20
85.33648546674118
 30
0.0
  0
VERTEX
  8
0
 10
200.51902504047726
 20
84.50362627133889
 30
0.0
  0
VERTEX
  8
0
 10
200.2923296381784
 20
83.77425845524694
 30
0.0
  0
VERTEX
  8
0
 10
200.06563423587954
 20
83.09910040926992
 30
0.0
  0
VERTEX
  8
0
 10
198.85330664967265
 20
79.7282383403044
 30
0.0
  0
VERTEX
  8
0
 10
197.8430336611669
 20
79.7282383403044
 30
0.0
  0
VERTEX
  8
0
 10
196.6159215922014
 20
83.09910040926992
 30
0.0
  0
VERTEX
  8
0
 10
196.5173583738106
 20
83.37014925984464
 30
0.0
  0
VERTEX
  8
0
 10
196.41386699450024
 20
83.7101923632929
 30
0.0
  0
VERTEX
  8
0
 10
196.30051929335082
 20
84.07980443225843
 30
0.0
  0
VERTEX
  8
0
 10
196.18224343128185
 20
84.44941650122394
 30
0.0
  0
VERTEX
  8
0
 10
195.90626641978758
 20
85.33648546674118
 30
0.0
  0
VERTEX
  8
0
 10
195.92105090254623
 20
84.58740500697107
 30
0.0
  0
VERTEX
  8
0
 10
195.9309072243853
 20
83.85310902995957
 30
0.0
  0
VERTEX
  8
0
 10
195.93583538530484
 20
83.07938776559176
 30
0.0
  0
VERTEX
  8
0
 10
195.93583538530484
 20
76.57421535179866
 30
0.0
  0
VERTEX
  8
0
 10
194.75307676461517
 20
76.57421535179866
 30
0.0
  0
VERTEX
  8
0
 10
194.75307676461517
 20
86.66708891501705
 30
0.0
  0
VERTEX
  8
0
 10
196.50257389105195
 20
86.66708891501705
 30
0.0
  0
VERTEX
  8
0
 10
197.87260262668414
 20
82.90690213340785
 30
0.0
  0
VERTEX
  8
0
 10
198.02044745427037
 20
82.43379868513199
 30
0.0
  0
VERTEX
  8
0
 10
198.18800492553473
 20
81.84241937478716
 30
0.0
  0
VERTEX
  8
0
 10
198.37527504047725
 20
81.12783604145383
 30
0.0
  0
VERTEX
  8
0
 10
198.56747331633932
 20
81.82270673110901
 30
0.0
  0
VERTEX
  8
0
 10
198.73503078760368
 20
82.40422971961475
 30
0.0
  0
VERTEX
  8
0
 10
198.89273193702897
 20
82.89704581156877
 30
0.0
  0
VERTEX
  8
0
 10
200.2578325117416
 20
86.66708891501705
 30
0.0
  0
VERTEX
  8
0
 10
201.92355090254622
 20
86.66708891501705
 30
0.0
  0
VERTEX
  8
0
 10
201.92355090254622
 20
76.57421535179866
 30
0.0
  0
SEQEND
  8
0
  0
POLYLINE
  8
0
 62
0
 70
1
 66
1
 10
0.0
 20
0.0
 30
0.0
  0
VERTEX
  8
0
 10
95.55143883358069
 20
43.240882018465335
 30
0.0
  0
VERTEX
  8
0
 10
95.55143883358069
 20
53.333755581683725
 30
0.0
  0
VERTEX
  8
0
 10
96.96089285656919
 20
53.333755581683725
 30
0.0
  0
VERTEX
  8
0
 10
96.96089285656919
 20
44.502491213867636
 30
0.0
  0
VERTEX
  8
0
 10
101.92847906346574
 20
44.502491213867636
 30
0.0
  0
VERTEX
  8
0
 10
101.92847906346574
 20
43.240882018465335
 30
0.0
  0
SEQEND
  8
0
  0
POLYLINE
  8
0
 62
0
 70
1
 66
1
 10
0.0
 20
0.0
 30
0.0
  0
VERTEX
  8
0
 10
166.64359400599452
 20
76.57421535179866
 30
0.0
  0
VERTEX
  8
0
 10
162.79962848875314
 20
85.0457239724883
 30
0.0
  0
VERTEX
  8
0
 10
162.85876641978763
 20
84.38535040926992
 30
0.0
  0
VERTEX
  8
0
 10
162.89819170714392
 20
83.76440213340786
 30
0.0
  0
VERTEX
  8
0
 10
162.91790435082208
 20
83.14345385754578
 30
0.0
  0
VERTEX
  8
0
 10
162.91790435082208
 20
76.57421535179866
 30
0.0
  0
VERTEX
  8
0
 10
161.66122331633935
 20
76.57421535179866
 30
0.0
  0
VERTEX
  8
0
 10
161.66122331633935
 20
86.66708891501705
 30
0.0
  0
VERTEX
  8
0
 10
163.30230090254622
 20
86.66708891501705
 30
0.0
  0
VERTEX
  8
0
 10
167.2054043508221
 20
78.13644236329291
 30
0.0
  0
VERTEX
  8
0
 10
167.14133825886807
 20
78.78203144375269
 30
0.0
  0
VERTEX
  8
0
 10
167.09205664967268
 20
79.43747684605152
 30
0.0
  0
VERTEX
  8
0
 10
167.07234400599452
 20
80.19148546674118
 30
0.0
  0
VERTEX
  8
0
 10
167.07234400599452
 20
86.66708891501705
 30
0.0
  0
VERTEX
  8
0
 10
168.3438095232359
 20
86.66708891501705
 30
0.0
  0
VERTEX
  8
0
 10
168.3438095232359
 20
76.57421535179866
 30
0.0
  0
SEQEND
  8
0
  0
POLYLINE
  8
0
 62
0
 70
1
 66
1
 10
0.0
 20
0.0
 30
0.0
  0
VERTEX
  8
0
 10
112.21810550024736
 20
59.907548685131985
 30
0.0
  0
VERTEX
  8
0
 10
112.21810550024736
 20
70.00042224835038
 30
0.0
  0
VERTEX
  8
0
 10
113.62755952323586
 20
70.00042224835038
 30
0.0
  0
VERTEX
  8
0
 10
113.62755952323586
 20
61.169157880534286
 30
0.0
  0
VERTEX
  8
0
 10
118.59514573013242
 20
61.169157880534286
 30
0.0
  0
VERTEX
  8
0
 10
118.59514573013242
 20
59.907548685131985
 30
0.0
  0
SEQEND
  8
0
  0
POLYLINE
  8
0
 62
0
 70
1
 66
1
 10
0.0
 20
0.0
 30
0.0
  0
VERTEX
  8
0
 10
144.99455664967266
 20
76.57421535179866
 30
0.0
  0
VERTEX
  8
0
 10
144.99455664967266
 20
86.66708891501705
 30
0.0
  0
VERTEX
  8
0
 10
151.79049055771864
 20
86.66708891501705
 30
0.0
  0
VERTEX
  8
0
 10
151.79049055771864
 20
85.40547971961475
 30
0.0
  0
VERTEX
  8
0
 10
146.4089388335807
 20
85.40547971961475
 30
0.0
  0
VERTEX
  8
0
 10
146.4089388335807
 20
82.56685902995957
 30
0.0
  0
VERTEX
  8
0
 10
151.34695607496002
 20
82.56685902995957
 30
0.0
  0
VERTEX
  8
0
 10
151.34695607496002
 20
81.30524983455727
 30
0.0
  0
VERTEX
  8
0
 10
146.4089388335807
 20
81.30524983455727
 30
0.0
  0
VERTEX
  8
0
 10
146.4089388335807
 20
77.83582454720096
 30
0.0
  0
VERTEX
  8
0
 10
152.09110837381058
 20
77.83582454720096
 30
0.0
  0
VERTEX
  8
0
 10
152.09110837381058
 20
76.57421535179866
 30
0.0
  0
SEQEND
  8
0
  0
POLYLINE
  8
0
 62
0
 70
1
 66
1
 10
0.0
 20
0.0
 30
0.0
  0
VERTEX
  8
0
 10
196.64549055771863
 20
68.73881305294807
 30
0.0
  0
VERTEX
  8
0
 10
196.64549055771863
 20
65.58479006444233
 30
0.0
  0
VERTEX
  8
0
 10
201.64264573013241
 20
65.58479006444233
 30
0.0
  0
VERTEX
  8
0
 10
201.64264573013241
 20
64.32318086904003
 30
0.0
  0
VERTEX
  8
0
 10
196.64549055771863
 20
64.32318086904003
 30
0.0
  0
VERTEX
  8
0
 10
196.64549055771863
 20
59.907548685131985
 30
0.0
  0
VERTEX
  8
0
 10
195.23110837381057
 20
59.907548685131985
 30
0.0
  0
VERTEX
  8
0
 10
195.23110837381057
 20
70.00042224835038
 30
0.0
  0
VERTEX
  8
0
 10
201.82005952323587
 20
70.00042224835038
 30
0.0
  0
VERTEX
  8
0
 10
201.82005952323587
 20
68.73881305294807
 30
0.0
  0
SEQEND
  8
0
  0
INSERT
  2
SHAPESTRING104
  8
0
 62
0
 10
0.0
 20
0.0
 30
0.0
  0
INSERT
  2
SHAPESTRING106
  8
0
 62
0
 10
0.0
 20
0.0
 30
0.0
  0
POLYLINE
  8
0
 62
0
 70
1
 66
1
 10
0.0
 20
0.0
 30
0.0
  0
VERTEX
  8
0
 10
184.05934113243126
 20
43.240882018465335
 30
0.0
  0
VERTEX
  8
0
 10
184.05934113243126
 20
49.74605443225844
 30
0.0
  0
VERTEX
  8
0
 10
184.05934113243126
 20
50.524703857545795
 30
0.0
  0
VERTEX
  8
0
 10
184.07905377610942
 20
51.254071673637746
 30
0.0
  0
VERTEX
  8
0
 10
184.10369458070713
 20
52.003152133407866
 30
0.0
  0
VERTEX
  8
0
 10
183.85235837381057
 20
51.170292938005566
 30
0.0
  0
VERTEX
  8
0
 10
183.6256629715117
 20
50.44092512191361
 30
0.0
  0
VERTEX
  8
0
 10
183.39896756921286
 20
49.7657670759366
 30
0.0
  0
VERTEX
  8
0
 10
182.18663998300596
 20
46.39490500697108
 30
0.0
  0
VERTEX
  8
0
 10
181.17636699450023
 20
46.39490500697108
 30
0.0
  0
VERTEX
  8
0
 10
179.94925492553472
 20
49.7657670759366
 30
0.0
  0
VERTEX
  8
0
 10
179.8506917071439
 20
50.03681592651131
 30
0.0
  0
VERTEX
  8
0
 10
179.74720032783355
 20
50.37685902995959
 30
0.0
  0
VERTEX
  8
0
 10
179.63385262668413
 20
50.746471098925106
 30
0.0
  0
VERTEX
  8
0
 10
179.51557676461516
 20
51.11608316789062
 30
0.0
  0
VERTEX
  8
0
 10
179.2395997531209
 20
52.003152133407866
 30
0.0
  0
VERTEX
  8
0
 10
179.25438423587954
 20
51.254071673637746
 30
0.0
  0
VERTEX
  8
0
 10
179.2642405577186
 20
50.519775696626255
 30
0.0
  0
VERTEX
  8
0
 10
179.26916871863816
 20
49.74605443225844
 30
0.0
  0
VERTEX
  8
0
 10
179.26916871863816
 20
43.240882018465335
 30
0.0
  0
VERTEX
  8
0
 10
178.0864100979485
 20
43.240882018465335
 30
0.0
  0
VERTEX
  8
0
 10
178.0864100979485
 20
53.333755581683725
 30
0.0
  0
VERTEX
  8
0
 10
179.83590722438527
 20
53.333755581683725
 30
0.0
  0
VERTEX
  8
0
 10
181.20593596001746
 20
49.57356880007453
 30
0.0
  0
VERTEX
  8
0
 10
181.35378078760368
 20
49.10046535179867
 30
0.0
  0
VERTEX
  8
0
 10
181.52133825886804
 20
48.50908604145384
 30
0.0
  0
VERTEX
  8
0
 10
181.70860837381056
 20
47.794502708120504
 30
0.0
  0
VERTEX
  8
0
 10
181.90080664967263
 20
48.48937339777568
 30
0.0
  0
VERTEX
  8
0
 10
182.068364120937
 20
49.070896386281426
 30
0.0
  0
VERTEX
  8
0
 10
182.22606527036228
 20
49.56371247823545
 30
0.0
  0
VERTEX
  8
0
 10
183.59116584507493
 20
53.333755581683725
 30
0.0
  0
VERTEX
  8
0
 10
185.25688423587954
 20
53.333755581683725
 30
0.0
  0
VERTEX
  8
0
 10
185.25688423587954
 20
43.240882018465335
 30
0.0
  0
SEQEND
  8
0
  0
POLYLINE
  8
0
 62
0
 70
1
 66
1
 10
0.0
 20
0.0
 30
0.0
  0
VERTEX
  8
0
 10
45.5514388335807
 20
26.57421535179865
 30
0.0
  0
VERTEX
  8
0
 10
45.5514388335807
 20
36.66708891501704
 30
0.0
  0
VERTEX
  8
0
 10
46.9608928565692
 20
36.66708891501704
 30
0.0
  0
VERTEX
  8
0
 10
46.9608928565692
 20
27.83582454720095
 30
0.0
  0
VERTEX
  8
0
 10
51.92847906346576
 20
27.83582454720095
 30
0.0
  0
VERTEX
  8
0
 10
51.92847906346576
 20
26.57421535179865
 30
0.0
  0
SEQEND
  8
0
  0
POLYLINE
  8
0
 62
0
 70
1
 66
1
 10
0.0
 20
0.0
 30
0.0
  0
VERTEX
  8
0
 10
101.3223152703623
 20
26.57421535179865
 30
0.0
  0
VERTEX
  8
0
 10
99.78472906346575
 20
26.57421535179865
 30
0.0
  0
VERTEX
  8
0
 10
99.01593596001747
 20
29.462117650649223
 30
0.0
  0
VERTEX
  8
0
 10
98.92722906346575
 20
29.79723259317796
 30
0.0
  0
VERTEX
  8
0
 10
98.81880952323586
 20
30.21119811041934
 30
0.0
  0
VERTEX
  8
0
 10
98.71038998300597
 20
30.664588915017042
 30
0.0
  0
VERTEX
  8
0
 10
98.60197044277609
 20
31.127836041453822
 30
0.0
  0
VERTEX
  8
0
 10
98.35063423587954
 20
32.21695960467221
 30
0.0
  0
VERTEX
  8
0
 10
98.09436986806344
 20
31.11797971961474
 30
0.0
  0
VERTEX
  8
0
 10
97.98595032783356
 20
30.6596607540975
 30
0.0
  0
VERTEX
  8
0
 10
97.87260262668413
 20
30.2062699494998
 30
0.0
  0
VERTEX
  8
0
 10
97.76418308645425
 20
29.79230443225842
 30
0.0
  0
VERTEX
  8
0
 10
97.68040435082206
 20
29.462117650649223
 30
0.0
  0
VERTEX
  8
0
 10
96.89682676461517
 20
26.57421535179865
 30
0.0
  0
VERTEX
  8
0
 10
95.35924055771862
 20
26.57421535179865
 30
0.0
  0
VERTEX
  8
0
 10
93.79701354622436
 20
36.66708891501704
 30
0.0
  0
VERTEX
  8
0
 10
95.1966112473738
 20
36.66708891501704
 30
0.0
  0
VERTEX
  8
0
 10
96.00482963817839
 20
30.408324547200948
 30
0.0
  0
VERTEX
  8
0
 10
96.10339285656919
 20
29.457189489729682
 30
0.0
  0
VERTEX
  8
0
 10
96.18224343128183
 20
28.624330294327386
 30
0.0
  0
VERTEX
  8
0
 10
96.24630952323585
 20
27.81611190352279
 30
0.0
  0
VERTEX
  8
0
 10
96.48286124737379
 20
28.831313052948076
 30
0.0
  0
VERTEX
  8
0
 10
96.5814244657646
 20
29.274847535706694
 30
0.0
  0
VERTEX
  8
0
 10
96.68984400599447
 20
29.723310179384857
 30
0.0
  0
VERTEX
  8
0
 10
96.79826354622436
 20
30.156988340304395
 30
0.0
  0
VERTEX
  8
0
 10
96.89682676461517
 20
30.531528570189455
 30
0.0
  0
VERTEX
  8
0
 10
97.70011699450022
 20
33.513065926511295
 30
0.0
  0
VERTEX
  8
0
 10
98.99622331633931
 20
33.513065926511295
 30
0.0
  0
VERTEX
  8
0
 10
99.79951354622436
 20
30.531528570189455
 30
0.0
  0
VERTEX
  8
0
 10
99.89314860369562
 20
30.156988340304395
 30
0.0
  0
VERTEX
  8
0
 10
100.00156814392551
 20
29.728238340304397
 30
0.0
  0
VERTEX
  8
0
 10
100.1099876841554
 20
29.284703857545775
 30
0.0
  0
VERTEX
  8
0
 10
100.21347906346574
 20
28.841169374787157
 30
0.0
  0
VERTEX
  8
0
 10
100.45003078760368
 20
27.81611190352279
 30
0.0
  0
VERTEX
  8
0
 10
100.47959975312091
 20
28.06744811041934
 30
0.0
  0
VERTEX
  8
0
 10
100.5387376841554
 20
28.70810902995957
 30
0.0
  0
VERTEX
  8
0
 10
100.62251641978759
 20
29.545896386281406
 30
0.0
  0
VERTEX
  8
0
 10
100.7112233163393
 20
30.408324547200948
 30
0.0
  0
VERTEX
  8
0
 10
101.48001641978757
 20
36.66708891501704
 30
0.0
  0
VERTEX
  8
0
 10
102.87468596001747
 20
36.66708891501704
 30
0.0
  0
SEQEND
  8
0
  0
POLYLINE
  8
0
 62
0
 70
1
 66
1
 10
0.0
 20
0.0
 30
0.0
  0
VERTEX
  8
0
 10
184.54722906346575
 20
26.57421535179865
 30
0.0
  0
VERTEX
  8
0
 10
180.94474343128184
 20
31.349603282833133
 30
0.0
  0
VERTEX
  8
0
 10
179.742272166914
 20
30.102778570189454
 30
0.0
  0
VERTEX
  8
0
 10
179.742272166914
 20
26.57421535179865
 30
0.0
  0
VERTEX
  8
0
 10
178.32788998300597
 20
26.57421535179865
 30
0.0
  0
VERTEX
  8
0
 10
178.32788998300597
 20
36.66708891501704
 30
0.0
  0
VERTEX
  8
0
 10
179.742272166914
 20
36.66708891501704
 30
0.0
  0
VERTEX
  8
0
 10
179.742272166914
 20
31.630508455246925
 30
0.0
  0
VERTEX
  8
0
 10
183.97063423587954
 20
36.66708891501704
 30
0.0
  0
VERTEX
  8
0
 10
185.63142446576458
 20
36.66708891501704
 30
0.0
  0
VERTEX
  8
0
 10
181.90573481059218
 20
32.37958891501704
 30
0.0
  0
VERTEX
  8
0
 10
186.20309113243127
 20
26.57421535179865
 30
0.0
  0
SEQEND
  8
0
  0
POLYLINE
  8
0
 62
0
 70
1
 66
1
 10
0.0
 20
0.0
 30
0.0
  0
VERTEX
  8
0
 10
152.13546182208646
 20
29.40790788053428
 30
0.0
  0
VERTEX
  8
0
 10
151.90383825886806
 20
28.269502708120488
 30
0.0
  0
VERTEX
  8
0
 10
151.2089675692129
 20
27.372577420764166
 30
0.0
  0
VERTEX
  8
0
 10
150.01635262668415
 20
26.78119811041934
 30
0.0
  0
VERTEX
  8
0
 10
148.3062807876037
 20
26.57421535179865
 30
0.0
  0
VERTEX
  8
0
 10
145.6105767646152
 20
27.23458891501704
 30
0.0
  0
VERTEX
  8
0
 10
144.38346469564968
 20
29.146715351798647
 30
0.0
  0
VERTEX
  8
0
 10
145.74856527036232
 20
29.412836041453822
 30
0.0
  0
VERTEX
  8
0
 10
146.0146859600175
 20
28.76724696099405
 30
0.0
  0
VERTEX
  8
0
 10
146.50257389105195
 20
28.274430869040028
 30
0.0
  0
VERTEX
  8
0
 10
147.26151067266116
 20
27.949172248350372
 30
0.0
  0
VERTEX
  8
0
 10
148.34570607496002
 20
27.83582454720095
 30
0.0
  0
VERTEX
  8
0
 10
149.31655377610943
 20
27.924531443752674
 30
0.0
  0
VERTEX
  8
0
 10
150.0705623967991
 20
28.200508455246926
 30
0.0
  0
VERTEX
  8
0
 10
150.5633784887531
 20
28.678540064442327
 30
0.0
  0
VERTEX
  8
0
 10
150.74079228185656
 20
29.38326707593658
 30
0.0
  0
VERTEX
  8
0
 10
150.4993123967991
 20
30.21119811041934
 30
0.0
  0
VERTEX
  8
0
 10
149.86850779909793
 20
30.733583167890604
 30
0.0
  0
VERTEX
  8
0
 10
148.98636699450023
 20
31.0637699494998
 30
0.0
  0
VERTEX
  8
0
 10
147.9908784887531
 20
31.31510615639635
 30
0.0
  0
VERTEX
  8
0
 10
147.241798028983
 20
31.51223259317796
 30
0.0
  0
VERTEX
  8
0
 10
146.5173583738106
 20
31.758640639154972
 30
0.0
  0
VERTEX
  8
0
 10
145.8717692933508
 20
32.09375558168371
 30
0.0
  0
VERTEX
  8
0
 10
145.34938423587954
 20
32.557002708120486
 30
0.0
  0
VERTEX
  8
0
 10
144.99455664967266
 20
33.19766362766072
 30
0.0
  0
VERTEX
  8
0
 10
144.87135262668414
 20
34.05516362766072
 30
0.0
  0
VERTEX
  8
0
 10
145.1374733163393
 20
35.24777857018945
 30
0.0
  0
VERTEX
  8
0
 10
145.86684113243126
 20
36.06092512191359
 30
0.0
  0
VERTEX
  8
0
 10
146.97074917840828
 20
36.519244087430835
 30
0.0
  0
VERTEX
  8
0
 10
148.34570607496002
 20
36.66708891501704
 30
0.0
  0
VERTEX
  8
0
 10
149.80444170714392
 20
36.519244087430835
 30
0.0
  0
VERTEX
  8
0
 10
150.82457101748875
 20
36.08556592651129
 30
0.0
  0
VERTEX
  8
0
 10
151.49480090254622
 20
35.370982593177956
 30
0.0
  0
VERTEX
  8
0
 10
151.89398193702897
 20
34.37549408743083
 30
0.0
  0
VERTEX
  8
0
 10
150.50424055771862
 20
34.143870524212446
 30
0.0
  0
VERTEX
  8
0
 10
150.26276067266116
 20
34.81902857018945
 30
0.0
  0
VERTEX
  8
0
 10
149.84386699450025
 20
35.31184466214348
 30
0.0
  0
VERTEX
  8
0
 10
149.2130623967991
 20
35.61739063915497
 30
0.0
  0
VERTEX
  8
0
 10
148.34077791404047
 20
35.72088201846532
 30
0.0
  0
VERTEX
  8
0
 10
147.35021756921287
 20
35.59274983455727
 30
0.0
  0
VERTEX
  8
0
 10
146.70462848875312
 20
35.24285040926991
 30
0.0
  0
VERTEX
  8
0
 10
146.35472906346575
 20
34.725393512718185
 30
0.0
  0
VERTEX
  8
0
 10
146.24630952323588
 20
34.07487627133888
 30
0.0
  0
VERTEX
  8
0
 10
146.43850779909795
 20
33.36522109892508
 30
0.0
  0
VERTEX
  8
0
 10
146.97074917840828
 20
32.91675845524693
 30
0.0
  0
VERTEX
  8
0
 10
147.75432676461517
 20
32.62106880007451
 30
0.0
  0
VERTEX
  8
0
 10
148.71531814392551
 20
32.3746607540975
 30
0.0
  0
VERTEX
  8
0
 10
149.5333928565692
 20
32.16274983455727
 30
0.0
  0
VERTEX
  8
0
 10
150.3268267646152
 20
31.896629144902096
 30
0.0
  0
VERTEX
  8
0
 10
151.03648193702898
 20
31.53687339777566
 30
0.0
  0
VERTEX
  8
0
 10
151.60814860369564
 20
31.029272823063017
 30
0.0
  0
VERTEX
  8
0
 10
151.99254515541978
 20
30.334402133407846
 30
0.0
  0
SEQEND
  8
0
  0
POLYLINE
  8
0
 62
0
 70
1
 66
1
 10
0.0
 20
0.0
 30
0.0
  0
VERTEX
  8
0
 10
128.32788998300597
 20
26.57421535179865
 30
0.0
  0
VERTEX
  8
0
 10
128.32788998300597
 20
36.66708891501704
 30
0.0
  0
VERTEX
  8
0
 10
135.12382389105196
 20
36.66708891501704
 30
0.0
  0
VERTEX
  8
0
 10
135.12382389105196
 20
35.40547971961474
 30
0.0
  0
VERTEX
  8
0
 10
129.742272166914
 20
35.40547971961474
 30
0.0
  0
VERTEX
  8
0
 10
129.742272166914
 20
32.566859029959566
 30
0.0
  0
VERTEX
  8
0
 10
134.68028940829333
 20
32.566859029959566
 30
0.0
  0
VERTEX
  8
0
 10
134.68028940829333
 20
31.30524983455727
 30
0.0
  0
VERTEX
  8
0
 10
129.742272166914
 20
31.30524983455727
 30
0.0
  0
VERTEX
  8
0
 10
129.742272166914
 20
27.83582454720095
 30
0.0
  0
VERTEX
  8
0
 10
135.4244417071439
 20
27.83582454720095
 30
0.0
  0
VERTEX
  8
0
 10
135.4244417071439
 20
26.57421535179865
 30
0.0
  0
SEQEND
  8
0
  0
POLYLINE
  8
0
 62
0
 70
1
 66
1
 10
0.0
 20
0.0
 30
0.0
  0
VERTEX
  8
0
 10
0.0
 20
0.0
 30
0.0
  0
VERTEX
  8
0
 10
230.0
 20
0.0
 30
0.0
  0
VERTEX
  8
0
 10
230.0
 20
230.0
 30
0.0
  0
VERTEX
  8
0
 10
0.0
 20
230.0
 30
0.0
  0
SEQEND
  8
0
  0
POLYLINE
  8
0
 62
0
 70
1
 66
1
 10
0.0
 20
0.0
 30
0.0
  0
VERTEX
  8
0
 10
78.32788998300597
 20
26.57421535179865
 30
0.0
  0
VERTEX
  8
0
 10
78.32788998300597
 20
36.66708891501704
 30
0.0
  0
VERTEX
  8
0
 10
85.12382389105194
 20
36.66708891501704
 30
0.0
  0
VERTEX
  8
0
 10
85.12382389105194
 20
35.40547971961474
 30
0.0
  0
VERTEX
  8
0
 10
79.74227216691402
 20
35.40547971961474
 30
0.0
  0
VERTEX
  8
0
 10
79.74227216691402
 20
32.566859029959566
 30
0.0
  0
VERTEX
  8
0
 10
84.68028940829332
 20
32.566859029959566
 30
0.0
  0
VERTEX
  8
0
 10
84.68028940829332
 20
31.30524983455727
 30
0.0
  0
VERTEX
  8
0
 10
79.74227216691402
 20
31.30524983455727
 30
0.0
  0
VERTEX
  8
0
 10
79.74227216691402
 20
27.83582454720095
 30
0.0
  0
VERTEX
  8
0
 10
85.4244417071439
 20
27.83582454720095
 30
0.0
  0
VERTEX
  8
0
 10
85.4244417071439
 20
26.57421535179865
 30
0.0
  0
SEQEND
  8
0
  0
POLYLINE
  8
0
 62
0
 70
1
 66
1
 10
0.0
 20
0.0
 30
0.0
  0
VERTEX
  8
0
 10
165.70724343128188
 20
35.40547971961474
 30
0.0
  0
VERTEX
  8
0
 10
165.70724343128188
 20
26.57421535179865
 30
0.0
  0
VERTEX
  8
0
 10
164.30271756921292
 20
26.57421535179865
 30
0.0
  0
VERTEX
  8
0
 10
164.30271756921292
 20
35.40547971961474
 30
0.0
  0
VERTEX
  8
0
 10
161.02549055771865
 20
35.40547971961474
 30
0.0
  0
VERTEX
  8
0
 10
161.02549055771865
 20
36.66708891501704
 30
0.0
  0
VERTEX
  8
0
 10
168.97954228185657
 20
36.66708891501704
 30
0.0
  0
VERTEX
  8
0
 10
168.97954228185657
 20
35.40547971961474
 30
0.0
  0
SEQEND
  8
0
  0
INSERT
  2
SHAPESTRING120
  8
0
 62
0
 10
0.0
 20
0.0
 30
0.0
  0
POLYLINE
  8
0
 62
0
 70
1
 66
1
 10
0.0
 20
0.0
 30
0.0
  0
VERTEX
  8
0
 10
111.66122331633932
 20
26.57421535179865
 30
0.0
  0
VERTEX
  8
0
 10
111.66122331633932
 20
36.66708891501704
 30
0.0
  0
VERTEX
  8
0
 10
118.45715722438528
 20
36.66708891501704
 30
0.0
  0
VERTEX
  8
0
 10
118.45715722438528
 20
35.40547971961474
 30
0.0
  0
VERTEX
  8
0
 10
113.07560550024736
 20
35.40547971961474
 30
0.0
  0
VERTEX
  8
0
 10
113.07560550024736
 20
32.566859029959566
 30
0.0
  0
VERTEX
  8
0
 10
118.01362274162666
 20
32.566859029959566
 30
0.0
  0
VERTEX
  8
0
 10
118.01362274162666
 20
31.30524983455727
 30
0.0
  0
VERTEX
  8
0
 10
113.07560550024736
 20
31.30524983455727
 30
0.0
  0
VERTEX
  8
0
 10
113.07560550024736
 20
27.83582454720095
 30
0.0
  0
VERTEX
  8
0
 10
118.75777504047724
 20
27.83582454720095
 30
0.0
  0
VERTEX
  8
0
 10
118.75777504047724
 20
26.57421535179865
 30
0.0
  0
SEQEND
  8
0
  0
ENDSEC
  0
EOF
