%TF.GenerationSoftware,KiCad,Pcbnew,(6.0.0)*%
%TF.CreationDate,2023-01-18T16:53:03+01:00*%
%TF.ProjectId,backpannel_pcb_11x11_small,6261636b-7061-46e6-9e65-6c5f7063625f,rev?*%
%TF.SameCoordinates,Original*%
%TF.FileFunction,Copper,L2,Bot*%
%TF.FilePolarity,Positive*%
%FSLAX46Y46*%
G04 Gerber Fmt 4.6, Leading zero omitted, Abs format (unit mm)*
G04 Created by KiCad (PCBNEW (6.0.0)) date 2023-01-18 16:53:03*
%MOMM*%
%LPD*%
G01*
G04 APERTURE LIST*
%TA.AperFunction,ComponentPad*%
%ADD10R,1.700000X1.700000*%
%TD*%
%TA.AperFunction,ComponentPad*%
%ADD11O,1.700000X1.700000*%
%TD*%
%TA.AperFunction,ComponentPad*%
%ADD12C,1.500000*%
%TD*%
%TA.AperFunction,ViaPad*%
%ADD13C,0.800000*%
%TD*%
%TA.AperFunction,Conductor*%
%ADD14C,0.250000*%
%TD*%
G04 APERTURE END LIST*
D10*
%TO.P,J2,1,Pin_1*%
%TO.N,+3V3*%
X-53875000Y89933333D03*
D11*
%TO.P,J2,2,Pin_2*%
%TO.N,/Flash*%
X-56415000Y89933333D03*
%TO.P,J2,3,Pin_3*%
%TO.N,GND*%
X-53875000Y92473333D03*
%TO.P,J2,4,Pin_4*%
%TO.N,Net-(J2-Pad4)*%
X-56415000Y92473333D03*
%TO.P,J2,5,Pin_5*%
%TO.N,/Reset*%
X-53875000Y95013333D03*
%TO.P,J2,6,Pin_6*%
%TO.N,Net-(J2-Pad6)*%
X-56415000Y95013333D03*
%TD*%
D12*
%TO.P,R2,1*%
%TO.N,Net-(R1-Pad2)*%
X-1689333Y88304666D03*
%TO.P,R2,2*%
%TO.N,GND*%
X1710667Y88304666D03*
%TD*%
D13*
%TO.N,Net-(S1-Pad4)*%
X90600000Y55433333D03*
X90600000Y72166671D03*
%TO.N,Net-(S2-Pad4)*%
X90600000Y38833333D03*
X90600000Y22233333D03*
%TO.N,Net-(S3-Pad4)*%
X90600000Y5533333D03*
X90600000Y-11166667D03*
%TO.N,Net-(S10-Pad2)*%
X90600000Y-27866667D03*
X90600000Y-44466667D03*
%TO.N,Net-(S11-Pad2)*%
X90600000Y-61166667D03*
X90600000Y-77766667D03*
%TO.N,GND*%
X-90720000Y41360000D03*
X-90690000Y53010000D03*
X-90750000Y-58680000D03*
X90600000Y19700000D03*
X-43400000Y94600000D03*
X90600000Y-80320000D03*
X-90720000Y7970000D03*
X-64950000Y82133333D03*
X-90740000Y19640000D03*
X80924000Y81035000D03*
X-26450000Y87100000D03*
X90600000Y-25280000D03*
X90600000Y-13666667D03*
X-90750000Y-47020000D03*
X90600000Y-58666667D03*
X90600000Y53020000D03*
X82249000Y82860000D03*
X-29750000Y86850000D03*
X90600000Y-91966667D03*
X-90710000Y74690000D03*
X86924000Y81060000D03*
X-90720000Y-25370000D03*
X90600000Y8040000D03*
X-90730000Y-13700000D03*
X85649000Y82860000D03*
X90600000Y-46966667D03*
X-66750000Y96258333D03*
X79574000Y82860000D03*
X88224000Y82860000D03*
X-90750000Y-80350000D03*
X-90750000Y-91990000D03*
X90600000Y41350000D03*
X90600000Y74670000D03*
%TO.N,/Flash*%
X-60550000Y91058333D03*
X-75150000Y91058333D03*
%TO.N,Net-(J2-Pad4)*%
X-81150000Y92058333D03*
%TO.N,/Reset*%
X-83125000Y82908333D03*
X-60550000Y88458333D03*
%TO.N,Net-(J2-Pad6)*%
X-83150000Y92858333D03*
%TO.N,Net-(R1-Pad2)*%
X-53350000Y80858333D03*
%TO.N,Net-(R3-Pad2)*%
X-81100000Y82933333D03*
X-61750000Y80933333D03*
%TO.N,Net-(R6-Pad1)*%
X-60550000Y85233333D03*
X-79100000Y82933333D03*
%TO.N,Net-(R8-Pad2)*%
X-60550000Y93658333D03*
X-73131000Y93658333D03*
%TO.N,Net-(R9-Pad2)*%
X-71150000Y94458333D03*
X-60550000Y95733333D03*
%TD*%
D14*
%TO.N,Net-(R9-Pad2)*%
X-61825000Y94458333D02*
X-60550000Y95733333D01*
X-71150000Y94458333D02*
X-61825000Y94458333D01*
%TO.N,Net-(S1-Pad4)*%
X90600000Y55433333D02*
X90600000Y72166671D01*
%TO.N,Net-(S2-Pad4)*%
X90600000Y22233333D02*
X90600000Y38833333D01*
%TO.N,Net-(S3-Pad4)*%
X90600000Y-11166667D02*
X90600000Y5533333D01*
%TO.N,Net-(S10-Pad2)*%
X90600000Y-44466667D02*
X90600000Y-27966667D01*
%TO.N,Net-(S11-Pad2)*%
X90600000Y-77766667D02*
X90600000Y-61166667D01*
%TO.N,Net-(R6-Pad1)*%
X-76800000Y85233333D02*
X-79100000Y82933333D01*
X-60550000Y85233333D02*
X-76800000Y85233333D01*
%TO.N,Net-(R1-Pad2)*%
X-9160666Y80833333D02*
X-1689333Y88304666D01*
X-53400000Y80833333D02*
X-9160666Y80833333D01*
%TO.N,/Flash*%
X-60550000Y91058333D02*
X-75150000Y91058333D01*
X-60550000Y91058333D02*
X-57540000Y91058333D01*
X-57540000Y91058333D02*
X-56415000Y89933333D01*
%TO.N,Net-(J2-Pad4)*%
X-81150000Y92058333D02*
X-56830000Y92058333D01*
X-56830000Y92058333D02*
X-56415000Y92473333D01*
%TO.N,/Reset*%
X-83125000Y82908333D02*
X-77575000Y88458333D01*
X-55049511Y89558822D02*
X-56150000Y88458333D01*
X-53875000Y95013333D02*
X-55049511Y93838822D01*
X-55049511Y93838822D02*
X-55049511Y89558822D01*
X-77575000Y88458333D02*
X-60550000Y88458333D01*
X-56150000Y88458333D02*
X-60550000Y88458333D01*
%TO.N,Net-(J2-Pad6)*%
X-83150000Y92858333D02*
X-58570000Y92858333D01*
X-58570000Y92858333D02*
X-56415000Y95013333D01*
%TO.N,Net-(R3-Pad2)*%
X-79025000Y80858333D02*
X-81100000Y82933333D01*
X-61750000Y80858333D02*
X-79025000Y80858333D01*
%TO.N,Net-(R8-Pad2)*%
X-73131000Y93658333D02*
X-60550000Y93658333D01*
%TD*%
%TA.AperFunction,Conductor*%
%TO.N,GND*%
G36*
X93942121Y97579998D02*
G01*
X93988614Y97526342D01*
X94000000Y97474000D01*
X94000000Y-100874000D01*
X93979998Y-100942121D01*
X93926342Y-100988614D01*
X93874000Y-101000000D01*
X-93874000Y-101000000D01*
X-93942121Y-100979998D01*
X-93988614Y-100926342D01*
X-94000000Y-100874000D01*
X-94000000Y-86083956D01*
X-77118990Y-86083956D01*
X-77118837Y-86088344D01*
X-77118837Y-86088350D01*
X-77113495Y-86241305D01*
X-77109187Y-86364681D01*
X-77108425Y-86369004D01*
X-77108424Y-86369011D01*
X-77084648Y-86503847D01*
X-77060410Y-86641310D01*
X-76973609Y-86908458D01*
X-76971681Y-86912411D01*
X-76971679Y-86912416D01*
X-76916499Y-87025551D01*
X-76850472Y-87160925D01*
X-76848017Y-87164564D01*
X-76848014Y-87164570D01*
X-76839619Y-87177016D01*
X-76693397Y-87393799D01*
X-76690452Y-87397070D01*
X-76690451Y-87397071D01*
X-76599586Y-87497987D01*
X-76505441Y-87602545D01*
X-76502079Y-87605366D01*
X-76502078Y-87605367D01*
X-76487245Y-87617813D01*
X-76290262Y-87783102D01*
X-76052048Y-87931954D01*
X-75795437Y-88046205D01*
X-75525422Y-88123630D01*
X-75521072Y-88124241D01*
X-75521069Y-88124242D01*
X-75445488Y-88134864D01*
X-75247260Y-88162723D01*
X-75036666Y-88162723D01*
X-75034480Y-88162570D01*
X-75034476Y-88162570D01*
X-74830985Y-88148341D01*
X-74830980Y-88148340D01*
X-74826600Y-88148034D01*
X-74551842Y-88089632D01*
X-74547713Y-88088129D01*
X-74547709Y-88088128D01*
X-74292031Y-87995069D01*
X-74292027Y-87995067D01*
X-74287886Y-87993560D01*
X-74039870Y-87861687D01*
X-74036309Y-87859100D01*
X-73816183Y-87699170D01*
X-73816180Y-87699167D01*
X-73812620Y-87696581D01*
X-73610560Y-87501454D01*
X-73437624Y-87280105D01*
X-73435428Y-87276301D01*
X-73435423Y-87276294D01*
X-73299377Y-87040654D01*
X-73297176Y-87036842D01*
X-73191950Y-86776399D01*
X-73162413Y-86657934D01*
X-73125059Y-86508116D01*
X-73125058Y-86508111D01*
X-73123995Y-86503847D01*
X-73111131Y-86381457D01*
X-73095093Y-86228859D01*
X-73095093Y-86228856D01*
X-73094634Y-86224490D01*
X-73098953Y-86100796D01*
X-73099541Y-86083956D01*
X-43798102Y-86083956D01*
X-43797949Y-86088344D01*
X-43797949Y-86088350D01*
X-43792607Y-86241305D01*
X-43788299Y-86364681D01*
X-43787537Y-86369004D01*
X-43787536Y-86369011D01*
X-43763760Y-86503847D01*
X-43739522Y-86641310D01*
X-43652721Y-86908458D01*
X-43650793Y-86912411D01*
X-43650791Y-86912416D01*
X-43595611Y-87025551D01*
X-43529584Y-87160925D01*
X-43527129Y-87164564D01*
X-43527126Y-87164570D01*
X-43518731Y-87177016D01*
X-43372509Y-87393799D01*
X-43369564Y-87397070D01*
X-43369563Y-87397071D01*
X-43278698Y-87497987D01*
X-43184553Y-87602545D01*
X-43181191Y-87605366D01*
X-43181190Y-87605367D01*
X-43166357Y-87617813D01*
X-42969374Y-87783102D01*
X-42731160Y-87931954D01*
X-42474549Y-88046205D01*
X-42204534Y-88123630D01*
X-42200184Y-88124241D01*
X-42200181Y-88124242D01*
X-42124600Y-88134864D01*
X-41926372Y-88162723D01*
X-41715778Y-88162723D01*
X-41713592Y-88162570D01*
X-41713588Y-88162570D01*
X-41510097Y-88148341D01*
X-41510092Y-88148340D01*
X-41505712Y-88148034D01*
X-41230954Y-88089632D01*
X-41226825Y-88088129D01*
X-41226821Y-88088128D01*
X-40971143Y-87995069D01*
X-40971139Y-87995067D01*
X-40966998Y-87993560D01*
X-40718982Y-87861687D01*
X-40715421Y-87859100D01*
X-40495295Y-87699170D01*
X-40495292Y-87699167D01*
X-40491732Y-87696581D01*
X-40289672Y-87501454D01*
X-40116736Y-87280105D01*
X-40114540Y-87276301D01*
X-40114535Y-87276294D01*
X-39978489Y-87040654D01*
X-39976288Y-87036842D01*
X-39871062Y-86776399D01*
X-39841525Y-86657934D01*
X-39804171Y-86508116D01*
X-39804170Y-86508111D01*
X-39803107Y-86503847D01*
X-39790243Y-86381457D01*
X-39774205Y-86228859D01*
X-39774205Y-86228856D01*
X-39773746Y-86224490D01*
X-39778065Y-86100796D01*
X-39778218Y-86096402D01*
X39654490Y-86096402D01*
X39654643Y-86100790D01*
X39654643Y-86100796D01*
X39664010Y-86369011D01*
X39664293Y-86377127D01*
X39665055Y-86381450D01*
X39665056Y-86381457D01*
X39688832Y-86516293D01*
X39713070Y-86653756D01*
X39799871Y-86920904D01*
X39923008Y-87173371D01*
X39925463Y-87177010D01*
X39925466Y-87177016D01*
X39992430Y-87276294D01*
X40080083Y-87406245D01*
X40268039Y-87614991D01*
X40483218Y-87795548D01*
X40721432Y-87944400D01*
X40978043Y-88058651D01*
X40982271Y-88059863D01*
X40982270Y-88059863D01*
X41206788Y-88124242D01*
X41248058Y-88136076D01*
X41252408Y-88136687D01*
X41252411Y-88136688D01*
X41326647Y-88147121D01*
X41526220Y-88175169D01*
X41736814Y-88175169D01*
X41739000Y-88175016D01*
X41739004Y-88175016D01*
X41942495Y-88160787D01*
X41942500Y-88160786D01*
X41946880Y-88160480D01*
X42221638Y-88102078D01*
X42225767Y-88100575D01*
X42225771Y-88100574D01*
X42481449Y-88007515D01*
X42481453Y-88007513D01*
X42485594Y-88006006D01*
X42733610Y-87874133D01*
X42750741Y-87861687D01*
X42957297Y-87711616D01*
X42957300Y-87711613D01*
X42960860Y-87709027D01*
X42971068Y-87699170D01*
X43159755Y-87516956D01*
X43162920Y-87513900D01*
X43335856Y-87292551D01*
X43338052Y-87288747D01*
X43338057Y-87288740D01*
X43474103Y-87053100D01*
X43476304Y-87049288D01*
X43581530Y-86788845D01*
X43615212Y-86653756D01*
X43648421Y-86520562D01*
X43648422Y-86520557D01*
X43649485Y-86516293D01*
X43650345Y-86508116D01*
X43678387Y-86241305D01*
X43678387Y-86241302D01*
X43678846Y-86236936D01*
X43678564Y-86228859D01*
X43673939Y-86096402D01*
X72987824Y-86096402D01*
X72987977Y-86100790D01*
X72987977Y-86100796D01*
X72997344Y-86369011D01*
X72997627Y-86377127D01*
X72998389Y-86381450D01*
X72998390Y-86381457D01*
X73022166Y-86516293D01*
X73046404Y-86653756D01*
X73133205Y-86920904D01*
X73256342Y-87173371D01*
X73258797Y-87177010D01*
X73258800Y-87177016D01*
X73325764Y-87276294D01*
X73413417Y-87406245D01*
X73601373Y-87614991D01*
X73816552Y-87795548D01*
X74054766Y-87944400D01*
X74311377Y-88058651D01*
X74315605Y-88059863D01*
X74315604Y-88059863D01*
X74540122Y-88124242D01*
X74581392Y-88136076D01*
X74585742Y-88136687D01*
X74585745Y-88136688D01*
X74659981Y-88147121D01*
X74859554Y-88175169D01*
X75070148Y-88175169D01*
X75072334Y-88175016D01*
X75072338Y-88175016D01*
X75275829Y-88160787D01*
X75275834Y-88160786D01*
X75280214Y-88160480D01*
X75554972Y-88102078D01*
X75559101Y-88100575D01*
X75559105Y-88100574D01*
X75814783Y-88007515D01*
X75814787Y-88007513D01*
X75818928Y-88006006D01*
X76066944Y-87874133D01*
X76084075Y-87861687D01*
X76290631Y-87711616D01*
X76290634Y-87711613D01*
X76294194Y-87709027D01*
X76304402Y-87699170D01*
X76493089Y-87516956D01*
X76496254Y-87513900D01*
X76669190Y-87292551D01*
X76671386Y-87288747D01*
X76671391Y-87288740D01*
X76807437Y-87053100D01*
X76809638Y-87049288D01*
X76914864Y-86788845D01*
X76948546Y-86653756D01*
X76981755Y-86520562D01*
X76981756Y-86520557D01*
X76982819Y-86516293D01*
X76983679Y-86508116D01*
X77011721Y-86241305D01*
X77011721Y-86241302D01*
X77012180Y-86236936D01*
X77011898Y-86228859D01*
X77002531Y-85960608D01*
X77002530Y-85960602D01*
X77002377Y-85956211D01*
X77000183Y-85943765D01*
X76954362Y-85683905D01*
X76953600Y-85679582D01*
X76866799Y-85412434D01*
X76858799Y-85396030D01*
X76796252Y-85267792D01*
X76743662Y-85159967D01*
X76741207Y-85156328D01*
X76741204Y-85156322D01*
X76652542Y-85024876D01*
X76586587Y-84927093D01*
X76572435Y-84911375D01*
X76401568Y-84721609D01*
X76398631Y-84718347D01*
X76383799Y-84705901D01*
X76271731Y-84611865D01*
X76183452Y-84537790D01*
X75945238Y-84388938D01*
X75688627Y-84274687D01*
X75418612Y-84197262D01*
X75414262Y-84196651D01*
X75414259Y-84196650D01*
X75311312Y-84182182D01*
X75140450Y-84158169D01*
X74929856Y-84158169D01*
X74927670Y-84158322D01*
X74927666Y-84158322D01*
X74724175Y-84172551D01*
X74724170Y-84172552D01*
X74719790Y-84172858D01*
X74445032Y-84231260D01*
X74440903Y-84232763D01*
X74440899Y-84232764D01*
X74185221Y-84325823D01*
X74185217Y-84325825D01*
X74181076Y-84327332D01*
X73933060Y-84459205D01*
X73929501Y-84461791D01*
X73929499Y-84461792D01*
X73718732Y-84614923D01*
X73705810Y-84624311D01*
X73503750Y-84819438D01*
X73330814Y-85040787D01*
X73328618Y-85044591D01*
X73328613Y-85044598D01*
X73214796Y-85241736D01*
X73190366Y-85284050D01*
X73085140Y-85544493D01*
X73084075Y-85548766D01*
X73084074Y-85548768D01*
X73019198Y-85808972D01*
X73017185Y-85817045D01*
X73016726Y-85821413D01*
X73016725Y-85821418D01*
X73003866Y-85943765D01*
X72987824Y-86096402D01*
X43673939Y-86096402D01*
X43669197Y-85960608D01*
X43669196Y-85960602D01*
X43669043Y-85956211D01*
X43666849Y-85943765D01*
X43621028Y-85683905D01*
X43620266Y-85679582D01*
X43533465Y-85412434D01*
X43525465Y-85396030D01*
X43462918Y-85267792D01*
X43410328Y-85159967D01*
X43407873Y-85156328D01*
X43407870Y-85156322D01*
X43319208Y-85024876D01*
X43253253Y-84927093D01*
X43239101Y-84911375D01*
X43068234Y-84721609D01*
X43065297Y-84718347D01*
X43050465Y-84705901D01*
X42938397Y-84611865D01*
X42850118Y-84537790D01*
X42611904Y-84388938D01*
X42355293Y-84274687D01*
X42085278Y-84197262D01*
X42080928Y-84196651D01*
X42080925Y-84196650D01*
X41977978Y-84182182D01*
X41807116Y-84158169D01*
X41596522Y-84158169D01*
X41594336Y-84158322D01*
X41594332Y-84158322D01*
X41390841Y-84172551D01*
X41390836Y-84172552D01*
X41386456Y-84172858D01*
X41111698Y-84231260D01*
X41107569Y-84232763D01*
X41107565Y-84232764D01*
X40851887Y-84325823D01*
X40851883Y-84325825D01*
X40847742Y-84327332D01*
X40599726Y-84459205D01*
X40596167Y-84461791D01*
X40596165Y-84461792D01*
X40385398Y-84614923D01*
X40372476Y-84624311D01*
X40170416Y-84819438D01*
X39997480Y-85040787D01*
X39995284Y-85044591D01*
X39995279Y-85044598D01*
X39881462Y-85241736D01*
X39857032Y-85284050D01*
X39751806Y-85544493D01*
X39750741Y-85548766D01*
X39750740Y-85548768D01*
X39685864Y-85808972D01*
X39683851Y-85817045D01*
X39683392Y-85821413D01*
X39683391Y-85821418D01*
X39670532Y-85943765D01*
X39654490Y-86096402D01*
X-39778218Y-86096402D01*
X-39783395Y-85948162D01*
X-39783396Y-85948156D01*
X-39783549Y-85943765D01*
X-39807316Y-85808972D01*
X-39829369Y-85683905D01*
X-39832326Y-85667136D01*
X-39919127Y-85399988D01*
X-40042264Y-85147521D01*
X-40044719Y-85143882D01*
X-40044722Y-85143876D01*
X-40124989Y-85024876D01*
X-40199339Y-84914647D01*
X-40387295Y-84705901D01*
X-40602474Y-84525344D01*
X-40840688Y-84376492D01*
X-41097299Y-84262241D01*
X-41251932Y-84217901D01*
X-41363087Y-84186028D01*
X-41363088Y-84186028D01*
X-41367314Y-84184816D01*
X-41371664Y-84184205D01*
X-41371667Y-84184204D01*
X-41474614Y-84169736D01*
X-41645476Y-84145723D01*
X-41856070Y-84145723D01*
X-41858256Y-84145876D01*
X-41858260Y-84145876D01*
X-42061751Y-84160105D01*
X-42061756Y-84160106D01*
X-42066136Y-84160412D01*
X-42340894Y-84218814D01*
X-42345023Y-84220317D01*
X-42345027Y-84220318D01*
X-42600705Y-84313377D01*
X-42600709Y-84313379D01*
X-42604850Y-84314886D01*
X-42852866Y-84446759D01*
X-42856425Y-84449345D01*
X-42856427Y-84449346D01*
X-42982052Y-84540618D01*
X-43080116Y-84611865D01*
X-43083280Y-84614921D01*
X-43083283Y-84614923D01*
X-43096171Y-84627369D01*
X-43282176Y-84806992D01*
X-43455112Y-85028341D01*
X-43457308Y-85032145D01*
X-43457313Y-85032152D01*
X-43533388Y-85163919D01*
X-43595560Y-85271604D01*
X-43700786Y-85532047D01*
X-43701851Y-85536320D01*
X-43701852Y-85536322D01*
X-43735545Y-85671459D01*
X-43768741Y-85804599D01*
X-43769200Y-85808967D01*
X-43769201Y-85808972D01*
X-43770049Y-85817045D01*
X-43798102Y-86083956D01*
X-73099541Y-86083956D01*
X-73104283Y-85948162D01*
X-73104284Y-85948156D01*
X-73104437Y-85943765D01*
X-73128204Y-85808972D01*
X-73150257Y-85683905D01*
X-73153214Y-85667136D01*
X-73240015Y-85399988D01*
X-73363152Y-85147521D01*
X-73365607Y-85143882D01*
X-73365610Y-85143876D01*
X-73445877Y-85024876D01*
X-73520227Y-84914647D01*
X-73708183Y-84705901D01*
X-73923362Y-84525344D01*
X-74161576Y-84376492D01*
X-74418187Y-84262241D01*
X-74572820Y-84217901D01*
X-74683975Y-84186028D01*
X-74683976Y-84186028D01*
X-74688202Y-84184816D01*
X-74692552Y-84184205D01*
X-74692555Y-84184204D01*
X-74795502Y-84169736D01*
X-74966364Y-84145723D01*
X-75176958Y-84145723D01*
X-75179144Y-84145876D01*
X-75179148Y-84145876D01*
X-75382639Y-84160105D01*
X-75382644Y-84160106D01*
X-75387024Y-84160412D01*
X-75661782Y-84218814D01*
X-75665911Y-84220317D01*
X-75665915Y-84220318D01*
X-75921593Y-84313377D01*
X-75921597Y-84313379D01*
X-75925738Y-84314886D01*
X-76173754Y-84446759D01*
X-76177313Y-84449345D01*
X-76177315Y-84449346D01*
X-76302940Y-84540618D01*
X-76401004Y-84611865D01*
X-76404168Y-84614921D01*
X-76404171Y-84614923D01*
X-76417059Y-84627369D01*
X-76603064Y-84806992D01*
X-76776000Y-85028341D01*
X-76778196Y-85032145D01*
X-76778201Y-85032152D01*
X-76854276Y-85163919D01*
X-76916448Y-85271604D01*
X-77021674Y-85532047D01*
X-77022739Y-85536320D01*
X-77022740Y-85536322D01*
X-77056433Y-85671459D01*
X-77089629Y-85804599D01*
X-77090088Y-85808967D01*
X-77090089Y-85808972D01*
X-77090937Y-85817045D01*
X-77118990Y-86083956D01*
X-94000000Y-86083956D01*
X-94000000Y-77766667D01*
X89686496Y-77766667D01*
X89706458Y-77956595D01*
X89765473Y-78138223D01*
X89860960Y-78303611D01*
X89988747Y-78445533D01*
X90143248Y-78557785D01*
X90149276Y-78560469D01*
X90149278Y-78560470D01*
X90311681Y-78632776D01*
X90317712Y-78635461D01*
X90411112Y-78655314D01*
X90498056Y-78673795D01*
X90498061Y-78673795D01*
X90504513Y-78675167D01*
X90695487Y-78675167D01*
X90701939Y-78673795D01*
X90701944Y-78673795D01*
X90788888Y-78655314D01*
X90882288Y-78635461D01*
X90888319Y-78632776D01*
X91050722Y-78560470D01*
X91050724Y-78560469D01*
X91056752Y-78557785D01*
X91211253Y-78445533D01*
X91339040Y-78303611D01*
X91434527Y-78138223D01*
X91493542Y-77956595D01*
X91513504Y-77766667D01*
X91493542Y-77576739D01*
X91434527Y-77395111D01*
X91339040Y-77229723D01*
X91265863Y-77148452D01*
X91235147Y-77084446D01*
X91233500Y-77064143D01*
X91233500Y-61869191D01*
X91253502Y-61801070D01*
X91265858Y-61784888D01*
X91339040Y-61703611D01*
X91434527Y-61538223D01*
X91493542Y-61356595D01*
X91513504Y-61166667D01*
X91493542Y-60976739D01*
X91434527Y-60795111D01*
X91339040Y-60629723D01*
X91211253Y-60487801D01*
X91056752Y-60375549D01*
X91050724Y-60372865D01*
X91050722Y-60372864D01*
X90888319Y-60300558D01*
X90888318Y-60300558D01*
X90882288Y-60297873D01*
X90788888Y-60278020D01*
X90701944Y-60259539D01*
X90701939Y-60259539D01*
X90695487Y-60258167D01*
X90504513Y-60258167D01*
X90498061Y-60259539D01*
X90498056Y-60259539D01*
X90411112Y-60278020D01*
X90317712Y-60297873D01*
X90311682Y-60300558D01*
X90311681Y-60300558D01*
X90149278Y-60372864D01*
X90149276Y-60372865D01*
X90143248Y-60375549D01*
X89988747Y-60487801D01*
X89860960Y-60629723D01*
X89765473Y-60795111D01*
X89706458Y-60976739D01*
X89686496Y-61166667D01*
X89706458Y-61356595D01*
X89765473Y-61538223D01*
X89860960Y-61703611D01*
X89934137Y-61784882D01*
X89964853Y-61848888D01*
X89966500Y-61869191D01*
X89966500Y-77064143D01*
X89946498Y-77132264D01*
X89934142Y-77148446D01*
X89860960Y-77229723D01*
X89765473Y-77395111D01*
X89706458Y-77576739D01*
X89686496Y-77766667D01*
X-94000000Y-77766667D01*
X-94000000Y-52763067D01*
X-77118990Y-52763067D01*
X-77118837Y-52767455D01*
X-77118837Y-52767461D01*
X-77110204Y-53014661D01*
X-77109187Y-53043792D01*
X-77108425Y-53048115D01*
X-77108424Y-53048122D01*
X-77084648Y-53182958D01*
X-77060410Y-53320421D01*
X-76973609Y-53587569D01*
X-76971681Y-53591522D01*
X-76971679Y-53591527D01*
X-76916499Y-53704662D01*
X-76850472Y-53840036D01*
X-76848017Y-53843675D01*
X-76848014Y-53843681D01*
X-76795225Y-53921944D01*
X-76693397Y-54072910D01*
X-76505441Y-54281656D01*
X-76290262Y-54462213D01*
X-76052048Y-54611065D01*
X-75795437Y-54725316D01*
X-75525422Y-54802741D01*
X-75521072Y-54803352D01*
X-75521069Y-54803353D01*
X-75418122Y-54817821D01*
X-75247260Y-54841834D01*
X-75036666Y-54841834D01*
X-75034480Y-54841681D01*
X-75034476Y-54841681D01*
X-74830985Y-54827452D01*
X-74830980Y-54827451D01*
X-74826600Y-54827145D01*
X-74551842Y-54768743D01*
X-74547713Y-54767240D01*
X-74547709Y-54767239D01*
X-74292031Y-54674180D01*
X-74292027Y-54674178D01*
X-74287886Y-54672671D01*
X-74039870Y-54540798D01*
X-73996658Y-54509403D01*
X-73816183Y-54378281D01*
X-73816180Y-54378278D01*
X-73812620Y-54375692D01*
X-73610560Y-54180565D01*
X-73437624Y-53959216D01*
X-73435428Y-53955412D01*
X-73435423Y-53955405D01*
X-73299377Y-53719765D01*
X-73297176Y-53715953D01*
X-73191950Y-53455510D01*
X-73158268Y-53320421D01*
X-73125059Y-53187227D01*
X-73125058Y-53187222D01*
X-73123995Y-53182958D01*
X-73120926Y-53153766D01*
X-73095093Y-52907970D01*
X-73095093Y-52907967D01*
X-73094634Y-52903601D01*
X-73094787Y-52899207D01*
X-73100710Y-52729606D01*
X72818893Y-52729606D01*
X72819046Y-52733994D01*
X72819046Y-52734000D01*
X72825122Y-52907970D01*
X72828696Y-53010331D01*
X72829458Y-53014654D01*
X72829459Y-53014661D01*
X72853235Y-53149497D01*
X72877473Y-53286960D01*
X72964274Y-53554108D01*
X72966202Y-53558061D01*
X72966204Y-53558066D01*
X73021384Y-53671201D01*
X73087411Y-53806575D01*
X73089866Y-53810214D01*
X73089869Y-53810220D01*
X73112439Y-53843681D01*
X73244486Y-54039449D01*
X73432442Y-54248195D01*
X73647621Y-54428752D01*
X73885835Y-54577604D01*
X74142446Y-54691855D01*
X74412461Y-54769280D01*
X74416811Y-54769891D01*
X74416814Y-54769892D01*
X74519761Y-54784360D01*
X74690623Y-54808373D01*
X74901217Y-54808373D01*
X74903403Y-54808220D01*
X74903407Y-54808220D01*
X75106898Y-54793991D01*
X75106903Y-54793990D01*
X75111283Y-54793684D01*
X75386041Y-54735282D01*
X75390170Y-54733779D01*
X75390174Y-54733778D01*
X75645852Y-54640719D01*
X75645856Y-54640717D01*
X75649997Y-54639210D01*
X75898013Y-54507337D01*
X75901574Y-54504750D01*
X76121700Y-54344820D01*
X76121703Y-54344817D01*
X76125263Y-54342231D01*
X76327323Y-54147104D01*
X76500259Y-53925755D01*
X76502455Y-53921951D01*
X76502460Y-53921944D01*
X76638506Y-53686304D01*
X76640707Y-53682492D01*
X76745933Y-53422049D01*
X76779615Y-53286960D01*
X76812824Y-53153766D01*
X76812825Y-53153761D01*
X76813888Y-53149497D01*
X76843249Y-52870140D01*
X76843096Y-52865746D01*
X76833600Y-52593812D01*
X76833599Y-52593806D01*
X76833446Y-52589415D01*
X76815579Y-52488083D01*
X76785431Y-52317109D01*
X76784669Y-52312786D01*
X76697868Y-52045638D01*
X76649712Y-51946903D01*
X76633391Y-51913442D01*
X76574731Y-51793171D01*
X76572276Y-51789532D01*
X76572273Y-51789526D01*
X76442688Y-51597409D01*
X76417656Y-51560297D01*
X76229700Y-51351551D01*
X76014521Y-51170994D01*
X75776307Y-51022142D01*
X75519696Y-50907891D01*
X75249681Y-50830466D01*
X75245331Y-50829855D01*
X75245328Y-50829854D01*
X75142381Y-50815386D01*
X74971519Y-50791373D01*
X74760925Y-50791373D01*
X74758739Y-50791526D01*
X74758735Y-50791526D01*
X74555244Y-50805755D01*
X74555239Y-50805756D01*
X74550859Y-50806062D01*
X74276101Y-50864464D01*
X74271972Y-50865967D01*
X74271968Y-50865968D01*
X74016290Y-50959027D01*
X74016286Y-50959029D01*
X74012145Y-50960536D01*
X73764129Y-51092409D01*
X73760570Y-51094995D01*
X73760568Y-51094996D01*
X73606018Y-51207283D01*
X73536879Y-51257515D01*
X73334819Y-51452642D01*
X73161883Y-51673991D01*
X73159687Y-51677795D01*
X73159682Y-51677802D01*
X73071474Y-51830584D01*
X73021435Y-51917254D01*
X72916209Y-52177697D01*
X72915144Y-52181970D01*
X72915143Y-52181972D01*
X72874185Y-52346247D01*
X72848254Y-52450249D01*
X72847795Y-52454617D01*
X72847794Y-52454622D01*
X72829648Y-52627273D01*
X72818893Y-52729606D01*
X-73100710Y-52729606D01*
X-73104283Y-52627273D01*
X-73104284Y-52627267D01*
X-73104437Y-52622876D01*
X-73109561Y-52593812D01*
X-73152452Y-52350570D01*
X-73153214Y-52346247D01*
X-73240015Y-52079099D01*
X-73258265Y-52041680D01*
X-73316963Y-51921334D01*
X-73363152Y-51826632D01*
X-73365607Y-51822993D01*
X-73365610Y-51822987D01*
X-73463539Y-51677802D01*
X-73520227Y-51593758D01*
X-73708183Y-51385012D01*
X-73923362Y-51204455D01*
X-74161576Y-51055603D01*
X-74418187Y-50941352D01*
X-74688202Y-50863927D01*
X-74692552Y-50863316D01*
X-74692555Y-50863315D01*
X-74795502Y-50848847D01*
X-74966364Y-50824834D01*
X-75176958Y-50824834D01*
X-75179144Y-50824987D01*
X-75179148Y-50824987D01*
X-75382639Y-50839216D01*
X-75382644Y-50839217D01*
X-75387024Y-50839523D01*
X-75661782Y-50897925D01*
X-75665911Y-50899428D01*
X-75665915Y-50899429D01*
X-75921593Y-50992488D01*
X-75921597Y-50992490D01*
X-75925738Y-50993997D01*
X-76173754Y-51125870D01*
X-76177313Y-51128456D01*
X-76177315Y-51128457D01*
X-76351385Y-51254926D01*
X-76401004Y-51290976D01*
X-76603064Y-51486103D01*
X-76776000Y-51707452D01*
X-76778196Y-51711256D01*
X-76778201Y-51711263D01*
X-76892018Y-51908401D01*
X-76916448Y-51950715D01*
X-77021674Y-52211158D01*
X-77022739Y-52215431D01*
X-77022740Y-52215433D01*
X-77081286Y-52450249D01*
X-77089629Y-52483710D01*
X-77118990Y-52763067D01*
X-94000000Y-52763067D01*
X-94000000Y-44466667D01*
X89686496Y-44466667D01*
X89706458Y-44656595D01*
X89765473Y-44838223D01*
X89860960Y-45003611D01*
X89988747Y-45145533D01*
X90143248Y-45257785D01*
X90149276Y-45260469D01*
X90149278Y-45260470D01*
X90311681Y-45332776D01*
X90317712Y-45335461D01*
X90411113Y-45355314D01*
X90498056Y-45373795D01*
X90498061Y-45373795D01*
X90504513Y-45375167D01*
X90695487Y-45375167D01*
X90701939Y-45373795D01*
X90701944Y-45373795D01*
X90788887Y-45355314D01*
X90882288Y-45335461D01*
X90888319Y-45332776D01*
X91050722Y-45260470D01*
X91050724Y-45260469D01*
X91056752Y-45257785D01*
X91211253Y-45145533D01*
X91339040Y-45003611D01*
X91434527Y-44838223D01*
X91493542Y-44656595D01*
X91513504Y-44466667D01*
X91493542Y-44276739D01*
X91434527Y-44095111D01*
X91339040Y-43929723D01*
X91265863Y-43848452D01*
X91235147Y-43784446D01*
X91233500Y-43764143D01*
X91233500Y-28569191D01*
X91253502Y-28501070D01*
X91265858Y-28484888D01*
X91339040Y-28403611D01*
X91434527Y-28238223D01*
X91493542Y-28056595D01*
X91513504Y-27866667D01*
X91493542Y-27676739D01*
X91434527Y-27495111D01*
X91339040Y-27329723D01*
X91211253Y-27187801D01*
X91056752Y-27075549D01*
X91050724Y-27072865D01*
X91050722Y-27072864D01*
X90888319Y-27000558D01*
X90888318Y-27000558D01*
X90882288Y-26997873D01*
X90788888Y-26978020D01*
X90701944Y-26959539D01*
X90701939Y-26959539D01*
X90695487Y-26958167D01*
X90504513Y-26958167D01*
X90498061Y-26959539D01*
X90498056Y-26959539D01*
X90411112Y-26978020D01*
X90317712Y-26997873D01*
X90311682Y-27000558D01*
X90311681Y-27000558D01*
X90149278Y-27072864D01*
X90149276Y-27072865D01*
X90143248Y-27075549D01*
X89988747Y-27187801D01*
X89860960Y-27329723D01*
X89765473Y-27495111D01*
X89706458Y-27676739D01*
X89686496Y-27866667D01*
X89706458Y-28056595D01*
X89765473Y-28238223D01*
X89860960Y-28403611D01*
X89934137Y-28484882D01*
X89964853Y-28548888D01*
X89966500Y-28569191D01*
X89966500Y-43764143D01*
X89946498Y-43832264D01*
X89934142Y-43848446D01*
X89860960Y-43929723D01*
X89765473Y-44095111D01*
X89706458Y-44276739D01*
X89686496Y-44466667D01*
X-94000000Y-44466667D01*
X-94000000Y-35983780D01*
X-27068488Y-35983780D01*
X-27068335Y-35988168D01*
X-27068335Y-35988174D01*
X-27059495Y-36241304D01*
X-27058685Y-36264505D01*
X-27057923Y-36268828D01*
X-27057922Y-36268835D01*
X-27034146Y-36403671D01*
X-27009908Y-36541134D01*
X-26923107Y-36808282D01*
X-26799970Y-37060749D01*
X-26797515Y-37064388D01*
X-26797512Y-37064394D01*
X-26726672Y-37169418D01*
X-26642895Y-37293623D01*
X-26454939Y-37502369D01*
X-26239760Y-37682926D01*
X-26001546Y-37831778D01*
X-25744935Y-37946029D01*
X-25474920Y-38023454D01*
X-25470570Y-38024065D01*
X-25470567Y-38024066D01*
X-25367620Y-38038534D01*
X-25196758Y-38062547D01*
X-24986164Y-38062547D01*
X-24983978Y-38062394D01*
X-24983974Y-38062394D01*
X-24780483Y-38048165D01*
X-24780478Y-38048164D01*
X-24776098Y-38047858D01*
X-24501340Y-37989456D01*
X-24497211Y-37987953D01*
X-24497207Y-37987952D01*
X-24241529Y-37894893D01*
X-24241525Y-37894891D01*
X-24237384Y-37893384D01*
X-23989368Y-37761511D01*
X-23985807Y-37758924D01*
X-23765681Y-37598994D01*
X-23765678Y-37598991D01*
X-23762118Y-37596405D01*
X-23676680Y-37513899D01*
X-23568589Y-37409516D01*
X-23560058Y-37401278D01*
X-23387122Y-37179929D01*
X-23384926Y-37176125D01*
X-23384921Y-37176118D01*
X-23248875Y-36940478D01*
X-23246674Y-36936666D01*
X-23141448Y-36676223D01*
X-23107766Y-36541134D01*
X-23074557Y-36407940D01*
X-23074556Y-36407935D01*
X-23073493Y-36403671D01*
X-23055968Y-36236935D01*
X-23044591Y-36128683D01*
X-23044591Y-36128680D01*
X-23044132Y-36124314D01*
X-23044953Y-36100795D01*
X-23045106Y-36096401D01*
X22987823Y-36096401D01*
X22987976Y-36100789D01*
X22987976Y-36100795D01*
X22993540Y-36260108D01*
X22997626Y-36377126D01*
X22998388Y-36381449D01*
X22998389Y-36381456D01*
X23022165Y-36516292D01*
X23046403Y-36653755D01*
X23133204Y-36920903D01*
X23256341Y-37173370D01*
X23258796Y-37177009D01*
X23258799Y-37177015D01*
X23260765Y-37179929D01*
X23413416Y-37406244D01*
X23601372Y-37614990D01*
X23816551Y-37795547D01*
X24054765Y-37944399D01*
X24311376Y-38058650D01*
X24581391Y-38136075D01*
X24585741Y-38136686D01*
X24585744Y-38136687D01*
X24688691Y-38151155D01*
X24859553Y-38175168D01*
X25070147Y-38175168D01*
X25072333Y-38175015D01*
X25072337Y-38175015D01*
X25275828Y-38160786D01*
X25275833Y-38160785D01*
X25280213Y-38160479D01*
X25554971Y-38102077D01*
X25559100Y-38100574D01*
X25559104Y-38100573D01*
X25814782Y-38007514D01*
X25814786Y-38007512D01*
X25818927Y-38006005D01*
X26066943Y-37874132D01*
X26125239Y-37831778D01*
X26290630Y-37711615D01*
X26290633Y-37711612D01*
X26294193Y-37709026D01*
X26318806Y-37685258D01*
X26394948Y-37611728D01*
X26496253Y-37513899D01*
X26669189Y-37292550D01*
X26671385Y-37288746D01*
X26671390Y-37288739D01*
X26807436Y-37053099D01*
X26809637Y-37049287D01*
X26914863Y-36788844D01*
X26948545Y-36653755D01*
X26981754Y-36520561D01*
X26981755Y-36520556D01*
X26982818Y-36516292D01*
X26995115Y-36399298D01*
X27011720Y-36241304D01*
X27011720Y-36241301D01*
X27012179Y-36236935D01*
X27008399Y-36128683D01*
X27002530Y-35960607D01*
X27002529Y-35960601D01*
X27002376Y-35956210D01*
X26981755Y-35839259D01*
X26957979Y-35704423D01*
X26953599Y-35679581D01*
X26866798Y-35412433D01*
X26743661Y-35159966D01*
X26741206Y-35156327D01*
X26741203Y-35156321D01*
X26589880Y-34931976D01*
X26586586Y-34927092D01*
X26398630Y-34718346D01*
X26183451Y-34537789D01*
X25945237Y-34388937D01*
X25688626Y-34274686D01*
X25418611Y-34197261D01*
X25414261Y-34196650D01*
X25414258Y-34196649D01*
X25311311Y-34182181D01*
X25140449Y-34158168D01*
X24929855Y-34158168D01*
X24927669Y-34158321D01*
X24927665Y-34158321D01*
X24724174Y-34172550D01*
X24724169Y-34172551D01*
X24719789Y-34172857D01*
X24445031Y-34231259D01*
X24440902Y-34232762D01*
X24440898Y-34232763D01*
X24185220Y-34325822D01*
X24185216Y-34325824D01*
X24181075Y-34327331D01*
X23933059Y-34459204D01*
X23929500Y-34461790D01*
X23929498Y-34461791D01*
X23824896Y-34537789D01*
X23705809Y-34624310D01*
X23702645Y-34627366D01*
X23702642Y-34627368D01*
X23616781Y-34710283D01*
X23503749Y-34819437D01*
X23330813Y-35040786D01*
X23328617Y-35044590D01*
X23328612Y-35044597D01*
X23255387Y-35171428D01*
X23190365Y-35284049D01*
X23085139Y-35544492D01*
X23084074Y-35548765D01*
X23084073Y-35548767D01*
X23045264Y-35704423D01*
X23017184Y-35817044D01*
X23016725Y-35821412D01*
X23016724Y-35821417D01*
X22999198Y-35988174D01*
X22987823Y-36096401D01*
X-23045106Y-36096401D01*
X-23053781Y-35847986D01*
X-23053782Y-35847980D01*
X-23053935Y-35843589D01*
X-23057844Y-35821417D01*
X-23101950Y-35571283D01*
X-23102712Y-35566960D01*
X-23189513Y-35299812D01*
X-23312650Y-35047345D01*
X-23315105Y-35043706D01*
X-23315108Y-35043700D01*
X-23464037Y-34822904D01*
X-23469725Y-34814471D01*
X-23657681Y-34605725D01*
X-23872860Y-34425168D01*
X-24111074Y-34276316D01*
X-24367685Y-34162065D01*
X-24637700Y-34084640D01*
X-24642050Y-34084029D01*
X-24642053Y-34084028D01*
X-24745000Y-34069560D01*
X-24915862Y-34045547D01*
X-25126456Y-34045547D01*
X-25128642Y-34045700D01*
X-25128646Y-34045700D01*
X-25332137Y-34059929D01*
X-25332142Y-34059930D01*
X-25336522Y-34060236D01*
X-25611280Y-34118638D01*
X-25615409Y-34120141D01*
X-25615413Y-34120142D01*
X-25871091Y-34213201D01*
X-25871095Y-34213203D01*
X-25875236Y-34214710D01*
X-26123252Y-34346583D01*
X-26126811Y-34349169D01*
X-26126813Y-34349170D01*
X-26278262Y-34459204D01*
X-26350502Y-34511689D01*
X-26353666Y-34514745D01*
X-26353669Y-34514747D01*
X-26380458Y-34540617D01*
X-26552562Y-34706816D01*
X-26725498Y-34928165D01*
X-26727694Y-34931969D01*
X-26727699Y-34931976D01*
X-26841516Y-35129114D01*
X-26865946Y-35171428D01*
X-26971172Y-35431871D01*
X-26972237Y-35436144D01*
X-26972238Y-35436146D01*
X-27032933Y-35679581D01*
X-27039127Y-35704423D01*
X-27039586Y-35708791D01*
X-27039587Y-35708796D01*
X-27068029Y-35979411D01*
X-27068488Y-35983780D01*
X-94000000Y-35983780D01*
X-94000000Y-11166667D01*
X89686496Y-11166667D01*
X89706458Y-11356595D01*
X89765473Y-11538223D01*
X89860960Y-11703611D01*
X89988747Y-11845533D01*
X90143248Y-11957785D01*
X90149276Y-11960469D01*
X90149278Y-11960470D01*
X90311681Y-12032776D01*
X90317712Y-12035461D01*
X90411112Y-12055314D01*
X90498056Y-12073795D01*
X90498061Y-12073795D01*
X90504513Y-12075167D01*
X90695487Y-12075167D01*
X90701939Y-12073795D01*
X90701944Y-12073795D01*
X90788888Y-12055314D01*
X90882288Y-12035461D01*
X90888319Y-12032776D01*
X91050722Y-11960470D01*
X91050724Y-11960469D01*
X91056752Y-11957785D01*
X91211253Y-11845533D01*
X91339040Y-11703611D01*
X91434527Y-11538223D01*
X91493542Y-11356595D01*
X91513504Y-11166667D01*
X91493542Y-10976739D01*
X91434527Y-10795111D01*
X91339040Y-10629723D01*
X91265863Y-10548452D01*
X91235147Y-10484446D01*
X91233500Y-10464143D01*
X91233500Y4830809D01*
X91253502Y4898930D01*
X91265858Y4915112D01*
X91339040Y4996389D01*
X91434527Y5161777D01*
X91493542Y5343405D01*
X91513504Y5533333D01*
X91493542Y5723261D01*
X91434527Y5904889D01*
X91339040Y6070277D01*
X91211253Y6212199D01*
X91056752Y6324451D01*
X91050724Y6327135D01*
X91050722Y6327136D01*
X90888319Y6399442D01*
X90888318Y6399442D01*
X90882288Y6402127D01*
X90788888Y6421980D01*
X90701944Y6440461D01*
X90701939Y6440461D01*
X90695487Y6441833D01*
X90504513Y6441833D01*
X90498061Y6440461D01*
X90498056Y6440461D01*
X90411113Y6421980D01*
X90317712Y6402127D01*
X90311682Y6399442D01*
X90311681Y6399442D01*
X90149278Y6327136D01*
X90149276Y6327135D01*
X90143248Y6324451D01*
X89988747Y6212199D01*
X89860960Y6070277D01*
X89765473Y5904889D01*
X89706458Y5723261D01*
X89686496Y5533333D01*
X89706458Y5343405D01*
X89765473Y5161777D01*
X89860960Y4996389D01*
X89934137Y4915118D01*
X89964853Y4851112D01*
X89966500Y4830809D01*
X89966500Y-10464143D01*
X89946498Y-10532264D01*
X89934142Y-10548446D01*
X89860960Y-10629723D01*
X89765473Y-10795111D01*
X89706458Y-10976739D01*
X89686496Y-11166667D01*
X-94000000Y-11166667D01*
X-94000000Y13903600D01*
X-27012178Y13903600D01*
X-27012025Y13899212D01*
X-27012025Y13899206D01*
X-27004190Y13674855D01*
X-27002375Y13622875D01*
X-27001613Y13618552D01*
X-27001612Y13618545D01*
X-26977836Y13483709D01*
X-26953598Y13346246D01*
X-26866797Y13079098D01*
X-26743660Y12826631D01*
X-26741205Y12822992D01*
X-26741202Y12822986D01*
X-26701254Y12763761D01*
X-26586585Y12593757D01*
X-26398629Y12385011D01*
X-26183450Y12204454D01*
X-25945236Y12055602D01*
X-25688625Y11941351D01*
X-25418610Y11863926D01*
X-25414260Y11863315D01*
X-25414257Y11863314D01*
X-25311310Y11848846D01*
X-25140448Y11824833D01*
X-24929854Y11824833D01*
X-24927668Y11824986D01*
X-24927664Y11824986D01*
X-24724173Y11839215D01*
X-24724168Y11839216D01*
X-24719788Y11839522D01*
X-24445030Y11897924D01*
X-24440901Y11899427D01*
X-24440897Y11899428D01*
X-24185219Y11992487D01*
X-24185215Y11992489D01*
X-24181074Y11993996D01*
X-23933058Y12125869D01*
X-23858397Y12180113D01*
X-23709371Y12288386D01*
X-23709368Y12288389D01*
X-23705808Y12290975D01*
X-23644330Y12350343D01*
X-23605053Y12388273D01*
X-23503748Y12486102D01*
X-23330812Y12707451D01*
X-23328616Y12711255D01*
X-23328611Y12711262D01*
X-23192565Y12946902D01*
X-23190364Y12950714D01*
X-23085138Y13211157D01*
X-23051456Y13346246D01*
X-23018247Y13479440D01*
X-23018246Y13479445D01*
X-23017183Y13483709D01*
X-23011264Y13540019D01*
X-22988281Y13758697D01*
X-22988281Y13758700D01*
X-22987822Y13763066D01*
X-22987975Y13767460D01*
X-22994695Y13959910D01*
X22875202Y13959910D01*
X22875355Y13955522D01*
X22875355Y13955516D01*
X22882076Y13763066D01*
X22885005Y13679185D01*
X22885767Y13674862D01*
X22885768Y13674855D01*
X22909544Y13540019D01*
X22933782Y13402556D01*
X23020583Y13135408D01*
X23143720Y12882941D01*
X23146175Y12879302D01*
X23146178Y12879296D01*
X23181701Y12826631D01*
X23300795Y12650067D01*
X23488751Y12441321D01*
X23703930Y12260764D01*
X23942144Y12111912D01*
X24198755Y11997661D01*
X24468770Y11920236D01*
X24473120Y11919625D01*
X24473123Y11919624D01*
X24576070Y11905156D01*
X24746932Y11881143D01*
X24957526Y11881143D01*
X24959712Y11881296D01*
X24959716Y11881296D01*
X25163207Y11895525D01*
X25163212Y11895526D01*
X25167592Y11895832D01*
X25442350Y11954234D01*
X25446479Y11955737D01*
X25446483Y11955738D01*
X25702161Y12048797D01*
X25702165Y12048799D01*
X25706306Y12050306D01*
X25954322Y12182179D01*
X25957883Y12184766D01*
X26178009Y12344696D01*
X26178012Y12344699D01*
X26181572Y12347285D01*
X26220639Y12385011D01*
X26282327Y12444583D01*
X26383632Y12542412D01*
X26556568Y12763761D01*
X26558764Y12767565D01*
X26558769Y12767572D01*
X26694815Y13003212D01*
X26697016Y13007024D01*
X26802242Y13267467D01*
X26835924Y13402556D01*
X26869133Y13535750D01*
X26869134Y13535755D01*
X26870197Y13540019D01*
X26878451Y13618545D01*
X26899099Y13815007D01*
X26899099Y13815010D01*
X26899558Y13819376D01*
X26899405Y13823770D01*
X26889909Y14095704D01*
X26889908Y14095710D01*
X26889755Y14100101D01*
X26875917Y14178584D01*
X26841740Y14372407D01*
X26840978Y14376730D01*
X26754177Y14643878D01*
X26631040Y14896345D01*
X26628585Y14899984D01*
X26628582Y14899990D01*
X26509739Y15076181D01*
X26473965Y15129219D01*
X26286009Y15337965D01*
X26070830Y15518522D01*
X25832616Y15667374D01*
X25576005Y15781625D01*
X25305990Y15859050D01*
X25301640Y15859661D01*
X25301637Y15859662D01*
X25198690Y15874130D01*
X25027828Y15898143D01*
X24817234Y15898143D01*
X24815048Y15897990D01*
X24815044Y15897990D01*
X24611553Y15883761D01*
X24611548Y15883760D01*
X24607168Y15883454D01*
X24332410Y15825052D01*
X24328281Y15823549D01*
X24328277Y15823548D01*
X24072599Y15730489D01*
X24072595Y15730487D01*
X24068454Y15728980D01*
X23820438Y15597107D01*
X23816879Y15594521D01*
X23816877Y15594520D01*
X23630878Y15459384D01*
X23593188Y15432001D01*
X23590024Y15428945D01*
X23590021Y15428943D01*
X23501245Y15343212D01*
X23391128Y15236874D01*
X23218192Y15015525D01*
X23215996Y15011721D01*
X23215991Y15011714D01*
X23118977Y14843680D01*
X23077744Y14772262D01*
X22972518Y14511819D01*
X22971453Y14507546D01*
X22971452Y14507544D01*
X22924797Y14320420D01*
X22904563Y14239267D01*
X22904104Y14234899D01*
X22904103Y14234894D01*
X22898185Y14178584D01*
X22875202Y13959910D01*
X-22994695Y13959910D01*
X-22997471Y14039394D01*
X-22997472Y14039400D01*
X-22997625Y14043791D01*
X-23006778Y14095704D01*
X-23045640Y14316097D01*
X-23046402Y14320420D01*
X-23133203Y14587568D01*
X-23256340Y14840035D01*
X-23258795Y14843674D01*
X-23258798Y14843680D01*
X-23374709Y15015525D01*
X-23413415Y15072909D01*
X-23601371Y15281655D01*
X-23816550Y15462212D01*
X-24054764Y15611064D01*
X-24311375Y15725315D01*
X-24581390Y15802740D01*
X-24585740Y15803351D01*
X-24585743Y15803352D01*
X-24688690Y15817820D01*
X-24859552Y15841833D01*
X-25070146Y15841833D01*
X-25072332Y15841680D01*
X-25072336Y15841680D01*
X-25275827Y15827451D01*
X-25275832Y15827450D01*
X-25280212Y15827144D01*
X-25554970Y15768742D01*
X-25559099Y15767239D01*
X-25559103Y15767238D01*
X-25814781Y15674179D01*
X-25814785Y15674177D01*
X-25818926Y15672670D01*
X-26066942Y15540797D01*
X-26070501Y15538211D01*
X-26070503Y15538210D01*
X-26175105Y15462212D01*
X-26294192Y15375691D01*
X-26297356Y15372635D01*
X-26297359Y15372633D01*
X-26386135Y15286902D01*
X-26496252Y15180564D01*
X-26669188Y14959215D01*
X-26671384Y14955411D01*
X-26671389Y14955404D01*
X-26774925Y14776074D01*
X-26809636Y14715952D01*
X-26914862Y14455509D01*
X-26915927Y14451236D01*
X-26915928Y14451234D01*
X-26968777Y14239267D01*
X-26982817Y14182957D01*
X-26983276Y14178589D01*
X-26983277Y14178584D01*
X-26996989Y14048121D01*
X-27012178Y13903600D01*
X-94000000Y13903600D01*
X-94000000Y22233333D01*
X89686496Y22233333D01*
X89706458Y22043405D01*
X89765473Y21861777D01*
X89860960Y21696389D01*
X89988747Y21554467D01*
X90143248Y21442215D01*
X90149276Y21439531D01*
X90149278Y21439530D01*
X90311681Y21367224D01*
X90317712Y21364539D01*
X90411113Y21344686D01*
X90498056Y21326205D01*
X90498061Y21326205D01*
X90504513Y21324833D01*
X90695487Y21324833D01*
X90701939Y21326205D01*
X90701944Y21326205D01*
X90788888Y21344686D01*
X90882288Y21364539D01*
X90888319Y21367224D01*
X91050722Y21439530D01*
X91050724Y21439531D01*
X91056752Y21442215D01*
X91211253Y21554467D01*
X91339040Y21696389D01*
X91434527Y21861777D01*
X91493542Y22043405D01*
X91513504Y22233333D01*
X91493542Y22423261D01*
X91434527Y22604889D01*
X91339040Y22770277D01*
X91265863Y22851548D01*
X91235147Y22915554D01*
X91233500Y22935857D01*
X91233500Y38130809D01*
X91253502Y38198930D01*
X91265858Y38215112D01*
X91339040Y38296389D01*
X91434527Y38461777D01*
X91493542Y38643405D01*
X91513504Y38833333D01*
X91493542Y39023261D01*
X91434527Y39204889D01*
X91339040Y39370277D01*
X91211253Y39512199D01*
X91056752Y39624451D01*
X91050724Y39627135D01*
X91050722Y39627136D01*
X90888319Y39699442D01*
X90888318Y39699442D01*
X90882288Y39702127D01*
X90788887Y39721980D01*
X90701944Y39740461D01*
X90701939Y39740461D01*
X90695487Y39741833D01*
X90504513Y39741833D01*
X90498061Y39740461D01*
X90498056Y39740461D01*
X90411112Y39721980D01*
X90317712Y39702127D01*
X90311682Y39699442D01*
X90311681Y39699442D01*
X90149278Y39627136D01*
X90149276Y39627135D01*
X90143248Y39624451D01*
X89988747Y39512199D01*
X89860960Y39370277D01*
X89765473Y39204889D01*
X89706458Y39023261D01*
X89686496Y38833333D01*
X89706458Y38643405D01*
X89765473Y38461777D01*
X89860960Y38296389D01*
X89934137Y38215118D01*
X89964853Y38151112D01*
X89966500Y38130809D01*
X89966500Y22935857D01*
X89946498Y22867736D01*
X89934142Y22851554D01*
X89860960Y22770277D01*
X89765473Y22604889D01*
X89706458Y22423261D01*
X89686496Y22233333D01*
X-94000000Y22233333D01*
X-94000000Y30570267D01*
X-77012179Y30570267D01*
X-77012026Y30565879D01*
X-77012026Y30565873D01*
X-77006955Y30420680D01*
X-77002376Y30289542D01*
X-77001614Y30285219D01*
X-77001613Y30285212D01*
X-76978248Y30152704D01*
X-76953599Y30012913D01*
X-76866798Y29745765D01*
X-76743661Y29493298D01*
X-76741206Y29489659D01*
X-76741203Y29489653D01*
X-76680423Y29399543D01*
X-76586586Y29260424D01*
X-76398630Y29051678D01*
X-76183451Y28871121D01*
X-75945237Y28722269D01*
X-75688626Y28608018D01*
X-75418611Y28530593D01*
X-75414261Y28529982D01*
X-75414258Y28529981D01*
X-75311311Y28515513D01*
X-75140449Y28491500D01*
X-74929855Y28491500D01*
X-74927669Y28491653D01*
X-74927665Y28491653D01*
X-74724174Y28505882D01*
X-74724169Y28505883D01*
X-74719789Y28506189D01*
X-74445031Y28564591D01*
X-74440902Y28566094D01*
X-74440898Y28566095D01*
X-74185220Y28659154D01*
X-74185216Y28659156D01*
X-74181075Y28660663D01*
X-73933059Y28792536D01*
X-73928111Y28796131D01*
X-73709372Y28955053D01*
X-73709369Y28955056D01*
X-73705809Y28957642D01*
X-73503749Y29152769D01*
X-73330813Y29374118D01*
X-73328617Y29377922D01*
X-73328612Y29377929D01*
X-73192566Y29613569D01*
X-73190365Y29617381D01*
X-73085139Y29877824D01*
X-73084073Y29882099D01*
X-73018248Y30146107D01*
X-73018247Y30146112D01*
X-73017184Y30150376D01*
X-73003394Y30281575D01*
X-72988282Y30425364D01*
X-72988282Y30425367D01*
X-72987823Y30429733D01*
X-72992401Y30560832D01*
X-72997461Y30705735D01*
X72818893Y30705735D01*
X72819046Y30701347D01*
X72819046Y30701341D01*
X72828378Y30434127D01*
X72828696Y30425010D01*
X72829458Y30420687D01*
X72829459Y30420680D01*
X72853235Y30285844D01*
X72877473Y30148381D01*
X72964274Y29881233D01*
X73087411Y29628766D01*
X73089866Y29625127D01*
X73089869Y29625121D01*
X73092338Y29621461D01*
X73244486Y29395892D01*
X73432442Y29187146D01*
X73647621Y29006589D01*
X73885835Y28857737D01*
X74142446Y28743486D01*
X74412461Y28666061D01*
X74416811Y28665450D01*
X74416814Y28665449D01*
X74519761Y28650981D01*
X74690623Y28626968D01*
X74901217Y28626968D01*
X74903403Y28627121D01*
X74903407Y28627121D01*
X75106898Y28641350D01*
X75106903Y28641351D01*
X75111283Y28641657D01*
X75386041Y28700059D01*
X75390170Y28701562D01*
X75390174Y28701563D01*
X75645852Y28794622D01*
X75645856Y28794624D01*
X75649997Y28796131D01*
X75898013Y28928004D01*
X75935243Y28955053D01*
X76121700Y29090521D01*
X76121703Y29090524D01*
X76125263Y29093110D01*
X76327323Y29288237D01*
X76484686Y29489653D01*
X76497552Y29506121D01*
X76497553Y29506122D01*
X76500259Y29509586D01*
X76502455Y29513390D01*
X76502460Y29513397D01*
X76638506Y29749037D01*
X76640707Y29752849D01*
X76745933Y30013292D01*
X76780112Y30150376D01*
X76812824Y30281575D01*
X76812825Y30281580D01*
X76813888Y30285844D01*
X76843249Y30565201D01*
X76843096Y30569595D01*
X76833600Y30841529D01*
X76833599Y30841535D01*
X76833446Y30845926D01*
X76832042Y30853893D01*
X76801701Y31025962D01*
X76784669Y31122555D01*
X76697868Y31389703D01*
X76574731Y31642170D01*
X76572276Y31645809D01*
X76572273Y31645815D01*
X76492006Y31764815D01*
X76417656Y31875044D01*
X76229700Y32083790D01*
X76014521Y32264347D01*
X75776307Y32413199D01*
X75519696Y32527450D01*
X75249681Y32604875D01*
X75245331Y32605486D01*
X75245328Y32605487D01*
X75142381Y32619955D01*
X74971519Y32643968D01*
X74760925Y32643968D01*
X74758739Y32643815D01*
X74758735Y32643815D01*
X74555244Y32629586D01*
X74555239Y32629585D01*
X74550859Y32629279D01*
X74276101Y32570877D01*
X74271972Y32569374D01*
X74271968Y32569373D01*
X74016290Y32476314D01*
X74016286Y32476312D01*
X74012145Y32474805D01*
X73764129Y32342932D01*
X73760570Y32340346D01*
X73760568Y32340345D01*
X73574112Y32204877D01*
X73536879Y32177826D01*
X73334819Y31982699D01*
X73161883Y31761350D01*
X73159687Y31757546D01*
X73159682Y31757539D01*
X73085671Y31629347D01*
X73021435Y31518087D01*
X72916209Y31257644D01*
X72915144Y31253371D01*
X72915143Y31253369D01*
X72881450Y31118232D01*
X72848254Y30985092D01*
X72847795Y30980724D01*
X72847794Y30980719D01*
X72834082Y30850256D01*
X72818893Y30705735D01*
X-72997461Y30705735D01*
X-72997472Y30706061D01*
X-72997473Y30706067D01*
X-72997626Y30710458D01*
X-73021393Y30845251D01*
X-73045641Y30982764D01*
X-73046403Y30987087D01*
X-73133204Y31254235D01*
X-73256341Y31506702D01*
X-73258796Y31510341D01*
X-73258799Y31510347D01*
X-73350174Y31645815D01*
X-73413416Y31739576D01*
X-73601372Y31948322D01*
X-73816551Y32128879D01*
X-74054765Y32277731D01*
X-74311376Y32391982D01*
X-74581391Y32469407D01*
X-74585741Y32470018D01*
X-74585744Y32470019D01*
X-74688691Y32484487D01*
X-74859553Y32508500D01*
X-75070147Y32508500D01*
X-75072333Y32508347D01*
X-75072337Y32508347D01*
X-75275828Y32494118D01*
X-75275833Y32494117D01*
X-75280213Y32493811D01*
X-75554971Y32435409D01*
X-75559100Y32433906D01*
X-75559104Y32433905D01*
X-75814782Y32340846D01*
X-75814786Y32340844D01*
X-75818927Y32339337D01*
X-76066943Y32207464D01*
X-76070502Y32204878D01*
X-76070504Y32204877D01*
X-76241656Y32080528D01*
X-76294193Y32042358D01*
X-76496253Y31847231D01*
X-76580362Y31739576D01*
X-76656463Y31642170D01*
X-76669189Y31625882D01*
X-76671385Y31622078D01*
X-76671390Y31622071D01*
X-76785207Y31424933D01*
X-76809637Y31382619D01*
X-76914863Y31122176D01*
X-76915928Y31117903D01*
X-76915929Y31117901D01*
X-76950132Y30980719D01*
X-76982818Y30849624D01*
X-77012179Y30570267D01*
X-94000000Y30570267D01*
X-94000000Y55433333D01*
X89686496Y55433333D01*
X89706458Y55243405D01*
X89765473Y55061777D01*
X89860960Y54896389D01*
X89988747Y54754467D01*
X90143248Y54642215D01*
X90149276Y54639531D01*
X90149278Y54639530D01*
X90311681Y54567224D01*
X90317712Y54564539D01*
X90411112Y54544686D01*
X90498056Y54526205D01*
X90498061Y54526205D01*
X90504513Y54524833D01*
X90695487Y54524833D01*
X90701939Y54526205D01*
X90701944Y54526205D01*
X90788888Y54544686D01*
X90882288Y54564539D01*
X90888319Y54567224D01*
X91050722Y54639530D01*
X91050724Y54639531D01*
X91056752Y54642215D01*
X91211253Y54754467D01*
X91339040Y54896389D01*
X91434527Y55061777D01*
X91493542Y55243405D01*
X91513504Y55433333D01*
X91493542Y55623261D01*
X91434527Y55804889D01*
X91339040Y55970277D01*
X91265863Y56051548D01*
X91235147Y56115554D01*
X91233500Y56135857D01*
X91233500Y71464147D01*
X91253502Y71532268D01*
X91265858Y71548450D01*
X91339040Y71629727D01*
X91434527Y71795115D01*
X91493542Y71976743D01*
X91513504Y72166671D01*
X91493542Y72356599D01*
X91434527Y72538227D01*
X91339040Y72703615D01*
X91211253Y72845537D01*
X91056752Y72957789D01*
X91050724Y72960473D01*
X91050722Y72960474D01*
X90888319Y73032780D01*
X90888318Y73032780D01*
X90882288Y73035465D01*
X90788887Y73055318D01*
X90701944Y73073799D01*
X90701939Y73073799D01*
X90695487Y73075171D01*
X90504513Y73075171D01*
X90498061Y73073799D01*
X90498056Y73073799D01*
X90411113Y73055318D01*
X90317712Y73035465D01*
X90311682Y73032780D01*
X90311681Y73032780D01*
X90149278Y72960474D01*
X90149276Y72960473D01*
X90143248Y72957789D01*
X89988747Y72845537D01*
X89860960Y72703615D01*
X89765473Y72538227D01*
X89706458Y72356599D01*
X89686496Y72166671D01*
X89706458Y71976743D01*
X89765473Y71795115D01*
X89860960Y71629727D01*
X89934137Y71548456D01*
X89964853Y71484450D01*
X89966500Y71464147D01*
X89966500Y56135857D01*
X89946498Y56067736D01*
X89934142Y56051554D01*
X89860960Y55970277D01*
X89765473Y55804889D01*
X89706458Y55623261D01*
X89686496Y55433333D01*
X-94000000Y55433333D01*
X-94000000Y63903601D01*
X-77012179Y63903601D01*
X-77002376Y63622876D01*
X-77001614Y63618553D01*
X-77001613Y63618546D01*
X-76977837Y63483710D01*
X-76953599Y63346247D01*
X-76866798Y63079099D01*
X-76743661Y62826632D01*
X-76741206Y62822993D01*
X-76741203Y62822987D01*
X-76668111Y62714624D01*
X-76586586Y62593758D01*
X-76398630Y62385012D01*
X-76183451Y62204455D01*
X-75945237Y62055603D01*
X-75688626Y61941352D01*
X-75418611Y61863927D01*
X-75414261Y61863316D01*
X-75414258Y61863315D01*
X-75311311Y61848847D01*
X-75140449Y61824834D01*
X-74929855Y61824834D01*
X-74927669Y61824987D01*
X-74927665Y61824987D01*
X-74724174Y61839216D01*
X-74724169Y61839217D01*
X-74719789Y61839523D01*
X-74445031Y61897925D01*
X-74440902Y61899428D01*
X-74440898Y61899429D01*
X-74185220Y61992488D01*
X-74185216Y61992490D01*
X-74181075Y61993997D01*
X-73933059Y62125870D01*
X-73828105Y62202123D01*
X-73709372Y62288387D01*
X-73709369Y62288390D01*
X-73705809Y62290976D01*
X-73503749Y62486103D01*
X-73330813Y62707452D01*
X-73328617Y62711256D01*
X-73328612Y62711263D01*
X-73192566Y62946903D01*
X-73190365Y62950715D01*
X-73085139Y63211158D01*
X-73051457Y63346247D01*
X-73018248Y63479441D01*
X-73018247Y63479446D01*
X-73017184Y63483710D01*
X-72987823Y63763067D01*
X-72992730Y63903601D01*
X-43678845Y63903601D01*
X-43669042Y63622876D01*
X-43668280Y63618553D01*
X-43668279Y63618546D01*
X-43644503Y63483710D01*
X-43620265Y63346247D01*
X-43533464Y63079099D01*
X-43410327Y62826632D01*
X-43407872Y62822993D01*
X-43407869Y62822987D01*
X-43334777Y62714624D01*
X-43253252Y62593758D01*
X-43065296Y62385012D01*
X-42850117Y62204455D01*
X-42611903Y62055603D01*
X-42355292Y61941352D01*
X-42085277Y61863927D01*
X-42080927Y61863316D01*
X-42080924Y61863315D01*
X-41977977Y61848847D01*
X-41807115Y61824834D01*
X-41596521Y61824834D01*
X-41594335Y61824987D01*
X-41594331Y61824987D01*
X-41390840Y61839216D01*
X-41390835Y61839217D01*
X-41386455Y61839523D01*
X-41111697Y61897925D01*
X-41107568Y61899428D01*
X-41107564Y61899429D01*
X-40851886Y61992488D01*
X-40851882Y61992490D01*
X-40847741Y61993997D01*
X-40599725Y62125870D01*
X-40494771Y62202123D01*
X-40376038Y62288387D01*
X-40376035Y62288390D01*
X-40372475Y62290976D01*
X-40170415Y62486103D01*
X-39997479Y62707452D01*
X-39995283Y62711256D01*
X-39995278Y62711263D01*
X-39859232Y62946903D01*
X-39857031Y62950715D01*
X-39751805Y63211158D01*
X-39718123Y63346247D01*
X-39684914Y63479441D01*
X-39684913Y63479446D01*
X-39683850Y63483710D01*
X-39654489Y63763067D01*
X-39659396Y63903601D01*
X39654490Y63903601D01*
X39664293Y63622876D01*
X39665055Y63618553D01*
X39665056Y63618546D01*
X39688832Y63483710D01*
X39713070Y63346247D01*
X39799871Y63079099D01*
X39923008Y62826632D01*
X39925463Y62822993D01*
X39925466Y62822987D01*
X39998558Y62714624D01*
X40080083Y62593758D01*
X40268039Y62385012D01*
X40483218Y62204455D01*
X40721432Y62055603D01*
X40978043Y61941352D01*
X41248058Y61863927D01*
X41252408Y61863316D01*
X41252411Y61863315D01*
X41355358Y61848847D01*
X41526220Y61824834D01*
X41736814Y61824834D01*
X41739000Y61824987D01*
X41739004Y61824987D01*
X41942495Y61839216D01*
X41942500Y61839217D01*
X41946880Y61839523D01*
X42221638Y61897925D01*
X42225767Y61899428D01*
X42225771Y61899429D01*
X42481449Y61992488D01*
X42481453Y61992490D01*
X42485594Y61993997D01*
X42733610Y62125870D01*
X42838564Y62202123D01*
X42957297Y62288387D01*
X42957300Y62288390D01*
X42960860Y62290976D01*
X43162920Y62486103D01*
X43335856Y62707452D01*
X43338052Y62711256D01*
X43338057Y62711263D01*
X43474103Y62946903D01*
X43476304Y62950715D01*
X43581530Y63211158D01*
X43615212Y63346247D01*
X43648421Y63479441D01*
X43648422Y63479446D01*
X43649485Y63483710D01*
X43678846Y63763067D01*
X43673939Y63903601D01*
X72818893Y63903601D01*
X72828696Y63622876D01*
X72829458Y63618553D01*
X72829459Y63618546D01*
X72853235Y63483710D01*
X72877473Y63346247D01*
X72964274Y63079099D01*
X73087411Y62826632D01*
X73089866Y62822993D01*
X73089869Y62822987D01*
X73162961Y62714624D01*
X73244486Y62593758D01*
X73432442Y62385012D01*
X73647621Y62204455D01*
X73885835Y62055603D01*
X74142446Y61941352D01*
X74412461Y61863927D01*
X74416811Y61863316D01*
X74416814Y61863315D01*
X74519761Y61848847D01*
X74690623Y61824834D01*
X74901217Y61824834D01*
X74903403Y61824987D01*
X74903407Y61824987D01*
X75106898Y61839216D01*
X75106903Y61839217D01*
X75111283Y61839523D01*
X75386041Y61897925D01*
X75390170Y61899428D01*
X75390174Y61899429D01*
X75645852Y61992488D01*
X75645856Y61992490D01*
X75649997Y61993997D01*
X75898013Y62125870D01*
X76002967Y62202123D01*
X76121700Y62288387D01*
X76121703Y62288390D01*
X76125263Y62290976D01*
X76327323Y62486103D01*
X76500259Y62707452D01*
X76502455Y62711256D01*
X76502460Y62711263D01*
X76638506Y62946903D01*
X76640707Y62950715D01*
X76745933Y63211158D01*
X76779615Y63346247D01*
X76812824Y63479441D01*
X76812825Y63479446D01*
X76813888Y63483710D01*
X76843249Y63763067D01*
X76833446Y64043792D01*
X76809679Y64178585D01*
X76785431Y64316098D01*
X76784669Y64320421D01*
X76697868Y64587569D01*
X76574731Y64840036D01*
X76572276Y64843675D01*
X76572273Y64843681D01*
X76492006Y64962681D01*
X76417656Y65072910D01*
X76229700Y65281656D01*
X76014521Y65462213D01*
X75776307Y65611065D01*
X75519696Y65725316D01*
X75249681Y65802741D01*
X75245331Y65803352D01*
X75245328Y65803353D01*
X75142381Y65817821D01*
X74971519Y65841834D01*
X74760925Y65841834D01*
X74758739Y65841681D01*
X74758735Y65841681D01*
X74555244Y65827452D01*
X74555239Y65827451D01*
X74550859Y65827145D01*
X74276101Y65768743D01*
X74271972Y65767240D01*
X74271968Y65767239D01*
X74016290Y65674180D01*
X74016286Y65674178D01*
X74012145Y65672671D01*
X73764129Y65540798D01*
X73760570Y65538212D01*
X73760568Y65538211D01*
X73655966Y65462213D01*
X73536879Y65375692D01*
X73334819Y65180565D01*
X73161883Y64959216D01*
X73159687Y64955412D01*
X73159682Y64955405D01*
X73045865Y64758267D01*
X73021435Y64715953D01*
X72916209Y64455510D01*
X72915144Y64451237D01*
X72915143Y64451235D01*
X72881450Y64316098D01*
X72848254Y64182958D01*
X72818893Y63903601D01*
X43673939Y63903601D01*
X43669043Y64043792D01*
X43645276Y64178585D01*
X43621028Y64316098D01*
X43620266Y64320421D01*
X43533465Y64587569D01*
X43410328Y64840036D01*
X43407873Y64843675D01*
X43407870Y64843681D01*
X43327603Y64962681D01*
X43253253Y65072910D01*
X43065297Y65281656D01*
X42850118Y65462213D01*
X42611904Y65611065D01*
X42355293Y65725316D01*
X42085278Y65802741D01*
X42080928Y65803352D01*
X42080925Y65803353D01*
X41977978Y65817821D01*
X41807116Y65841834D01*
X41596522Y65841834D01*
X41594336Y65841681D01*
X41594332Y65841681D01*
X41390841Y65827452D01*
X41390836Y65827451D01*
X41386456Y65827145D01*
X41111698Y65768743D01*
X41107569Y65767240D01*
X41107565Y65767239D01*
X40851887Y65674180D01*
X40851883Y65674178D01*
X40847742Y65672671D01*
X40599726Y65540798D01*
X40596167Y65538212D01*
X40596165Y65538211D01*
X40491563Y65462213D01*
X40372476Y65375692D01*
X40170416Y65180565D01*
X39997480Y64959216D01*
X39995284Y64955412D01*
X39995279Y64955405D01*
X39881462Y64758267D01*
X39857032Y64715953D01*
X39751806Y64455510D01*
X39750741Y64451237D01*
X39750740Y64451235D01*
X39717047Y64316098D01*
X39683851Y64182958D01*
X39654490Y63903601D01*
X-39659396Y63903601D01*
X-39664292Y64043792D01*
X-39688059Y64178585D01*
X-39712307Y64316098D01*
X-39713069Y64320421D01*
X-39799870Y64587569D01*
X-39923007Y64840036D01*
X-39925462Y64843675D01*
X-39925465Y64843681D01*
X-40005732Y64962681D01*
X-40080082Y65072910D01*
X-40268038Y65281656D01*
X-40483217Y65462213D01*
X-40721431Y65611065D01*
X-40978042Y65725316D01*
X-41248057Y65802741D01*
X-41252407Y65803352D01*
X-41252410Y65803353D01*
X-41355357Y65817821D01*
X-41526219Y65841834D01*
X-41736813Y65841834D01*
X-41738999Y65841681D01*
X-41739003Y65841681D01*
X-41942494Y65827452D01*
X-41942499Y65827451D01*
X-41946879Y65827145D01*
X-42221637Y65768743D01*
X-42225766Y65767240D01*
X-42225770Y65767239D01*
X-42481448Y65674180D01*
X-42481452Y65674178D01*
X-42485593Y65672671D01*
X-42733609Y65540798D01*
X-42737168Y65538212D01*
X-42737170Y65538211D01*
X-42841772Y65462213D01*
X-42960859Y65375692D01*
X-43162919Y65180565D01*
X-43335855Y64959216D01*
X-43338051Y64955412D01*
X-43338056Y64955405D01*
X-43451873Y64758267D01*
X-43476303Y64715953D01*
X-43581529Y64455510D01*
X-43582594Y64451237D01*
X-43582595Y64451235D01*
X-43616288Y64316098D01*
X-43649484Y64182958D01*
X-43678845Y63903601D01*
X-72992730Y63903601D01*
X-72997626Y64043792D01*
X-73021393Y64178585D01*
X-73045641Y64316098D01*
X-73046403Y64320421D01*
X-73133204Y64587569D01*
X-73256341Y64840036D01*
X-73258796Y64843675D01*
X-73258799Y64843681D01*
X-73339066Y64962681D01*
X-73413416Y65072910D01*
X-73601372Y65281656D01*
X-73816551Y65462213D01*
X-74054765Y65611065D01*
X-74311376Y65725316D01*
X-74581391Y65802741D01*
X-74585741Y65803352D01*
X-74585744Y65803353D01*
X-74688691Y65817821D01*
X-74859553Y65841834D01*
X-75070147Y65841834D01*
X-75072333Y65841681D01*
X-75072337Y65841681D01*
X-75275828Y65827452D01*
X-75275833Y65827451D01*
X-75280213Y65827145D01*
X-75554971Y65768743D01*
X-75559100Y65767240D01*
X-75559104Y65767239D01*
X-75814782Y65674180D01*
X-75814786Y65674178D01*
X-75818927Y65672671D01*
X-76066943Y65540798D01*
X-76070502Y65538212D01*
X-76070504Y65538211D01*
X-76175106Y65462213D01*
X-76294193Y65375692D01*
X-76496253Y65180565D01*
X-76669189Y64959216D01*
X-76671385Y64955412D01*
X-76671390Y64955405D01*
X-76785207Y64758267D01*
X-76809637Y64715953D01*
X-76914863Y64455510D01*
X-76915928Y64451237D01*
X-76915929Y64451235D01*
X-76949622Y64316098D01*
X-76982818Y64182958D01*
X-77012179Y63903601D01*
X-94000000Y63903601D01*
X-94000000Y78134000D01*
X-93979998Y78202121D01*
X-93926342Y78248614D01*
X-93874000Y78260000D01*
X-83870000Y78260000D01*
X-83870000Y82079351D01*
X-83849998Y82147472D01*
X-83796342Y82193965D01*
X-83726068Y82204069D01*
X-83669939Y82181287D01*
X-83616161Y82142215D01*
X-83581752Y82117215D01*
X-83575724Y82114531D01*
X-83575722Y82114530D01*
X-83460358Y82063167D01*
X-83407288Y82039539D01*
X-83313888Y82019686D01*
X-83226944Y82001205D01*
X-83226939Y82001205D01*
X-83220487Y81999833D01*
X-83029513Y81999833D01*
X-83023061Y82001205D01*
X-83023056Y82001205D01*
X-82936112Y82019686D01*
X-82842712Y82039539D01*
X-82789642Y82063167D01*
X-82674278Y82114530D01*
X-82674276Y82114531D01*
X-82668248Y82117215D01*
X-82633838Y82142215D01*
X-82562611Y82193965D01*
X-82513747Y82229467D01*
X-82385960Y82371389D01*
X-82290473Y82536777D01*
X-82231458Y82718405D01*
X-82231357Y82719362D01*
X-82198626Y82779994D01*
X-82136477Y82814317D01*
X-82065638Y82809591D01*
X-82008599Y82767317D01*
X-81989272Y82730263D01*
X-81934527Y82561777D01*
X-81839040Y82396389D01*
X-81834622Y82391482D01*
X-81834621Y82391481D01*
X-81816530Y82371389D01*
X-81711253Y82254467D01*
X-81556752Y82142215D01*
X-81550724Y82139531D01*
X-81550722Y82139530D01*
X-81388319Y82067224D01*
X-81382288Y82064539D01*
X-81288887Y82044686D01*
X-81201944Y82026205D01*
X-81201939Y82026205D01*
X-81195487Y82024833D01*
X-81139594Y82024833D01*
X-81071473Y82004831D01*
X-81050499Y81987928D01*
X-79528657Y80466086D01*
X-79521113Y80457796D01*
X-79517000Y80451315D01*
X-79511223Y80445890D01*
X-79467333Y80404675D01*
X-79464491Y80401920D01*
X-79444770Y80382199D01*
X-79441575Y80379721D01*
X-79432553Y80372015D01*
X-79400321Y80341747D01*
X-79393372Y80337927D01*
X-79382568Y80331987D01*
X-79366044Y80321134D01*
X-79350041Y80308720D01*
X-79309457Y80291157D01*
X-79298827Y80285950D01*
X-79260060Y80264638D01*
X-79252383Y80262667D01*
X-79252378Y80262665D01*
X-79240442Y80259601D01*
X-79221734Y80253196D01*
X-79203145Y80245152D01*
X-79195317Y80243912D01*
X-79195310Y80243910D01*
X-79159476Y80238234D01*
X-79147856Y80235828D01*
X-79112711Y80226805D01*
X-79105030Y80224833D01*
X-79084776Y80224833D01*
X-79065066Y80223282D01*
X-79045057Y80220113D01*
X-79037165Y80220859D01*
X-79001039Y80224274D01*
X-78989181Y80224833D01*
X-62361405Y80224833D01*
X-62293284Y80204831D01*
X-62287344Y80200769D01*
X-62206752Y80142215D01*
X-62200724Y80139531D01*
X-62200722Y80139530D01*
X-62038319Y80067224D01*
X-62032288Y80064539D01*
X-61938887Y80044686D01*
X-61851944Y80026205D01*
X-61851939Y80026205D01*
X-61845487Y80024833D01*
X-61654513Y80024833D01*
X-61648061Y80026205D01*
X-61648056Y80026205D01*
X-61561113Y80044686D01*
X-61467712Y80064539D01*
X-61461681Y80067224D01*
X-61299278Y80139530D01*
X-61299276Y80139531D01*
X-61293248Y80142215D01*
X-61138747Y80254467D01*
X-61123983Y80270864D01*
X-61015379Y80391481D01*
X-61015378Y80391482D01*
X-61010960Y80396389D01*
X-60915473Y80561777D01*
X-60856458Y80743405D01*
X-60844379Y80858333D01*
X-54263504Y80858333D01*
X-54243542Y80668405D01*
X-54184527Y80486777D01*
X-54181224Y80481055D01*
X-54181223Y80481054D01*
X-54164053Y80451315D01*
X-54089040Y80321389D01*
X-54084622Y80316482D01*
X-54084621Y80316481D01*
X-53980045Y80200338D01*
X-53961253Y80179467D01*
X-53806752Y80067215D01*
X-53800724Y80064531D01*
X-53800722Y80064530D01*
X-53714642Y80026205D01*
X-53632288Y79989539D01*
X-53538888Y79969686D01*
X-53451944Y79951205D01*
X-53451939Y79951205D01*
X-53445487Y79949833D01*
X-53254513Y79949833D01*
X-53248061Y79951205D01*
X-53248056Y79951205D01*
X-53161112Y79969686D01*
X-53067712Y79989539D01*
X-52985358Y80026205D01*
X-52899278Y80064530D01*
X-52899276Y80064531D01*
X-52893248Y80067215D01*
X-52743837Y80175769D01*
X-52676969Y80199627D01*
X-52669776Y80199833D01*
X-9239433Y80199833D01*
X-9228250Y80199306D01*
X-9220757Y80197631D01*
X-9212831Y80197880D01*
X-9212830Y80197880D01*
X-9152680Y80199771D01*
X-9148721Y80199833D01*
X-9120810Y80199833D01*
X-9116875Y80200330D01*
X-9116810Y80200338D01*
X-9104973Y80201271D01*
X-9072715Y80202285D01*
X-9068696Y80202411D01*
X-9060777Y80202660D01*
X-9041323Y80208312D01*
X-9021966Y80212320D01*
X-9009736Y80213865D01*
X-9009735Y80213865D01*
X-9001869Y80214859D01*
X-8994498Y80217778D01*
X-8994496Y80217778D01*
X-8960754Y80231137D01*
X-8949524Y80234982D01*
X-8914683Y80245104D01*
X-8914682Y80245104D01*
X-8907073Y80247315D01*
X-8900254Y80251348D01*
X-8900249Y80251350D01*
X-8889638Y80257626D01*
X-8871890Y80266321D01*
X-8853049Y80273781D01*
X-8817279Y80299769D01*
X-8807359Y80306285D01*
X-8776131Y80324753D01*
X-8776128Y80324755D01*
X-8769304Y80328791D01*
X-8754983Y80343112D01*
X-8739949Y80355953D01*
X-8729972Y80363202D01*
X-8723559Y80367861D01*
X-8695368Y80401938D01*
X-8687378Y80410717D01*
X-2061757Y87036338D01*
X-1999445Y87070364D01*
X-1940052Y87068950D01*
X-1914021Y87061975D01*
X-1914014Y87061974D01*
X-1908704Y87060551D01*
X-1689333Y87041359D01*
X-1469962Y87060551D01*
X-1257257Y87117546D01*
X-1057679Y87210610D01*
X-994991Y87254505D01*
X1025060Y87254505D01*
X1034354Y87242491D01*
X1074755Y87214202D01*
X1084251Y87208719D01*
X1273780Y87120340D01*
X1284072Y87116594D01*
X1486068Y87062470D01*
X1496863Y87060567D01*
X1705192Y87042340D01*
X1716142Y87042340D01*
X1924471Y87060567D01*
X1935266Y87062470D01*
X2137262Y87116594D01*
X2147554Y87120340D01*
X2337083Y87208719D01*
X2346579Y87214202D01*
X2387815Y87243076D01*
X2396190Y87253554D01*
X2389124Y87266998D01*
X1723478Y87932645D01*
X1709535Y87940258D01*
X1707701Y87940127D01*
X1701087Y87935876D01*
X1031487Y87266275D01*
X1025060Y87254505D01*
X-994991Y87254505D01*
X-922377Y87305350D01*
X-881806Y87333758D01*
X-881804Y87333760D01*
X-877295Y87336917D01*
X-721584Y87492628D01*
X-715969Y87500646D01*
X-598434Y87668504D01*
X-598433Y87668506D01*
X-595277Y87673013D01*
X-592954Y87677995D01*
X-592951Y87678000D01*
X-545637Y87779467D01*
X-502213Y87872590D01*
X-445218Y88085295D01*
X-426505Y88299191D01*
X448341Y88299191D01*
X466568Y88090862D01*
X468471Y88080067D01*
X522595Y87878071D01*
X526341Y87867779D01*
X614721Y87678249D01*
X620201Y87668759D01*
X649078Y87627517D01*
X659554Y87619143D01*
X673001Y87626211D01*
X1338646Y88291855D01*
X1345023Y88303534D01*
X2075075Y88303534D01*
X2075206Y88301700D01*
X2079457Y88295086D01*
X2749058Y87625486D01*
X2760828Y87619059D01*
X2772843Y87628355D01*
X2801133Y87668759D01*
X2806613Y87678249D01*
X2894993Y87867779D01*
X2898739Y87878071D01*
X2945611Y88053001D01*
X79765500Y88053001D01*
X79765749Y88050214D01*
X79765749Y88050208D01*
X79770322Y87998967D01*
X79780383Y87886238D01*
X79781864Y87880824D01*
X79781865Y87880819D01*
X79810654Y87775588D01*
X79839663Y87669549D01*
X79842075Y87664491D01*
X79842077Y87664487D01*
X79866891Y87612464D01*
X79936378Y87466782D01*
X80067471Y87284346D01*
X80099246Y87253554D01*
X80210778Y87145472D01*
X80228799Y87128008D01*
X80415262Y87002710D01*
X80620967Y86912412D01*
X80626418Y86911103D01*
X80626422Y86911102D01*
X80814036Y86866060D01*
X80839411Y86859968D01*
X80923475Y86855121D01*
X81058083Y86847360D01*
X81058086Y86847360D01*
X81063690Y86847037D01*
X81286715Y86874025D01*
X81501435Y86940082D01*
X81506415Y86942652D01*
X81506419Y86942654D01*
X81696081Y87040546D01*
X81696082Y87040546D01*
X81701064Y87043118D01*
X81879292Y87179877D01*
X82030485Y87346036D01*
X82074299Y87415881D01*
X82146885Y87531595D01*
X82149864Y87536344D01*
X82233656Y87744783D01*
X82279213Y87964767D01*
X82282500Y88021775D01*
X82282500Y88307183D01*
X83911514Y88307183D01*
X83912095Y88302163D01*
X83912095Y88302159D01*
X83937188Y88085295D01*
X83939415Y88066044D01*
X83940791Y88061180D01*
X83940792Y88061177D01*
X83979392Y87924769D01*
X84005510Y87832468D01*
X84007644Y87827892D01*
X84007646Y87827886D01*
X84105962Y87617046D01*
X84108099Y87612464D01*
X84244544Y87411693D01*
X84411332Y87235319D01*
X84415358Y87232241D01*
X84415359Y87232240D01*
X84600154Y87090953D01*
X84600158Y87090950D01*
X84604174Y87087880D01*
X84608632Y87085490D01*
X84608633Y87085489D01*
X84687655Y87043118D01*
X84818109Y86973169D01*
X85047631Y86894138D01*
X85146978Y86876978D01*
X85282926Y86853496D01*
X85282932Y86853495D01*
X85286836Y86852821D01*
X85290797Y86852641D01*
X85290798Y86852641D01*
X85314506Y86851564D01*
X85314525Y86851564D01*
X85315925Y86851500D01*
X85485001Y86851500D01*
X85487509Y86851702D01*
X85487514Y86851702D01*
X85660924Y86865654D01*
X85660929Y86865655D01*
X85665965Y86866060D01*
X85670873Y86867266D01*
X85670876Y86867266D01*
X85896792Y86922756D01*
X85901706Y86923963D01*
X85906358Y86925938D01*
X85906362Y86925939D01*
X86120498Y87016835D01*
X86125156Y87018812D01*
X86231037Y87085489D01*
X86326288Y87145472D01*
X86326291Y87145474D01*
X86330567Y87148167D01*
X86429422Y87235319D01*
X86508858Y87305350D01*
X86508861Y87305353D01*
X86512655Y87308698D01*
X86515866Y87312607D01*
X86663526Y87492372D01*
X86663528Y87492375D01*
X86666734Y87496278D01*
X86743605Y87628355D01*
X86786299Y87701710D01*
X86786300Y87701712D01*
X86788841Y87706078D01*
X86820592Y87788793D01*
X86874020Y87927978D01*
X86874021Y87927982D01*
X86875833Y87932702D01*
X86886335Y87982972D01*
X86924440Y88165369D01*
X86924440Y88165373D01*
X86925474Y88170320D01*
X86936486Y88412817D01*
X86935905Y88417841D01*
X86909167Y88648929D01*
X86909166Y88648933D01*
X86908585Y88653956D01*
X86896575Y88696401D01*
X86843866Y88882669D01*
X86842490Y88887532D01*
X86840356Y88892108D01*
X86840354Y88892114D01*
X86742038Y89102954D01*
X86742036Y89102958D01*
X86739901Y89107536D01*
X86712771Y89147457D01*
X86640895Y89253218D01*
X86603456Y89308307D01*
X86436668Y89484681D01*
X86432641Y89487760D01*
X86247846Y89629047D01*
X86247842Y89629050D01*
X86243826Y89632120D01*
X86166711Y89673469D01*
X86034352Y89744439D01*
X86029891Y89746831D01*
X85800369Y89825862D01*
X85680023Y89846649D01*
X85565074Y89866504D01*
X85565068Y89866505D01*
X85561164Y89867179D01*
X85557203Y89867359D01*
X85557202Y89867359D01*
X85533494Y89868436D01*
X85533475Y89868436D01*
X85532075Y89868500D01*
X85362999Y89868500D01*
X85360491Y89868298D01*
X85360486Y89868298D01*
X85187076Y89854346D01*
X85187071Y89854345D01*
X85182035Y89853940D01*
X85177127Y89852734D01*
X85177124Y89852734D01*
X84984141Y89805333D01*
X84946294Y89796037D01*
X84941642Y89794062D01*
X84941638Y89794061D01*
X84834978Y89748786D01*
X84722844Y89701188D01*
X84718560Y89698490D01*
X84521712Y89574528D01*
X84521709Y89574526D01*
X84517433Y89571833D01*
X84491267Y89548765D01*
X84339142Y89414650D01*
X84339139Y89414647D01*
X84335345Y89411302D01*
X84332135Y89407394D01*
X84332134Y89407393D01*
X84218062Y89268518D01*
X84181266Y89223722D01*
X84136879Y89147457D01*
X84071543Y89035199D01*
X84059159Y89013922D01*
X84057346Y89009199D01*
X83990003Y88833762D01*
X83972167Y88787298D01*
X83971133Y88782348D01*
X83971132Y88782345D01*
X83927781Y88574833D01*
X83922526Y88549680D01*
X83911514Y88307183D01*
X82282500Y88307183D01*
X82282500Y88666999D01*
X82281636Y88676687D01*
X82268116Y88828167D01*
X82267617Y88833762D01*
X82254238Y88882669D01*
X82215206Y89025343D01*
X82208337Y89050451D01*
X82205363Y89056688D01*
X82125691Y89223722D01*
X82111622Y89253218D01*
X81980529Y89435654D01*
X81869207Y89543533D01*
X81823229Y89588089D01*
X81823226Y89588091D01*
X81819201Y89591992D01*
X81632738Y89717290D01*
X81427033Y89807588D01*
X81421582Y89808897D01*
X81421578Y89808898D01*
X81214046Y89858722D01*
X81214045Y89858722D01*
X81208589Y89860032D01*
X81124525Y89864879D01*
X80989917Y89872640D01*
X80989914Y89872640D01*
X80984310Y89872963D01*
X80761285Y89845975D01*
X80546565Y89779918D01*
X80541585Y89777348D01*
X80541581Y89777346D01*
X80397858Y89703165D01*
X80346936Y89676882D01*
X80168708Y89540123D01*
X80017515Y89373964D01*
X80014537Y89369217D01*
X80014535Y89369214D01*
X79953814Y89272415D01*
X79898136Y89183656D01*
X79860645Y89090395D01*
X79816660Y88980977D01*
X79814344Y88975217D01*
X79768787Y88755233D01*
X79765500Y88698225D01*
X79765500Y88053001D01*
X2945611Y88053001D01*
X2952863Y88080067D01*
X2954766Y88090862D01*
X2972993Y88299191D01*
X2972993Y88310141D01*
X2954766Y88518470D01*
X2952863Y88529265D01*
X2898739Y88731261D01*
X2894993Y88741553D01*
X2806613Y88931083D01*
X2801133Y88940573D01*
X2772256Y88981815D01*
X2761780Y88990189D01*
X2748333Y88983121D01*
X2082688Y88317477D01*
X2075075Y88303534D01*
X1345023Y88303534D01*
X1346259Y88305798D01*
X1346128Y88307632D01*
X1341877Y88314246D01*
X672276Y88983846D01*
X660506Y88990273D01*
X648491Y88980977D01*
X620201Y88940573D01*
X614721Y88931083D01*
X526341Y88741553D01*
X522595Y88731261D01*
X468471Y88529265D01*
X466568Y88518470D01*
X448341Y88310141D01*
X448341Y88299191D01*
X-426505Y88299191D01*
X-426026Y88304666D01*
X-445218Y88524037D01*
X-502213Y88736742D01*
X-552711Y88845036D01*
X-592951Y88931332D01*
X-592954Y88931337D01*
X-595277Y88936319D01*
X-598434Y88940828D01*
X-718425Y89112193D01*
X-718427Y89112196D01*
X-721584Y89116704D01*
X-877295Y89272415D01*
X-893365Y89283668D01*
X-994991Y89354827D01*
X-996351Y89355779D01*
X1025144Y89355779D01*
X1032212Y89342332D01*
X1697856Y88676687D01*
X1711799Y88669074D01*
X1713633Y88669205D01*
X1720247Y88673456D01*
X2389847Y89343057D01*
X2396274Y89354827D01*
X2386980Y89366841D01*
X2346579Y89395130D01*
X2337083Y89400613D01*
X2147554Y89488992D01*
X2137262Y89492738D01*
X1935266Y89546862D01*
X1924471Y89548765D01*
X1716142Y89566992D01*
X1705192Y89566992D01*
X1496863Y89548765D01*
X1486068Y89546862D01*
X1284072Y89492738D01*
X1273780Y89488992D01*
X1084250Y89400612D01*
X1074760Y89395132D01*
X1033518Y89366255D01*
X1025144Y89355779D01*
X-996351Y89355779D01*
X-1057679Y89398722D01*
X-1257257Y89491786D01*
X-1469962Y89548781D01*
X-1689333Y89567973D01*
X-1908704Y89548781D01*
X-2121409Y89491786D01*
X-2214771Y89448251D01*
X-2315999Y89401048D01*
X-2316004Y89401045D01*
X-2320986Y89398722D01*
X-2325493Y89395566D01*
X-2325495Y89395565D01*
X-2496860Y89275574D01*
X-2496863Y89275572D01*
X-2501371Y89272415D01*
X-2657082Y89116704D01*
X-2660239Y89112196D01*
X-2660241Y89112193D01*
X-2780232Y88940828D01*
X-2783389Y88936319D01*
X-2785712Y88931337D01*
X-2785715Y88931332D01*
X-2825955Y88845036D01*
X-2876453Y88736742D01*
X-2933448Y88524037D01*
X-2952640Y88304666D01*
X-2933448Y88085295D01*
X-2932025Y88079985D01*
X-2932024Y88079981D01*
X-2925049Y88053949D01*
X-2926739Y87982972D01*
X-2957661Y87932243D01*
X-9386166Y81503738D01*
X-9448478Y81469712D01*
X-9475261Y81466833D01*
X-52619290Y81466833D01*
X-52687411Y81486835D01*
X-52712926Y81508522D01*
X-52734332Y81532296D01*
X-52734334Y81532297D01*
X-52738747Y81537199D01*
X-52893248Y81649451D01*
X-52899276Y81652135D01*
X-52899278Y81652136D01*
X-53061681Y81724442D01*
X-53061682Y81724442D01*
X-53067712Y81727127D01*
X-53161112Y81746980D01*
X-53248056Y81765461D01*
X-53248061Y81765461D01*
X-53254513Y81766833D01*
X-53445487Y81766833D01*
X-53451939Y81765461D01*
X-53451944Y81765461D01*
X-53538888Y81746980D01*
X-53632288Y81727127D01*
X-53638318Y81724442D01*
X-53638319Y81724442D01*
X-53800722Y81652136D01*
X-53800724Y81652135D01*
X-53806752Y81649451D01*
X-53961253Y81537199D01*
X-53965674Y81532289D01*
X-53965675Y81532288D01*
X-54022018Y81469712D01*
X-54089040Y81395277D01*
X-54184527Y81229889D01*
X-54243542Y81048261D01*
X-54263504Y80858333D01*
X-60844379Y80858333D01*
X-60836496Y80933333D01*
X-60856458Y81123261D01*
X-60915473Y81304889D01*
X-61010960Y81470277D01*
X-61138747Y81612199D01*
X-61293248Y81724451D01*
X-61299276Y81727135D01*
X-61299278Y81727136D01*
X-61461681Y81799442D01*
X-61461682Y81799442D01*
X-61467712Y81802127D01*
X-61561113Y81821980D01*
X-61648056Y81840461D01*
X-61648061Y81840461D01*
X-61654513Y81841833D01*
X-61845487Y81841833D01*
X-61851939Y81840461D01*
X-61851944Y81840461D01*
X-61938887Y81821980D01*
X-62032288Y81802127D01*
X-62038318Y81799442D01*
X-62038319Y81799442D01*
X-62200722Y81727136D01*
X-62200724Y81727135D01*
X-62206752Y81724451D01*
X-62361253Y81612199D01*
X-62425290Y81541078D01*
X-62432093Y81533523D01*
X-62492539Y81496283D01*
X-62525729Y81491833D01*
X-78710405Y81491833D01*
X-78778526Y81511835D01*
X-78799501Y81528738D01*
X-79081747Y81810985D01*
X-79115772Y81873297D01*
X-79110707Y81944113D01*
X-79068160Y82000948D01*
X-79007237Y82024833D01*
X-79004513Y82024833D01*
X-78817712Y82064539D01*
X-78811681Y82067224D01*
X-78649278Y82139530D01*
X-78649276Y82139531D01*
X-78643248Y82142215D01*
X-78488747Y82254467D01*
X-78383470Y82371389D01*
X-78365379Y82391481D01*
X-78365378Y82391482D01*
X-78360960Y82396389D01*
X-78265473Y82561777D01*
X-78206458Y82743405D01*
X-78189093Y82908627D01*
X-78162080Y82974283D01*
X-78152878Y82984551D01*
X-76574501Y84562928D01*
X-76512189Y84596954D01*
X-76485406Y84599833D01*
X-61258200Y84599833D01*
X-61190079Y84579831D01*
X-61170853Y84563490D01*
X-61170580Y84563793D01*
X-61165668Y84559370D01*
X-61161253Y84554467D01*
X-61006752Y84442215D01*
X-61000724Y84439531D01*
X-61000722Y84439530D01*
X-60838319Y84367224D01*
X-60832288Y84364539D01*
X-60738888Y84344686D01*
X-60651944Y84326205D01*
X-60651939Y84326205D01*
X-60645487Y84324833D01*
X-60454513Y84324833D01*
X-60448061Y84326205D01*
X-60448056Y84326205D01*
X-60361112Y84344686D01*
X-60267712Y84364539D01*
X-60261681Y84367224D01*
X-60099278Y84439530D01*
X-60099276Y84439531D01*
X-60093248Y84442215D01*
X-59938747Y84554467D01*
X-59915909Y84579831D01*
X-59815379Y84691481D01*
X-59815378Y84691482D01*
X-59810960Y84696389D01*
X-59715473Y84861777D01*
X-59656458Y85043405D01*
X-59636496Y85233333D01*
X-59656458Y85423261D01*
X-59715473Y85604889D01*
X-59810960Y85770277D01*
X-59827119Y85788224D01*
X-59934325Y85907288D01*
X-59934326Y85907289D01*
X-59938747Y85912199D01*
X-60093248Y86024451D01*
X-60099276Y86027135D01*
X-60099278Y86027136D01*
X-60261681Y86099442D01*
X-60261682Y86099442D01*
X-60267712Y86102127D01*
X-60361113Y86121980D01*
X-60448056Y86140461D01*
X-60448061Y86140461D01*
X-60454513Y86141833D01*
X-60645487Y86141833D01*
X-60651939Y86140461D01*
X-60651944Y86140461D01*
X-60738887Y86121980D01*
X-60832288Y86102127D01*
X-60838318Y86099442D01*
X-60838319Y86099442D01*
X-61000722Y86027136D01*
X-61000724Y86027135D01*
X-61006752Y86024451D01*
X-61161253Y85912199D01*
X-61165668Y85907296D01*
X-61170580Y85902873D01*
X-61171705Y85904122D01*
X-61225014Y85871282D01*
X-61258200Y85866833D01*
X-76721233Y85866833D01*
X-76732416Y85867360D01*
X-76739909Y85869035D01*
X-76747835Y85868786D01*
X-76747836Y85868786D01*
X-76807986Y85866895D01*
X-76811945Y85866833D01*
X-76839856Y85866833D01*
X-76843790Y85866336D01*
X-76843791Y85866336D01*
X-76843856Y85866328D01*
X-76855693Y85865395D01*
X-76887510Y85864395D01*
X-76891971Y85864255D01*
X-76899890Y85864006D01*
X-76917546Y85858877D01*
X-76919342Y85858355D01*
X-76938694Y85854347D01*
X-76945765Y85853453D01*
X-76958797Y85851807D01*
X-76966166Y85848890D01*
X-76966168Y85848889D01*
X-76999903Y85835533D01*
X-77011131Y85831688D01*
X-77053593Y85819351D01*
X-77060415Y85815317D01*
X-77060421Y85815314D01*
X-77071032Y85809039D01*
X-77088782Y85800343D01*
X-77100244Y85795805D01*
X-77100249Y85795802D01*
X-77107617Y85792885D01*
X-77114032Y85788224D01*
X-77143375Y85766906D01*
X-77153293Y85760390D01*
X-77171981Y85749338D01*
X-77191363Y85737875D01*
X-77205687Y85723551D01*
X-77220719Y85710712D01*
X-77237107Y85698805D01*
X-77265288Y85664740D01*
X-77273278Y85655960D01*
X-79050500Y83878738D01*
X-79112812Y83844712D01*
X-79139595Y83841833D01*
X-79195487Y83841833D01*
X-79201939Y83840461D01*
X-79201944Y83840461D01*
X-79288887Y83821980D01*
X-79382288Y83802127D01*
X-79388318Y83799442D01*
X-79388319Y83799442D01*
X-79550722Y83727136D01*
X-79550724Y83727135D01*
X-79556752Y83724451D01*
X-79562093Y83720571D01*
X-79562094Y83720570D01*
X-79596503Y83695570D01*
X-79711253Y83612199D01*
X-79839040Y83470277D01*
X-79934527Y83304889D01*
X-79936568Y83298607D01*
X-79980167Y83164424D01*
X-80020241Y83105819D01*
X-80085637Y83078182D01*
X-80155594Y83090289D01*
X-80207900Y83138295D01*
X-80219833Y83164424D01*
X-80263432Y83298607D01*
X-80265473Y83304889D01*
X-80360960Y83470277D01*
X-80488747Y83612199D01*
X-80603497Y83695570D01*
X-80637906Y83720570D01*
X-80637907Y83720571D01*
X-80643248Y83724451D01*
X-80649276Y83727135D01*
X-80649278Y83727136D01*
X-80811681Y83799442D01*
X-80811682Y83799442D01*
X-80817712Y83802127D01*
X-81004513Y83841833D01*
X-81007176Y83841833D01*
X-81071481Y83868292D01*
X-81112110Y83926514D01*
X-81114811Y83997459D01*
X-81081747Y84055682D01*
X-77349501Y87787928D01*
X-77287189Y87821954D01*
X-77260406Y87824833D01*
X-61258200Y87824833D01*
X-61190079Y87804831D01*
X-61170853Y87788490D01*
X-61170580Y87788793D01*
X-61165668Y87784370D01*
X-61161253Y87779467D01*
X-61155914Y87775588D01*
X-61014732Y87673013D01*
X-61006752Y87667215D01*
X-61000724Y87664531D01*
X-61000722Y87664530D01*
X-60894070Y87617046D01*
X-60832288Y87589539D01*
X-60738887Y87569686D01*
X-60651944Y87551205D01*
X-60651939Y87551205D01*
X-60645487Y87549833D01*
X-60454513Y87549833D01*
X-60448061Y87551205D01*
X-60448056Y87551205D01*
X-60361113Y87569686D01*
X-60267712Y87589539D01*
X-60205930Y87617046D01*
X-60099278Y87664530D01*
X-60099276Y87664531D01*
X-60093248Y87667215D01*
X-60085267Y87673013D01*
X-59944086Y87775588D01*
X-59938747Y87779467D01*
X-59934332Y87784370D01*
X-59929420Y87788793D01*
X-59928295Y87787544D01*
X-59874986Y87820384D01*
X-59841800Y87824833D01*
X-56228767Y87824833D01*
X-56217584Y87824306D01*
X-56210091Y87822631D01*
X-56202165Y87822880D01*
X-56202164Y87822880D01*
X-56142014Y87824771D01*
X-56138055Y87824833D01*
X-56110144Y87824833D01*
X-56106209Y87825330D01*
X-56106144Y87825338D01*
X-56094307Y87826271D01*
X-56062049Y87827285D01*
X-56058030Y87827411D01*
X-56050111Y87827660D01*
X-56030657Y87833312D01*
X-56011300Y87837320D01*
X-55999070Y87838865D01*
X-55999069Y87838865D01*
X-55991203Y87839859D01*
X-55983832Y87842778D01*
X-55983830Y87842778D01*
X-55950088Y87856137D01*
X-55938858Y87859982D01*
X-55904017Y87870104D01*
X-55904016Y87870104D01*
X-55896407Y87872315D01*
X-55889588Y87876348D01*
X-55889583Y87876350D01*
X-55878972Y87882626D01*
X-55861224Y87891321D01*
X-55842383Y87898781D01*
X-55806613Y87924769D01*
X-55796693Y87931285D01*
X-55765465Y87949753D01*
X-55765462Y87949755D01*
X-55758638Y87953791D01*
X-55744317Y87968112D01*
X-55729283Y87980953D01*
X-55726504Y87982972D01*
X-55712893Y87992861D01*
X-55684702Y88026938D01*
X-55676712Y88035717D01*
X-55107336Y88605093D01*
X-55045024Y88639119D01*
X-54974209Y88634054D01*
X-54972358Y88633207D01*
X-54971705Y88632718D01*
X-54969393Y88631851D01*
X-54969388Y88631849D01*
X-54890141Y88602141D01*
X-54835316Y88581588D01*
X-54773134Y88574833D01*
X-52976866Y88574833D01*
X-52914684Y88581588D01*
X-52778295Y88632718D01*
X-52661739Y88720072D01*
X-52574385Y88836628D01*
X-52523255Y88973017D01*
X-52516500Y89035199D01*
X-52516500Y90831467D01*
X-52523255Y90893649D01*
X-52574385Y91030038D01*
X-52661739Y91146594D01*
X-52778295Y91233948D01*
X-52859872Y91264530D01*
X-52897313Y91278566D01*
X-52954077Y91321208D01*
X-52978777Y91387769D01*
X-52963570Y91457118D01*
X-52942023Y91485798D01*
X-52840948Y91586521D01*
X-52834270Y91594368D01*
X-52709997Y91767313D01*
X-52704687Y91776150D01*
X-52610330Y91967066D01*
X-52606531Y91976661D01*
X-52544623Y92180423D01*
X-52542445Y92190496D01*
X-52541014Y92201371D01*
X-52543225Y92215555D01*
X-52556383Y92219333D01*
X-54003000Y92219333D01*
X-54071121Y92239335D01*
X-54117614Y92292991D01*
X-54129000Y92345333D01*
X-54129000Y92601333D01*
X-54108998Y92669454D01*
X-54055342Y92715947D01*
X-54003000Y92727333D01*
X-52556656Y92727333D01*
X-52543125Y92731306D01*
X-52541820Y92740386D01*
X-52583786Y92907458D01*
X-52587106Y92917209D01*
X-52672028Y93112519D01*
X-52676895Y93121594D01*
X-52792574Y93300407D01*
X-52798864Y93308576D01*
X-52942194Y93466093D01*
X-52949727Y93473118D01*
X-53116861Y93605111D01*
X-53125444Y93610813D01*
X-53162398Y93631213D01*
X-53212369Y93681646D01*
X-53227141Y93751088D01*
X-53202025Y93817494D01*
X-53174673Y93844101D01*
X-53146938Y93863884D01*
X-52995140Y93972160D01*
X-52836904Y94129844D01*
X-52706547Y94311256D01*
X-52698184Y94328176D01*
X-52609864Y94506880D01*
X-52609863Y94506882D01*
X-52607570Y94511522D01*
X-52542630Y94725264D01*
X-52513471Y94946743D01*
X-52511844Y95013333D01*
X-52530148Y95235972D01*
X-52584569Y95452631D01*
X-52673646Y95657493D01*
X-52794986Y95845056D01*
X-52945330Y96010282D01*
X-52949381Y96013481D01*
X-52949385Y96013485D01*
X-53116586Y96145533D01*
X-53116590Y96145535D01*
X-53120641Y96148735D01*
X-53316211Y96256695D01*
X-53321080Y96258419D01*
X-53321084Y96258421D01*
X-53521913Y96329538D01*
X-53521917Y96329539D01*
X-53526788Y96331264D01*
X-53531881Y96332171D01*
X-53531884Y96332172D01*
X-53741627Y96369533D01*
X-53741633Y96369534D01*
X-53746716Y96370439D01*
X-53820548Y96371341D01*
X-53964919Y96373105D01*
X-53964921Y96373105D01*
X-53970089Y96373168D01*
X-54190909Y96339378D01*
X-54403244Y96269976D01*
X-54601393Y96166826D01*
X-54605526Y96163723D01*
X-54605529Y96163721D01*
X-54775900Y96035803D01*
X-54780035Y96032698D01*
X-54934371Y95871195D01*
X-55041799Y95713712D01*
X-55096707Y95668712D01*
X-55167232Y95660541D01*
X-55230979Y95691795D01*
X-55251676Y95716279D01*
X-55332178Y95840716D01*
X-55332180Y95840719D01*
X-55334986Y95845056D01*
X-55485330Y96010282D01*
X-55489381Y96013481D01*
X-55489385Y96013485D01*
X-55656586Y96145533D01*
X-55656590Y96145535D01*
X-55660641Y96148735D01*
X-55856211Y96256695D01*
X-55861080Y96258419D01*
X-55861084Y96258421D01*
X-56061913Y96329538D01*
X-56061917Y96329539D01*
X-56066788Y96331264D01*
X-56071881Y96332171D01*
X-56071884Y96332172D01*
X-56281627Y96369533D01*
X-56281633Y96369534D01*
X-56286716Y96370439D01*
X-56360548Y96371341D01*
X-56504919Y96373105D01*
X-56504921Y96373105D01*
X-56510089Y96373168D01*
X-56730909Y96339378D01*
X-56943244Y96269976D01*
X-57141393Y96166826D01*
X-57145526Y96163723D01*
X-57145529Y96163721D01*
X-57315900Y96035803D01*
X-57320035Y96032698D01*
X-57474371Y95871195D01*
X-57600257Y95686653D01*
X-57615997Y95652743D01*
X-57669664Y95537127D01*
X-57694312Y95484028D01*
X-57754011Y95268763D01*
X-57777749Y95046638D01*
X-57777452Y95041485D01*
X-57777452Y95041482D01*
X-57767170Y94863167D01*
X-57764890Y94823618D01*
X-57763753Y94818572D01*
X-57763752Y94818566D01*
X-57731547Y94675665D01*
X-57736083Y94604813D01*
X-57765369Y94558869D01*
X-58795500Y93528738D01*
X-58857812Y93494712D01*
X-58884595Y93491833D01*
X-59514058Y93491833D01*
X-59582179Y93511835D01*
X-59628672Y93565491D01*
X-59639368Y93631002D01*
X-59637186Y93651765D01*
X-59637186Y93651768D01*
X-59636496Y93658333D01*
X-59645241Y93741536D01*
X-59655768Y93841698D01*
X-59655768Y93841700D01*
X-59656458Y93848261D01*
X-59715473Y94029889D01*
X-59810960Y94195277D01*
X-59938747Y94337199D01*
X-60093248Y94449451D01*
X-60099276Y94452135D01*
X-60099278Y94452136D01*
X-60261681Y94524442D01*
X-60261682Y94524442D01*
X-60267712Y94527127D01*
X-60361112Y94546980D01*
X-60448056Y94565461D01*
X-60448061Y94565461D01*
X-60454513Y94566833D01*
X-60516406Y94566833D01*
X-60584527Y94586835D01*
X-60631020Y94640491D01*
X-60641124Y94710765D01*
X-60611630Y94775345D01*
X-60605501Y94781928D01*
X-60599501Y94787928D01*
X-60537189Y94821954D01*
X-60510406Y94824833D01*
X-60454513Y94824833D01*
X-60448061Y94826205D01*
X-60448056Y94826205D01*
X-60361112Y94844686D01*
X-60267712Y94864539D01*
X-60261681Y94867224D01*
X-60099278Y94939530D01*
X-60099276Y94939531D01*
X-60093248Y94942215D01*
X-60087015Y94946743D01*
X-60020215Y94995277D01*
X-59938747Y95054467D01*
X-59934325Y95059378D01*
X-59815379Y95191481D01*
X-59815378Y95191482D01*
X-59810960Y95196389D01*
X-59715473Y95361777D01*
X-59656458Y95543405D01*
X-59636496Y95733333D01*
X-59648640Y95848876D01*
X-59655768Y95916698D01*
X-59655768Y95916700D01*
X-59656458Y95923261D01*
X-59715473Y96104889D01*
X-59740787Y96148735D01*
X-59801676Y96254196D01*
X-59810960Y96270277D01*
X-59938747Y96412199D01*
X-60093248Y96524451D01*
X-60099276Y96527135D01*
X-60099278Y96527136D01*
X-60261681Y96599442D01*
X-60261682Y96599442D01*
X-60267712Y96602127D01*
X-60361113Y96621980D01*
X-60448056Y96640461D01*
X-60448061Y96640461D01*
X-60454513Y96641833D01*
X-60645487Y96641833D01*
X-60651939Y96640461D01*
X-60651944Y96640461D01*
X-60738887Y96621980D01*
X-60832288Y96602127D01*
X-60838318Y96599442D01*
X-60838319Y96599442D01*
X-61000722Y96527136D01*
X-61000724Y96527135D01*
X-61006752Y96524451D01*
X-61161253Y96412199D01*
X-61289040Y96270277D01*
X-61298324Y96254196D01*
X-61359212Y96148735D01*
X-61384527Y96104889D01*
X-61443542Y95923261D01*
X-61444232Y95916700D01*
X-61444232Y95916698D01*
X-61460907Y95758041D01*
X-61487920Y95692384D01*
X-61497122Y95682116D01*
X-62050500Y95128738D01*
X-62112812Y95094712D01*
X-62139595Y95091833D01*
X-70441800Y95091833D01*
X-70509921Y95111835D01*
X-70529147Y95128176D01*
X-70529420Y95127873D01*
X-70534332Y95132296D01*
X-70538747Y95137199D01*
X-70693248Y95249451D01*
X-70699276Y95252135D01*
X-70699278Y95252136D01*
X-70861681Y95324442D01*
X-70861682Y95324442D01*
X-70867712Y95327127D01*
X-70961113Y95346980D01*
X-71048056Y95365461D01*
X-71048061Y95365461D01*
X-71054513Y95366833D01*
X-71245487Y95366833D01*
X-71251939Y95365461D01*
X-71251944Y95365461D01*
X-71338887Y95346980D01*
X-71432288Y95327127D01*
X-71438318Y95324442D01*
X-71438319Y95324442D01*
X-71600722Y95252136D01*
X-71600724Y95252135D01*
X-71606752Y95249451D01*
X-71761253Y95137199D01*
X-71765674Y95132289D01*
X-71765675Y95132288D01*
X-71869762Y95016687D01*
X-71889040Y94995277D01*
X-71984527Y94829889D01*
X-72043542Y94648261D01*
X-72044232Y94641700D01*
X-72044232Y94641698D01*
X-72062814Y94464898D01*
X-72063504Y94458333D01*
X-72062814Y94451768D01*
X-72062814Y94451765D01*
X-72060632Y94431002D01*
X-72073405Y94361164D01*
X-72121908Y94309318D01*
X-72185942Y94291833D01*
X-72422800Y94291833D01*
X-72490921Y94311835D01*
X-72510147Y94328176D01*
X-72510420Y94327873D01*
X-72515332Y94332296D01*
X-72519747Y94337199D01*
X-72674248Y94449451D01*
X-72680276Y94452135D01*
X-72680278Y94452136D01*
X-72842681Y94524442D01*
X-72842682Y94524442D01*
X-72848712Y94527127D01*
X-72942112Y94546980D01*
X-73029056Y94565461D01*
X-73029061Y94565461D01*
X-73035513Y94566833D01*
X-73226487Y94566833D01*
X-73232939Y94565461D01*
X-73232944Y94565461D01*
X-73319888Y94546980D01*
X-73413288Y94527127D01*
X-73419318Y94524442D01*
X-73419319Y94524442D01*
X-73581722Y94452136D01*
X-73581724Y94452135D01*
X-73587752Y94449451D01*
X-73742253Y94337199D01*
X-73870040Y94195277D01*
X-73965527Y94029889D01*
X-74024542Y93848261D01*
X-74025232Y93841700D01*
X-74025232Y93841698D01*
X-74035759Y93741536D01*
X-74044504Y93658333D01*
X-74043814Y93651768D01*
X-74043814Y93651765D01*
X-74041632Y93631002D01*
X-74054405Y93561164D01*
X-74102908Y93509318D01*
X-74166942Y93491833D01*
X-82441800Y93491833D01*
X-82509921Y93511835D01*
X-82529147Y93528176D01*
X-82529420Y93527873D01*
X-82534332Y93532296D01*
X-82538747Y93537199D01*
X-82632219Y93605111D01*
X-82687906Y93645570D01*
X-82687907Y93645571D01*
X-82693248Y93649451D01*
X-82699276Y93652135D01*
X-82699278Y93652136D01*
X-82861681Y93724442D01*
X-82861682Y93724442D01*
X-82867712Y93727127D01*
X-82980439Y93751088D01*
X-83048056Y93765461D01*
X-83048061Y93765461D01*
X-83054513Y93766833D01*
X-83245487Y93766833D01*
X-83251939Y93765461D01*
X-83251944Y93765461D01*
X-83319561Y93751088D01*
X-83432288Y93727127D01*
X-83438318Y93724442D01*
X-83438319Y93724442D01*
X-83600722Y93652136D01*
X-83600724Y93652135D01*
X-83606752Y93649451D01*
X-83612093Y93645571D01*
X-83612094Y93645570D01*
X-83669939Y93603543D01*
X-83736807Y93579684D01*
X-83805958Y93595765D01*
X-83855439Y93646679D01*
X-83870000Y93705479D01*
X-83870000Y97474000D01*
X-83849998Y97542121D01*
X-83796342Y97588614D01*
X-83744000Y97600000D01*
X93874000Y97600000D01*
X93942121Y97579998D01*
G37*
%TD.AperFunction*%
%TD*%
M02*
