%TF.GenerationSoftware,KiCad,Pcbnew,(6.0.0)*%
%TF.CreationDate,2023-01-18T16:53:03+01:00*%
%TF.ProjectId,backpannel_pcb_11x11_small,6261636b-7061-46e6-9e65-6c5f7063625f,rev?*%
%TF.SameCoordinates,Original*%
%TF.FileFunction,Soldermask,Top*%
%TF.FilePolarity,Negative*%
%FSLAX46Y46*%
G04 Gerber Fmt 4.6, Leading zero omitted, Abs format (unit mm)*
G04 Created by KiCad (PCBNEW (6.0.0)) date 2023-01-18 16:53:03*
%MOMM*%
%LPD*%
G01*
G04 APERTURE LIST*
G04 Aperture macros list*
%AMRoundRect*
0 Rectangle with rounded corners*
0 $1 Rounding radius*
0 $2 $3 $4 $5 $6 $7 $8 $9 X,Y pos of 4 corners*
0 Add a 4 corners polygon primitive as box body*
4,1,4,$2,$3,$4,$5,$6,$7,$8,$9,$2,$3,0*
0 Add four circle primitives for the rounded corners*
1,1,$1+$1,$2,$3*
1,1,$1+$1,$4,$5*
1,1,$1+$1,$6,$7*
1,1,$1+$1,$8,$9*
0 Add four rect primitives between the rounded corners*
20,1,$1+$1,$2,$3,$4,$5,0*
20,1,$1+$1,$4,$5,$6,$7,0*
20,1,$1+$1,$6,$7,$8,$9,0*
20,1,$1+$1,$8,$9,$2,$3,0*%
%AMFreePoly0*
4,1,22,0.500000,-0.750000,0.000000,-0.750000,0.000000,-0.745033,-0.079941,-0.743568,-0.215256,-0.701293,-0.333266,-0.622738,-0.424486,-0.514219,-0.481581,-0.384460,-0.499164,-0.250000,-0.500000,-0.250000,-0.500000,0.250000,-0.499164,0.250000,-0.499963,0.256109,-0.478152,0.396186,-0.417904,0.524511,-0.324060,0.630769,-0.204165,0.706417,-0.067858,0.745374,0.000000,0.744959,0.000000,0.750000,
0.500000,0.750000,0.500000,-0.750000,0.500000,-0.750000,$1*%
%AMFreePoly1*
4,1,20,0.000000,0.744959,0.073905,0.744508,0.209726,0.703889,0.328688,0.626782,0.421226,0.519385,0.479903,0.390333,0.500000,0.250000,0.500000,-0.250000,0.499851,-0.262216,0.476331,-0.402017,0.414519,-0.529596,0.319384,-0.634700,0.198574,-0.708877,0.061801,-0.746166,0.000000,-0.745033,0.000000,-0.750000,-0.500000,-0.750000,-0.500000,0.750000,0.000000,0.750000,0.000000,0.744959,
0.000000,0.744959,$1*%
G04 Aperture macros list end*
%ADD10C,3.000000*%
%ADD11RoundRect,0.250000X0.350000X0.450000X-0.350000X0.450000X-0.350000X-0.450000X0.350000X-0.450000X0*%
%ADD12RoundRect,0.425000X-1.075000X-0.425000X1.075000X-0.425000X1.075000X0.425000X-1.075000X0.425000X0*%
%ADD13RoundRect,0.250000X-0.450000X0.325000X-0.450000X-0.325000X0.450000X-0.325000X0.450000X0.325000X0*%
%ADD14RoundRect,0.425000X1.075000X0.425000X-1.075000X0.425000X-1.075000X-0.425000X1.075000X-0.425000X0*%
%ADD15RoundRect,0.250000X-0.475000X0.337500X-0.475000X-0.337500X0.475000X-0.337500X0.475000X0.337500X0*%
%ADD16RoundRect,0.250000X-0.350000X-0.450000X0.350000X-0.450000X0.350000X0.450000X-0.350000X0.450000X0*%
%ADD17C,2.000000*%
%ADD18O,1.500000X2.000000*%
%ADD19R,2.000000X3.000000*%
%ADD20FreePoly0,0.000000*%
%ADD21FreePoly1,0.000000*%
%ADD22R,1.700000X1.700000*%
%ADD23O,1.700000X1.700000*%
%ADD24RoundRect,0.250000X0.550000X-1.500000X0.550000X1.500000X-0.550000X1.500000X-0.550000X-1.500000X0*%
%ADD25C,1.500000*%
%ADD26R,2.000000X1.500000*%
%ADD27R,2.000000X3.800000*%
%ADD28R,1.000000X2.500000*%
%ADD29R,1.800000X1.000000*%
G04 APERTURE END LIST*
D10*
%TO.C,*%
X24887380Y13889643D03*
%TD*%
D11*
%TO.C,R10*%
X-55400000Y85658333D03*
X-57400000Y85658333D03*
%TD*%
D10*
%TO.C,*%
X75000002Y-86166669D03*
%TD*%
D12*
%TO.C,S4*%
X92266000Y-25319600D03*
X-92266000Y-25319600D03*
X-92266000Y-27819600D03*
X-92266000Y-30319600D03*
X92266000Y-30319600D03*
X92266000Y-27819600D03*
%TD*%
D13*
%TO.C,D1*%
X-26450000Y91225000D03*
X-26450000Y89175000D03*
%TD*%
D14*
%TO.C,S10*%
X-92266000Y-46986200D03*
X92266000Y-46986200D03*
X92266000Y-44486200D03*
X92266000Y-41986200D03*
X-92266000Y-41986200D03*
X-92266000Y-44486200D03*
%TD*%
D10*
%TO.C,*%
X74831071Y-52799873D03*
%TD*%
D15*
%TO.C,C3*%
X-28450000Y89162500D03*
X-28450000Y87087500D03*
%TD*%
D10*
%TO.C,*%
X41666668Y-86166669D03*
%TD*%
D12*
%TO.C,S5*%
X-92266000Y-58652800D03*
X92266000Y-58652800D03*
X-92266000Y-61152800D03*
X92266000Y-63652800D03*
X-92266000Y-63652800D03*
X92266000Y-61152800D03*
%TD*%
D11*
%TO.C,R4*%
X-61750000Y82133333D03*
X-63750000Y82133333D03*
%TD*%
D14*
%TO.C,S8*%
X-92266000Y19680200D03*
X92266000Y19680200D03*
X92266000Y22180200D03*
X-92266000Y24680200D03*
X92266000Y24680200D03*
X-92266000Y22180200D03*
%TD*%
D16*
%TO.C,R8*%
X-63750000Y93658333D03*
X-61750000Y93658333D03*
%TD*%
D10*
%TO.C,*%
X-75000001Y63833334D03*
%TD*%
D11*
%TO.C,R6*%
X-61750000Y85233333D03*
X-63750000Y85233333D03*
%TD*%
D12*
%TO.C,S3*%
X92266000Y8013600D03*
X-92266000Y8013600D03*
X-92266000Y5513600D03*
X92266000Y3013600D03*
X-92266000Y3013600D03*
X92266000Y5513600D03*
%TD*%
D10*
%TO.C,*%
X-25056310Y-36054047D03*
%TD*%
%TO.C,*%
X-41666667Y63833334D03*
%TD*%
%TO.C,*%
X-25000000Y13833333D03*
%TD*%
D12*
%TO.C,S2*%
X-92266000Y41346800D03*
X92266000Y41346800D03*
X-92266000Y38846800D03*
X-92266000Y36346800D03*
X92266000Y36346800D03*
X92266000Y38846800D03*
%TD*%
D14*
%TO.C,S9*%
X92266000Y-13653000D03*
X-92266000Y-13653000D03*
X92266000Y-11153000D03*
X92266000Y-8653000D03*
X-92266000Y-8653000D03*
X-92266000Y-11153000D03*
%TD*%
D11*
%TO.C,R3*%
X-56550000Y82133333D03*
X-58550000Y82133333D03*
%TD*%
D17*
%TO.C,J1*%
X85424000Y88360000D03*
D18*
X81024000Y88360000D03*
D19*
X80924000Y93860000D03*
X86924000Y93860000D03*
X86924000Y82860000D03*
X80924000Y82860000D03*
%TD*%
D10*
%TO.C,*%
X74831071Y63833334D03*
%TD*%
D15*
%TO.C,C1*%
X-24325000Y89187500D03*
X-24325000Y87112500D03*
%TD*%
D10*
%TO.C,*%
X-75106812Y-52833334D03*
%TD*%
%TO.C,*%
X25000001Y-36166668D03*
%TD*%
D12*
%TO.C,S6*%
X92266000Y-91986000D03*
X-92266000Y-91986000D03*
X-92266000Y-94486000D03*
X92266000Y-96986000D03*
X-92266000Y-96986000D03*
X92266000Y-94486000D03*
%TD*%
D16*
%TO.C,R9*%
X-63750000Y96258333D03*
X-61750000Y96258333D03*
%TD*%
D14*
%TO.C,S11*%
X92266000Y-80319400D03*
X-92266000Y-80319400D03*
X92266000Y-77819400D03*
X-92266000Y-75319400D03*
X92266000Y-75319400D03*
X-92266000Y-77819400D03*
%TD*%
D11*
%TO.C,R1*%
X-51350000Y82133333D03*
X-53350000Y82133333D03*
%TD*%
D10*
%TO.C,*%
X-75000001Y30500000D03*
%TD*%
D12*
%TO.C,S1*%
X-92266000Y74670000D03*
X92266000Y74670000D03*
X-92266000Y72170000D03*
X-92266000Y69670000D03*
X92266000Y69670000D03*
X92266000Y72170000D03*
%TD*%
D14*
%TO.C,S7*%
X92266000Y53013400D03*
X-92266000Y53013400D03*
X92266000Y55513400D03*
X92266000Y58013400D03*
X-92266000Y58013400D03*
X-92266000Y55513400D03*
%TD*%
D20*
%TO.C,JP1*%
X-50600000Y85658333D03*
D21*
X-49300000Y85658333D03*
%TD*%
D22*
%TO.C,J2*%
X-53875000Y89933333D03*
D23*
X-56415000Y89933333D03*
X-53875000Y92473333D03*
X-56415000Y92473333D03*
X-53875000Y95013333D03*
X-56415000Y95013333D03*
%TD*%
D10*
%TO.C,*%
X74831071Y30635468D03*
%TD*%
D16*
%TO.C,R7*%
X-63750000Y91058333D03*
X-61750000Y91058333D03*
%TD*%
D24*
%TO.C,C2*%
X-43375000Y86375000D03*
X-43375000Y91975000D03*
%TD*%
D25*
%TO.C,R2*%
X-1689333Y88304666D03*
X1710667Y88304666D03*
%TD*%
D11*
%TO.C,R5*%
X-61750000Y88458333D03*
X-63750000Y88458333D03*
%TD*%
D10*
%TO.C,*%
X41666668Y63833334D03*
%TD*%
D26*
%TO.C,U1*%
X-31400000Y86850000D03*
D27*
X-37700000Y89150000D03*
D26*
X-31400000Y89150000D03*
X-31400000Y91450000D03*
%TD*%
D28*
%TO.C,U2*%
X-83100000Y81033333D03*
X-81100000Y81033333D03*
X-79100000Y81033333D03*
X-77100000Y81033333D03*
X-75100000Y81033333D03*
X-73100000Y81033333D03*
X-71100000Y81033333D03*
X-69100000Y81033333D03*
D29*
X-67600000Y83633333D03*
X-67600000Y85633333D03*
X-67600000Y87633333D03*
X-67600000Y89633333D03*
X-67600000Y91633333D03*
X-67600000Y93633333D03*
D28*
X-69100000Y96233333D03*
X-71100000Y96233333D03*
X-73100000Y96233333D03*
X-75100000Y96233333D03*
X-77100000Y96233333D03*
X-79100000Y96233333D03*
X-81100000Y96233333D03*
X-83100000Y96233333D03*
%TD*%
D10*
%TO.C,*%
X-75106812Y-86154223D03*
%TD*%
%TO.C,*%
X-41785924Y-86154223D03*
%TD*%
M02*
