M48
; DRILL file {KiCad (6.0.0)} date Wed Jan 18 16:53:07 2023
; FORMAT={-:-/ absolute / inch / decimal}
; #@! TF.CreationDate,2023-01-18T16:53:07+01:00
; #@! TF.GenerationSoftware,Kicad,Pcbnew,(6.0.0)
; #@! TF.FileFunction,Plated,1,2,PTH
FMAT,2
INCH
; #@! TA.AperFunction,Plated,PTH,ViaDrill
T1C0.0157
; #@! TA.AperFunction,Plated,PTH,ComponentDrill
T2C0.0315
; #@! TA.AperFunction,Plated,PTH,ComponentDrill
T3C0.0394
%
G90
G05
T1
X-3.5728Y-1.8512
X-3.5728Y-2.3102
X-3.5728Y-3.1634
X-3.5728Y-3.6217
X-3.5724Y0.7732
X-3.572Y-0.5394
X-3.5717Y1.6283
X-3.5717Y0.3138
X-3.5717Y-0.9988
X-3.5713Y2.9406
X-3.5705Y2.087
X-3.2736Y3.6558
X-3.2726Y3.2641
X-3.1949Y3.6243
X-3.1929Y3.2651
X-3.1142Y3.2651
X-2.9587Y3.585
X-2.8792Y3.6873
X-2.8012Y3.7188
X-2.628Y3.7897
X-2.5571Y3.2336
X-2.4311Y3.1864
X-2.3839Y3.769
X-2.3839Y3.6873
X-2.3839Y3.585
X-2.3839Y3.4826
X-2.3839Y3.3556
X-2.1004Y3.1834
X-1.7087Y3.7244
X-1.1713Y3.4193
X-1.0413Y3.4291
X3.1328Y3.2622
X3.186Y3.1904
X3.2381Y3.2622
X3.372Y3.2622
X3.4222Y3.1913
X3.4734Y3.2622
X3.5669Y2.9398
X3.5669Y2.8412
X3.5669Y2.1824
X3.5669Y2.0874
X3.5669Y1.628
X3.5669Y1.5289
X3.5669Y0.8753
X3.5669Y0.7756
X3.5669Y0.3165
X3.5669Y0.2178
X3.5669Y-0.4396
X3.5669Y-0.5381
X3.5669Y-0.9953
X3.5669Y-1.0971
X3.5669Y-1.7507
X3.5669Y-1.8491
X3.5669Y-2.3097
X3.5669Y-2.4081
X3.5669Y-3.0617
X3.5669Y-3.1622
X3.5669Y-3.6207
T2
X-0.0665Y3.4766
X0.0673Y3.4766
T3
X-2.2211Y3.7407
X-2.2211Y3.6407
X-2.2211Y3.5407
X-2.1211Y3.7407
X-2.1211Y3.6407
X-2.1211Y3.5407
T0
M30
