%TF.GenerationSoftware,KiCad,Pcbnew,(6.0.0)*%
%TF.CreationDate,2023-08-02T11:37:25+02:00*%
%TF.ProjectId,backpannel_pcb_13x13_big,6261636b-7061-46e6-9e65-6c5f7063625f,rev?*%
%TF.SameCoordinates,Original*%
%TF.FileFunction,Soldermask,Bot*%
%TF.FilePolarity,Negative*%
%FSLAX46Y46*%
G04 Gerber Fmt 4.6, Leading zero omitted, Abs format (unit mm)*
G04 Created by KiCad (PCBNEW (6.0.0)) date 2023-08-02 11:37:25*
%MOMM*%
%LPD*%
G01*
G04 APERTURE LIST*
%ADD10C,3.000000*%
%ADD11O,1.500000X2.000000*%
%ADD12C,2.000000*%
%ADD13C,8.400000*%
%ADD14R,1.700000X1.700000*%
%ADD15O,1.700000X1.700000*%
%ADD16C,1.500000*%
G04 APERTURE END LIST*
D10*
%TO.C,REF\u002A\u002A*%
X499999650Y-512480360D03*
%TD*%
D11*
%TO.C,J2*%
X417900000Y-321500000D03*
D12*
X413500000Y-321500000D03*
%TD*%
D10*
%TO.C,REF\u002A\u002A*%
X399999660Y-779147000D03*
%TD*%
%TO.C,REF\u002A\u002A*%
X399999660Y-412480370D03*
%TD*%
%TO.C,REF\u002A\u002A*%
X599999640Y-779147000D03*
%TD*%
%TO.C,REF\u002A\u002A*%
X333333330Y-345790000D03*
%TD*%
%TO.C,REF\u002A\u002A*%
X699999630Y-779147000D03*
%TD*%
%TO.C,REF\u002A\u002A*%
X333333000Y-412480370D03*
%TD*%
%TO.C,REF\u002A\u002A*%
X499999650Y-712480340D03*
%TD*%
%TO.C,REF\u002A\u002A*%
X499999650Y-612480350D03*
%TD*%
%TO.C,REF\u002A\u002A*%
X599999640Y-512480360D03*
%TD*%
%TO.C,REF\u002A\u002A*%
X766666290Y-612480350D03*
%TD*%
%TO.C,REF\u002A\u002A*%
X599999640Y-345813710D03*
%TD*%
%TO.C,REF\u002A\u002A*%
X333333000Y-712480340D03*
%TD*%
%TO.C,REF\u002A\u002A*%
X433332990Y-512480360D03*
%TD*%
%TO.C,REF\u002A\u002A*%
X766666290Y-412480370D03*
%TD*%
%TO.C,REF\u002A\u002A*%
X499999650Y-345813710D03*
%TD*%
D13*
%TO.C,REF\u002A\u002A*%
X549990000Y-320700000D03*
%TD*%
D10*
%TO.C,REF\u002A\u002A*%
X499999650Y-779147000D03*
%TD*%
%TO.C,REF\u002A\u002A*%
X433332990Y-612480350D03*
%TD*%
%TO.C,REF\u002A\u002A*%
X699999630Y-712480340D03*
%TD*%
%TO.C,REF\u002A\u002A*%
X599999640Y-612480350D03*
%TD*%
%TO.C,REF\u002A\u002A*%
X333333000Y-779147000D03*
%TD*%
%TO.C,REF\u002A\u002A*%
X399999660Y-345813710D03*
%TD*%
%TO.C,REF\u002A\u002A*%
X599999640Y-712480340D03*
%TD*%
%TO.C,REF\u002A\u002A*%
X766600000Y-712500000D03*
%TD*%
%TO.C,REF\u002A\u002A*%
X333333000Y-512480360D03*
%TD*%
%TO.C,REF\u002A\u002A*%
X699999630Y-412480370D03*
%TD*%
%TO.C,REF\u002A\u002A*%
X333333000Y-612480350D03*
%TD*%
%TO.C,REF\u002A\u002A*%
X499999650Y-412480370D03*
%TD*%
%TO.C,REF\u002A\u002A*%
X766100000Y-512480360D03*
%TD*%
D14*
%TO.C,J1*%
X394770000Y-323040000D03*
D15*
X392230000Y-323040000D03*
X394770000Y-320500000D03*
X392230000Y-320500000D03*
X394770000Y-317960000D03*
X392230000Y-317960000D03*
%TD*%
D10*
%TO.C,REF\u002A\u002A*%
X699999630Y-345813710D03*
%TD*%
%TO.C,REF\u002A\u002A*%
X399999660Y-712480340D03*
%TD*%
%TO.C,REF\u002A\u002A*%
X766666290Y-345813710D03*
%TD*%
%TO.C,REF\u002A\u002A*%
X666666300Y-612480350D03*
%TD*%
%TO.C,REF\u002A\u002A*%
X599999640Y-412480370D03*
%TD*%
%TO.C,REF\u002A\u002A*%
X766666290Y-779147000D03*
%TD*%
D16*
%TO.C,R2*%
X548312200Y-334752600D03*
X551712200Y-334752600D03*
%TD*%
D10*
%TO.C,REF\u002A\u002A*%
X666666300Y-512480360D03*
%TD*%
M02*
