%TF.GenerationSoftware,KiCad,Pcbnew,(6.0.0)*%
%TF.CreationDate,2023-08-02T11:37:25+02:00*%
%TF.ProjectId,backpannel_pcb_13x13_big,6261636b-7061-46e6-9e65-6c5f7063625f,rev?*%
%TF.SameCoordinates,Original*%
%TF.FileFunction,Soldermask,Top*%
%TF.FilePolarity,Negative*%
%FSLAX46Y46*%
G04 Gerber Fmt 4.6, Leading zero omitted, Abs format (unit mm)*
G04 Created by KiCad (PCBNEW (6.0.0)) date 2023-08-02 11:37:25*
%MOMM*%
%LPD*%
G01*
G04 APERTURE LIST*
G04 Aperture macros list*
%AMRoundRect*
0 Rectangle with rounded corners*
0 $1 Rounding radius*
0 $2 $3 $4 $5 $6 $7 $8 $9 X,Y pos of 4 corners*
0 Add a 4 corners polygon primitive as box body*
4,1,4,$2,$3,$4,$5,$6,$7,$8,$9,$2,$3,0*
0 Add four circle primitives for the rounded corners*
1,1,$1+$1,$2,$3*
1,1,$1+$1,$4,$5*
1,1,$1+$1,$6,$7*
1,1,$1+$1,$8,$9*
0 Add four rect primitives between the rounded corners*
20,1,$1+$1,$2,$3,$4,$5,0*
20,1,$1+$1,$4,$5,$6,$7,0*
20,1,$1+$1,$6,$7,$8,$9,0*
20,1,$1+$1,$8,$9,$2,$3,0*%
%AMFreePoly0*
4,1,22,0.500000,-0.750000,0.000000,-0.750000,0.000000,-0.745033,-0.079941,-0.743568,-0.215256,-0.701293,-0.333266,-0.622738,-0.424486,-0.514219,-0.481581,-0.384460,-0.499164,-0.250000,-0.500000,-0.250000,-0.500000,0.250000,-0.499164,0.250000,-0.499963,0.256109,-0.478152,0.396186,-0.417904,0.524511,-0.324060,0.630769,-0.204165,0.706417,-0.067858,0.745374,0.000000,0.744959,0.000000,0.750000,
0.500000,0.750000,0.500000,-0.750000,0.500000,-0.750000,$1*%
%AMFreePoly1*
4,1,20,0.000000,0.744959,0.073905,0.744508,0.209726,0.703889,0.328688,0.626782,0.421226,0.519385,0.479903,0.390333,0.500000,0.250000,0.500000,-0.250000,0.499851,-0.262216,0.476331,-0.402017,0.414519,-0.529596,0.319384,-0.634700,0.198574,-0.708877,0.061801,-0.746166,0.000000,-0.745033,0.000000,-0.750000,-0.500000,-0.750000,-0.500000,0.750000,0.000000,0.750000,0.000000,0.744959,
0.000000,0.744959,$1*%
G04 Aperture macros list end*
%ADD10RoundRect,0.250000X0.350000X0.450000X-0.350000X0.450000X-0.350000X-0.450000X0.350000X-0.450000X0*%
%ADD11C,3.000000*%
%ADD12O,1.500000X2.000000*%
%ADD13C,2.000000*%
%ADD14R,2.000000X3.000000*%
%ADD15RoundRect,0.425000X1.075000X0.425000X-1.075000X0.425000X-1.075000X-0.425000X1.075000X-0.425000X0*%
%ADD16RoundRect,0.425000X-1.075000X-0.425000X1.075000X-0.425000X1.075000X0.425000X-1.075000X0.425000X0*%
%ADD17RoundRect,0.250000X-0.350000X-0.450000X0.350000X-0.450000X0.350000X0.450000X-0.350000X0.450000X0*%
%ADD18C,8.400000*%
%ADD19RoundRect,0.250000X-0.450000X0.350000X-0.450000X-0.350000X0.450000X-0.350000X0.450000X0.350000X0*%
%ADD20FreePoly0,180.000000*%
%ADD21FreePoly1,180.000000*%
%ADD22RoundRect,0.250000X0.325000X0.450000X-0.325000X0.450000X-0.325000X-0.450000X0.325000X-0.450000X0*%
%ADD23R,2.000000X1.500000*%
%ADD24R,2.000000X3.800000*%
%ADD25R,1.000000X2.500000*%
%ADD26R,1.800000X1.000000*%
%ADD27R,1.700000X1.700000*%
%ADD28O,1.700000X1.700000*%
%ADD29RoundRect,0.250000X-0.475000X0.337500X-0.475000X-0.337500X0.475000X-0.337500X0.475000X0.337500X0*%
%ADD30RoundRect,0.250000X0.550000X-1.500000X0.550000X1.500000X-0.550000X1.500000X-0.550000X-1.500000X0*%
%ADD31RoundRect,0.250000X-0.337500X-0.475000X0.337500X-0.475000X0.337500X0.475000X-0.337500X0.475000X0*%
%ADD32C,1.500000*%
G04 APERTURE END LIST*
D10*
%TO.C,R5*%
X388000000Y-326000000D03*
X386000000Y-326000000D03*
%TD*%
D11*
%TO.C,REF\u002A\u002A*%
X499999650Y-512480360D03*
%TD*%
D12*
%TO.C,J2*%
X417900000Y-321500000D03*
D13*
X413500000Y-321500000D03*
D14*
X412000000Y-327000000D03*
X418000000Y-327000000D03*
X412000000Y-316000000D03*
X418000000Y-316000000D03*
%TD*%
D11*
%TO.C,REF\u002A\u002A*%
X399999660Y-779147000D03*
%TD*%
%TO.C,REF\u002A\u002A*%
X399999660Y-412480370D03*
%TD*%
%TO.C,REF\u002A\u002A*%
X599999640Y-779147000D03*
%TD*%
D15*
%TO.C,S2*%
X332750000Y-398278300D03*
X767300000Y-398278300D03*
X767300000Y-395778300D03*
X332750000Y-393278300D03*
X767300000Y-393278300D03*
X332750000Y-395778300D03*
%TD*%
D16*
%TO.C,S1*%
X332700000Y-359945000D03*
X767250000Y-359945000D03*
X332700000Y-362445000D03*
X332700000Y-364945000D03*
X767250000Y-364945000D03*
X767250000Y-362445000D03*
%TD*%
D11*
%TO.C,REF\u002A\u002A*%
X333333330Y-345790000D03*
%TD*%
%TO.C,REF\u002A\u002A*%
X699999630Y-779147000D03*
%TD*%
%TO.C,REF\u002A\u002A*%
X333333000Y-412480370D03*
%TD*%
D16*
%TO.C,S3*%
X332700000Y-426611600D03*
X767250000Y-426611600D03*
X332700000Y-429111600D03*
X332700000Y-431611600D03*
X767250000Y-431611600D03*
X767250000Y-429111600D03*
%TD*%
D11*
%TO.C,REF\u002A\u002A*%
X499999650Y-712480340D03*
%TD*%
%TO.C,REF\u002A\u002A*%
X499999650Y-612480350D03*
%TD*%
%TO.C,REF\u002A\u002A*%
X599999640Y-512480360D03*
%TD*%
%TO.C,REF\u002A\u002A*%
X766666290Y-612480350D03*
%TD*%
%TO.C,REF\u002A\u002A*%
X599999640Y-345813710D03*
%TD*%
D15*
%TO.C,S8*%
X767300000Y-598278100D03*
X332750000Y-598278100D03*
X767300000Y-595778100D03*
X332750000Y-593278100D03*
X767300000Y-593278100D03*
X332750000Y-595778100D03*
%TD*%
D17*
%TO.C,R1*%
X386000000Y-336000000D03*
X388000000Y-336000000D03*
%TD*%
D11*
%TO.C,REF\u002A\u002A*%
X333333000Y-712480340D03*
%TD*%
%TO.C,REF\u002A\u002A*%
X433332990Y-512480360D03*
%TD*%
%TO.C,REF\u002A\u002A*%
X766666290Y-412480370D03*
%TD*%
%TO.C,REF\u002A\u002A*%
X499999650Y-345813710D03*
%TD*%
D18*
%TO.C,REF\u002A\u002A*%
X549990000Y-320700000D03*
%TD*%
D11*
%TO.C,REF\u002A\u002A*%
X499999650Y-779147000D03*
%TD*%
%TO.C,REF\u002A\u002A*%
X433332990Y-612480350D03*
%TD*%
D19*
%TO.C,R3*%
X391500000Y-336500000D03*
X391500000Y-338500000D03*
%TD*%
D15*
%TO.C,S12*%
X767300000Y-731611300D03*
X332750000Y-731611300D03*
X767300000Y-729111300D03*
X332750000Y-726611300D03*
X767300000Y-726611300D03*
X332750000Y-729111300D03*
%TD*%
D11*
%TO.C,REF\u002A\u002A*%
X699999630Y-712480340D03*
%TD*%
D16*
%TO.C,S9*%
X332700000Y-626611400D03*
X767250000Y-626611400D03*
X332700000Y-629111400D03*
X767250000Y-631611400D03*
X332700000Y-631611400D03*
X767250000Y-629111400D03*
%TD*%
D11*
%TO.C,REF\u002A\u002A*%
X599999640Y-612480350D03*
%TD*%
D20*
%TO.C,JP1*%
X368150000Y-339500000D03*
D21*
X366850000Y-339500000D03*
%TD*%
D11*
%TO.C,REF\u002A\u002A*%
X333333000Y-779147000D03*
%TD*%
D15*
%TO.C,S4*%
X332750000Y-464944900D03*
X767300000Y-464944900D03*
X767300000Y-462444900D03*
X332750000Y-459944900D03*
X767300000Y-459944900D03*
X332750000Y-462444900D03*
%TD*%
%TO.C,S10*%
X767300000Y-664944700D03*
X332750000Y-664944700D03*
X767300000Y-662444700D03*
X332750000Y-659944700D03*
X767300000Y-659944700D03*
X332750000Y-662444700D03*
%TD*%
D17*
%TO.C,R8*%
X386000000Y-320000000D03*
X388000000Y-320000000D03*
%TD*%
D11*
%TO.C,REF\u002A\u002A*%
X399999660Y-345813710D03*
%TD*%
%TO.C,REF\u002A\u002A*%
X599999640Y-712480340D03*
%TD*%
%TO.C,REF\u002A\u002A*%
X766600000Y-712500000D03*
%TD*%
%TO.C,REF\u002A\u002A*%
X333333000Y-512480360D03*
%TD*%
D22*
%TO.C,D1*%
X405271000Y-328039000D03*
X403221000Y-328039000D03*
%TD*%
D11*
%TO.C,REF\u002A\u002A*%
X699999630Y-412480370D03*
%TD*%
D16*
%TO.C,S11*%
X767250000Y-693278000D03*
X332700000Y-693278000D03*
X332700000Y-695778000D03*
X767250000Y-698278000D03*
X332700000Y-698278000D03*
X767250000Y-695778000D03*
%TD*%
D23*
%TO.C,U1*%
X407650000Y-335800000D03*
X407650000Y-333500000D03*
D24*
X401350000Y-333500000D03*
D23*
X407650000Y-331200000D03*
%TD*%
D25*
%TO.C,U2*%
X366000000Y-333025000D03*
X368000000Y-333025000D03*
X370000000Y-333025000D03*
X372000000Y-333025000D03*
X374000000Y-333025000D03*
X376000000Y-333025000D03*
X378000000Y-333025000D03*
X380000000Y-333025000D03*
D26*
X381500000Y-330425000D03*
X381500000Y-328425000D03*
X381500000Y-326425000D03*
X381500000Y-324425000D03*
X381500000Y-322425000D03*
X381500000Y-320425000D03*
D25*
X380000000Y-317825000D03*
X378000000Y-317825000D03*
X376000000Y-317825000D03*
X374000000Y-317825000D03*
X372000000Y-317825000D03*
X370000000Y-317825000D03*
X368000000Y-317825000D03*
X366000000Y-317825000D03*
%TD*%
D16*
%TO.C,S5*%
X767250000Y-493278200D03*
X332700000Y-493278200D03*
X332700000Y-495778200D03*
X332700000Y-498278200D03*
X767250000Y-498278200D03*
X767250000Y-495778200D03*
%TD*%
D11*
%TO.C,REF\u002A\u002A*%
X333333000Y-612480350D03*
%TD*%
%TO.C,REF\u002A\u002A*%
X499999650Y-412480370D03*
%TD*%
%TO.C,REF\u002A\u002A*%
X766100000Y-512480360D03*
%TD*%
D10*
%TO.C,R4*%
X388000000Y-338500000D03*
X386000000Y-338500000D03*
%TD*%
D27*
%TO.C,J1*%
X394770000Y-323040000D03*
D28*
X392230000Y-323040000D03*
X394770000Y-320500000D03*
X392230000Y-320500000D03*
X394770000Y-317960000D03*
X392230000Y-317960000D03*
%TD*%
D16*
%TO.C,S13*%
X332700000Y-759944600D03*
X767250000Y-759944600D03*
X332700000Y-762444600D03*
X767250000Y-764944600D03*
X332700000Y-764944600D03*
X767250000Y-762444600D03*
%TD*%
D17*
%TO.C,R9*%
X386000000Y-317000000D03*
X388000000Y-317000000D03*
%TD*%
D29*
%TO.C,C1*%
X410977000Y-332335500D03*
X410977000Y-334410500D03*
%TD*%
D30*
%TO.C,C2*%
X395000000Y-333300000D03*
X395000000Y-327700000D03*
%TD*%
D11*
%TO.C,REF\u002A\u002A*%
X699999630Y-345813710D03*
%TD*%
%TO.C,REF\u002A\u002A*%
X399999660Y-712480340D03*
%TD*%
D31*
%TO.C,C3*%
X385962500Y-332000000D03*
X388037500Y-332000000D03*
%TD*%
D11*
%TO.C,REF\u002A\u002A*%
X766666290Y-345813710D03*
%TD*%
D17*
%TO.C,R7*%
X386000000Y-323000000D03*
X388000000Y-323000000D03*
%TD*%
D11*
%TO.C,REF\u002A\u002A*%
X666666300Y-612480350D03*
%TD*%
D10*
%TO.C,R6*%
X386000000Y-329000000D03*
X388000000Y-329000000D03*
%TD*%
D11*
%TO.C,REF\u002A\u002A*%
X599999640Y-412480370D03*
%TD*%
D15*
%TO.C,S6*%
X767300000Y-531611500D03*
X332750000Y-531611500D03*
X767300000Y-529111500D03*
X767300000Y-526611500D03*
X332750000Y-526611500D03*
X332750000Y-529111500D03*
%TD*%
D11*
%TO.C,REF\u002A\u002A*%
X766666290Y-779147000D03*
%TD*%
D32*
%TO.C,R2*%
X548312200Y-334752600D03*
X551712200Y-334752600D03*
%TD*%
D17*
%TO.C,R10*%
X366500000Y-336500000D03*
X368500000Y-336500000D03*
%TD*%
D11*
%TO.C,REF\u002A\u002A*%
X666666300Y-512480360D03*
%TD*%
D16*
%TO.C,S7*%
X767250000Y-559944800D03*
X332700000Y-559944800D03*
X332700000Y-562444800D03*
X332700000Y-564944800D03*
X767250000Y-564944800D03*
X767250000Y-562444800D03*
%TD*%
M02*
