M48
; DRILL file {KiCad (6.0.0)} date Wed Aug  2 11:37:22 2023
; FORMAT={-:-/ absolute / metric / decimal}
; #@! TF.CreationDate,2023-08-02T11:37:22+02:00
; #@! TF.GenerationSoftware,Kicad,Pcbnew,(6.0.0)
; #@! TF.FileFunction,MixedPlating,1,2
FMAT,2
METRIC
; #@! TA.AperFunction,Plated,PTH,ViaDrill
T1C0.400
; #@! TA.AperFunction,Plated,PTH,ComponentDrill
T2C0.800
; #@! TA.AperFunction,Plated,PTH,ComponentDrill
T3C1.000
; #@! TA.AperFunction,NonPlated,NPTH,ComponentDrill
T4C1.500
; #@! TA.AperFunction,NonPlated,NPTH,ComponentDrill
T5C2.000
; #@! TA.AperFunction,NonPlated,NPTH,ComponentDrill
T6C3.000
; #@! TA.AperFunction,NonPlated,NPTH,ComponentDrill
T7C8.400
%
G90
G05
T1
X334.2Y-360.0
X334.3Y-398.3
X334.3Y-426.6
X334.3Y-465.0
X334.3Y-493.3
X334.4Y-531.6
X334.4Y-560.0
X334.4Y-598.3
X334.4Y-626.7
X334.4Y-665.0
X334.4Y-693.3
X334.4Y-731.5
X334.4Y-759.9
X366.0Y-320.0
X366.0Y-331.0
X368.0Y-322.0
X370.0Y-331.0
X374.0Y-323.0
X376.0Y-321.0
X381.5Y-317.0
X384.5Y-317.0
X388.0Y-334.0
X389.5Y-320.0
X389.5Y-323.0
X389.5Y-326.0
X389.5Y-329.0
X393.5Y-327.0
X396.5Y-327.0
X407.5Y-337.5
X407.5Y-339.5
X409.558Y-335.799
X410.152Y-315.925
X412.0Y-313.5
X413.962Y-315.925
X416.318Y-315.935
X418.0Y-313.5
X419.718Y-315.935
X765.5Y-360.0
X765.5Y-426.6
X765.5Y-493.3
X765.5Y-560.0
X765.5Y-626.6
X765.5Y-693.3
X765.5Y-759.9
X765.6Y-398.4
X765.6Y-465.0
X765.6Y-531.6
X765.6Y-598.3
X765.6Y-665.0
X765.6Y-731.6
T2
X548.312Y-334.753
X551.712Y-334.753
T3
X392.23Y-317.96
X392.23Y-320.5
X392.23Y-323.04
X394.77Y-317.96
X394.77Y-320.5
X394.77Y-323.04
T5
X413.5Y-321.5
T6
X333.333Y-412.48
X333.333Y-512.48
X333.333Y-612.48
X333.333Y-712.48
X333.333Y-779.147
X333.333Y-345.79
X400.0Y-345.814
X400.0Y-412.48
X400.0Y-712.48
X400.0Y-779.147
X433.333Y-512.48
X433.333Y-612.48
X500.0Y-345.814
X500.0Y-412.48
X500.0Y-512.48
X500.0Y-612.48
X500.0Y-712.48
X500.0Y-779.147
X600.0Y-345.814
X600.0Y-412.48
X600.0Y-512.48
X600.0Y-612.48
X600.0Y-712.48
X600.0Y-779.147
X666.666Y-512.48
X666.666Y-612.48
X700.0Y-345.814
X700.0Y-412.48
X700.0Y-712.48
X700.0Y-779.147
X766.1Y-512.48
X766.6Y-712.5
X766.666Y-345.814
X766.666Y-412.48
X766.666Y-612.48
X766.666Y-779.147
T7
X549.99Y-320.7
T4
G00X417.9Y-321.25
M15
G01X417.9Y-321.75
M16
G05
T0
M30
